<svg width="49" height="42" viewBox="0 0 49 42" fill="none" xmlns="http://www.w3.org/2000/svg">
<path d="M45.5 12.918C45.5 11.4766 45.304 10.2042 44.9121 9.10091C44.5202 7.99761 44.0189 7.1212 43.4082 6.47168C42.7975 5.82216 42.0547 5.29275 41.1797 4.88346C40.3047 4.47418 39.4479 4.19835 38.6094 4.05599C37.7708 3.91363 36.8776 3.84245 35.9297 3.84245C34.9818 3.84245 33.9609 4.06934 32.8672 4.52311C31.7734 4.97689 30.7663 5.54633 29.8457 6.23145C28.9251 6.91656 28.1367 7.55718 27.4805 8.15332C26.8242 8.74946 26.2773 9.29666 25.8398 9.79492C25.5117 10.1864 25.0651 10.3822 24.5 10.3822C23.9349 10.3822 23.4883 10.1864 23.1602 9.79492C22.7227 9.29666 22.1758 8.74946 21.5195 8.15332C20.8633 7.55718 20.0749 6.91656 19.1543 6.23145C18.2337 5.54633 17.2266 4.97689 16.1328 4.52311C15.0391 4.06934 14.0182 3.84245 13.0703 3.84245C12.1224 3.84245 11.2292 3.91363 10.3906 4.05599C9.55208 4.19835 8.69531 4.47418 7.82031 4.88346C6.94531 5.29275 6.20247 5.82216 5.5918 6.47168C4.98112 7.1212 4.47982 7.99761 4.08789 9.10091C3.69596 10.2042 3.5 11.4766 3.5 12.918C3.5 15.9076 5.20443 19.0662 8.61328 22.3939L24.5 37.3418L40.3594 22.4206C43.7865 19.0751 45.5 15.9076 45.5 12.918ZM49 12.918C49 16.8507 46.9128 20.8546 42.7383 24.9297L25.7031 40.9453C25.375 41.2656 24.974 41.4258 24.5 41.4258C24.026 41.4258 23.625 41.2656 23.2969 40.9453L6.23438 24.8763C6.05208 24.7339 5.80143 24.5026 5.48242 24.1823C5.16341 23.862 4.65755 23.2792 3.96484 22.4339C3.27214 21.5887 2.65234 20.7211 2.10547 19.8314C1.55859 18.9416 1.07096 17.865 0.642578 16.6016C0.214193 15.3381 0 14.1102 0 12.918C0 9.00304 1.15755 5.94227 3.47266 3.73568C5.78776 1.52908 8.98698 0.425781 13.0703 0.425781C14.2005 0.425781 15.3535 0.617079 16.5293 0.999674C17.7051 1.38227 18.7988 1.89833 19.8105 2.54785C20.8223 3.19737 21.6927 3.80686 22.4219 4.3763C23.151 4.94575 23.8438 5.55078 24.5 6.19141C25.1562 5.55078 25.849 4.94575 26.5781 4.3763C27.3073 3.80686 28.1777 3.19737 29.1895 2.54785C30.2012 1.89833 31.2949 1.38227 32.4707 0.999674C33.6465 0.617079 34.7995 0.425781 35.9297 0.425781C40.013 0.425781 43.2122 1.52908 45.5273 3.73568C47.8424 5.94227 49 9.00304 49 12.918Z" fill="white"/>
</svg>
