<svg width="262" height="347" viewBox="0 0 262 347" fill="none" xmlns="http://www.w3.org/2000/svg">
<path opacity="0.04" d="M460.87 -84.7351C345.615 -397.24 -0.755564 75.0229 227.563 122.279C341.161 145.739 270.879 365.815 388.094 359.255C505.31 352.695 495.186 253.477 552.604 155.078C624.773 32.5476 491.396 -1.98205 460.87 -84.7351Z" stroke="url(#paint0_linear_7025_1884)" stroke-miterlimit="10"/>
<path opacity="0.07" d="M466.749 -87.1533C345.793 -380.372 5.31259 59.5094 222.45 122.14C329.476 153.021 283.666 369.587 396.976 356.353C510.188 343.233 509.179 246.819 556.588 150.536C615.721 30.4409 499.695 -7.27844 466.749 -87.1533Z" stroke="url(#paint1_linear_7025_1884)" stroke-miterlimit="10"/>
<path opacity="0.11" d="M472.612 -89.5708C346.569 -363.364 11.1258 43.7261 217.335 122.043C317.675 160.156 296.444 373.319 405.841 353.468C515.115 333.788 523.352 240.31 560.564 146.011C606.891 28.5809 508.052 -12.5085 472.612 -89.5708Z" stroke="url(#paint2_linear_7025_1884)" stroke-miterlimit="10"/>
<path opacity="0.15" d="M478.516 -91.9923C348.077 -346.368 16.7843 27.611 212.255 121.95C305.811 167.115 309.232 377.056 414.707 350.579C520.035 324.389 537.534 233.796 564.541 141.433C598.07 26.7499 516.606 -17.6605 478.516 -91.9923Z" stroke="url(#paint3_linear_7025_1884)" stroke-miterlimit="10"/>
<path opacity="0.19" d="M484.361 -94.4098C350.148 -329.418 22.2846 11.0978 207.115 121.853C293.935 173.865 322.017 380.788 423.555 347.702C524.961 314.976 551.73 227.418 568.523 136.884C589.271 24.9883 525.281 -22.7676 484.361 -94.4098Z" stroke="url(#paint4_linear_7025_1884)" stroke-miterlimit="10"/>
<path opacity="0.23" d="M490.23 -96.8276C353.006 -312.599 27.8254 -5.84188 202.007 121.756C282.06 180.402 334.81 384.529 432.459 344.792C529.879 305.523 565.975 221.056 572.505 132.334C580.537 23.284 534.104 -27.8339 490.23 -96.8276Z" stroke="url(#paint5_linear_7025_1884)" stroke-miterlimit="10"/>
<path opacity="0.26" d="M496.107 -99.2501C356.7 -295.981 33.5298 -23.2128 196.899 121.654C270.274 186.72 347.594 388.256 441.371 341.927C534.804 296.114 580.252 214.723 576.487 127.779C571.868 21.624 543.114 -32.9214 496.107 -99.2501Z" stroke="url(#paint6_linear_7025_1884)" stroke-miterlimit="10"/>
<path opacity="0.3" d="M501.978 -101.668C361.136 -279.678 39.4995 -40.9888 191.786 121.557C258.614 192.896 360.373 391.997 450.204 339.042C539.724 286.653 594.639 208.418 580.463 123.222C563.285 19.9854 552.357 -38.045 501.978 -101.668Z" stroke="url(#paint7_linear_7025_1884)" stroke-miterlimit="10"/>
<path opacity="0.34" d="M507.848 -104.093C366.308 -263.786 45.8449 -58.9942 186.671 121.452C247.108 198.9 373.158 395.721 459.035 336.157C544.633 277.258 609.082 202.098 584.438 118.68C554.814 18.3387 561.746 -43.2751 507.848 -104.093Z" stroke="url(#paint8_linear_7025_1884)" stroke-miterlimit="10"/>
<path opacity="0.38" d="M513.711 -106.501C372.155 -248.358 52.6186 -77.219 181.541 121.357C235.767 204.856 385.937 399.431 467.942 333.274C549.553 267.79 623.6 195.738 588.447 114.117C546.394 16.6366 571.416 -48.6835 513.711 -106.501Z" stroke="url(#paint9_linear_7025_1884)" stroke-miterlimit="10"/>
<path opacity="0.41" d="M519.59 -108.956C378.575 -233.594 59.8266 -95.5086 176.443 121.263C224.615 210.838 398.724 403.191 476.815 330.392C554.48 258.365 638.175 189.355 592.398 109.57C538.056 14.8615 581.331 -54.3454 519.59 -108.956Z" stroke="url(#paint10_linear_7025_1884)" stroke-miterlimit="10"/>
<path opacity="0.45" d="M525.462 -111.353C385.415 -219.526 67.4459 -113.772 171.33 121.162C213.612 216.772 411.503 406.927 485.682 327.503C559.401 248.924 652.768 182.85 596.375 105.058C529.736 13.0387 591.477 -60.3664 525.462 -111.353Z" stroke="url(#paint11_linear_7025_1884)" stroke-miterlimit="10"/>
<path opacity="0.49" d="M531.337 -113.772C392.48 -206.217 75.4049 -131.918 166.22 121.064C202.744 222.8 424.286 410.658 494.559 324.625C564.291 239.494 667.371 176.315 600.388 100.466C521.427 11.1284 601.823 -66.8441 531.337 -113.772Z" stroke="url(#paint12_linear_7025_1884)" stroke-miterlimit="10"/>
<path opacity="0.53" d="M537.196 -116.189C399.537 -193.718 83.6519 -149.956 161.104 120.968C191.966 228.878 437.07 414.4 503.422 321.741C569.232 230.067 681.952 169.724 604.328 95.9171C513.094 9.12154 612.326 -73.8856 537.196 -116.189Z" stroke="url(#paint13_linear_7025_1884)" stroke-miterlimit="10"/>
<path opacity="0.56" d="M543.071 -118.609C406.323 -182.051 92.119 -167.767 155.993 120.868C181.269 235.093 449.852 418.13 512.291 318.854C574.155 220.628 696.514 163.057 608.275 91.3653C504.768 7.14451 622.902 -81.578 543.071 -118.609Z" stroke="url(#paint14_linear_7025_1884)" stroke-miterlimit="10"/>
<path opacity="0.6" d="M548.949 -121.036C412.586 -171.186 100.737 -185.413 150.886 120.77C170.641 241.357 462.629 421.86 521.171 315.926C579.081 211.157 711.071 156.39 612.298 86.7648C496.363 5.09421 633.431 -89.9668 548.949 -121.036Z" stroke="url(#paint15_linear_7025_1884)" stroke-miterlimit="10"/>
<path d="M139.479 42.7384C-315.362 266.34 496.703 547.145 487.318 251.31C482.617 103.188 828.496 153.625 800.373 8.70077C772.251 -136.224 628.915 -84.1463 467.965 -137.158C266.982 -203.356 257.014 -15.0214 139.479 42.7384Z" stroke="url(#paint16_linear_7025_1884)" stroke-miterlimit="10"/>
<path opacity="0.94" d="M134.61 36.4155C-291.608 262.379 473.015 544.11 488.356 257.476C495.985 115.069 830.928 137.282 794.134 -1.09892C757.341 -139.48 616.195 -99.5464 460.463 -140.636C266.313 -192.598 247.166 -23.2385 134.61 36.4155Z" stroke="url(#paint17_linear_7025_1884)" stroke-miterlimit="10"/>
<path opacity="0.88" d="M129.753 30.0676C-267.809 257.819 449.092 541.55 489.414 263.616C509.218 127.195 833.373 120.938 787.907 -10.9071C742.68 -142.703 603.389 -114.398 452.948 -144.122C265.525 -181.12 237.329 -31.5625 129.753 30.0676Z" stroke="url(#paint18_linear_7025_1884)" stroke-miterlimit="10"/>
<path opacity="0.81" d="M124.885 23.7199C-244.021 252.652 424.757 539.45 490.461 269.757C522.201 139.461 835.839 104.595 781.694 -20.7151C727.861 -145.943 590.686 -129.535 445.431 -147.608C264.866 -170.067 227.596 -40.0094 124.885 23.7199Z" stroke="url(#paint19_linear_7025_1884)" stroke-miterlimit="10"/>
<path opacity="0.75" d="M120.012 17.3728C-220.296 246.682 399.899 537.679 491.502 275.898C534.9 151.883 838.242 88.2442 775.434 -30.5226C713.086 -149.183 578.036 -144.706 437.916 -151.061C264.267 -158.982 217.932 -48.6033 120.012 17.3728Z" stroke="url(#paint20_linear_7025_1884)" stroke-miterlimit="10"/>
<path opacity="0.69" d="M115.151 11.0331C-196.715 239.957 374.39 536.062 492.524 282.047C547.284 164.379 840.683 71.917 769.204 -40.3145C698.274 -152.415 565.439 -159.885 430.388 -154.563C263.729 -148.003 208.313 -57.3456 115.151 11.0331Z" stroke="url(#paint21_linear_7025_1884)" stroke-miterlimit="10"/>
<path opacity="0.63" d="M110.281 4.67967C-173.355 232.357 348.264 534.399 493.594 288.19C559.33 176.819 843.115 55.568 762.964 -50.1282C683.478 -155.701 552.866 -175.143 422.885 -158.055C263.232 -137.071 198.71 -66.3229 110.281 4.67967Z" stroke="url(#paint22_linear_7025_1884)" stroke-miterlimit="10"/>
<path opacity="0.56" d="M105.42 -1.66351C-150.332 223.833 321.523 532.492 494.639 294.351C571.098 189.164 845.555 39.2455 756.732 -59.8826C668.682 -158.896 540.326 -190.457 415.35 -161.536C262.76 -126.178 189.107 -75.4541 105.42 -1.66351Z" stroke="url(#paint23_linear_7025_1884)" stroke-miterlimit="10"/>
<path opacity="0.5" d="M100.561 -8.00599C-127.734 214.415 294.268 530.192 495.694 300.473C582.654 201.296 848.005 22.8747 750.503 -69.7427C653.896 -162.147 527.796 -205.86 407.873 -165.033C262.314 -115.457 179.44 -84.8469 100.561 -8.00599Z" stroke="url(#paint24_linear_7025_1884)" stroke-miterlimit="10"/>
<path opacity="0.44" d="M95.6894 -14.348C-105.787 204.055 266.639 527.351 496.73 306.627C594.043 213.256 850.427 6.51242 744.262 -79.537C639.09 -165.373 515.229 -221.296 400.352 -168.505C261.824 -104.793 169.63 -94.5017 95.6894 -14.348Z" stroke="url(#paint25_linear_7025_1884)" stroke-miterlimit="10"/>
<path opacity="0.38" d="M90.8282 -20.6948C-84.5434 192.797 238.791 524.071 497.784 312.769C605.376 225.03 852.875 -9.79727 738.039 -89.3359C624.302 -168.612 502.632 -236.876 392.841 -171.991C261.286 -94.1984 159.609 -104.44 90.8282 -20.6948Z" stroke="url(#paint26_linear_7025_1884)" stroke-miterlimit="10"/>
<path opacity="0.31" d="M85.9421 -27.0452C-64.1866 180.805 210.836 520.213 498.804 318.907C616.659 236.523 855.298 -26.1432 731.783 -99.122C609.489 -171.855 489.993 -252.459 385.322 -175.471C260.657 -83.7226 149.242 -114.702 85.9421 -27.0452Z" stroke="url(#paint27_linear_7025_1884)" stroke-miterlimit="10"/>
<path opacity="0.25" d="M81.0829 -33.3903C-44.8365 168.195 182.924 515.91 499.844 325.05C628.003 247.89 857.74 -42.4922 725.553 -108.96C594.695 -175.1 477.218 -268.128 377.804 -178.962C259.966 -73.2498 138.419 -125.18 81.0829 -33.3903Z" stroke="url(#paint28_linear_7025_1884)" stroke-miterlimit="10"/>
<path opacity="0.19" d="M76.2222 -39.7365C-26.62 155.297 155.101 511.22 500.914 331.192C639.394 259.107 860.181 -58.834 719.323 -118.759C579.908 -178.339 464.408 -283.773 370.302 -182.439C259.174 -62.7863 126.946 -135.937 76.2222 -39.7365Z" stroke="url(#paint29_linear_7025_1884)" stroke-miterlimit="10"/>
<path opacity="0.13" d="M71.3508 -46.0841C-9.61203 142.398 127.391 506.218 501.95 337.341C650.848 270.201 862.611 -75.1772 713.081 -128.558C565.102 -181.57 451.521 -299.402 362.781 -185.957C258.306 -52.3078 114.65 -146.86 71.3508 -46.0841Z" stroke="url(#paint30_linear_7025_1884)" stroke-miterlimit="10"/>
<path opacity="0.06" d="M66.4888 -52.4223C6.12554 129.959 99.8616 500.986 503.002 343.492C662.393 281.222 865.05 -91.5111 706.857 -138.357C550.322 -184.809 438.595 -315.015 355.277 -189.393C257.374 -41.7953 101.363 -157.799 66.4888 -52.4223Z" stroke="url(#paint31_linear_7025_1884)" stroke-miterlimit="10"/>
<path opacity="0.03" d="M250.26 293.191C308.752 785.552 939.646 200.172 639.372 61.5941C490.064 -7.34208 658.101 -307.851 494.026 -333.861C329.951 -359.871 311.985 -211.855 200.881 -85.454C61.639 71.7866 234.787 162.953 250.26 293.191Z" stroke="url(#paint32_linear_7025_1884)" stroke-miterlimit="10"/>
<path opacity="0.05" d="M241.366 294.947C313.994 761.043 926.355 221.058 646.402 63.2349C508.579 -14.4588 641.644 -317.239 480.834 -332.408C320.172 -347.734 290.507 -206.409 193.916 -80.033C73.5093 77.552 221.628 168.267 241.366 294.947Z" stroke="url(#paint33_linear_7025_1884)" stroke-miterlimit="10"/>
<path opacity="0.07" d="M232.473 296.705C318.473 736.21 913.319 242.455 653.433 64.9607C527.21 -21.2199 625.187 -326.591 467.65 -330.863C310.343 -335.406 268.808 -201.174 186.951 -74.519C85.1012 82.9922 208.354 173.437 232.473 296.705Z" stroke="url(#paint34_linear_7025_1884)" stroke-miterlimit="10"/>
<path opacity="0.1" d="M223.581 298.451C322.092 711.158 900.473 264.421 660.464 66.6572C545.89 -27.7478 608.731 -335.956 454.459 -329.347C300.499 -323.107 247.126 -196.042 179.986 -69.1079C96.6935 88.354 194.942 178.471 223.581 298.451Z" stroke="url(#paint35_linear_7025_1884)" stroke-miterlimit="10"/>
<path opacity="0.13" d="M214.684 300.212C324.729 685.934 887.588 287.027 667.531 68.3693C564.566 -33.924 592.311 -345.289 441.312 -327.815C290.65 -310.817 225.43 -190.959 173.017 -63.6648C108.264 93.6167 181.352 183.381 214.684 300.212Z" stroke="url(#paint36_linear_7025_1884)" stroke-miterlimit="10"/>
<path opacity="0.15" d="M205.794 301.955C326.323 660.609 874.507 310.237 674.524 70.0634C583.035 -39.8147 575.816 -354.648 428.083 -326.31C280.809 -298.512 203.694 -185.985 166.055 -58.2152C119.786 98.7958 167.597 188.199 205.794 301.955Z" stroke="url(#paint37_linear_7025_1884)" stroke-miterlimit="10"/>
<path opacity="0.18" d="M196.901 303.706C326.75 635.308 861.012 333.996 681.555 71.7561C601.355 -45.4363 559.319 -364.009 414.933 -324.797C271.006 -286.258 181.946 -181.07 159.123 -52.7752C131.222 103.883 153.528 192.95 196.901 303.706Z" stroke="url(#paint38_linear_7025_1884)" stroke-miterlimit="10"/>
<path opacity="0.2" d="M188.009 305.453C326.045 610.168 846.976 358.178 688.586 73.4623C619.428 -50.8558 542.895 -373.356 401.709 -323.272C261.121 -273.925 160.01 -176.199 152.118 -47.3298C142.552 108.919 139.188 197.715 188.009 305.453Z" stroke="url(#paint39_linear_7025_1884)" stroke-miterlimit="10"/>
<path opacity="0.23" d="M179.081 307.208C324.09 585.298 832.272 382.646 695.581 75.1516C637.187 -56.1938 526.403 -382.712 388.49 -321.771C251.274 -261.633 138.013 -171.328 145.15 -41.885C153.748 113.945 124.51 202.495 179.081 307.208Z" stroke="url(#paint40_linear_7025_1884)" stroke-miterlimit="10"/>
<path opacity="0.25" d="M170.223 308.963C321.057 560.912 816.974 407.131 702.646 76.8575C654.761 -61.4906 509.981 -392.06 375.317 -320.245C241.431 -249.333 115.914 -166.441 138.187 -36.4399C164.817 118.997 109.45 207.448 170.223 308.963Z" stroke="url(#paint41_linear_7025_1884)" stroke-miterlimit="10"/>
<path opacity="0.28" d="M161.336 310.703C316.912 537.183 801.032 431.577 709.683 78.5488C672.06 -66.8429 493.53 -401.422 362.155 -318.734C231.593 -237.039 93.7694 -161.502 131.228 -31.0012C175.807 124.107 93.9663 212.666 161.336 310.703Z" stroke="url(#paint42_linear_7025_1884)" stroke-miterlimit="10"/>
<path opacity="0.3" d="M152.439 312.465C311.985 514.231 784.522 455.848 716.709 80.2611C689.161 -72.2564 477.069 -410.763 348.96 -317.203C221.801 -224.733 71.4758 -156.485 124.251 -25.5418C186.689 129.329 78.0061 218.298 152.439 312.465Z" stroke="url(#paint43_linear_7025_1884)" stroke-miterlimit="10"/>
<path opacity="0.33" d="M143.54 314.21C306.311 492.385 767.633 479.847 723.743 81.9569C706.113 -77.801 460.607 -420.121 335.771 -315.695C211.894 -212.443 49.1972 -151.37 117.288 -20.1068C197.546 134.633 61.5848 224.503 143.54 314.21Z" stroke="url(#paint44_linear_7025_1884)" stroke-miterlimit="10"/>
<path opacity="0.35" d="M134.654 315.966C300.362 471.69 750.411 503.571 730.78 83.6559C722.994 -83.5393 444.157 -429.475 322.594 -314.177C202.056 -200.15 26.9142 -146.194 110.33 -14.6604C208.414 140.03 44.741 231.475 134.654 315.966Z" stroke="url(#paint45_linear_7025_1884)" stroke-miterlimit="10"/>
<path opacity="0.38" d="M125.754 317.712C294.465 452.313 732.947 526.965 737.804 85.3774C739.723 -89.3288 427.702 -438.807 309.404 -312.636C192.205 -187.85 4.63419 -140.939 103.35 -9.20793C219.277 145.499 27.5391 239.363 125.754 317.712Z" stroke="url(#paint46_linear_7025_1884)" stroke-miterlimit="10"/>
<path opacity="0.4" d="M116.866 319.474C289.088 434.329 715.355 550.086 744.839 87.0238C756.447 -95.3001 411.25 -448.173 296.217 -311.137C182.414 -175.552 -17.6178 -135.66 96.398 -3.76499C230.201 151.04 10.1683 248.315 116.866 319.474Z" stroke="url(#paint47_linear_7025_1884)" stroke-miterlimit="10"/>
<defs>
<linearGradient id="paint0_linear_7025_1884" x1="573.734" y1="84.2488" x2="151.338" y2="84.2489" gradientUnits="userSpaceOnUse">
<stop offset="0.755208" stop-color="white"/>
<stop offset="1" stop-color="white" stop-opacity="0"/>
</linearGradient>
<linearGradient id="paint1_linear_7025_1884" x1="573.117" y1="84.9744" x2="151.657" y2="84.9744" gradientUnits="userSpaceOnUse">
<stop offset="0.755208" stop-color="white"/>
<stop offset="1" stop-color="white" stop-opacity="0"/>
</linearGradient>
<linearGradient id="paint2_linear_7025_1884" x1="572.691" y1="85.8608" x2="151.852" y2="85.8608" gradientUnits="userSpaceOnUse">
<stop offset="0.755208" stop-color="white"/>
<stop offset="1" stop-color="white" stop-opacity="0"/>
</linearGradient>
<linearGradient id="paint3_linear_7025_1884" x1="572.457" y1="86.8582" x2="151.98" y2="86.8582" gradientUnits="userSpaceOnUse">
<stop offset="0.755208" stop-color="white"/>
<stop offset="1" stop-color="white" stop-opacity="0"/>
</linearGradient>
<linearGradient id="paint4_linear_7025_1884" x1="572.559" y1="87.9576" x2="151.959" y2="87.9576" gradientUnits="userSpaceOnUse">
<stop offset="0.755208" stop-color="white"/>
<stop offset="1" stop-color="white" stop-opacity="0"/>
</linearGradient>
<linearGradient id="paint5_linear_7025_1884" x1="573.418" y1="89.1156" x2="151.915" y2="89.1156" gradientUnits="userSpaceOnUse">
<stop offset="0.755208" stop-color="white"/>
<stop offset="1" stop-color="white" stop-opacity="0"/>
</linearGradient>
<linearGradient id="paint6_linear_7025_1884" x1="576.703" y1="90.3363" x2="151.858" y2="90.3363" gradientUnits="userSpaceOnUse">
<stop offset="0.755208" stop-color="white"/>
<stop offset="1" stop-color="white" stop-opacity="0"/>
</linearGradient>
<linearGradient id="paint7_linear_7025_1884" x1="582.684" y1="91.5715" x2="151.781" y2="91.5715" gradientUnits="userSpaceOnUse">
<stop offset="0.755208" stop-color="white"/>
<stop offset="1" stop-color="white" stop-opacity="0"/>
</linearGradient>
<linearGradient id="paint8_linear_7025_1884" x1="589.746" y1="92.8049" x2="151.685" y2="92.8049" gradientUnits="userSpaceOnUse">
<stop offset="0.755208" stop-color="white"/>
<stop offset="1" stop-color="white" stop-opacity="0"/>
</linearGradient>
<linearGradient id="paint9_linear_7025_1884" x1="597.414" y1="94.0246" x2="151.529" y2="94.0246" gradientUnits="userSpaceOnUse">
<stop offset="0.755208" stop-color="white"/>
<stop offset="1" stop-color="white" stop-opacity="0"/>
</linearGradient>
<linearGradient id="paint10_linear_7025_1884" x1="605.414" y1="95.1874" x2="151.283" y2="95.1874" gradientUnits="userSpaceOnUse">
<stop offset="0.755208" stop-color="white"/>
<stop offset="1" stop-color="white" stop-opacity="0"/>
</linearGradient>
<linearGradient id="paint11_linear_7025_1884" x1="613.664" y1="96.2879" x2="150.844" y2="96.2879" gradientUnits="userSpaceOnUse">
<stop offset="0.755208" stop-color="white"/>
<stop offset="1" stop-color="white" stop-opacity="0"/>
</linearGradient>
<linearGradient id="paint12_linear_7025_1884" x1="622.094" y1="97.3013" x2="150.131" y2="97.3013" gradientUnits="userSpaceOnUse">
<stop offset="0.755208" stop-color="white"/>
<stop offset="1" stop-color="white" stop-opacity="0"/>
</linearGradient>
<linearGradient id="paint13_linear_7025_1884" x1="630.605" y1="98.2" x2="149.051" y2="98.2" gradientUnits="userSpaceOnUse">
<stop offset="0.755208" stop-color="white"/>
<stop offset="1" stop-color="white" stop-opacity="0"/>
</linearGradient>
<linearGradient id="paint14_linear_7025_1884" x1="639.203" y1="98.9678" x2="147.529" y2="98.9678" gradientUnits="userSpaceOnUse">
<stop offset="0.755208" stop-color="white"/>
<stop offset="1" stop-color="white" stop-opacity="0"/>
</linearGradient>
<linearGradient id="paint15_linear_7025_1884" x1="647.902" y1="99.5669" x2="145.482" y2="99.5669" gradientUnits="userSpaceOnUse">
<stop offset="0.755208" stop-color="white"/>
<stop offset="1" stop-color="white" stop-opacity="0"/>
</linearGradient>
<linearGradient id="paint16_linear_7025_1884" x1="802" y1="114" x2="0.999622" y2="114" gradientUnits="userSpaceOnUse">
<stop offset="0.755208" stop-color="white"/>
<stop offset="1" stop-color="white" stop-opacity="0"/>
</linearGradient>
<linearGradient id="paint17_linear_7025_1884" x1="796.957" y1="114.219" x2="5.54332" y2="114.219" gradientUnits="userSpaceOnUse">
<stop offset="0.755208" stop-color="white"/>
<stop offset="1" stop-color="white" stop-opacity="0"/>
</linearGradient>
<linearGradient id="paint18_linear_7025_1884" x1="792.273" y1="114.44" x2="10.0724" y2="114.44" gradientUnits="userSpaceOnUse">
<stop offset="0.755208" stop-color="white"/>
<stop offset="1" stop-color="white" stop-opacity="0"/>
</linearGradient>
<linearGradient id="paint19_linear_7025_1884" x1="787.961" y1="114.396" x2="14.5328" y2="114.396" gradientUnits="userSpaceOnUse">
<stop offset="0.755208" stop-color="white"/>
<stop offset="1" stop-color="white" stop-opacity="0"/>
</linearGradient>
<linearGradient id="paint20_linear_7025_1884" x1="783.961" y1="113.902" x2="18.8942" y2="113.902" gradientUnits="userSpaceOnUse">
<stop offset="0.755208" stop-color="white"/>
<stop offset="1" stop-color="white" stop-opacity="0"/>
</linearGradient>
<linearGradient id="paint21_linear_7025_1884" x1="780.355" y1="111.926" x2="23.1204" y2="111.926" gradientUnits="userSpaceOnUse">
<stop offset="0.755208" stop-color="white"/>
<stop offset="1" stop-color="white" stop-opacity="0"/>
</linearGradient>
<linearGradient id="paint22_linear_7025_1884" x1="777.105" y1="108.24" x2="27.1753" y2="108.24" gradientUnits="userSpaceOnUse">
<stop offset="0.755208" stop-color="white"/>
<stop offset="1" stop-color="white" stop-opacity="0"/>
</linearGradient>
<linearGradient id="paint23_linear_7025_1884" x1="774.227" y1="104.246" x2="31.0232" y2="104.246" gradientUnits="userSpaceOnUse">
<stop offset="0.755208" stop-color="white"/>
<stop offset="1" stop-color="white" stop-opacity="0"/>
</linearGradient>
<linearGradient id="paint24_linear_7025_1884" x1="771.715" y1="100.057" x2="34.6382" y2="100.057" gradientUnits="userSpaceOnUse">
<stop offset="0.755208" stop-color="white"/>
<stop offset="1" stop-color="white" stop-opacity="0"/>
</linearGradient>
<linearGradient id="paint25_linear_7025_1884" x1="769.547" y1="95.7444" x2="37.9416" y2="95.7444" gradientUnits="userSpaceOnUse">
<stop offset="0.755208" stop-color="white"/>
<stop offset="1" stop-color="white" stop-opacity="0"/>
</linearGradient>
<linearGradient id="paint26_linear_7025_1884" x1="767.762" y1="91.3289" x2="40.9407" y2="91.3289" gradientUnits="userSpaceOnUse">
<stop offset="0.755208" stop-color="white"/>
<stop offset="1" stop-color="white" stop-opacity="0"/>
</linearGradient>
<linearGradient id="paint27_linear_7025_1884" x1="766.309" y1="86.8599" x2="43.5595" y2="86.86" gradientUnits="userSpaceOnUse">
<stop offset="0.755208" stop-color="white"/>
<stop offset="1" stop-color="white" stop-opacity="0"/>
</linearGradient>
<linearGradient id="paint28_linear_7025_1884" x1="765.242" y1="82.3771" x2="45.7952" y2="82.3771" gradientUnits="userSpaceOnUse">
<stop offset="0.755208" stop-color="white"/>
<stop offset="1" stop-color="white" stop-opacity="0"/>
</linearGradient>
<linearGradient id="paint29_linear_7025_1884" x1="764.535" y1="77.9581" x2="47.5915" y2="77.9581" gradientUnits="userSpaceOnUse">
<stop offset="0.755208" stop-color="white"/>
<stop offset="1" stop-color="white" stop-opacity="0"/>
</linearGradient>
<linearGradient id="paint30_linear_7025_1884" x1="764.176" y1="73.6343" x2="48.9197" y2="73.6344" gradientUnits="userSpaceOnUse">
<stop offset="0.755208" stop-color="white"/>
<stop offset="1" stop-color="white" stop-opacity="0"/>
</linearGradient>
<linearGradient id="paint31_linear_7025_1884" x1="764.184" y1="69.4677" x2="49.7767" y2="69.4677" gradientUnits="userSpaceOnUse">
<stop offset="0.755208" stop-color="white"/>
<stop offset="1" stop-color="white" stop-opacity="0"/>
</linearGradient>
<linearGradient id="paint32_linear_7025_1884" x1="719.996" y1="74.9867" x2="147.068" y2="74.9867" gradientUnits="userSpaceOnUse">
<stop offset="0.755208" stop-color="white"/>
<stop offset="1" stop-color="white" stop-opacity="0"/>
</linearGradient>
<linearGradient id="paint33_linear_7025_1884" x1="719.227" y1="73.4604" x2="147.212" y2="73.4604" gradientUnits="userSpaceOnUse">
<stop offset="0.755208" stop-color="white"/>
<stop offset="1" stop-color="white" stop-opacity="0"/>
</linearGradient>
<linearGradient id="paint34_linear_7025_1884" x1="718.66" y1="71.5632" x2="147.215" y2="71.5632" gradientUnits="userSpaceOnUse">
<stop offset="0.755208" stop-color="white"/>
<stop offset="1" stop-color="white" stop-opacity="0"/>
</linearGradient>
<linearGradient id="paint35_linear_7025_1884" x1="718.293" y1="69.1638" x2="147.194" y2="69.1639" gradientUnits="userSpaceOnUse">
<stop offset="0.755208" stop-color="white"/>
<stop offset="1" stop-color="white" stop-opacity="0"/>
</linearGradient>
<linearGradient id="paint36_linear_7025_1884" x1="718.094" y1="66.5232" x2="147.127" y2="66.5232" gradientUnits="userSpaceOnUse">
<stop offset="0.755208" stop-color="white"/>
<stop offset="1" stop-color="white" stop-opacity="0"/>
</linearGradient>
<linearGradient id="paint37_linear_7025_1884" x1="717.988" y1="63.6997" x2="147.006" y2="63.6998" gradientUnits="userSpaceOnUse">
<stop offset="0.755208" stop-color="white"/>
<stop offset="1" stop-color="white" stop-opacity="0"/>
</linearGradient>
<linearGradient id="paint38_linear_7025_1884" x1="718.031" y1="60.7759" x2="146.778" y2="60.776" gradientUnits="userSpaceOnUse">
<stop offset="0.755208" stop-color="white"/>
<stop offset="1" stop-color="white" stop-opacity="0"/>
</linearGradient>
<linearGradient id="paint39_linear_7025_1884" x1="718.25" y1="57.8142" x2="146.319" y2="57.8142" gradientUnits="userSpaceOnUse">
<stop offset="0.755208" stop-color="white"/>
<stop offset="1" stop-color="white" stop-opacity="0"/>
</linearGradient>
<linearGradient id="paint40_linear_7025_1884" x1="718.691" y1="54.851" x2="144.828" y2="54.851" gradientUnits="userSpaceOnUse">
<stop offset="0.755208" stop-color="white"/>
<stop offset="1" stop-color="white" stop-opacity="0"/>
</linearGradient>
<linearGradient id="paint41_linear_7025_1884" x1="719.598" y1="51.9698" x2="135.607" y2="51.9699" gradientUnits="userSpaceOnUse">
<stop offset="0.755208" stop-color="white"/>
<stop offset="1" stop-color="white" stop-opacity="0"/>
</linearGradient>
<linearGradient id="paint42_linear_7025_1884" x1="721.059" y1="49.2276" x2="124.98" y2="49.2276" gradientUnits="userSpaceOnUse">
<stop offset="0.755208" stop-color="white"/>
<stop offset="1" stop-color="white" stop-opacity="0"/>
</linearGradient>
<linearGradient id="paint43_linear_7025_1884" x1="723.32" y1="46.7035" x2="113.406" y2="46.7035" gradientUnits="userSpaceOnUse">
<stop offset="0.755208" stop-color="white"/>
<stop offset="1" stop-color="white" stop-opacity="0"/>
</linearGradient>
<linearGradient id="paint44_linear_7025_1884" x1="726.672" y1="44.475" x2="101.22" y2="44.4751" gradientUnits="userSpaceOnUse">
<stop offset="0.755208" stop-color="white"/>
<stop offset="1" stop-color="white" stop-opacity="0"/>
</linearGradient>
<linearGradient id="paint45_linear_7025_1884" x1="731.402" y1="42.6056" x2="88.5901" y2="42.6056" gradientUnits="userSpaceOnUse">
<stop offset="0.755208" stop-color="white"/>
<stop offset="1" stop-color="white" stop-opacity="0"/>
</linearGradient>
<linearGradient id="paint46_linear_7025_1884" x1="737.812" y1="41.1558" x2="75.6134" y2="41.1559" gradientUnits="userSpaceOnUse">
<stop offset="0.755208" stop-color="white"/>
<stop offset="1" stop-color="white" stop-opacity="0"/>
</linearGradient>
<linearGradient id="paint47_linear_7025_1884" x1="745.125" y1="40.1239" x2="62.4094" y2="40.1239" gradientUnits="userSpaceOnUse">
<stop offset="0.755208" stop-color="white"/>
<stop offset="1" stop-color="white" stop-opacity="0"/>
</linearGradient>
</defs>
</svg>
