<svg width="350" height="276" viewBox="0 0 350 276" fill="none" xmlns="http://www.w3.org/2000/svg">
<path d="M2.45 269L6.678 259.648L6.986 260.096H0.924L1.442 259.606V261.93H0.448V259.2H7.644V259.914L3.542 269H2.45ZM12.6047 269.084C11.8487 269.084 11.1767 268.888 10.5887 268.496C10.0007 268.095 9.5387 267.525 9.2027 266.788C8.8667 266.041 8.6987 265.145 8.6987 264.1C8.6987 263.055 8.8667 262.163 9.2027 261.426C9.5387 260.679 10.0007 260.11 10.5887 259.718C11.1767 259.317 11.8487 259.116 12.6047 259.116C13.3607 259.116 14.0327 259.317 14.6207 259.718C15.2087 260.11 15.6707 260.679 16.0067 261.426C16.352 262.163 16.5247 263.055 16.5247 264.1C16.5247 265.145 16.352 266.041 16.0067 266.788C15.6707 267.525 15.2087 268.095 14.6207 268.496C14.0327 268.888 13.3607 269.084 12.6047 269.084ZM12.6047 268.16C13.1834 268.16 13.6874 268.006 14.1167 267.698C14.546 267.381 14.882 266.923 15.1247 266.326C15.3674 265.719 15.4887 264.977 15.4887 264.1C15.4887 263.223 15.3674 262.485 15.1247 261.888C14.882 261.281 14.546 260.824 14.1167 260.516C13.6874 260.199 13.1834 260.04 12.6047 260.04C12.0447 260.04 11.5454 260.199 11.1067 260.516C10.668 260.824 10.3274 261.281 10.0847 261.888C9.84204 262.485 9.7207 263.223 9.7207 264.1C9.7207 264.977 9.84204 265.719 10.0847 266.326C10.3274 266.923 10.668 267.381 11.1067 267.698C11.5454 268.006 12.0447 268.16 12.6047 268.16ZM19.2842 269L25.9762 259.2H26.8022L20.1102 269H19.2842ZM20.0402 264.45C19.6016 264.45 19.2142 264.343 18.8782 264.128C18.5422 263.904 18.2809 263.591 18.0942 263.19C17.9169 262.789 17.8282 262.322 17.8282 261.79C17.8282 261.258 17.9169 260.791 18.0942 260.39C18.2809 259.989 18.5422 259.681 18.8782 259.466C19.2142 259.242 19.6016 259.13 20.0402 259.13C20.4789 259.13 20.8616 259.242 21.1882 259.466C21.5242 259.681 21.7856 259.989 21.9722 260.39C22.1589 260.791 22.2522 261.258 22.2522 261.79C22.2522 262.322 22.1589 262.789 21.9722 263.19C21.7856 263.591 21.5242 263.904 21.1882 264.128C20.8616 264.343 20.4789 264.45 20.0402 264.45ZM20.0402 263.82C20.4976 263.82 20.8616 263.643 21.1322 263.288C21.4122 262.924 21.5522 262.425 21.5522 261.79C21.5522 261.155 21.4122 260.661 21.1322 260.306C20.8616 259.942 20.4976 259.76 20.0402 259.76C19.5736 259.76 19.2049 259.942 18.9342 260.306C18.6636 260.661 18.5282 261.155 18.5282 261.79C18.5282 262.425 18.6636 262.924 18.9342 263.288C19.2049 263.643 19.5736 263.82 20.0402 263.82ZM26.0462 269.07C25.6169 269.07 25.2342 268.963 24.8982 268.748C24.5622 268.524 24.3009 268.211 24.1142 267.81C23.9276 267.409 23.8342 266.942 23.8342 266.41C23.8342 265.878 23.9276 265.411 24.1142 265.01C24.3009 264.609 24.5622 264.301 24.8982 264.086C25.2342 263.862 25.6169 263.75 26.0462 263.75C26.4942 263.75 26.8816 263.862 27.2082 264.086C27.5442 264.301 27.8009 264.609 27.9782 265.01C28.1649 265.411 28.2582 265.878 28.2582 266.41C28.2582 266.942 28.1649 267.409 27.9782 267.81C27.8009 268.211 27.5442 268.524 27.2082 268.748C26.8816 268.963 26.4942 269.07 26.0462 269.07ZM26.0462 268.44C26.5036 268.44 26.8676 268.263 27.1382 267.908C27.4182 267.544 27.5582 267.045 27.5582 266.41C27.5582 265.775 27.4182 265.281 27.1382 264.926C26.8676 264.562 26.5036 264.38 26.0462 264.38C25.5889 264.38 25.2202 264.562 24.9402 264.926C24.6696 265.281 24.5342 265.775 24.5342 266.41C24.5342 267.045 24.6696 267.544 24.9402 267.908C25.2202 268.263 25.5889 268.44 26.0462 268.44Z" fill="#D8D8D8"/>
<path d="M48 264L304 264" stroke="#F3F3F3" stroke-width="1.5" stroke-linecap="round"/>
<path d="M323.602 269L327.83 259.648L328.138 260.096H322.076L322.594 259.606V261.93H321.6V259.2H328.796V259.914L324.694 269H323.602ZM333.757 269.084C333.001 269.084 332.329 268.888 331.741 268.496C331.153 268.095 330.691 267.525 330.355 266.788C330.019 266.041 329.851 265.145 329.851 264.1C329.851 263.055 330.019 262.163 330.355 261.426C330.691 260.679 331.153 260.11 331.741 259.718C332.329 259.317 333.001 259.116 333.757 259.116C334.513 259.116 335.185 259.317 335.773 259.718C336.361 260.11 336.823 260.679 337.159 261.426C337.504 262.163 337.677 263.055 337.677 264.1C337.677 265.145 337.504 266.041 337.159 266.788C336.823 267.525 336.361 268.095 335.773 268.496C335.185 268.888 334.513 269.084 333.757 269.084ZM333.757 268.16C334.336 268.16 334.84 268.006 335.269 267.698C335.698 267.381 336.034 266.923 336.277 266.326C336.52 265.719 336.641 264.977 336.641 264.1C336.641 263.223 336.52 262.485 336.277 261.888C336.034 261.281 335.698 260.824 335.269 260.516C334.84 260.199 334.336 260.04 333.757 260.04C333.197 260.04 332.698 260.199 332.259 260.516C331.82 260.824 331.48 261.281 331.237 261.888C330.994 262.485 330.873 263.223 330.873 264.1C330.873 264.977 330.994 265.719 331.237 266.326C331.48 266.923 331.82 267.381 332.259 267.698C332.698 268.006 333.197 268.16 333.757 268.16ZM340.437 269L347.129 259.2H347.955L341.263 269H340.437ZM341.193 264.45C340.754 264.45 340.367 264.343 340.031 264.128C339.695 263.904 339.433 263.591 339.247 263.19C339.069 262.789 338.981 262.322 338.981 261.79C338.981 261.258 339.069 260.791 339.247 260.39C339.433 259.989 339.695 259.681 340.031 259.466C340.367 259.242 340.754 259.13 341.193 259.13C341.631 259.13 342.014 259.242 342.341 259.466C342.677 259.681 342.938 259.989 343.125 260.39C343.311 260.791 343.405 261.258 343.405 261.79C343.405 262.322 343.311 262.789 343.125 263.19C342.938 263.591 342.677 263.904 342.341 264.128C342.014 264.343 341.631 264.45 341.193 264.45ZM341.193 263.82C341.65 263.82 342.014 263.643 342.285 263.288C342.565 262.924 342.705 262.425 342.705 261.79C342.705 261.155 342.565 260.661 342.285 260.306C342.014 259.942 341.65 259.76 341.193 259.76C340.726 259.76 340.357 259.942 340.087 260.306C339.816 260.661 339.681 261.155 339.681 261.79C339.681 262.425 339.816 262.924 340.087 263.288C340.357 263.643 340.726 263.82 341.193 263.82ZM347.199 269.07C346.769 269.07 346.387 268.963 346.051 268.748C345.715 268.524 345.453 268.211 345.267 267.81C345.08 267.409 344.987 266.942 344.987 266.41C344.987 265.878 345.08 265.411 345.267 265.01C345.453 264.609 345.715 264.301 346.051 264.086C346.387 263.862 346.769 263.75 347.199 263.75C347.647 263.75 348.034 263.862 348.361 264.086C348.697 264.301 348.953 264.609 349.131 265.01C349.317 265.411 349.411 265.878 349.411 266.41C349.411 266.942 349.317 267.409 349.131 267.81C348.953 268.211 348.697 268.524 348.361 268.748C348.034 268.963 347.647 269.07 347.199 269.07ZM347.199 268.44C347.656 268.44 348.02 268.263 348.291 267.908C348.571 267.544 348.711 267.045 348.711 266.41C348.711 265.775 348.571 265.281 348.291 264.926C348.02 264.562 347.656 264.38 347.199 264.38C346.741 264.38 346.373 264.562 346.093 264.926C345.822 265.281 345.687 265.775 345.687 266.41C345.687 267.045 345.822 267.544 346.093 267.908C346.373 268.263 346.741 268.44 347.199 268.44Z" fill="#D8D8D8"/>
<path d="M4.452 185.084C3.668 185.084 2.99133 184.972 2.422 184.748C1.862 184.524 1.428 184.202 1.12 183.782C0.821333 183.353 0.672 182.849 0.672 182.27C0.672 181.71 0.816667 181.234 1.106 180.842C1.40467 180.441 1.834 180.133 2.394 179.918C2.96333 179.703 3.64933 179.596 4.452 179.596C5.24533 179.596 5.92667 179.703 6.496 179.918C7.06533 180.133 7.49933 180.441 7.798 180.842C8.106 181.234 8.26 181.71 8.26 182.27C8.26 182.849 8.106 183.353 7.798 183.782C7.49 184.202 7.05133 184.524 6.482 184.748C5.91267 184.972 5.236 185.084 4.452 185.084ZM4.452 184.23C5.32 184.23 5.99667 184.053 6.482 183.698C6.97667 183.343 7.224 182.863 7.224 182.256C7.224 181.649 6.97667 181.173 6.482 180.828C5.99667 180.473 5.32 180.296 4.452 180.296C3.584 180.296 2.90733 180.473 2.422 180.828C1.93667 181.173 1.694 181.649 1.694 182.256C1.694 182.863 1.93667 183.343 2.422 183.698C2.90733 184.053 3.584 184.23 4.452 184.23ZM4.452 180.17C3.724 180.17 3.10333 180.072 2.59 179.876C2.086 179.68 1.69867 179.4 1.428 179.036C1.15733 178.663 1.022 178.219 1.022 177.706C1.022 177.165 1.162 176.703 1.442 176.32C1.73133 175.928 2.13267 175.629 2.646 175.424C3.15933 175.219 3.76133 175.116 4.452 175.116C5.14267 175.116 5.74467 175.219 6.258 175.424C6.78067 175.629 7.18667 175.928 7.476 176.32C7.76533 176.703 7.91 177.165 7.91 177.706C7.91 178.219 7.77467 178.663 7.504 179.036C7.23333 179.4 6.83667 179.68 6.314 179.876C5.80067 180.072 5.18 180.17 4.452 180.17ZM4.452 179.498C5.21733 179.498 5.81467 179.339 6.244 179.022C6.67333 178.705 6.888 178.28 6.888 177.748C6.888 177.188 6.664 176.754 6.216 176.446C5.77733 176.129 5.18933 175.97 4.452 175.97C3.71467 175.97 3.12667 176.129 2.688 176.446C2.24933 176.754 2.03 177.183 2.03 177.734C2.03 178.275 2.24 178.705 2.66 179.022C3.08933 179.339 3.68667 179.498 4.452 179.498ZM13.5617 185.084C12.8057 185.084 12.1337 184.888 11.5457 184.496C10.9577 184.095 10.4957 183.525 10.1597 182.788C9.82373 182.041 9.65573 181.145 9.65573 180.1C9.65573 179.055 9.82373 178.163 10.1597 177.426C10.4957 176.679 10.9577 176.11 11.5457 175.718C12.1337 175.317 12.8057 175.116 13.5617 175.116C14.3177 175.116 14.9897 175.317 15.5777 175.718C16.1657 176.11 16.6277 176.679 16.9637 177.426C17.3091 178.163 17.4817 179.055 17.4817 180.1C17.4817 181.145 17.3091 182.041 16.9637 182.788C16.6277 183.525 16.1657 184.095 15.5777 184.496C14.9897 184.888 14.3177 185.084 13.5617 185.084ZM13.5617 184.16C14.1404 184.16 14.6444 184.006 15.0737 183.698C15.5031 183.381 15.8391 182.923 16.0817 182.326C16.3244 181.719 16.4457 180.977 16.4457 180.1C16.4457 179.223 16.3244 178.485 16.0817 177.888C15.8391 177.281 15.5031 176.824 15.0737 176.516C14.6444 176.199 14.1404 176.04 13.5617 176.04C13.0017 176.04 12.5024 176.199 12.0637 176.516C11.6251 176.824 11.2844 177.281 11.0417 177.888C10.7991 178.485 10.6777 179.223 10.6777 180.1C10.6777 180.977 10.7991 181.719 11.0417 182.326C11.2844 182.923 11.6251 183.381 12.0637 183.698C12.5024 184.006 13.0017 184.16 13.5617 184.16ZM20.2413 185L26.9333 175.2H27.7593L21.0673 185H20.2413ZM20.9973 180.45C20.5586 180.45 20.1713 180.343 19.8353 180.128C19.4993 179.904 19.2379 179.591 19.0513 179.19C18.8739 178.789 18.7853 178.322 18.7853 177.79C18.7853 177.258 18.8739 176.791 19.0513 176.39C19.2379 175.989 19.4993 175.681 19.8353 175.466C20.1713 175.242 20.5586 175.13 20.9973 175.13C21.4359 175.13 21.8186 175.242 22.1453 175.466C22.4813 175.681 22.7426 175.989 22.9293 176.39C23.1159 176.791 23.2093 177.258 23.2093 177.79C23.2093 178.322 23.1159 178.789 22.9293 179.19C22.7426 179.591 22.4813 179.904 22.1453 180.128C21.8186 180.343 21.4359 180.45 20.9973 180.45ZM20.9973 179.82C21.4546 179.82 21.8186 179.643 22.0893 179.288C22.3693 178.924 22.5093 178.425 22.5093 177.79C22.5093 177.155 22.3693 176.661 22.0893 176.306C21.8186 175.942 21.4546 175.76 20.9973 175.76C20.5306 175.76 20.1619 175.942 19.8913 176.306C19.6206 176.661 19.4853 177.155 19.4853 177.79C19.4853 178.425 19.6206 178.924 19.8913 179.288C20.1619 179.643 20.5306 179.82 20.9973 179.82ZM27.0033 185.07C26.5739 185.07 26.1913 184.963 25.8553 184.748C25.5193 184.524 25.2579 184.211 25.0713 183.81C24.8846 183.409 24.7913 182.942 24.7913 182.41C24.7913 181.878 24.8846 181.411 25.0713 181.01C25.2579 180.609 25.5193 180.301 25.8553 180.086C26.1913 179.862 26.5739 179.75 27.0033 179.75C27.4513 179.75 27.8386 179.862 28.1653 180.086C28.5013 180.301 28.7579 180.609 28.9353 181.01C29.1219 181.411 29.2153 181.878 29.2153 182.41C29.2153 182.942 29.1219 183.409 28.9353 183.81C28.7579 184.211 28.5013 184.524 28.1653 184.748C27.8386 184.963 27.4513 185.07 27.0033 185.07ZM27.0033 184.44C27.4606 184.44 27.8246 184.263 28.0953 183.908C28.3753 183.544 28.5153 183.045 28.5153 182.41C28.5153 181.775 28.3753 181.281 28.0953 180.926C27.8246 180.562 27.4606 180.38 27.0033 180.38C26.5459 180.38 26.1773 180.562 25.8973 180.926C25.6266 181.281 25.4913 181.775 25.4913 182.41C25.4913 183.045 25.6266 183.544 25.8973 183.908C26.1773 184.263 26.5459 184.44 27.0033 184.44Z" fill="#D8D8D8"/>
<path d="M48 180L304 180" stroke="#F3F3F3" stroke-width="1.5" stroke-linecap="round"/>
<path d="M324.647 185.084C323.863 185.084 323.187 184.972 322.617 184.748C322.057 184.524 321.623 184.202 321.315 183.782C321.017 183.353 320.867 182.849 320.867 182.27C320.867 181.71 321.012 181.234 321.301 180.842C321.6 180.441 322.029 180.133 322.589 179.918C323.159 179.703 323.845 179.596 324.647 179.596C325.441 179.596 326.122 179.703 326.691 179.918C327.261 180.133 327.695 180.441 327.993 180.842C328.301 181.234 328.455 181.71 328.455 182.27C328.455 182.849 328.301 183.353 327.993 183.782C327.685 184.202 327.247 184.524 326.677 184.748C326.108 184.972 325.431 185.084 324.647 185.084ZM324.647 184.23C325.515 184.23 326.192 184.053 326.677 183.698C327.172 183.343 327.419 182.863 327.419 182.256C327.419 181.649 327.172 181.173 326.677 180.828C326.192 180.473 325.515 180.296 324.647 180.296C323.779 180.296 323.103 180.473 322.617 180.828C322.132 181.173 321.889 181.649 321.889 182.256C321.889 182.863 322.132 183.343 322.617 183.698C323.103 184.053 323.779 184.23 324.647 184.23ZM324.647 180.17C323.919 180.17 323.299 180.072 322.785 179.876C322.281 179.68 321.894 179.4 321.623 179.036C321.353 178.663 321.217 178.219 321.217 177.706C321.217 177.165 321.357 176.703 321.637 176.32C321.927 175.928 322.328 175.629 322.841 175.424C323.355 175.219 323.957 175.116 324.647 175.116C325.338 175.116 325.94 175.219 326.453 175.424C326.976 175.629 327.382 175.928 327.671 176.32C327.961 176.703 328.105 177.165 328.105 177.706C328.105 178.219 327.97 178.663 327.699 179.036C327.429 179.4 327.032 179.68 326.509 179.876C325.996 180.072 325.375 180.17 324.647 180.17ZM324.647 179.498C325.413 179.498 326.01 179.339 326.439 179.022C326.869 178.705 327.083 178.28 327.083 177.748C327.083 177.188 326.859 176.754 326.411 176.446C325.973 176.129 325.385 175.97 324.647 175.97C323.91 175.97 323.322 176.129 322.883 176.446C322.445 176.754 322.225 177.183 322.225 177.734C322.225 178.275 322.435 178.705 322.855 179.022C323.285 179.339 323.882 179.498 324.647 179.498ZM333.757 185.084C333.001 185.084 332.329 184.888 331.741 184.496C331.153 184.095 330.691 183.525 330.355 182.788C330.019 182.041 329.851 181.145 329.851 180.1C329.851 179.055 330.019 178.163 330.355 177.426C330.691 176.679 331.153 176.11 331.741 175.718C332.329 175.317 333.001 175.116 333.757 175.116C334.513 175.116 335.185 175.317 335.773 175.718C336.361 176.11 336.823 176.679 337.159 177.426C337.504 178.163 337.677 179.055 337.677 180.1C337.677 181.145 337.504 182.041 337.159 182.788C336.823 183.525 336.361 184.095 335.773 184.496C335.185 184.888 334.513 185.084 333.757 185.084ZM333.757 184.16C334.336 184.16 334.84 184.006 335.269 183.698C335.698 183.381 336.034 182.923 336.277 182.326C336.52 181.719 336.641 180.977 336.641 180.1C336.641 179.223 336.52 178.485 336.277 177.888C336.034 177.281 335.698 176.824 335.269 176.516C334.84 176.199 334.336 176.04 333.757 176.04C333.197 176.04 332.698 176.199 332.259 176.516C331.82 176.824 331.48 177.281 331.237 177.888C330.994 178.485 330.873 179.223 330.873 180.1C330.873 180.977 330.994 181.719 331.237 182.326C331.48 182.923 331.82 183.381 332.259 183.698C332.698 184.006 333.197 184.16 333.757 184.16ZM340.437 185L347.129 175.2H347.955L341.263 185H340.437ZM341.193 180.45C340.754 180.45 340.367 180.343 340.031 180.128C339.695 179.904 339.433 179.591 339.247 179.19C339.069 178.789 338.981 178.322 338.981 177.79C338.981 177.258 339.069 176.791 339.247 176.39C339.433 175.989 339.695 175.681 340.031 175.466C340.367 175.242 340.754 175.13 341.193 175.13C341.631 175.13 342.014 175.242 342.341 175.466C342.677 175.681 342.938 175.989 343.125 176.39C343.311 176.791 343.405 177.258 343.405 177.79C343.405 178.322 343.311 178.789 343.125 179.19C342.938 179.591 342.677 179.904 342.341 180.128C342.014 180.343 341.631 180.45 341.193 180.45ZM341.193 179.82C341.65 179.82 342.014 179.643 342.285 179.288C342.565 178.924 342.705 178.425 342.705 177.79C342.705 177.155 342.565 176.661 342.285 176.306C342.014 175.942 341.65 175.76 341.193 175.76C340.726 175.76 340.357 175.942 340.087 176.306C339.816 176.661 339.681 177.155 339.681 177.79C339.681 178.425 339.816 178.924 340.087 179.288C340.357 179.643 340.726 179.82 341.193 179.82ZM347.199 185.07C346.769 185.07 346.387 184.963 346.051 184.748C345.715 184.524 345.453 184.211 345.267 183.81C345.08 183.409 344.987 182.942 344.987 182.41C344.987 181.878 345.08 181.411 345.267 181.01C345.453 180.609 345.715 180.301 346.051 180.086C346.387 179.862 346.769 179.75 347.199 179.75C347.647 179.75 348.034 179.862 348.361 180.086C348.697 180.301 348.953 180.609 349.131 181.01C349.317 181.411 349.411 181.878 349.411 182.41C349.411 182.942 349.317 183.409 349.131 183.81C348.953 184.211 348.697 184.524 348.361 184.748C348.034 184.963 347.647 185.07 347.199 185.07ZM347.199 184.44C347.656 184.44 348.02 184.263 348.291 183.908C348.571 183.544 348.711 183.045 348.711 182.41C348.711 181.775 348.571 181.281 348.291 180.926C348.02 180.562 347.656 180.38 347.199 180.38C346.741 180.38 346.373 180.562 346.093 180.926C345.822 181.281 345.687 181.775 345.687 182.41C345.687 183.045 345.822 183.544 346.093 183.908C346.373 184.263 346.741 184.44 347.199 184.44Z" fill="#D8D8D8"/>
<path d="M3.78 91.116C4.648 91.116 5.38067 91.312 5.978 91.704C6.57533 92.0867 7.028 92.642 7.336 93.37C7.644 94.098 7.798 94.98 7.798 96.016C7.798 97.1173 7.60667 98.046 7.224 98.802C6.85067 99.558 6.328 100.127 5.656 100.51C4.984 100.893 4.20467 101.084 3.318 101.084C2.87933 101.084 2.45933 101.042 2.058 100.958C1.666 100.874 1.31133 100.739 0.994 100.552L1.4 99.74C1.652 99.908 1.94133 100.029 2.268 100.104C2.604 100.169 2.94933 100.202 3.304 100.202C4.35867 100.202 5.19867 99.866 5.824 99.194C6.45867 98.522 6.776 97.5187 6.776 96.184C6.776 95.9693 6.762 95.7127 6.734 95.414C6.71533 95.1153 6.664 94.8167 6.58 94.518L6.93 94.784C6.83667 95.2693 6.636 95.6847 6.328 96.03C6.02933 96.366 5.656 96.6227 5.208 96.8C4.76933 96.9773 4.27933 97.066 3.738 97.066C3.094 97.066 2.52 96.9447 2.016 96.702C1.52133 96.4593 1.134 96.1187 0.854 95.68C0.574 95.2413 0.434 94.7233 0.434 94.126C0.434 93.51 0.578667 92.978 0.868 92.53C1.15733 92.082 1.554 91.7367 2.058 91.494C2.57133 91.242 3.14533 91.116 3.78 91.116ZM3.822 91.97C3.35533 91.97 2.94 92.0587 2.576 92.236C2.22133 92.404 1.94133 92.6467 1.736 92.964C1.53067 93.2813 1.428 93.6593 1.428 94.098C1.428 94.742 1.64733 95.2553 2.086 95.638C2.534 96.0207 3.136 96.212 3.892 96.212C4.396 96.212 4.83467 96.1187 5.208 95.932C5.59067 95.7453 5.88467 95.4887 6.09 95.162C6.30467 94.8353 6.412 94.4713 6.412 94.07C6.412 93.706 6.314 93.3653 6.118 93.048C5.922 92.7307 5.63267 92.474 5.25 92.278C4.86733 92.0727 4.39133 91.97 3.822 91.97ZM13.1653 101.084C12.4093 101.084 11.7373 100.888 11.1493 100.496C10.5613 100.095 10.0993 99.5253 9.76325 98.788C9.42725 98.0413 9.25925 97.1453 9.25925 96.1C9.25925 95.0547 9.42725 94.1633 9.76325 93.426C10.0993 92.6793 10.5613 92.11 11.1493 91.718C11.7373 91.3167 12.4093 91.116 13.1653 91.116C13.9213 91.116 14.5933 91.3167 15.1813 91.718C15.7693 92.11 16.2313 92.6793 16.5673 93.426C16.9126 94.1633 17.0853 95.0547 17.0853 96.1C17.0853 97.1453 16.9126 98.0413 16.5673 98.788C16.2313 99.5253 15.7693 100.095 15.1813 100.496C14.5933 100.888 13.9213 101.084 13.1653 101.084ZM13.1653 100.16C13.7439 100.16 14.2479 100.006 14.6773 99.698C15.1066 99.3807 15.4426 98.9233 15.6853 98.326C15.9279 97.7193 16.0493 96.9773 16.0493 96.1C16.0493 95.2227 15.9279 94.4853 15.6853 93.888C15.4426 93.2813 15.1066 92.824 14.6773 92.516C14.2479 92.1987 13.7439 92.04 13.1653 92.04C12.6053 92.04 12.1059 92.1987 11.6673 92.516C11.2286 92.824 10.8879 93.2813 10.6453 93.888C10.4026 94.4853 10.2812 95.2227 10.2812 96.1C10.2812 96.9773 10.4026 97.7193 10.6453 98.326C10.8879 98.9233 11.2286 99.3807 11.6673 99.698C12.1059 100.006 12.6053 100.16 13.1653 100.16ZM19.8448 101L26.5368 91.2H27.3628L20.6708 101H19.8448ZM20.6008 96.45C20.1621 96.45 19.7748 96.3427 19.4388 96.128C19.1028 95.904 18.8414 95.5913 18.6548 95.19C18.4774 94.7887 18.3888 94.322 18.3888 93.79C18.3888 93.258 18.4774 92.7913 18.6548 92.39C18.8414 91.9887 19.1028 91.6807 19.4388 91.466C19.7748 91.242 20.1621 91.13 20.6008 91.13C21.0394 91.13 21.4221 91.242 21.7488 91.466C22.0848 91.6807 22.3461 91.9887 22.5328 92.39C22.7194 92.7913 22.8128 93.258 22.8128 93.79C22.8128 94.322 22.7194 94.7887 22.5328 95.19C22.3461 95.5913 22.0848 95.904 21.7488 96.128C21.4221 96.3427 21.0394 96.45 20.6008 96.45ZM20.6008 95.82C21.0581 95.82 21.4221 95.6427 21.6928 95.288C21.9728 94.924 22.1128 94.4247 22.1128 93.79C22.1128 93.1553 21.9728 92.6607 21.6928 92.306C21.4221 91.942 21.0581 91.76 20.6008 91.76C20.1341 91.76 19.7654 91.942 19.4948 92.306C19.2241 92.6607 19.0888 93.1553 19.0888 93.79C19.0888 94.4247 19.2241 94.924 19.4948 95.288C19.7654 95.6427 20.1341 95.82 20.6008 95.82ZM26.6068 101.07C26.1774 101.07 25.7948 100.963 25.4588 100.748C25.1228 100.524 24.8614 100.211 24.6748 99.81C24.4881 99.4087 24.3948 98.942 24.3948 98.41C24.3948 97.878 24.4881 97.4113 24.6748 97.01C24.8614 96.6087 25.1228 96.3007 25.4588 96.086C25.7948 95.862 26.1774 95.75 26.6068 95.75C27.0548 95.75 27.4421 95.862 27.7688 96.086C28.1048 96.3007 28.3614 96.6087 28.5388 97.01C28.7254 97.4113 28.8188 97.878 28.8188 98.41C28.8188 98.942 28.7254 99.4087 28.5388 99.81C28.3614 100.211 28.1048 100.524 27.7688 100.748C27.4421 100.963 27.0548 101.07 26.6068 101.07ZM26.6068 100.44C27.0641 100.44 27.4281 100.263 27.6988 99.908C27.9788 99.544 28.1188 99.0447 28.1188 98.41C28.1188 97.7753 27.9788 97.2807 27.6988 96.926C27.4281 96.562 27.0641 96.38 26.6068 96.38C26.1494 96.38 25.7808 96.562 25.5008 96.926C25.2301 97.2807 25.0948 97.7753 25.0948 98.41C25.0948 99.0447 25.2301 99.544 25.5008 99.908C25.7808 100.263 26.1494 100.44 26.6068 100.44Z" fill="#D8D8D8"/>
<path d="M48 96L304 96" stroke="#F3F3F3" stroke-width="1.5" stroke-linecap="round"/>
<path d="M324.372 91.116C325.24 91.116 325.972 91.312 326.57 91.704C327.167 92.0867 327.62 92.642 327.928 93.37C328.236 94.098 328.39 94.98 328.39 96.016C328.39 97.1173 328.198 98.046 327.816 98.802C327.442 99.558 326.92 100.127 326.248 100.51C325.576 100.893 324.796 101.084 323.91 101.084C323.471 101.084 323.051 101.042 322.65 100.958C322.258 100.874 321.903 100.739 321.586 100.552L321.992 99.74C322.244 99.908 322.533 100.029 322.86 100.104C323.196 100.169 323.541 100.202 323.896 100.202C324.95 100.202 325.79 99.866 326.416 99.194C327.05 98.522 327.368 97.5187 327.368 96.184C327.368 95.9693 327.354 95.7127 327.326 95.414C327.307 95.1153 327.256 94.8167 327.172 94.518L327.522 94.784C327.428 95.2693 327.228 95.6847 326.92 96.03C326.621 96.366 326.248 96.6227 325.8 96.8C325.361 96.9773 324.871 97.066 324.33 97.066C323.686 97.066 323.112 96.9447 322.608 96.702C322.113 96.4593 321.726 96.1187 321.446 95.68C321.166 95.2413 321.026 94.7233 321.026 94.126C321.026 93.51 321.17 92.978 321.46 92.53C321.749 92.082 322.146 91.7367 322.65 91.494C323.163 91.242 323.737 91.116 324.372 91.116ZM324.414 91.97C323.947 91.97 323.532 92.0587 323.168 92.236C322.813 92.404 322.533 92.6467 322.328 92.964C322.122 93.2813 322.02 93.6593 322.02 94.098C322.02 94.742 322.239 95.2553 322.678 95.638C323.126 96.0207 323.728 96.212 324.484 96.212C324.988 96.212 325.426 96.1187 325.8 95.932C326.182 95.7453 326.476 95.4887 326.682 95.162C326.896 94.8353 327.004 94.4713 327.004 94.07C327.004 93.706 326.906 93.3653 326.71 93.048C326.514 92.7307 326.224 92.474 325.842 92.278C325.459 92.0727 324.983 91.97 324.414 91.97ZM333.757 101.084C333.001 101.084 332.329 100.888 331.741 100.496C331.153 100.095 330.691 99.5253 330.355 98.788C330.019 98.0413 329.851 97.1453 329.851 96.1C329.851 95.0547 330.019 94.1633 330.355 93.426C330.691 92.6793 331.153 92.11 331.741 91.718C332.329 91.3167 333.001 91.116 333.757 91.116C334.513 91.116 335.185 91.3167 335.773 91.718C336.361 92.11 336.823 92.6793 337.159 93.426C337.504 94.1633 337.677 95.0547 337.677 96.1C337.677 97.1453 337.504 98.0413 337.159 98.788C336.823 99.5253 336.361 100.095 335.773 100.496C335.185 100.888 334.513 101.084 333.757 101.084ZM333.757 100.16C334.336 100.16 334.84 100.006 335.269 99.698C335.698 99.3807 336.034 98.9233 336.277 98.326C336.52 97.7193 336.641 96.9773 336.641 96.1C336.641 95.2227 336.52 94.4853 336.277 93.888C336.034 93.2813 335.698 92.824 335.269 92.516C334.84 92.1987 334.336 92.04 333.757 92.04C333.197 92.04 332.698 92.1987 332.259 92.516C331.82 92.824 331.48 93.2813 331.237 93.888C330.994 94.4853 330.873 95.2227 330.873 96.1C330.873 96.9773 330.994 97.7193 331.237 98.326C331.48 98.9233 331.82 99.3807 332.259 99.698C332.698 100.006 333.197 100.16 333.757 100.16ZM340.437 101L347.129 91.2H347.955L341.263 101H340.437ZM341.193 96.45C340.754 96.45 340.367 96.3427 340.031 96.128C339.695 95.904 339.433 95.5913 339.247 95.19C339.069 94.7887 338.981 94.322 338.981 93.79C338.981 93.258 339.069 92.7913 339.247 92.39C339.433 91.9887 339.695 91.6807 340.031 91.466C340.367 91.242 340.754 91.13 341.193 91.13C341.631 91.13 342.014 91.242 342.341 91.466C342.677 91.6807 342.938 91.9887 343.125 92.39C343.311 92.7913 343.405 93.258 343.405 93.79C343.405 94.322 343.311 94.7887 343.125 95.19C342.938 95.5913 342.677 95.904 342.341 96.128C342.014 96.3427 341.631 96.45 341.193 96.45ZM341.193 95.82C341.65 95.82 342.014 95.6427 342.285 95.288C342.565 94.924 342.705 94.4247 342.705 93.79C342.705 93.1553 342.565 92.6607 342.285 92.306C342.014 91.942 341.65 91.76 341.193 91.76C340.726 91.76 340.357 91.942 340.087 92.306C339.816 92.6607 339.681 93.1553 339.681 93.79C339.681 94.4247 339.816 94.924 340.087 95.288C340.357 95.6427 340.726 95.82 341.193 95.82ZM347.199 101.07C346.769 101.07 346.387 100.963 346.051 100.748C345.715 100.524 345.453 100.211 345.267 99.81C345.08 99.4087 344.987 98.942 344.987 98.41C344.987 97.878 345.08 97.4113 345.267 97.01C345.453 96.6087 345.715 96.3007 346.051 96.086C346.387 95.862 346.769 95.75 347.199 95.75C347.647 95.75 348.034 95.862 348.361 96.086C348.697 96.3007 348.953 96.6087 349.131 97.01C349.317 97.4113 349.411 97.878 349.411 98.41C349.411 98.942 349.317 99.4087 349.131 99.81C348.953 100.211 348.697 100.524 348.361 100.748C348.034 100.963 347.647 101.07 347.199 101.07ZM347.199 100.44C347.656 100.44 348.02 100.263 348.291 99.908C348.571 99.544 348.711 99.0447 348.711 98.41C348.711 97.7753 348.571 97.2807 348.291 96.926C348.02 96.562 347.656 96.38 347.199 96.38C346.741 96.38 346.373 96.562 346.093 96.926C345.822 97.2807 345.687 97.7753 345.687 98.41C345.687 99.0447 345.822 99.544 346.093 99.908C346.373 100.263 346.741 100.44 347.199 100.44Z" fill="#D8D8D8"/>
<path d="M2.436 17V7.62L2.884 8.096H0.126V7.2H3.444V17H2.436ZM9.69259 17.084C8.93659 17.084 8.26459 16.888 7.67659 16.496C7.08859 16.0947 6.62659 15.5253 6.29059 14.788C5.95459 14.0413 5.78659 13.1453 5.78659 12.1C5.78659 11.0547 5.95459 10.1633 6.29059 9.426C6.62659 8.67933 7.08859 8.11 7.67659 7.718C8.26459 7.31667 8.93659 7.116 9.69259 7.116C10.4486 7.116 11.1206 7.31667 11.7086 7.718C12.2966 8.11 12.7586 8.67933 13.0946 9.426C13.4399 10.1633 13.6126 11.0547 13.6126 12.1C13.6126 13.1453 13.4399 14.0413 13.0946 14.788C12.7586 15.5253 12.2966 16.0947 11.7086 16.496C11.1206 16.888 10.4486 17.084 9.69259 17.084ZM9.69259 16.16C10.2713 16.16 10.7753 16.006 11.2046 15.698C11.6339 15.3807 11.9699 14.9233 12.2126 14.326C12.4553 13.7193 12.5766 12.9773 12.5766 12.1C12.5766 11.2227 12.4553 10.4853 12.2126 9.888C11.9699 9.28133 11.6339 8.824 11.2046 8.516C10.7753 8.19867 10.2713 8.04 9.69259 8.04C9.13259 8.04 8.63326 8.19867 8.19459 8.516C7.75593 8.824 7.41526 9.28133 7.17259 9.888C6.92993 10.4853 6.80859 11.2227 6.80859 12.1C6.80859 12.9773 6.92993 13.7193 7.17259 14.326C7.41526 14.9233 7.75593 15.3807 8.19459 15.698C8.63326 16.006 9.13259 16.16 9.69259 16.16ZM18.9621 17.084C18.2061 17.084 17.5341 16.888 16.9461 16.496C16.3581 16.0947 15.8961 15.5253 15.5601 14.788C15.2241 14.0413 15.0561 13.1453 15.0561 12.1C15.0561 11.0547 15.2241 10.1633 15.5601 9.426C15.8961 8.67933 16.3581 8.11 16.9461 7.718C17.5341 7.31667 18.2061 7.116 18.9621 7.116C19.7181 7.116 20.3901 7.31667 20.9781 7.718C21.5661 8.11 22.0281 8.67933 22.3641 9.426C22.7095 10.1633 22.8821 11.0547 22.8821 12.1C22.8821 13.1453 22.7095 14.0413 22.3641 14.788C22.0281 15.5253 21.5661 16.0947 20.9781 16.496C20.3901 16.888 19.7181 17.084 18.9621 17.084ZM18.9621 16.16C19.5408 16.16 20.0448 16.006 20.4741 15.698C20.9035 15.3807 21.2395 14.9233 21.4821 14.326C21.7248 13.7193 21.8461 12.9773 21.8461 12.1C21.8461 11.2227 21.7248 10.4853 21.4821 9.888C21.2395 9.28133 20.9035 8.824 20.4741 8.516C20.0448 8.19867 19.5408 8.04 18.9621 8.04C18.4021 8.04 17.9028 8.19867 17.4641 8.516C17.0255 8.824 16.6848 9.28133 16.4421 9.888C16.1995 10.4853 16.0781 11.2227 16.0781 12.1C16.0781 12.9773 16.1995 13.7193 16.4421 14.326C16.6848 14.9233 17.0255 15.3807 17.4641 15.698C17.9028 16.006 18.4021 16.16 18.9621 16.16ZM25.6417 17L32.3337 7.2H33.1597L26.4677 17H25.6417ZM26.3977 12.45C25.959 12.45 25.5717 12.3427 25.2357 12.128C24.8997 11.904 24.6383 11.5913 24.4517 11.19C24.2743 10.7887 24.1857 10.322 24.1857 9.79C24.1857 9.258 24.2743 8.79133 24.4517 8.39C24.6383 7.98867 24.8997 7.68067 25.2357 7.466C25.5717 7.242 25.959 7.13 26.3977 7.13C26.8363 7.13 27.219 7.242 27.5457 7.466C27.8817 7.68067 28.143 7.98867 28.3297 8.39C28.5163 8.79133 28.6097 9.258 28.6097 9.79C28.6097 10.322 28.5163 10.7887 28.3297 11.19C28.143 11.5913 27.8817 11.904 27.5457 12.128C27.219 12.3427 26.8363 12.45 26.3977 12.45ZM26.3977 11.82C26.855 11.82 27.219 11.6427 27.4897 11.288C27.7697 10.924 27.9097 10.4247 27.9097 9.79C27.9097 9.15533 27.7697 8.66067 27.4897 8.306C27.219 7.942 26.855 7.76 26.3977 7.76C25.931 7.76 25.5623 7.942 25.2917 8.306C25.021 8.66067 24.8857 9.15533 24.8857 9.79C24.8857 10.4247 25.021 10.924 25.2917 11.288C25.5623 11.6427 25.931 11.82 26.3977 11.82ZM32.4037 17.07C31.9743 17.07 31.5917 16.9627 31.2557 16.748C30.9197 16.524 30.6583 16.2113 30.4717 15.81C30.285 15.4087 30.1917 14.942 30.1917 14.41C30.1917 13.878 30.285 13.4113 30.4717 13.01C30.6583 12.6087 30.9197 12.3007 31.2557 12.086C31.5917 11.862 31.9743 11.75 32.4037 11.75C32.8517 11.75 33.239 11.862 33.5657 12.086C33.9017 12.3007 34.1583 12.6087 34.3357 13.01C34.5223 13.4113 34.6157 13.878 34.6157 14.41C34.6157 14.942 34.5223 15.4087 34.3357 15.81C34.1583 16.2113 33.9017 16.524 33.5657 16.748C33.239 16.9627 32.8517 17.07 32.4037 17.07ZM32.4037 16.44C32.861 16.44 33.225 16.2627 33.4957 15.908C33.7757 15.544 33.9157 15.0447 33.9157 14.41C33.9157 13.7753 33.7757 13.2807 33.4957 12.926C33.225 12.562 32.861 12.38 32.4037 12.38C31.9463 12.38 31.5777 12.562 31.2977 12.926C31.027 13.2807 30.8917 13.7753 30.8917 14.41C30.8917 15.0447 31.027 15.544 31.2977 15.908C31.5777 16.2627 31.9463 16.44 32.4037 16.44Z" fill="#D8D8D8"/>
<path d="M48 12L304 12" stroke="#F3F3F3" stroke-width="1.5" stroke-linecap="round"/>
<path d="M317.231 17V7.62L317.679 8.096H314.921V7.2H318.239V17H317.231ZM324.488 17.084C323.732 17.084 323.06 16.888 322.472 16.496C321.884 16.0947 321.422 15.5253 321.086 14.788C320.75 14.0413 320.582 13.1453 320.582 12.1C320.582 11.0547 320.75 10.1633 321.086 9.426C321.422 8.67933 321.884 8.11 322.472 7.718C323.06 7.31667 323.732 7.116 324.488 7.116C325.244 7.116 325.916 7.31667 326.504 7.718C327.092 8.11 327.554 8.67933 327.89 9.426C328.235 10.1633 328.408 11.0547 328.408 12.1C328.408 13.1453 328.235 14.0413 327.89 14.788C327.554 15.5253 327.092 16.0947 326.504 16.496C325.916 16.888 325.244 17.084 324.488 17.084ZM324.488 16.16C325.066 16.16 325.57 16.006 326 15.698C326.429 15.3807 326.765 14.9233 327.008 14.326C327.25 13.7193 327.372 12.9773 327.372 12.1C327.372 11.2227 327.25 10.4853 327.008 9.888C326.765 9.28133 326.429 8.824 326 8.516C325.57 8.19867 325.066 8.04 324.488 8.04C323.928 8.04 323.428 8.19867 322.99 8.516C322.551 8.824 322.21 9.28133 321.968 9.888C321.725 10.4853 321.604 11.2227 321.604 12.1C321.604 12.9773 321.725 13.7193 321.968 14.326C322.21 14.9233 322.551 15.3807 322.99 15.698C323.428 16.006 323.928 16.16 324.488 16.16ZM333.757 17.084C333.001 17.084 332.329 16.888 331.741 16.496C331.153 16.0947 330.691 15.5253 330.355 14.788C330.019 14.0413 329.851 13.1453 329.851 12.1C329.851 11.0547 330.019 10.1633 330.355 9.426C330.691 8.67933 331.153 8.11 331.741 7.718C332.329 7.31667 333.001 7.116 333.757 7.116C334.513 7.116 335.185 7.31667 335.773 7.718C336.361 8.11 336.823 8.67933 337.159 9.426C337.504 10.1633 337.677 11.0547 337.677 12.1C337.677 13.1453 337.504 14.0413 337.159 14.788C336.823 15.5253 336.361 16.0947 335.773 16.496C335.185 16.888 334.513 17.084 333.757 17.084ZM333.757 16.16C334.336 16.16 334.84 16.006 335.269 15.698C335.698 15.3807 336.034 14.9233 336.277 14.326C336.52 13.7193 336.641 12.9773 336.641 12.1C336.641 11.2227 336.52 10.4853 336.277 9.888C336.034 9.28133 335.698 8.824 335.269 8.516C334.84 8.19867 334.336 8.04 333.757 8.04C333.197 8.04 332.698 8.19867 332.259 8.516C331.82 8.824 331.48 9.28133 331.237 9.888C330.994 10.4853 330.873 11.2227 330.873 12.1C330.873 12.9773 330.994 13.7193 331.237 14.326C331.48 14.9233 331.82 15.3807 332.259 15.698C332.698 16.006 333.197 16.16 333.757 16.16ZM340.437 17L347.129 7.2H347.955L341.263 17H340.437ZM341.193 12.45C340.754 12.45 340.367 12.3427 340.031 12.128C339.695 11.904 339.433 11.5913 339.247 11.19C339.069 10.7887 338.981 10.322 338.981 9.79C338.981 9.258 339.069 8.79133 339.247 8.39C339.433 7.98867 339.695 7.68067 340.031 7.466C340.367 7.242 340.754 7.13 341.193 7.13C341.631 7.13 342.014 7.242 342.341 7.466C342.677 7.68067 342.938 7.98867 343.125 8.39C343.311 8.79133 343.405 9.258 343.405 9.79C343.405 10.322 343.311 10.7887 343.125 11.19C342.938 11.5913 342.677 11.904 342.341 12.128C342.014 12.3427 341.631 12.45 341.193 12.45ZM341.193 11.82C341.65 11.82 342.014 11.6427 342.285 11.288C342.565 10.924 342.705 10.4247 342.705 9.79C342.705 9.15533 342.565 8.66067 342.285 8.306C342.014 7.942 341.65 7.76 341.193 7.76C340.726 7.76 340.357 7.942 340.087 8.306C339.816 8.66067 339.681 9.15533 339.681 9.79C339.681 10.4247 339.816 10.924 340.087 11.288C340.357 11.6427 340.726 11.82 341.193 11.82ZM347.199 17.07C346.769 17.07 346.387 16.9627 346.051 16.748C345.715 16.524 345.453 16.2113 345.267 15.81C345.08 15.4087 344.987 14.942 344.987 14.41C344.987 13.878 345.08 13.4113 345.267 13.01C345.453 12.6087 345.715 12.3007 346.051 12.086C346.387 11.862 346.769 11.75 347.199 11.75C347.647 11.75 348.034 11.862 348.361 12.086C348.697 12.3007 348.953 12.6087 349.131 13.01C349.317 13.4113 349.411 13.878 349.411 14.41C349.411 14.942 349.317 15.4087 349.131 15.81C348.953 16.2113 348.697 16.524 348.361 16.748C348.034 16.9627 347.647 17.07 347.199 17.07ZM347.199 16.44C347.656 16.44 348.02 16.2627 348.291 15.908C348.571 15.544 348.711 15.0447 348.711 14.41C348.711 13.7753 348.571 13.2807 348.291 12.926C348.02 12.562 347.656 12.38 347.199 12.38C346.741 12.38 346.373 12.562 346.093 12.926C345.822 13.2807 345.687 13.7753 345.687 14.41C345.687 15.0447 345.822 15.544 346.093 15.908C346.373 16.2627 346.741 16.44 347.199 16.44Z" fill="#D8D8D8"/>
<rect x="48" y="162" width="25" height="102" rx="4" fill="url(#paint0_linear_7905_1496)"/>
<rect x="73" y="117" width="25" height="147" rx="4" fill="url(#paint1_linear_7905_1496)"/>
<rect x="150" y="168" width="25" height="96" rx="4" fill="url(#paint2_linear_7905_1496)"/>
<rect x="175" y="43" width="25" height="221" rx="4" fill="url(#paint3_linear_7905_1496)"/>
<rect x="254" y="71" width="25" height="193" rx="4" fill="url(#paint4_linear_7905_1496)"/>
<rect x="279" y="21" width="25" height="243" rx="4" fill="url(#paint5_linear_7905_1496)"/>
<g filter="url(#filter0_bd_7905_1496)">
<rect x="20" y="147" width="46" height="22" rx="6" fill="white" fill-opacity="0.85" shape-rendering="crispEdges"/>
</g>
<path d="M28.9 162.12C28.204 162.12 27.6 162.016 27.088 161.808C26.576 161.6 26.18 161.308 25.9 160.932C25.62 160.548 25.48 160.1 25.48 159.588C25.48 159.076 25.616 158.644 25.888 158.292C26.16 157.94 26.552 157.672 27.064 157.488C27.576 157.304 28.188 157.212 28.9 157.212C29.612 157.212 30.224 157.304 30.736 157.488C31.256 157.672 31.652 157.944 31.924 158.304C32.204 158.656 32.344 159.084 32.344 159.588C32.344 160.1 32.2 160.548 31.912 160.932C31.632 161.308 31.232 161.6 30.712 161.808C30.2 162.016 29.596 162.12 28.9 162.12ZM28.9 160.896C29.476 160.896 29.932 160.776 30.268 160.536C30.604 160.296 30.772 159.964 30.772 159.54C30.772 159.124 30.604 158.796 30.268 158.556C29.932 158.316 29.476 158.196 28.9 158.196C28.324 158.196 27.872 158.316 27.544 158.556C27.216 158.796 27.052 159.124 27.052 159.54C27.052 159.964 27.216 160.296 27.544 160.536C27.872 160.776 28.324 160.896 28.9 160.896ZM28.9 158.028C28.252 158.028 27.696 157.944 27.232 157.776C26.768 157.6 26.408 157.348 26.152 157.02C25.904 156.684 25.78 156.284 25.78 155.82C25.78 155.34 25.908 154.928 26.164 154.584C26.428 154.232 26.796 153.96 27.268 153.768C27.74 153.576 28.284 153.48 28.9 153.48C29.524 153.48 30.072 153.576 30.544 153.768C31.016 153.96 31.384 154.232 31.648 154.584C31.912 154.928 32.044 155.34 32.044 155.82C32.044 156.284 31.916 156.684 31.66 157.02C31.412 157.348 31.052 157.6 30.58 157.776C30.108 157.944 29.548 158.028 28.9 158.028ZM28.9 157.068C29.396 157.068 29.788 156.964 30.076 156.756C30.364 156.54 30.508 156.252 30.508 155.892C30.508 155.516 30.36 155.224 30.064 155.016C29.768 154.808 29.38 154.704 28.9 154.704C28.42 154.704 28.036 154.808 27.748 155.016C27.46 155.224 27.316 155.516 27.316 155.892C27.316 156.252 27.456 156.54 27.736 156.756C28.024 156.964 28.412 157.068 28.9 157.068ZM33.2481 162V160.956L36.5841 157.788C36.8641 157.524 37.0721 157.292 37.2081 157.092C37.3441 156.892 37.4321 156.708 37.4721 156.54C37.5201 156.364 37.5441 156.2 37.5441 156.048C37.5441 155.664 37.4121 155.368 37.1481 155.16C36.8841 154.944 36.4961 154.836 35.9841 154.836C35.5761 154.836 35.2041 154.908 34.8681 155.052C34.5401 155.196 34.2561 155.416 34.0161 155.712L32.9241 154.872C33.2521 154.432 33.6921 154.092 34.2441 153.852C34.8041 153.604 35.4281 153.48 36.1161 153.48C36.7241 153.48 37.2521 153.58 37.7001 153.78C38.1561 153.972 38.5041 154.248 38.7441 154.608C38.9921 154.968 39.1161 155.396 39.1161 155.892C39.1161 156.164 39.0801 156.436 39.0081 156.708C38.9361 156.972 38.8001 157.252 38.6001 157.548C38.4001 157.844 38.1081 158.176 37.7241 158.544L34.8561 161.268L34.5321 160.68H39.4401V162H33.2481ZM41.3937 162.084C41.1217 162.084 40.8897 161.992 40.6977 161.808C40.5057 161.616 40.4097 161.376 40.4097 161.088C40.4097 160.784 40.5057 160.544 40.6977 160.368C40.8897 160.184 41.1217 160.092 41.3937 160.092C41.6657 160.092 41.8977 160.184 42.0897 160.368C42.2817 160.544 42.3777 160.784 42.3777 161.088C42.3777 161.376 42.2817 161.616 42.0897 161.808C41.8977 161.992 41.6657 162.084 41.3937 162.084ZM46.2194 153.48C46.9874 153.48 47.6394 153.644 48.1754 153.972C48.7194 154.292 49.1354 154.76 49.4234 155.376C49.7114 155.992 49.8554 156.752 49.8554 157.656C49.8554 158.616 49.6794 159.428 49.3274 160.092C48.9834 160.756 48.5034 161.26 47.8874 161.604C47.2714 161.948 46.5554 162.12 45.7394 162.12C45.3154 162.12 44.9114 162.076 44.5274 161.988C44.1434 161.9 43.8114 161.764 43.5314 161.58L44.1074 160.404C44.3394 160.556 44.5914 160.664 44.8634 160.728C45.1354 160.784 45.4154 160.812 45.7034 160.812C46.4954 160.812 47.1234 160.568 47.5874 160.08C48.0514 159.592 48.2834 158.872 48.2834 157.92C48.2834 157.768 48.2794 157.592 48.2714 157.392C48.2634 157.184 48.2354 156.976 48.1874 156.768L48.6674 157.296C48.5314 157.624 48.3354 157.9 48.0794 158.124C47.8234 158.34 47.5234 158.504 47.1794 158.616C46.8354 158.728 46.4554 158.784 46.0394 158.784C45.4954 158.784 45.0034 158.68 44.5634 158.472C44.1314 158.256 43.7874 157.956 43.5314 157.572C43.2754 157.18 43.1474 156.724 43.1474 156.204C43.1474 155.644 43.2834 155.164 43.5554 154.764C43.8274 154.356 44.1954 154.04 44.6594 153.816C45.1314 153.592 45.6514 153.48 46.2194 153.48ZM46.3034 154.704C45.9834 154.704 45.6994 154.764 45.4514 154.884C45.2034 154.996 45.0074 155.16 44.8634 155.376C44.7274 155.584 44.6594 155.836 44.6594 156.132C44.6594 156.572 44.8114 156.92 45.1154 157.176C45.4194 157.432 45.8274 157.56 46.3394 157.56C46.6754 157.56 46.9714 157.5 47.2274 157.38C47.4834 157.252 47.6834 157.08 47.8274 156.864C47.9714 156.64 48.0434 156.392 48.0434 156.12C48.0434 155.856 47.9754 155.62 47.8394 155.412C47.7034 155.196 47.5074 155.024 47.2514 154.896C46.9954 154.768 46.6794 154.704 46.3034 154.704ZM52.1108 162L57.8468 153.6H58.7708L53.0348 162H52.1108ZM52.7828 158.112C52.3988 158.112 52.0588 158.016 51.7628 157.824C51.4668 157.632 51.2348 157.364 51.0668 157.02C50.9068 156.676 50.8268 156.276 50.8268 155.82C50.8268 155.364 50.9068 154.964 51.0668 154.62C51.2348 154.276 51.4668 154.008 51.7628 153.816C52.0588 153.624 52.3988 153.528 52.7828 153.528C53.1748 153.528 53.5148 153.624 53.8028 153.816C54.0988 154.008 54.3268 154.276 54.4868 154.62C54.6468 154.964 54.7268 155.364 54.7268 155.82C54.7268 156.276 54.6468 156.676 54.4868 157.02C54.3268 157.364 54.0988 157.632 53.8028 157.824C53.5148 158.016 53.1748 158.112 52.7828 158.112ZM52.7828 157.428C53.1508 157.428 53.4388 157.288 53.6468 157.008C53.8548 156.72 53.9588 156.324 53.9588 155.82C53.9588 155.316 53.8548 154.924 53.6468 154.644C53.4388 154.356 53.1508 154.212 52.7828 154.212C52.4228 154.212 52.1348 154.356 51.9188 154.644C51.7108 154.924 51.6068 155.316 51.6068 155.82C51.6068 156.316 51.7108 156.708 51.9188 156.996C52.1348 157.284 52.4228 157.428 52.7828 157.428ZM58.0988 162.072C57.7148 162.072 57.3748 161.976 57.0788 161.784C56.7828 161.592 56.5548 161.324 56.3948 160.98C56.2348 160.636 56.1548 160.236 56.1548 159.78C56.1548 159.324 56.2348 158.924 56.3948 158.58C56.5548 158.236 56.7828 157.968 57.0788 157.776C57.3748 157.584 57.7148 157.488 58.0988 157.488C58.4908 157.488 58.8308 157.584 59.1188 157.776C59.4148 157.968 59.6428 158.236 59.8028 158.58C59.9708 158.924 60.0548 159.324 60.0548 159.78C60.0548 160.236 59.9708 160.636 59.8028 160.98C59.6428 161.324 59.4148 161.592 59.1188 161.784C58.8308 161.976 58.4908 162.072 58.0988 162.072ZM58.0988 161.388C58.4588 161.388 58.7428 161.248 58.9508 160.968C59.1668 160.68 59.2748 160.284 59.2748 159.78C59.2748 159.284 59.1668 158.892 58.9508 158.604C58.7428 158.316 58.4588 158.172 58.0988 158.172C57.7388 158.172 57.4508 158.316 57.2348 158.604C57.0268 158.884 56.9228 159.276 56.9228 159.78C56.9228 160.284 57.0268 160.68 57.2348 160.968C57.4508 161.248 57.7388 161.388 58.0988 161.388Z" fill="#1C1C1C"/>
<g filter="url(#filter1_bd_7905_1496)">
<rect x="122" y="157" width="46" height="22" rx="6" fill="white" fill-opacity="0.85" shape-rendering="crispEdges"/>
</g>
<path d="M130.9 172.12C130.204 172.12 129.6 172.016 129.088 171.808C128.576 171.6 128.18 171.308 127.9 170.932C127.62 170.548 127.48 170.1 127.48 169.588C127.48 169.076 127.616 168.644 127.888 168.292C128.16 167.94 128.552 167.672 129.064 167.488C129.576 167.304 130.188 167.212 130.9 167.212C131.612 167.212 132.224 167.304 132.736 167.488C133.256 167.672 133.652 167.944 133.924 168.304C134.204 168.656 134.344 169.084 134.344 169.588C134.344 170.1 134.2 170.548 133.912 170.932C133.632 171.308 133.232 171.6 132.712 171.808C132.2 172.016 131.596 172.12 130.9 172.12ZM130.9 170.896C131.476 170.896 131.932 170.776 132.268 170.536C132.604 170.296 132.772 169.964 132.772 169.54C132.772 169.124 132.604 168.796 132.268 168.556C131.932 168.316 131.476 168.196 130.9 168.196C130.324 168.196 129.872 168.316 129.544 168.556C129.216 168.796 129.052 169.124 129.052 169.54C129.052 169.964 129.216 170.296 129.544 170.536C129.872 170.776 130.324 170.896 130.9 170.896ZM130.9 168.028C130.252 168.028 129.696 167.944 129.232 167.776C128.768 167.6 128.408 167.348 128.152 167.02C127.904 166.684 127.78 166.284 127.78 165.82C127.78 165.34 127.908 164.928 128.164 164.584C128.428 164.232 128.796 163.96 129.268 163.768C129.74 163.576 130.284 163.48 130.9 163.48C131.524 163.48 132.072 163.576 132.544 163.768C133.016 163.96 133.384 164.232 133.648 164.584C133.912 164.928 134.044 165.34 134.044 165.82C134.044 166.284 133.916 166.684 133.66 167.02C133.412 167.348 133.052 167.6 132.58 167.776C132.108 167.944 131.548 168.028 130.9 168.028ZM130.9 167.068C131.396 167.068 131.788 166.964 132.076 166.756C132.364 166.54 132.508 166.252 132.508 165.892C132.508 165.516 132.36 165.224 132.064 165.016C131.768 164.808 131.38 164.704 130.9 164.704C130.42 164.704 130.036 164.808 129.748 165.016C129.46 165.224 129.316 165.516 129.316 165.892C129.316 166.252 129.456 166.54 129.736 166.756C130.024 166.964 130.412 167.068 130.9 167.068ZM135.248 172V170.956L138.584 167.788C138.864 167.524 139.072 167.292 139.208 167.092C139.344 166.892 139.432 166.708 139.472 166.54C139.52 166.364 139.544 166.2 139.544 166.048C139.544 165.664 139.412 165.368 139.148 165.16C138.884 164.944 138.496 164.836 137.984 164.836C137.576 164.836 137.204 164.908 136.868 165.052C136.54 165.196 136.256 165.416 136.016 165.712L134.924 164.872C135.252 164.432 135.692 164.092 136.244 163.852C136.804 163.604 137.428 163.48 138.116 163.48C138.724 163.48 139.252 163.58 139.7 163.78C140.156 163.972 140.504 164.248 140.744 164.608C140.992 164.968 141.116 165.396 141.116 165.892C141.116 166.164 141.08 166.436 141.008 166.708C140.936 166.972 140.8 167.252 140.6 167.548C140.4 167.844 140.108 168.176 139.724 168.544L136.856 171.268L136.532 170.68H141.44V172H135.248ZM143.394 172.084C143.122 172.084 142.89 171.992 142.698 171.808C142.506 171.616 142.41 171.376 142.41 171.088C142.41 170.784 142.506 170.544 142.698 170.368C142.89 170.184 143.122 170.092 143.394 170.092C143.666 170.092 143.898 170.184 144.09 170.368C144.282 170.544 144.378 170.784 144.378 171.088C144.378 171.376 144.282 171.616 144.09 171.808C143.898 171.992 143.666 172.084 143.394 172.084ZM148.883 172.12C148.123 172.12 147.471 171.96 146.927 171.64C146.383 171.312 145.967 170.84 145.679 170.224C145.391 169.608 145.247 168.848 145.247 167.944C145.247 166.984 145.419 166.172 145.763 165.508C146.115 164.844 146.599 164.34 147.215 163.996C147.839 163.652 148.555 163.48 149.363 163.48C149.787 163.48 150.191 163.524 150.575 163.612C150.967 163.7 151.299 163.836 151.571 164.02L150.995 165.196C150.763 165.044 150.511 164.94 150.239 164.884C149.975 164.82 149.695 164.788 149.399 164.788C148.607 164.788 147.979 165.032 147.515 165.52C147.051 166.008 146.819 166.728 146.819 167.68C146.819 167.832 146.823 168.012 146.831 168.22C146.839 168.42 146.867 168.624 146.915 168.832L146.435 168.304C146.579 167.976 146.775 167.704 147.023 167.488C147.279 167.264 147.579 167.096 147.923 166.984C148.275 166.872 148.655 166.816 149.063 166.816C149.615 166.816 150.107 166.924 150.539 167.14C150.971 167.348 151.315 167.648 151.571 168.04C151.827 168.424 151.955 168.876 151.955 169.396C151.955 169.948 151.819 170.428 151.547 170.836C151.275 171.244 150.907 171.56 150.443 171.784C149.979 172.008 149.459 172.12 148.883 172.12ZM148.799 170.896C149.119 170.896 149.403 170.84 149.651 170.728C149.899 170.608 150.091 170.44 150.227 170.224C150.371 170.008 150.443 169.756 150.443 169.468C150.443 169.028 150.291 168.68 149.987 168.424C149.683 168.168 149.275 168.04 148.763 168.04C148.427 168.04 148.131 168.104 147.875 168.232C147.627 168.352 147.427 168.52 147.275 168.736C147.131 168.952 147.059 169.2 147.059 169.48C147.059 169.736 147.127 169.972 147.263 170.188C147.399 170.404 147.595 170.576 147.851 170.704C148.115 170.832 148.431 170.896 148.799 170.896ZM153.97 172L159.706 163.6H160.63L154.894 172H153.97ZM154.642 168.112C154.258 168.112 153.918 168.016 153.622 167.824C153.326 167.632 153.094 167.364 152.926 167.02C152.766 166.676 152.686 166.276 152.686 165.82C152.686 165.364 152.766 164.964 152.926 164.62C153.094 164.276 153.326 164.008 153.622 163.816C153.918 163.624 154.258 163.528 154.642 163.528C155.034 163.528 155.374 163.624 155.662 163.816C155.958 164.008 156.186 164.276 156.346 164.62C156.506 164.964 156.586 165.364 156.586 165.82C156.586 166.276 156.506 166.676 156.346 167.02C156.186 167.364 155.958 167.632 155.662 167.824C155.374 168.016 155.034 168.112 154.642 168.112ZM154.642 167.428C155.01 167.428 155.298 167.288 155.506 167.008C155.714 166.72 155.818 166.324 155.818 165.82C155.818 165.316 155.714 164.924 155.506 164.644C155.298 164.356 155.01 164.212 154.642 164.212C154.282 164.212 153.994 164.356 153.778 164.644C153.57 164.924 153.466 165.316 153.466 165.82C153.466 166.316 153.57 166.708 153.778 166.996C153.994 167.284 154.282 167.428 154.642 167.428ZM159.958 172.072C159.574 172.072 159.234 171.976 158.938 171.784C158.642 171.592 158.414 171.324 158.254 170.98C158.094 170.636 158.014 170.236 158.014 169.78C158.014 169.324 158.094 168.924 158.254 168.58C158.414 168.236 158.642 167.968 158.938 167.776C159.234 167.584 159.574 167.488 159.958 167.488C160.35 167.488 160.69 167.584 160.978 167.776C161.274 167.968 161.502 168.236 161.662 168.58C161.83 168.924 161.914 169.324 161.914 169.78C161.914 170.236 161.83 170.636 161.662 170.98C161.502 171.324 161.274 171.592 160.978 171.784C160.69 171.976 160.35 172.072 159.958 172.072ZM159.958 171.388C160.318 171.388 160.602 171.248 160.81 170.968C161.026 170.68 161.134 170.284 161.134 169.78C161.134 169.284 161.026 168.892 160.81 168.604C160.602 168.316 160.318 168.172 159.958 168.172C159.598 168.172 159.31 168.316 159.094 168.604C158.886 168.884 158.782 169.276 158.782 169.78C158.782 170.284 158.886 170.68 159.094 170.968C159.31 171.248 159.598 171.388 159.958 171.388Z" fill="#1C1C1C"/>
<g filter="url(#filter2_bd_7905_1496)">
<rect x="243" y="5" width="54" height="27" rx="6" fill="white" fill-opacity="0.85" shape-rendering="crispEdges"/>
</g>
<path d="M252.92 14.06C253.816 14.06 254.577 14.2513 255.202 14.634C255.837 15.0073 256.322 15.5533 256.658 16.272C256.994 16.9907 257.162 17.8773 257.162 18.932C257.162 20.052 256.957 20.9993 256.546 21.774C256.145 22.5487 255.585 23.1367 254.866 23.538C254.147 23.9393 253.312 24.14 252.36 24.14C251.865 24.14 251.394 24.0887 250.946 23.986C250.498 23.8833 250.111 23.7247 249.784 23.51L250.456 22.138C250.727 22.3153 251.021 22.4413 251.338 22.516C251.655 22.5813 251.982 22.614 252.318 22.614C253.242 22.614 253.975 22.3293 254.516 21.76C255.057 21.1907 255.328 20.3507 255.328 19.24C255.328 19.0627 255.323 18.8573 255.314 18.624C255.305 18.3813 255.272 18.1387 255.216 17.896L255.776 18.512C255.617 18.8947 255.389 19.2167 255.09 19.478C254.791 19.73 254.441 19.9213 254.04 20.052C253.639 20.1827 253.195 20.248 252.71 20.248C252.075 20.248 251.501 20.1267 250.988 19.884C250.484 19.632 250.083 19.282 249.784 18.834C249.485 18.3767 249.336 17.8447 249.336 17.238C249.336 16.5847 249.495 16.0247 249.812 15.558C250.129 15.082 250.559 14.7133 251.1 14.452C251.651 14.1907 252.257 14.06 252.92 14.06ZM253.018 15.488C252.645 15.488 252.313 15.558 252.024 15.698C251.735 15.8287 251.506 16.02 251.338 16.272C251.179 16.5147 251.1 16.8087 251.1 17.154C251.1 17.6673 251.277 18.0733 251.632 18.372C251.987 18.6707 252.463 18.82 253.06 18.82C253.452 18.82 253.797 18.75 254.096 18.61C254.395 18.4607 254.628 18.26 254.796 18.008C254.964 17.7467 255.048 17.4573 255.048 17.14C255.048 16.832 254.969 16.5567 254.81 16.314C254.651 16.062 254.423 15.8613 254.124 15.712C253.825 15.5627 253.457 15.488 253.018 15.488ZM262.327 24.14C261.515 24.14 260.811 24.0187 260.213 23.776C259.616 23.5333 259.154 23.1927 258.827 22.754C258.501 22.306 258.337 21.7833 258.337 21.186C258.337 20.5887 258.496 20.0847 258.813 19.674C259.131 19.2633 259.588 18.9507 260.185 18.736C260.783 18.5213 261.497 18.414 262.327 18.414C263.158 18.414 263.872 18.5213 264.469 18.736C265.076 18.9507 265.538 19.268 265.855 19.688C266.182 20.0987 266.345 20.598 266.345 21.186C266.345 21.7833 266.177 22.306 265.841 22.754C265.515 23.1927 265.048 23.5333 264.441 23.776C263.844 24.0187 263.139 24.14 262.327 24.14ZM262.327 22.712C262.999 22.712 263.531 22.572 263.923 22.292C264.315 22.012 264.511 21.6247 264.511 21.13C264.511 20.6447 264.315 20.262 263.923 19.982C263.531 19.702 262.999 19.562 262.327 19.562C261.655 19.562 261.128 19.702 260.745 19.982C260.363 20.262 260.171 20.6447 260.171 21.13C260.171 21.6247 260.363 22.012 260.745 22.292C261.128 22.572 261.655 22.712 262.327 22.712ZM262.327 19.366C261.571 19.366 260.923 19.268 260.381 19.072C259.84 18.8667 259.42 18.5727 259.121 18.19C258.832 17.798 258.687 17.3313 258.687 16.79C258.687 16.23 258.837 15.7493 259.135 15.348C259.443 14.9373 259.873 14.62 260.423 14.396C260.974 14.172 261.609 14.06 262.327 14.06C263.055 14.06 263.695 14.172 264.245 14.396C264.796 14.62 265.225 14.9373 265.533 15.348C265.841 15.7493 265.995 16.23 265.995 16.79C265.995 17.3313 265.846 17.798 265.547 18.19C265.258 18.5727 264.838 18.8667 264.287 19.072C263.737 19.268 263.083 19.366 262.327 19.366ZM262.327 18.246C262.906 18.246 263.363 18.1247 263.699 17.882C264.035 17.63 264.203 17.294 264.203 16.874C264.203 16.4353 264.031 16.0947 263.685 15.852C263.34 15.6093 262.887 15.488 262.327 15.488C261.767 15.488 261.319 15.6093 260.983 15.852C260.647 16.0947 260.479 16.4353 260.479 16.874C260.479 17.294 260.643 17.63 260.969 17.882C261.305 18.1247 261.758 18.246 262.327 18.246ZM268.755 24.098C268.438 24.098 268.167 23.9907 267.943 23.776C267.719 23.552 267.607 23.272 267.607 22.936C267.607 22.5813 267.719 22.3013 267.943 22.096C268.167 21.8813 268.438 21.774 268.755 21.774C269.072 21.774 269.343 21.8813 269.567 22.096C269.791 22.3013 269.903 22.5813 269.903 22.936C269.903 23.272 269.791 23.552 269.567 23.776C269.343 23.9907 269.072 24.098 268.755 24.098ZM271.092 24V22.782L274.984 19.086C275.31 18.778 275.553 18.5073 275.712 18.274C275.87 18.0407 275.973 17.826 276.02 17.63C276.076 17.4247 276.104 17.2333 276.104 17.056C276.104 16.608 275.95 16.2627 275.642 16.02C275.334 15.768 274.881 15.642 274.284 15.642C273.808 15.642 273.374 15.726 272.982 15.894C272.599 16.062 272.268 16.3187 271.988 16.664L270.714 15.684C271.096 15.1707 271.61 14.774 272.254 14.494C272.907 14.2047 273.635 14.06 274.438 14.06C275.147 14.06 275.763 14.1767 276.286 14.41C276.818 14.634 277.224 14.956 277.504 15.376C277.793 15.796 277.938 16.2953 277.938 16.874C277.938 17.1913 277.896 17.5087 277.812 17.826C277.728 18.134 277.569 18.4607 277.336 18.806C277.102 19.1513 276.762 19.5387 276.314 19.968L272.968 23.146L272.59 22.46H278.316V24H271.092ZM280.766 24L287.458 14.2H288.536L281.844 24H280.766ZM281.55 19.464C281.102 19.464 280.705 19.352 280.36 19.128C280.015 18.904 279.744 18.5913 279.548 18.19C279.361 17.7887 279.268 17.322 279.268 16.79C279.268 16.258 279.361 15.7913 279.548 15.39C279.744 14.9887 280.015 14.676 280.36 14.452C280.705 14.228 281.102 14.116 281.55 14.116C282.007 14.116 282.404 14.228 282.74 14.452C283.085 14.676 283.351 14.9887 283.538 15.39C283.725 15.7913 283.818 16.258 283.818 16.79C283.818 17.322 283.725 17.7887 283.538 18.19C283.351 18.5913 283.085 18.904 282.74 19.128C282.404 19.352 282.007 19.464 281.55 19.464ZM281.55 18.666C281.979 18.666 282.315 18.5027 282.558 18.176C282.801 17.84 282.922 17.378 282.922 16.79C282.922 16.202 282.801 15.7447 282.558 15.418C282.315 15.082 281.979 14.914 281.55 14.914C281.13 14.914 280.794 15.082 280.542 15.418C280.299 15.7447 280.178 16.202 280.178 16.79C280.178 17.3687 280.299 17.826 280.542 18.162C280.794 18.498 281.13 18.666 281.55 18.666ZM287.752 24.084C287.304 24.084 286.907 23.972 286.562 23.748C286.217 23.524 285.951 23.2113 285.764 22.81C285.577 22.4087 285.484 21.942 285.484 21.41C285.484 20.878 285.577 20.4113 285.764 20.01C285.951 19.6087 286.217 19.296 286.562 19.072C286.907 18.848 287.304 18.736 287.752 18.736C288.209 18.736 288.606 18.848 288.942 19.072C289.287 19.296 289.553 19.6087 289.74 20.01C289.936 20.4113 290.034 20.878 290.034 21.41C290.034 21.942 289.936 22.4087 289.74 22.81C289.553 23.2113 289.287 23.524 288.942 23.748C288.606 23.972 288.209 24.084 287.752 24.084ZM287.752 23.286C288.172 23.286 288.503 23.1227 288.746 22.796C288.998 22.46 289.124 21.998 289.124 21.41C289.124 20.8313 288.998 20.374 288.746 20.038C288.503 19.702 288.172 19.534 287.752 19.534C287.332 19.534 286.996 19.702 286.744 20.038C286.501 20.3647 286.38 20.822 286.38 21.41C286.38 21.998 286.501 22.46 286.744 22.796C286.996 23.1227 287.332 23.286 287.752 23.286Z" fill="#F75005"/>
<g filter="url(#filter3_bd_7905_1496)">
<rect x="139" y="29" width="54" height="27" rx="6" fill="white" fill-opacity="0.85" shape-rendering="crispEdges"/>
</g>
<path d="M148.92 38.06C149.816 38.06 150.577 38.2513 151.202 38.634C151.837 39.0073 152.322 39.5533 152.658 40.272C152.994 40.9907 153.162 41.8773 153.162 42.932C153.162 44.052 152.957 44.9993 152.546 45.774C152.145 46.5487 151.585 47.1367 150.866 47.538C150.147 47.9393 149.312 48.14 148.36 48.14C147.865 48.14 147.394 48.0887 146.946 47.986C146.498 47.8833 146.111 47.7247 145.784 47.51L146.456 46.138C146.727 46.3153 147.021 46.4413 147.338 46.516C147.655 46.5813 147.982 46.614 148.318 46.614C149.242 46.614 149.975 46.3293 150.516 45.76C151.057 45.1907 151.328 44.3507 151.328 43.24C151.328 43.0627 151.323 42.8573 151.314 42.624C151.305 42.3813 151.272 42.1387 151.216 41.896L151.776 42.512C151.617 42.8947 151.389 43.2167 151.09 43.478C150.791 43.73 150.441 43.9213 150.04 44.052C149.639 44.1827 149.195 44.248 148.71 44.248C148.075 44.248 147.501 44.1267 146.988 43.884C146.484 43.632 146.083 43.282 145.784 42.834C145.485 42.3767 145.336 41.8447 145.336 41.238C145.336 40.5847 145.495 40.0247 145.812 39.558C146.129 39.082 146.559 38.7133 147.1 38.452C147.651 38.1907 148.257 38.06 148.92 38.06ZM149.018 39.488C148.645 39.488 148.313 39.558 148.024 39.698C147.735 39.8287 147.506 40.02 147.338 40.272C147.179 40.5147 147.1 40.8087 147.1 41.154C147.1 41.6673 147.277 42.0733 147.632 42.372C147.987 42.6707 148.463 42.82 149.06 42.82C149.452 42.82 149.797 42.75 150.096 42.61C150.395 42.4607 150.628 42.26 150.796 42.008C150.964 41.7467 151.048 41.4573 151.048 41.14C151.048 40.832 150.969 40.5567 150.81 40.314C150.651 40.062 150.423 39.8613 150.124 39.712C149.825 39.5627 149.457 39.488 149.018 39.488ZM158.635 48.14C157.749 48.14 156.988 47.9533 156.353 47.58C155.719 47.1973 155.233 46.6467 154.897 45.928C154.561 45.2093 154.393 44.3227 154.393 43.268C154.393 42.148 154.594 41.2007 154.995 40.426C155.406 39.6513 155.971 39.0633 156.689 38.662C157.417 38.2607 158.253 38.06 159.195 38.06C159.69 38.06 160.161 38.1113 160.609 38.214C161.067 38.3167 161.454 38.4753 161.771 38.69L161.099 40.062C160.829 39.8847 160.535 39.7633 160.217 39.698C159.909 39.6233 159.583 39.586 159.237 39.586C158.313 39.586 157.581 39.8707 157.039 40.44C156.498 41.0093 156.227 41.8493 156.227 42.96C156.227 43.1373 156.232 43.3473 156.241 43.59C156.251 43.8233 156.283 44.0613 156.339 44.304L155.779 43.688C155.947 43.3053 156.176 42.988 156.465 42.736C156.764 42.4747 157.114 42.2787 157.515 42.148C157.926 42.0173 158.369 41.952 158.845 41.952C159.489 41.952 160.063 42.078 160.567 42.33C161.071 42.5727 161.473 42.9227 161.771 43.38C162.07 43.828 162.219 44.3553 162.219 44.962C162.219 45.606 162.061 46.166 161.743 46.642C161.426 47.118 160.997 47.4867 160.455 47.748C159.914 48.0093 159.307 48.14 158.635 48.14ZM158.537 46.712C158.911 46.712 159.242 46.6467 159.531 46.516C159.821 46.376 160.045 46.18 160.203 45.928C160.371 45.676 160.455 45.382 160.455 45.046C160.455 44.5327 160.278 44.1267 159.923 43.828C159.569 43.5293 159.093 43.38 158.495 43.38C158.103 43.38 157.758 43.4547 157.459 43.604C157.17 43.744 156.937 43.94 156.759 44.192C156.591 44.444 156.507 44.7333 156.507 45.06C156.507 45.3587 156.587 45.634 156.745 45.886C156.904 46.138 157.133 46.3387 157.431 46.488C157.739 46.6373 158.108 46.712 158.537 46.712ZM164.399 48.098C164.082 48.098 163.811 47.9907 163.587 47.776C163.363 47.552 163.251 47.272 163.251 46.936C163.251 46.5813 163.363 46.3013 163.587 46.096C163.811 45.8813 164.082 45.774 164.399 45.774C164.717 45.774 164.987 45.8813 165.211 46.096C165.435 46.3013 165.547 46.5813 165.547 46.936C165.547 47.272 165.435 47.552 165.211 47.776C164.987 47.9907 164.717 48.098 164.399 48.098ZM169.942 48.14C169.251 48.14 168.575 48.042 167.912 47.846C167.259 47.6407 166.708 47.3607 166.26 47.006L167.044 45.592C167.399 45.8813 167.828 46.1147 168.332 46.292C168.836 46.4693 169.363 46.558 169.914 46.558C170.567 46.558 171.076 46.4273 171.44 46.166C171.804 45.8953 171.986 45.5313 171.986 45.074C171.986 44.626 171.818 44.2713 171.482 44.01C171.146 43.7487 170.605 43.618 169.858 43.618H168.962V42.372L171.762 39.04L172 39.726H166.736V38.2H173.414V39.418L170.614 42.75L169.662 42.19H170.208C171.412 42.19 172.313 42.4607 172.91 43.002C173.517 43.534 173.82 44.22 173.82 45.06C173.82 45.6107 173.68 46.1193 173.4 46.586C173.12 47.0527 172.691 47.4307 172.112 47.72C171.543 48 170.819 48.14 169.942 48.14ZM176.411 48L183.103 38.2H184.181L177.489 48H176.411ZM177.195 43.464C176.747 43.464 176.35 43.352 176.005 43.128C175.659 42.904 175.389 42.5913 175.193 42.19C175.006 41.7887 174.913 41.322 174.913 40.79C174.913 40.258 175.006 39.7913 175.193 39.39C175.389 38.9887 175.659 38.676 176.005 38.452C176.35 38.228 176.747 38.116 177.195 38.116C177.652 38.116 178.049 38.228 178.385 38.452C178.73 38.676 178.996 38.9887 179.183 39.39C179.369 39.7913 179.463 40.258 179.463 40.79C179.463 41.322 179.369 41.7887 179.183 42.19C178.996 42.5913 178.73 42.904 178.385 43.128C178.049 43.352 177.652 43.464 177.195 43.464ZM177.195 42.666C177.624 42.666 177.96 42.5027 178.203 42.176C178.445 41.84 178.567 41.378 178.567 40.79C178.567 40.202 178.445 39.7447 178.203 39.418C177.96 39.082 177.624 38.914 177.195 38.914C176.775 38.914 176.439 39.082 176.187 39.418C175.944 39.7447 175.823 40.202 175.823 40.79C175.823 41.3687 175.944 41.826 176.187 42.162C176.439 42.498 176.775 42.666 177.195 42.666ZM183.397 48.084C182.949 48.084 182.552 47.972 182.207 47.748C181.861 47.524 181.595 47.2113 181.409 46.81C181.222 46.4087 181.129 45.942 181.129 45.41C181.129 44.878 181.222 44.4113 181.409 44.01C181.595 43.6087 181.861 43.296 182.207 43.072C182.552 42.848 182.949 42.736 183.397 42.736C183.854 42.736 184.251 42.848 184.587 43.072C184.932 43.296 185.198 43.6087 185.385 44.01C185.581 44.4113 185.679 44.878 185.679 45.41C185.679 45.942 185.581 46.4087 185.385 46.81C185.198 47.2113 184.932 47.524 184.587 47.748C184.251 47.972 183.854 48.084 183.397 48.084ZM183.397 47.286C183.817 47.286 184.148 47.1227 184.391 46.796C184.643 46.46 184.769 45.998 184.769 45.41C184.769 44.8313 184.643 44.374 184.391 44.038C184.148 43.702 183.817 43.534 183.397 43.534C182.977 43.534 182.641 43.702 182.389 44.038C182.146 44.3647 182.025 44.822 182.025 45.41C182.025 45.998 182.146 46.46 182.389 46.796C182.641 47.1227 182.977 47.286 183.397 47.286Z" fill="#F75005"/>
<g filter="url(#filter4_bd_7905_1496)">
<rect x="37" y="103" width="54" height="27" rx="6" fill="white" fill-opacity="0.85" shape-rendering="crispEdges"/>
</g>
<path d="M47.55 122.14C46.738 122.14 46.0333 122.019 45.436 121.776C44.8387 121.533 44.3767 121.193 44.05 120.754C43.7233 120.306 43.56 119.783 43.56 119.186C43.56 118.589 43.7187 118.085 44.036 117.674C44.3533 117.263 44.8107 116.951 45.408 116.736C46.0053 116.521 46.7193 116.414 47.55 116.414C48.3807 116.414 49.0947 116.521 49.692 116.736C50.2987 116.951 50.7607 117.268 51.078 117.688C51.4047 118.099 51.568 118.598 51.568 119.186C51.568 119.783 51.4 120.306 51.064 120.754C50.7373 121.193 50.2707 121.533 49.664 121.776C49.0667 122.019 48.362 122.14 47.55 122.14ZM47.55 120.712C48.222 120.712 48.754 120.572 49.146 120.292C49.538 120.012 49.734 119.625 49.734 119.13C49.734 118.645 49.538 118.262 49.146 117.982C48.754 117.702 48.222 117.562 47.55 117.562C46.878 117.562 46.3507 117.702 45.968 117.982C45.5853 118.262 45.394 118.645 45.394 119.13C45.394 119.625 45.5853 120.012 45.968 120.292C46.3507 120.572 46.878 120.712 47.55 120.712ZM47.55 117.366C46.794 117.366 46.1453 117.268 45.604 117.072C45.0627 116.867 44.6427 116.573 44.344 116.19C44.0547 115.798 43.91 115.331 43.91 114.79C43.91 114.23 44.0593 113.749 44.358 113.348C44.666 112.937 45.0953 112.62 45.646 112.396C46.1967 112.172 46.8313 112.06 47.55 112.06C48.278 112.06 48.9173 112.172 49.468 112.396C50.0187 112.62 50.448 112.937 50.756 113.348C51.064 113.749 51.218 114.23 51.218 114.79C51.218 115.331 51.0687 115.798 50.77 116.19C50.4807 116.573 50.0607 116.867 49.51 117.072C48.9593 117.268 48.306 117.366 47.55 117.366ZM47.55 116.246C48.1287 116.246 48.586 116.125 48.922 115.882C49.258 115.63 49.426 115.294 49.426 114.874C49.426 114.435 49.2533 114.095 48.908 113.852C48.5627 113.609 48.11 113.488 47.55 113.488C46.99 113.488 46.542 113.609 46.206 113.852C45.87 114.095 45.702 114.435 45.702 114.874C45.702 115.294 45.8653 115.63 46.192 115.882C46.528 116.125 46.9807 116.246 47.55 116.246ZM56.6828 122.14C55.8708 122.14 55.1661 122.019 54.5688 121.776C53.9715 121.533 53.5095 121.193 53.1828 120.754C52.8561 120.306 52.6928 119.783 52.6928 119.186C52.6928 118.589 52.8515 118.085 53.1688 117.674C53.4861 117.263 53.9435 116.951 54.5408 116.736C55.1381 116.521 55.8521 116.414 56.6828 116.414C57.5135 116.414 58.2275 116.521 58.8248 116.736C59.4315 116.951 59.8935 117.268 60.2108 117.688C60.5375 118.099 60.7008 118.598 60.7008 119.186C60.7008 119.783 60.5328 120.306 60.1968 120.754C59.8701 121.193 59.4035 121.533 58.7968 121.776C58.1995 122.019 57.4948 122.14 56.6828 122.14ZM56.6828 120.712C57.3548 120.712 57.8868 120.572 58.2788 120.292C58.6708 120.012 58.8668 119.625 58.8668 119.13C58.8668 118.645 58.6708 118.262 58.2788 117.982C57.8868 117.702 57.3548 117.562 56.6828 117.562C56.0108 117.562 55.4835 117.702 55.1008 117.982C54.7181 118.262 54.5268 118.645 54.5268 119.13C54.5268 119.625 54.7181 120.012 55.1008 120.292C55.4835 120.572 56.0108 120.712 56.6828 120.712ZM56.6828 117.366C55.9268 117.366 55.2781 117.268 54.7368 117.072C54.1955 116.867 53.7755 116.573 53.4768 116.19C53.1875 115.798 53.0428 115.331 53.0428 114.79C53.0428 114.23 53.1921 113.749 53.4908 113.348C53.7988 112.937 54.2281 112.62 54.7788 112.396C55.3295 112.172 55.9641 112.06 56.6828 112.06C57.4108 112.06 58.0501 112.172 58.6008 112.396C59.1515 112.62 59.5808 112.937 59.8888 113.348C60.1968 113.749 60.3508 114.23 60.3508 114.79C60.3508 115.331 60.2015 115.798 59.9028 116.19C59.6135 116.573 59.1935 116.867 58.6428 117.072C58.0921 117.268 57.4388 117.366 56.6828 117.366ZM56.6828 116.246C57.2615 116.246 57.7188 116.125 58.0548 115.882C58.3908 115.63 58.5588 115.294 58.5588 114.874C58.5588 114.435 58.3861 114.095 58.0408 113.852C57.6955 113.609 57.2428 113.488 56.6828 113.488C56.1228 113.488 55.6748 113.609 55.3388 113.852C55.0028 114.095 54.8348 114.435 54.8348 114.874C54.8348 115.294 54.9981 115.63 55.3248 115.882C55.6608 116.125 56.1135 116.246 56.6828 116.246ZM63.1103 122.098C62.793 122.098 62.5223 121.991 62.2983 121.776C62.0743 121.552 61.9623 121.272 61.9623 120.936C61.9623 120.581 62.0743 120.301 62.2983 120.096C62.5223 119.881 62.793 119.774 63.1103 119.774C63.4277 119.774 63.6983 119.881 63.9223 120.096C64.1463 120.301 64.2583 120.581 64.2583 120.936C64.2583 121.272 64.1463 121.552 63.9223 121.776C63.6983 121.991 63.4277 122.098 63.1103 122.098ZM68.653 122.14C67.9624 122.14 67.2857 122.042 66.623 121.846C65.9697 121.641 65.419 121.361 64.971 121.006L65.755 119.592C66.1097 119.881 66.539 120.115 67.043 120.292C67.547 120.469 68.0744 120.558 68.625 120.558C69.2784 120.558 69.787 120.427 70.151 120.166C70.515 119.895 70.697 119.531 70.697 119.074C70.697 118.626 70.529 118.271 70.193 118.01C69.857 117.749 69.3157 117.618 68.569 117.618H67.673V116.372L70.473 113.04L70.711 113.726H65.447V112.2H72.125V113.418L69.325 116.75L68.373 116.19H68.919C70.123 116.19 71.0237 116.461 71.621 117.002C72.2277 117.534 72.531 118.22 72.531 119.06C72.531 119.611 72.391 120.119 72.111 120.586C71.831 121.053 71.4017 121.431 70.823 121.72C70.2537 122 69.5304 122.14 68.653 122.14ZM75.1215 122L81.8135 112.2H82.8915L76.1995 122H75.1215ZM75.9055 117.464C75.4575 117.464 75.0608 117.352 74.7155 117.128C74.3701 116.904 74.0995 116.591 73.9035 116.19C73.7168 115.789 73.6235 115.322 73.6235 114.79C73.6235 114.258 73.7168 113.791 73.9035 113.39C74.0995 112.989 74.3701 112.676 74.7155 112.452C75.0608 112.228 75.4575 112.116 75.9055 112.116C76.3628 112.116 76.7595 112.228 77.0955 112.452C77.4408 112.676 77.7068 112.989 77.8935 113.39C78.0801 113.791 78.1735 114.258 78.1735 114.79C78.1735 115.322 78.0801 115.789 77.8935 116.19C77.7068 116.591 77.4408 116.904 77.0955 117.128C76.7595 117.352 76.3628 117.464 75.9055 117.464ZM75.9055 116.666C76.3348 116.666 76.6708 116.503 76.9135 116.176C77.1561 115.84 77.2775 115.378 77.2775 114.79C77.2775 114.202 77.1561 113.745 76.9135 113.418C76.6708 113.082 76.3348 112.914 75.9055 112.914C75.4855 112.914 75.1495 113.082 74.8975 113.418C74.6548 113.745 74.5335 114.202 74.5335 114.79C74.5335 115.369 74.6548 115.826 74.8975 116.162C75.1495 116.498 75.4855 116.666 75.9055 116.666ZM82.1075 122.084C81.6595 122.084 81.2628 121.972 80.9175 121.748C80.5721 121.524 80.3061 121.211 80.1195 120.81C79.9328 120.409 79.8395 119.942 79.8395 119.41C79.8395 118.878 79.9328 118.411 80.1195 118.01C80.3061 117.609 80.5721 117.296 80.9175 117.072C81.2628 116.848 81.6595 116.736 82.1075 116.736C82.5648 116.736 82.9615 116.848 83.2975 117.072C83.6428 117.296 83.9088 117.609 84.0955 118.01C84.2915 118.411 84.3895 118.878 84.3895 119.41C84.3895 119.942 84.2915 120.409 84.0955 120.81C83.9088 121.211 83.6428 121.524 83.2975 121.748C82.9615 121.972 82.5648 122.084 82.1075 122.084ZM82.1075 121.286C82.5275 121.286 82.8588 121.123 83.1015 120.796C83.3535 120.46 83.4795 119.998 83.4795 119.41C83.4795 118.831 83.3535 118.374 83.1015 118.038C82.8588 117.702 82.5275 117.534 82.1075 117.534C81.6875 117.534 81.3515 117.702 81.0995 118.038C80.8568 118.365 80.7355 118.822 80.7355 119.41C80.7355 119.998 80.8568 120.46 81.0995 120.796C81.3515 121.123 81.6875 121.286 82.1075 121.286Z" fill="#F75005"/>
<g filter="url(#filter5_bd_7905_1496)">
<rect x="226" y="60" width="46" height="22" rx="6" fill="white" fill-opacity="0.85" shape-rendering="crispEdges"/>
</g>
<path d="M234.36 66.48C235.128 66.48 235.78 66.644 236.316 66.972C236.86 67.292 237.276 67.76 237.564 68.376C237.852 68.992 237.996 69.752 237.996 70.656C237.996 71.616 237.82 72.428 237.468 73.092C237.124 73.756 236.644 74.26 236.028 74.604C235.412 74.948 234.696 75.12 233.88 75.12C233.456 75.12 233.052 75.076 232.668 74.988C232.284 74.9 231.952 74.764 231.672 74.58L232.248 73.404C232.48 73.556 232.732 73.664 233.004 73.728C233.276 73.784 233.556 73.812 233.844 73.812C234.636 73.812 235.264 73.568 235.728 73.08C236.192 72.592 236.424 71.872 236.424 70.92C236.424 70.768 236.42 70.592 236.412 70.392C236.404 70.184 236.376 69.976 236.328 69.768L236.808 70.296C236.672 70.624 236.476 70.9 236.22 71.124C235.964 71.34 235.664 71.504 235.32 71.616C234.976 71.728 234.596 71.784 234.18 71.784C233.636 71.784 233.144 71.68 232.704 71.472C232.272 71.256 231.928 70.956 231.672 70.572C231.416 70.18 231.288 69.724 231.288 69.204C231.288 68.644 231.424 68.164 231.696 67.764C231.968 67.356 232.336 67.04 232.8 66.816C233.272 66.592 233.792 66.48 234.36 66.48ZM234.444 67.704C234.124 67.704 233.84 67.764 233.592 67.884C233.344 67.996 233.148 68.16 233.004 68.376C232.868 68.584 232.8 68.836 232.8 69.132C232.8 69.572 232.952 69.92 233.256 70.176C233.56 70.432 233.968 70.56 234.48 70.56C234.816 70.56 235.112 70.5 235.368 70.38C235.624 70.252 235.824 70.08 235.968 69.864C236.112 69.64 236.184 69.392 236.184 69.12C236.184 68.856 236.116 68.62 235.98 68.412C235.844 68.196 235.648 68.024 235.392 67.896C235.136 67.768 234.82 67.704 234.444 67.704ZM241.574 75.12C240.982 75.12 240.402 75.036 239.834 74.868C239.274 74.692 238.802 74.452 238.418 74.148L239.09 72.936C239.394 73.184 239.762 73.384 240.194 73.536C240.626 73.688 241.078 73.764 241.55 73.764C242.11 73.764 242.546 73.652 242.858 73.428C243.17 73.196 243.326 72.884 243.326 72.492C243.326 72.108 243.182 71.804 242.894 71.58C242.606 71.356 242.142 71.244 241.502 71.244H240.734V70.176L243.134 67.32L243.338 67.908H238.826V66.6H244.55V67.644L242.15 70.5L241.334 70.02H241.802C242.834 70.02 243.606 70.252 244.118 70.716C244.638 71.172 244.898 71.76 244.898 72.48C244.898 72.952 244.778 73.388 244.538 73.788C244.298 74.188 243.93 74.512 243.434 74.76C242.946 75 242.326 75.12 241.574 75.12ZM246.855 75.084C246.583 75.084 246.351 74.992 246.159 74.808C245.967 74.616 245.871 74.376 245.871 74.088C245.871 73.784 245.967 73.544 246.159 73.368C246.351 73.184 246.583 73.092 246.855 73.092C247.127 73.092 247.359 73.184 247.551 73.368C247.743 73.544 247.839 73.784 247.839 74.088C247.839 74.376 247.743 74.616 247.551 74.808C247.359 74.992 247.127 75.084 246.855 75.084ZM252.212 75.12C251.548 75.12 250.948 74.952 250.412 74.616C249.884 74.28 249.468 73.792 249.164 73.152C248.86 72.504 248.708 71.72 248.708 70.8C248.708 69.88 248.86 69.1 249.164 68.46C249.468 67.812 249.884 67.32 250.412 66.984C250.948 66.648 251.548 66.48 252.212 66.48C252.884 66.48 253.484 66.648 254.012 66.984C254.54 67.32 254.956 67.812 255.26 68.46C255.572 69.1 255.728 69.88 255.728 70.8C255.728 71.72 255.572 72.504 255.26 73.152C254.956 73.792 254.54 74.28 254.012 74.616C253.484 74.952 252.884 75.12 252.212 75.12ZM252.212 73.764C252.604 73.764 252.944 73.66 253.232 73.452C253.52 73.236 253.744 72.908 253.904 72.468C254.072 72.028 254.156 71.472 254.156 70.8C254.156 70.12 254.072 69.564 253.904 69.132C253.744 68.692 253.52 68.368 253.232 68.16C252.944 67.944 252.604 67.836 252.212 67.836C251.836 67.836 251.5 67.944 251.204 68.16C250.916 68.368 250.688 68.692 250.52 69.132C250.36 69.564 250.28 70.12 250.28 70.8C250.28 71.472 250.36 72.028 250.52 72.468C250.688 72.908 250.916 73.236 251.204 73.452C251.5 73.66 251.836 73.764 252.212 73.764ZM257.982 75L263.718 66.6H264.642L258.906 75H257.982ZM258.654 71.112C258.27 71.112 257.93 71.016 257.634 70.824C257.338 70.632 257.106 70.364 256.938 70.02C256.778 69.676 256.698 69.276 256.698 68.82C256.698 68.364 256.778 67.964 256.938 67.62C257.106 67.276 257.338 67.008 257.634 66.816C257.93 66.624 258.27 66.528 258.654 66.528C259.046 66.528 259.386 66.624 259.674 66.816C259.97 67.008 260.198 67.276 260.358 67.62C260.518 67.964 260.598 68.364 260.598 68.82C260.598 69.276 260.518 69.676 260.358 70.02C260.198 70.364 259.97 70.632 259.674 70.824C259.386 71.016 259.046 71.112 258.654 71.112ZM258.654 70.428C259.022 70.428 259.31 70.288 259.518 70.008C259.726 69.72 259.83 69.324 259.83 68.82C259.83 68.316 259.726 67.924 259.518 67.644C259.31 67.356 259.022 67.212 258.654 67.212C258.294 67.212 258.006 67.356 257.79 67.644C257.582 67.924 257.478 68.316 257.478 68.82C257.478 69.316 257.582 69.708 257.79 69.996C258.006 70.284 258.294 70.428 258.654 70.428ZM263.97 75.072C263.586 75.072 263.246 74.976 262.95 74.784C262.654 74.592 262.426 74.324 262.266 73.98C262.106 73.636 262.026 73.236 262.026 72.78C262.026 72.324 262.106 71.924 262.266 71.58C262.426 71.236 262.654 70.968 262.95 70.776C263.246 70.584 263.586 70.488 263.97 70.488C264.362 70.488 264.702 70.584 264.99 70.776C265.286 70.968 265.514 71.236 265.674 71.58C265.842 71.924 265.926 72.324 265.926 72.78C265.926 73.236 265.842 73.636 265.674 73.98C265.514 74.324 265.286 74.592 264.99 74.784C264.702 74.976 264.362 75.072 263.97 75.072ZM263.97 74.388C264.33 74.388 264.614 74.248 264.822 73.968C265.038 73.68 265.146 73.284 265.146 72.78C265.146 72.284 265.038 71.892 264.822 71.604C264.614 71.316 264.33 71.172 263.97 71.172C263.61 71.172 263.322 71.316 263.106 71.604C262.898 71.884 262.794 72.276 262.794 72.78C262.794 73.284 262.898 73.68 263.106 73.968C263.322 74.248 263.61 74.388 263.97 74.388Z" fill="#1C1C1C"/>
<defs>
<filter id="filter0_bd_7905_1496" x="-30" y="97" width="146" height="122" filterUnits="userSpaceOnUse" color-interpolation-filters="sRGB">
<feFlood flood-opacity="0" result="BackgroundImageFix"/>
<feGaussianBlur in="BackgroundImageFix" stdDeviation="25"/>
<feComposite in2="SourceAlpha" operator="in" result="effect1_backgroundBlur_7905_1496"/>
<feColorMatrix in="SourceAlpha" type="matrix" values="0 0 0 0 0 0 0 0 0 0 0 0 0 0 0 0 0 0 127 0" result="hardAlpha"/>
<feOffset dx="-5" dy="18"/>
<feGaussianBlur stdDeviation="7.5"/>
<feComposite in2="hardAlpha" operator="out"/>
<feColorMatrix type="matrix" values="0 0 0 0 0 0 0 0 0 0 0 0 0 0 0 0 0 0 0.05 0"/>
<feBlend mode="normal" in2="effect1_backgroundBlur_7905_1496" result="effect2_dropShadow_7905_1496"/>
<feBlend mode="normal" in="SourceGraphic" in2="effect2_dropShadow_7905_1496" result="shape"/>
</filter>
<filter id="filter1_bd_7905_1496" x="72" y="107" width="146" height="122" filterUnits="userSpaceOnUse" color-interpolation-filters="sRGB">
<feFlood flood-opacity="0" result="BackgroundImageFix"/>
<feGaussianBlur in="BackgroundImageFix" stdDeviation="25"/>
<feComposite in2="SourceAlpha" operator="in" result="effect1_backgroundBlur_7905_1496"/>
<feColorMatrix in="SourceAlpha" type="matrix" values="0 0 0 0 0 0 0 0 0 0 0 0 0 0 0 0 0 0 127 0" result="hardAlpha"/>
<feOffset dx="-5" dy="18"/>
<feGaussianBlur stdDeviation="7.5"/>
<feComposite in2="hardAlpha" operator="out"/>
<feColorMatrix type="matrix" values="0 0 0 0 0 0 0 0 0 0 0 0 0 0 0 0 0 0 0.05 0"/>
<feBlend mode="normal" in2="effect1_backgroundBlur_7905_1496" result="effect2_dropShadow_7905_1496"/>
<feBlend mode="normal" in="SourceGraphic" in2="effect2_dropShadow_7905_1496" result="shape"/>
</filter>
<filter id="filter2_bd_7905_1496" x="193" y="-45" width="154" height="127" filterUnits="userSpaceOnUse" color-interpolation-filters="sRGB">
<feFlood flood-opacity="0" result="BackgroundImageFix"/>
<feGaussianBlur in="BackgroundImageFix" stdDeviation="25"/>
<feComposite in2="SourceAlpha" operator="in" result="effect1_backgroundBlur_7905_1496"/>
<feColorMatrix in="SourceAlpha" type="matrix" values="0 0 0 0 0 0 0 0 0 0 0 0 0 0 0 0 0 0 127 0" result="hardAlpha"/>
<feOffset dx="-5" dy="18"/>
<feGaussianBlur stdDeviation="7.5"/>
<feComposite in2="hardAlpha" operator="out"/>
<feColorMatrix type="matrix" values="0 0 0 0 0 0 0 0 0 0 0 0 0 0 0 0 0 0 0.05 0"/>
<feBlend mode="normal" in2="effect1_backgroundBlur_7905_1496" result="effect2_dropShadow_7905_1496"/>
<feBlend mode="normal" in="SourceGraphic" in2="effect2_dropShadow_7905_1496" result="shape"/>
</filter>
<filter id="filter3_bd_7905_1496" x="89" y="-21" width="154" height="127" filterUnits="userSpaceOnUse" color-interpolation-filters="sRGB">
<feFlood flood-opacity="0" result="BackgroundImageFix"/>
<feGaussianBlur in="BackgroundImageFix" stdDeviation="25"/>
<feComposite in2="SourceAlpha" operator="in" result="effect1_backgroundBlur_7905_1496"/>
<feColorMatrix in="SourceAlpha" type="matrix" values="0 0 0 0 0 0 0 0 0 0 0 0 0 0 0 0 0 0 127 0" result="hardAlpha"/>
<feOffset dx="-5" dy="18"/>
<feGaussianBlur stdDeviation="7.5"/>
<feComposite in2="hardAlpha" operator="out"/>
<feColorMatrix type="matrix" values="0 0 0 0 0 0 0 0 0 0 0 0 0 0 0 0 0 0 0.05 0"/>
<feBlend mode="normal" in2="effect1_backgroundBlur_7905_1496" result="effect2_dropShadow_7905_1496"/>
<feBlend mode="normal" in="SourceGraphic" in2="effect2_dropShadow_7905_1496" result="shape"/>
</filter>
<filter id="filter4_bd_7905_1496" x="-13" y="53" width="154" height="127" filterUnits="userSpaceOnUse" color-interpolation-filters="sRGB">
<feFlood flood-opacity="0" result="BackgroundImageFix"/>
<feGaussianBlur in="BackgroundImageFix" stdDeviation="25"/>
<feComposite in2="SourceAlpha" operator="in" result="effect1_backgroundBlur_7905_1496"/>
<feColorMatrix in="SourceAlpha" type="matrix" values="0 0 0 0 0 0 0 0 0 0 0 0 0 0 0 0 0 0 127 0" result="hardAlpha"/>
<feOffset dx="-5" dy="18"/>
<feGaussianBlur stdDeviation="7.5"/>
<feComposite in2="hardAlpha" operator="out"/>
<feColorMatrix type="matrix" values="0 0 0 0 0 0 0 0 0 0 0 0 0 0 0 0 0 0 0.05 0"/>
<feBlend mode="normal" in2="effect1_backgroundBlur_7905_1496" result="effect2_dropShadow_7905_1496"/>
<feBlend mode="normal" in="SourceGraphic" in2="effect2_dropShadow_7905_1496" result="shape"/>
</filter>
<filter id="filter5_bd_7905_1496" x="176" y="10" width="146" height="122" filterUnits="userSpaceOnUse" color-interpolation-filters="sRGB">
<feFlood flood-opacity="0" result="BackgroundImageFix"/>
<feGaussianBlur in="BackgroundImageFix" stdDeviation="25"/>
<feComposite in2="SourceAlpha" operator="in" result="effect1_backgroundBlur_7905_1496"/>
<feColorMatrix in="SourceAlpha" type="matrix" values="0 0 0 0 0 0 0 0 0 0 0 0 0 0 0 0 0 0 127 0" result="hardAlpha"/>
<feOffset dx="-5" dy="18"/>
<feGaussianBlur stdDeviation="7.5"/>
<feComposite in2="hardAlpha" operator="out"/>
<feColorMatrix type="matrix" values="0 0 0 0 0 0 0 0 0 0 0 0 0 0 0 0 0 0 0.05 0"/>
<feBlend mode="normal" in2="effect1_backgroundBlur_7905_1496" result="effect2_dropShadow_7905_1496"/>
<feBlend mode="normal" in="SourceGraphic" in2="effect2_dropShadow_7905_1496" result="shape"/>
</filter>
<linearGradient id="paint0_linear_7905_1496" x1="60.5" y1="162" x2="60.5" y2="264" gradientUnits="userSpaceOnUse">
<stop stop-color="#D9D9D9"/>
<stop offset="1" stop-color="#F8F8F8"/>
</linearGradient>
<linearGradient id="paint1_linear_7905_1496" x1="85.5" y1="117" x2="85.5" y2="264" gradientUnits="userSpaceOnUse">
<stop stop-color="#F75005"/>
<stop offset="1" stop-color="#FF7436"/>
</linearGradient>
<linearGradient id="paint2_linear_7905_1496" x1="162.5" y1="168" x2="162.5" y2="264" gradientUnits="userSpaceOnUse">
<stop stop-color="#D9D9D9"/>
<stop offset="1" stop-color="#F8F8F8"/>
</linearGradient>
<linearGradient id="paint3_linear_7905_1496" x1="187.5" y1="43" x2="187.5" y2="264" gradientUnits="userSpaceOnUse">
<stop stop-color="#F75005"/>
<stop offset="1" stop-color="#FF7436"/>
</linearGradient>
<linearGradient id="paint4_linear_7905_1496" x1="266.5" y1="71" x2="266.5" y2="264" gradientUnits="userSpaceOnUse">
<stop stop-color="#D9D9D9"/>
<stop offset="1" stop-color="#F8F8F8"/>
</linearGradient>
<linearGradient id="paint5_linear_7905_1496" x1="291.5" y1="21" x2="291.5" y2="264" gradientUnits="userSpaceOnUse">
<stop stop-color="#F75005"/>
<stop offset="1" stop-color="#FF7436"/>
</linearGradient>
</defs>
</svg>
