<svg width="42" height="43" viewBox="0 0 42 43" fill="none" xmlns="http://www.w3.org/2000/svg">
<path d="M41.9934 40.517C41.9934 41.0232 41.7923 41.5087 41.4344 41.8667C41.0764 42.2247 40.5909 42.4258 40.0846 42.4258H1.90879C1.40255 42.4258 0.91704 42.2247 0.559072 41.8667C0.201104 41.5087 0 41.0232 0 40.517V2.34115C0 1.83491 0.201104 1.3494 0.559072 0.991432C0.91704 0.633464 1.40255 0.43236 1.90879 0.43236C2.41504 0.43236 2.90054 0.633464 3.25851 0.991432C3.61648 1.3494 3.81758 1.83491 3.81758 2.34115V34.218L15.5948 16.5617C15.7694 16.3018 16.0053 16.0889 16.2816 15.9417C16.5578 15.7945 16.8661 15.7175 17.1791 15.7175C17.4922 15.7175 17.8004 15.7945 18.0767 15.9417C18.353 16.0889 18.5888 16.3018 18.7634 16.5617L24.6807 25.4375L38.424 1.38676C38.6771 0.946325 39.0948 0.624484 39.5852 0.492036C40.0757 0.359588 40.5986 0.427381 41.039 0.680503C41.4795 0.933624 41.8013 1.35134 41.9337 1.84176C42.0662 2.33217 41.9984 2.85512 41.7453 3.29555L26.4749 30.0186C26.3068 30.3099 26.0646 30.5516 25.773 30.7192C25.4814 30.8868 25.1506 30.9744 24.8143 30.973C24.4903 30.981 24.1695 30.9064 23.8823 30.7561C23.5951 30.6058 23.3509 30.3848 23.1727 30.1141L17.1791 21.0473L5.47823 38.6082H40.0846C40.5909 38.6082 41.0764 38.8093 41.4344 39.1673C41.7923 39.5252 41.9934 40.0107 41.9934 40.517Z" fill="white"/>
</svg>
