<svg width="39" height="52" viewBox="0 0 39 52" fill="none" xmlns="http://www.w3.org/2000/svg">
<path d="M12.286 44.8819L27.12 44.8879M25.179 44.8879C25.179 40.5269 27.312 36.5209 30.723 33.8029C35.087 30.3259 37.771 24.8309 37.366 18.7369C36.776 9.86988 29.426 2.67588 20.549 2.26288C10.387 1.78988 2 9.88888 2 19.9459C2 25.6269 4.679 30.6889 8.844 33.9299C12.229 36.5639 14.227 40.5939 14.227 44.8819L25.179 44.8879V44.8879Z" stroke="white" stroke-width="3" stroke-miterlimit="10" stroke-linecap="round" stroke-linejoin="round"/>
<path d="M12.3008 21.3499L17.3098 26.3589L28.2878 15.3809M25.0628 44.8849C25.0628 46.3059 24.4983 47.6687 23.4935 48.6735C22.4886 49.6784 21.1258 50.2429 19.7048 50.2429C18.2838 50.2429 16.9209 49.6784 15.9161 48.6735C14.9113 47.6687 14.3468 46.3059 14.3468 44.8849" stroke="white" stroke-width="3" stroke-miterlimit="10" stroke-linecap="round" stroke-linejoin="round"/>
</svg>
