<svg width="50" height="51" viewBox="0 0 50 51" fill="none" xmlns="http://www.w3.org/2000/svg">
<path d="M25 0.243164C11.2125 0.243164 0 11.4557 0 25.2432C0 39.0307 11.2125 50.2432 25 50.2432C38.7875 50.2432 50 39.0307 50 25.2432C50 11.4557 38.7875 0.243164 25 0.243164ZM25 3.36816C25.7219 3.36816 26.5156 3.73379 27.4156 4.71191C28.3219 5.68691 29.2375 7.24316 30.0156 9.24004C30.7469 11.1057 31.3375 13.365 31.7812 15.8682H18.2188C18.6625 13.3682 19.2531 11.1057 19.9844 9.24004C20.7625 7.24629 21.6813 5.68691 22.5844 4.70879C23.4844 3.73691 24.2781 3.36816 25 3.36816ZM19.0625 4.19941C18.3125 5.32441 17.65 6.62441 17.0719 8.10566C16.1227 10.6155 15.4357 13.2169 15.0219 15.8682H5.25C6.58633 13.0502 8.51036 10.5509 10.8928 8.53821C13.2752 6.52554 16.0609 5.04614 19.0625 4.19941ZM30.9375 4.19941C33.9391 5.04614 36.7248 6.52554 39.1072 8.53821C41.4896 10.5509 43.4137 13.0502 44.75 15.8682H34.9781C34.5643 13.2169 33.8773 10.6155 32.9281 8.10566C32.4057 6.73634 31.7384 5.42681 30.9375 4.19941ZM4.04063 18.9932H14.6469C14.4177 21.0688 14.2977 23.155 14.2875 25.2432C14.2875 27.4182 14.4375 29.4838 14.6469 31.4932H4.04063C3.43477 29.4651 3.12635 27.3598 3.125 25.2432C3.125 23.0682 3.45312 20.9744 4.04063 18.9932ZM17.7969 18.9932H32.2031C32.425 20.9869 32.5875 23.0557 32.5875 25.2432C32.5875 27.4307 32.425 29.4932 32.2031 31.4932H17.7969C17.575 29.4932 17.4125 27.4307 17.4125 25.2432C17.4125 23.0557 17.575 20.9869 17.7969 18.9932ZM35.35 18.9932H45.9594C46.5469 20.9744 46.875 23.0682 46.875 25.2432C46.875 27.4182 46.5469 29.5119 45.9594 31.4932H35.35C35.5625 29.4838 35.7125 27.4182 35.7125 25.2432C35.7125 23.0682 35.5625 20.9994 35.35 18.9932ZM5.25625 34.6182H15.0219C15.4969 37.5119 16.1938 40.1432 17.0719 42.3869C17.6469 43.865 18.3094 45.1588 19.0562 46.2807C16.0575 45.4331 13.2747 43.9539 10.8945 41.9424C8.51437 39.9309 6.59195 37.4337 5.25625 34.6182ZM18.225 34.6182H31.775C31.3344 37.1182 30.7437 39.39 30.0156 41.2525C29.2375 43.2494 28.3187 44.8025 27.4156 45.7838C26.5156 46.7588 25.7219 47.1182 25 47.1182C24.2781 47.1182 23.4844 46.7588 22.5844 45.7807C21.6781 44.8025 20.7625 43.2494 19.9844 41.2525C19.2563 39.39 18.6656 37.1182 18.225 34.6182ZM34.9781 34.6182H44.7437C43.408 37.4337 41.4856 39.9309 39.1055 41.9424C36.7253 43.9539 33.9425 45.4331 30.9438 46.2807C31.6906 45.1557 32.35 43.865 32.9281 42.3869C33.8031 40.1432 34.5031 37.5119 34.9781 34.6182Z" fill="white"/>
</svg>
