<svg width="523" height="400" viewBox="0 0 523 400" fill="none" xmlns="http://www.w3.org/2000/svg">
<path opacity="0.04" d="M730.026 -188.146C547.314 -683.557 -1.78342 65.1162 360.168 140.03C540.252 177.221 428.836 526.105 614.656 515.706C800.476 505.306 784.427 348.017 875.452 192.027C989.86 -2.21949 778.419 -56.959 730.026 -188.146Z" stroke="url(#paint0_linear_6687_1177)" stroke-width="2" stroke-miterlimit="10"/>
<path opacity="0.07" d="M739.337 -191.98C547.586 -656.817 7.82644 40.5225 352.051 139.81C521.719 188.765 449.097 532.085 628.727 511.105C808.2 490.306 806.6 337.462 881.758 184.826C975.501 -5.55959 791.566 -65.3556 739.337 -191.98Z" stroke="url(#paint1_linear_6687_1177)" stroke-width="2" stroke-miterlimit="10"/>
<path opacity="0.11" d="M748.634 -195.81C548.82 -629.852 17.0451 15.5038 343.947 139.659C503.015 200.079 469.357 538.005 642.783 506.534C816.014 475.336 829.072 327.145 888.064 177.655C961.505 -8.50563 804.817 -73.6443 748.634 -195.81Z" stroke="url(#paint2_linear_6687_1177)" stroke-width="2" stroke-miterlimit="10"/>
<path opacity="0.15" d="M757.999 -199.648C551.214 -602.908 26.02 -10.0422 335.898 139.513C484.211 211.112 489.634 543.93 656.843 501.955C823.818 460.436 851.559 316.821 894.372 170.399C947.525 -11.4072 818.382 -81.8106 757.999 -199.648Z" stroke="url(#paint3_linear_6687_1177)" stroke-width="2" stroke-miterlimit="10"/>
<path opacity="0.19" d="M767.259 -203.484C554.492 -576.04 34.7346 -36.2238 327.745 139.356C465.38 221.809 509.897 549.843 670.864 497.391C831.623 445.512 874.059 306.707 900.681 163.183C933.572 -14.2033 832.13 -89.9104 767.259 -203.484Z" stroke="url(#paint4_linear_6687_1177)" stroke-width="2" stroke-miterlimit="10"/>
<path opacity="0.23" d="M776.56 -207.317C559.02 -549.377 43.5154 -63.0788 319.644 139.201C446.55 232.171 530.175 555.772 684.977 492.778C839.415 430.525 896.639 296.621 906.991 155.97C919.723 -16.9059 846.113 -97.9426 776.56 -207.317Z" stroke="url(#paint5_linear_6687_1177)" stroke-width="2" stroke-miterlimit="10"/>
<path opacity="0.26" d="M785.868 -211.156C564.868 -523.032 52.5499 -90.6152 311.538 139.041C427.857 242.189 550.433 561.682 699.096 488.237C847.214 415.611 919.263 286.581 913.294 148.751C905.972 -19.5359 860.388 -106.006 785.868 -211.156Z" stroke="url(#paint6_linear_6687_1177)" stroke-width="2" stroke-miterlimit="10"/>
<path opacity="0.3" d="M795.179 -214.989C571.904 -497.188 62.0172 -118.796 303.435 138.886C409.376 251.979 570.695 567.611 713.103 483.663C855.017 400.611 942.075 276.586 919.601 141.525C892.368 -22.1341 875.045 -114.129 795.179 -214.989Z" stroke="url(#paint7_linear_6687_1177)" stroke-width="2" stroke-miterlimit="10"/>
<path opacity="0.34" d="M804.491 -218.835C580.11 -471.993 72.0834 -147.339 295.333 138.72C391.143 261.497 590.97 573.516 727.11 479.09C862.807 385.717 964.977 266.567 925.909 134.326C878.947 -24.7444 889.936 -122.42 804.491 -218.835Z" stroke="url(#paint8_linear_6687_1177)" stroke-width="2" stroke-miterlimit="10"/>
<path opacity="0.38" d="M813.79 -222.651C589.383 -447.536 82.8259 -176.231 287.205 138.57C373.17 270.94 611.232 579.397 741.233 474.52C870.61 370.709 987.996 256.485 932.269 127.092C865.603 -27.4424 905.269 -130.994 813.79 -222.651Z" stroke="url(#paint9_linear_6687_1177)" stroke-width="2" stroke-miterlimit="10"/>
<path opacity="0.41" d="M823.104 -226.544C599.555 -424.131 94.2462 -205.226 279.117 138.42C355.484 280.423 631.496 585.357 755.294 469.95C878.415 355.766 1011.1 246.365 938.526 119.883C852.379 -30.257 920.982 -139.97 823.104 -226.544Z" stroke="url(#paint10_linear_6687_1177)" stroke-width="2" stroke-miterlimit="10"/>
<path opacity="0.45" d="M832.416 -230.346C610.402 -401.831 106.328 -234.181 271.015 138.258C338.044 289.828 651.759 591.278 769.353 465.368C886.219 340.797 1034.23 236.05 944.834 112.727C839.192 -33.1492 937.07 -149.518 832.416 -230.346Z" stroke="url(#paint11_linear_6687_1177)" stroke-width="2" stroke-miterlimit="10"/>
<path opacity="0.49" d="M841.726 -234.179C621.597 -380.731 118.942 -262.946 262.911 138.104C320.81 299.384 672.019 597.195 783.423 460.808C893.968 325.851 1057.38 225.692 951.191 105.45C826.015 -36.1758 953.467 -159.785 841.726 -234.179Z" stroke="url(#paint12_linear_6687_1177)" stroke-width="2" stroke-miterlimit="10"/>
<path opacity="0.53" d="M851.025 -238.012C632.796 -360.919 132.026 -291.542 254.809 137.95C303.735 309.018 692.295 603.124 797.482 456.234C901.811 310.903 1080.5 215.242 957.448 98.2371C812.816 -39.3589 970.128 -170.949 851.025 -238.012Z" stroke="url(#paint13_linear_6687_1177)" stroke-width="2" stroke-miterlimit="10"/>
<path opacity="0.56" d="M860.338 -241.846C643.552 -342.42 145.448 -319.776 246.707 137.795C286.777 318.873 712.558 609.04 811.542 451.659C909.615 295.942 1103.59 204.675 963.704 91.0237C799.616 -42.4906 986.892 -183.142 860.338 -241.846Z" stroke="url(#paint14_linear_6687_1177)" stroke-width="2" stroke-miterlimit="10"/>
<path opacity="0.6" d="M869.65 -245.693C653.475 -325.196 159.104 -347.75 238.605 137.639C269.922 328.804 732.808 614.954 825.614 447.018C917.418 280.928 1126.66 194.107 970.077 83.7312C786.286 -45.7404 1003.58 -196.44 869.65 -245.693Z" stroke="url(#paint15_linear_6687_1177)" stroke-width="2" stroke-miterlimit="10"/>
<path d="M220.529 13.9339C-500.525 368.408 786.833 813.564 771.954 344.58C764.502 109.764 1312.82 189.721 1268.24 -40.0256C1223.66 -269.773 996.426 -187.215 741.275 -271.255C422.657 -376.197 406.856 -77.6321 220.529 13.9339Z" stroke="url(#paint16_linear_6687_1177)" stroke-width="2" stroke-miterlimit="10"/>
<path opacity="0.94" d="M212.817 3.9107C-462.862 362.128 749.286 808.753 773.606 354.355C785.701 128.599 1316.68 163.813 1258.35 -55.5605C1200.02 -274.934 976.268 -211.628 729.388 -276.767C421.604 -359.143 391.25 -90.6582 212.817 3.9107Z" stroke="url(#paint17_linear_6687_1177)" stroke-width="2" stroke-miterlimit="10"/>
<path opacity="0.88" d="M205.104 -6.15063C-425.147 354.901 711.349 804.697 775.27 364.091C806.665 147.824 1320.54 137.906 1248.47 -71.1074C1176.77 -280.043 955.953 -235.17 717.462 -282.292C420.342 -340.944 375.643 -103.852 205.104 -6.15063Z" stroke="url(#paint18_linear_6687_1177)" stroke-width="2" stroke-miterlimit="10"/>
<path opacity="0.81" d="M197.392 -16.2166C-387.431 346.707 672.776 801.365 776.935 373.823C827.253 167.266 1324.46 111.994 1238.62 -86.659C1153.28 -285.182 935.821 -259.171 705.549 -287.821C419.302 -323.426 360.219 -117.246 197.392 -16.2166Z" stroke="url(#paint19_linear_6687_1177)" stroke-width="2" stroke-miterlimit="10"/>
<path opacity="0.75" d="M189.667 -26.2774C-349.819 337.244 633.37 798.558 778.587 383.56C847.386 186.961 1328.27 86.0742 1228.7 -102.206C1129.86 -290.316 915.768 -283.219 693.637 -293.293C418.353 -305.85 344.899 -130.869 189.667 -26.2774Z" stroke="url(#paint20_linear_6687_1177)" stroke-width="2" stroke-miterlimit="10"/>
<path opacity="0.69" d="M181.955 -36.3261C-312.443 326.584 592.923 795.997 780.2 393.309C867.01 206.771 1332.13 60.1926 1218.82 -117.727C1106.37 -295.438 895.791 -307.28 681.697 -298.844C417.494 -288.445 329.643 -144.726 181.955 -36.3261Z" stroke="url(#paint21_linear_6687_1177)" stroke-width="2" stroke-miterlimit="10"/>
<path opacity="0.63" d="M174.243 -46.3989C-275.403 314.536 551.514 793.359 781.903 403.047C886.115 226.492 1336 34.2738 1208.93 -133.285C1082.92 -300.649 875.867 -331.47 669.81 -304.38C416.714 -271.115 314.427 -158.959 174.243 -46.3989Z" stroke="url(#paint22_linear_6687_1177)" stroke-width="2" stroke-miterlimit="10"/>
<path opacity="0.56" d="M166.53 -56.4566C-238.911 301.02 509.116 790.334 783.554 412.813C904.764 246.06 1339.86 8.39607 1199.05 -148.751C1059.46 -305.715 855.981 -355.749 657.858 -309.901C415.959 -253.849 299.197 -173.436 166.53 -56.4566Z" stroke="url(#paint23_linear_6687_1177)" stroke-width="2" stroke-miterlimit="10"/>
<path opacity="0.5" d="M158.819 -66.511C-203.093 286.091 465.901 786.688 785.221 422.517C923.077 265.292 1343.73 -17.5562 1189.17 -164.382C1036.02 -310.869 836.111 -380.168 645.999 -315.445C415.245 -236.852 283.866 -188.326 158.819 -66.511Z" stroke="url(#paint24_linear_6687_1177)" stroke-width="2" stroke-miterlimit="10"/>
<path opacity="0.44" d="M151.108 -76.5627C-168.29 269.67 422.113 782.188 786.874 432.276C941.143 284.255 1347.58 -43.4929 1179.28 -179.906C1012.55 -315.981 816.2 -404.635 634.087 -320.947C414.479 -219.943 268.325 -203.629 151.108 -76.5627Z" stroke="url(#paint25_linear_6687_1177)" stroke-width="2" stroke-miterlimit="10"/>
<path opacity="0.38" d="M143.396 -86.626C-134.619 251.82 377.96 776.986 788.538 442.01C959.103 302.92 1351.46 -69.3502 1169.41 -195.442C989.106 -321.118 796.224 -429.336 622.174 -326.473C413.62 -203.15 252.432 -219.386 143.396 -86.626Z" stroke="url(#paint26_linear_6687_1177)" stroke-width="2" stroke-miterlimit="10"/>
<path opacity="0.31" d="M135.668 -96.6927C-102.329 232.81 333.661 770.871 790.174 451.741C977.009 321.139 1355.32 -95.2628 1159.51 -210.955C965.642 -326.258 776.207 -454.039 610.272 -331.99C412.643 -186.543 236.017 -235.654 135.668 -96.6927Z" stroke="url(#paint27_linear_6687_1177)" stroke-width="2" stroke-miterlimit="10"/>
<path opacity="0.25" d="M127.956 -106.751C-71.6622 212.82 289.405 764.049 791.813 461.481C994.982 339.159 1359.18 -121.18 1149.63 -226.551C942.181 -331.402 755.944 -478.878 598.346 -337.525C411.537 -169.94 218.851 -252.264 127.956 -106.751Z" stroke="url(#paint28_linear_6687_1177)" stroke-width="2" stroke-miterlimit="10"/>
<path opacity="0.19" d="M120.243 -116.813C-42.7918 192.372 245.289 756.613 793.503 471.217C1013.03 356.941 1363.04 -147.088 1139.74 -242.086C918.731 -336.538 735.629 -503.681 586.445 -343.037C410.275 -153.353 200.655 -269.319 120.243 -116.813Z" stroke="url(#paint29_linear_6687_1177)" stroke-width="2" stroke-miterlimit="10"/>
<path opacity="0.13" d="M112.531 -126.875C-15.8181 171.924 201.371 748.683 795.155 480.966C1031.2 374.529 1366.91 -172.996 1129.86 -257.62C895.27 -341.66 715.211 -528.458 574.533 -348.614C408.91 -136.741 181.174 -286.634 112.531 -126.875Z" stroke="url(#paint30_linear_6687_1177)" stroke-width="2" stroke-miterlimit="10"/>
<path opacity="0.06" d="M104.819 -136.926C9.1259 152.201 157.725 740.387 796.819 490.712C1049.5 391.997 1370.77 -198.893 1119.99 -273.157C871.834 -346.797 694.715 -553.211 562.632 -354.064C407.427 -120.079 160.105 -303.978 104.819 -136.926Z" stroke="url(#paint31_linear_6687_1177)" stroke-width="2" stroke-miterlimit="10"/>
<path opacity="0.03" d="M396.144 410.976C488.872 1191.51 1489.02 263.514 1013 43.8281C776.303 -65.4558 1042.69 -541.849 782.584 -583.082C522.478 -624.315 493.996 -389.668 317.865 -189.286C97.126 59.986 371.616 204.511 396.144 410.976Z" stroke="url(#paint32_linear_6687_1177)" stroke-width="2" stroke-miterlimit="10"/>
<path opacity="0.05" d="M382.043 413.76C497.179 1152.66 1467.95 296.624 1024.14 46.4294C805.652 -76.7375 1016.6 -556.731 761.668 -580.78C506.972 -605.075 459.945 -381.035 306.82 -180.692C115.941 69.1261 350.752 212.936 382.043 413.76Z" stroke="url(#paint33_linear_6687_1177)" stroke-width="2" stroke-miterlimit="10"/>
<path opacity="0.07" d="M367.949 416.545C504.284 1113.29 1447.29 330.542 1035.29 49.1628C835.191 -87.4583 990.514 -571.56 740.772 -578.332C491.395 -585.534 425.549 -372.738 295.782 -171.953C134.321 77.748 329.713 221.129 367.949 416.545Z" stroke="url(#paint34_linear_6687_1177)" stroke-width="2" stroke-miterlimit="10"/>
<path opacity="0.1" d="M353.848 419.315C510.016 1073.58 1426.92 365.369 1046.43 51.8554C864.801 -97.8038 964.422 -586.403 719.857 -575.926C475.786 -566.033 391.173 -364.598 284.738 -163.372C152.695 86.2511 308.446 229.112 353.848 419.315Z" stroke="url(#paint35_linear_6687_1177)" stroke-width="2" stroke-miterlimit="10"/>
<path opacity="0.13" d="M339.754 422.106C514.208 1033.59 1406.5 401.203 1057.65 54.568C894.418 -107.596 938.402 -601.2 699.026 -573.499C460.183 -546.552 356.791 -356.543 273.7 -154.744C171.049 94.5924 286.913 236.894 339.754 422.106Z" stroke="url(#paint36_linear_6687_1177)" stroke-width="2" stroke-miterlimit="10"/>
<path opacity="0.15" d="M325.653 424.869C516.727 993.439 1385.76 437.998 1068.72 57.2528C923.689 -116.936 912.245 -616.038 678.045 -571.113C444.573 -527.046 322.323 -348.659 262.655 -146.106C189.305 102.802 265.1 244.532 325.653 424.869Z" stroke="url(#paint37_linear_6687_1177)" stroke-width="2" stroke-miterlimit="10"/>
<path opacity="0.18" d="M311.558 427.646C517.406 953.331 1364.36 475.665 1079.87 59.9387C952.733 -125.845 886.094 -630.875 657.2 -568.713C429.035 -507.617 287.849 -340.864 251.668 -137.479C207.437 110.869 242.798 252.066 311.558 427.646Z" stroke="url(#paint38_linear_6687_1177)" stroke-width="2" stroke-miterlimit="10"/>
<path opacity="0.2" d="M297.458 430.414C516.285 913.476 1342.11 513.999 1091.02 62.6419C981.382 -134.438 860.055 -645.695 636.233 -566.296C413.361 -488.067 253.07 -333.143 240.559 -128.849C225.395 118.85 220.063 259.618 297.458 430.414Z" stroke="url(#paint39_linear_6687_1177)" stroke-width="2" stroke-miterlimit="10"/>
<path opacity="0.23" d="M283.307 433.195C513.19 874.048 1318.8 552.787 1102.11 65.3188C1009.54 -142.902 833.914 -660.528 615.281 -563.918C397.754 -468.582 218.203 -325.423 229.517 -120.218C243.147 126.818 196.796 267.196 283.307 433.195Z" stroke="url(#paint40_linear_6687_1177)" stroke-width="2" stroke-miterlimit="10"/>
<path opacity="0.25" d="M269.262 435.979C508.378 835.391 1294.55 591.605 1113.31 68.025C1037.4 -151.297 807.877 -675.344 594.395 -561.498C382.148 -449.081 183.167 -317.673 218.476 -111.584C260.691 134.828 172.918 275.05 269.262 435.979Z" stroke="url(#paint41_linear_6687_1177)" stroke-width="2" stroke-miterlimit="10"/>
<path opacity="0.28" d="M255.165 438.739C501.798 797.775 1269.27 630.359 1124.45 70.7065C1064.81 -159.781 781.79 -690.186 573.523 -559.102C366.543 -429.592 148.054 -309.844 207.436 -102.962C278.107 142.93 148.366 283.321 255.165 438.739Z" stroke="url(#paint42_linear_6687_1177)" stroke-width="2" stroke-miterlimit="10"/>
<path opacity="0.3" d="M241.066 441.53C493.993 761.387 1243.1 668.833 1135.6 73.4195C1091.93 -168.365 755.699 -704.996 552.608 -556.675C351.026 -410.084 112.716 -301.892 196.379 -94.3086C295.363 151.206 123.068 292.247 241.066 441.53Z" stroke="url(#paint43_linear_6687_1177)" stroke-width="2" stroke-miterlimit="10"/>
<path opacity="0.33" d="M226.97 444.298C485.009 726.756 1216.34 706.88 1146.76 76.1095C1118.81 -177.153 729.613 -719.829 531.711 -554.284C335.33 -390.599 77.4089 -293.781 185.353 -85.6908C312.584 159.616 97.047 302.087 226.97 444.298Z" stroke="url(#paint44_linear_6687_1177)" stroke-width="2" stroke-miterlimit="10"/>
<path opacity="0.35" d="M212.872 447.08C475.567 693.946 1189.03 744.487 1157.9 78.8005C1145.56 -186.252 703.524 -734.661 510.811 -551.879C319.724 -371.113 42.073 -285.579 174.311 -77.0593C329.803 168.17 70.3337 313.136 212.872 447.08Z" stroke="url(#paint45_linear_6687_1177)" stroke-width="2" stroke-miterlimit="10"/>
<path opacity="0.38" d="M198.773 449.849C466.228 663.23 1161.35 781.575 1169.05 81.5312C1172.09 -195.429 677.447 -749.453 489.91 -549.435C304.116 -351.614 6.76274 -277.245 163.256 -68.4139C347.034 176.841 43.0736 325.642 198.773 449.849Z" stroke="url(#paint46_linear_6687_1177)" stroke-width="2" stroke-miterlimit="10"/>
<path opacity="0.4" d="M184.677 452.643C457.697 634.722 1133.45 818.231 1180.2 84.1431C1198.6 -204.893 651.36 -764.299 468.999 -547.057C288.589 -332.116 -28.5195 -268.875 152.228 -59.7835C364.345 185.628 15.5295 339.836 184.677 452.643Z" stroke="url(#paint47_linear_6687_1177)" stroke-width="2" stroke-miterlimit="10"/>
<defs>
<linearGradient id="paint0_linear_6687_1177" x1="908.949" y1="79.7419" x2="239.329" y2="79.7419" gradientUnits="userSpaceOnUse">
<stop offset="0.755208" stop-color="white"/>
<stop offset="1" stop-color="white" stop-opacity="0"/>
</linearGradient>
<linearGradient id="paint1_linear_6687_1177" x1="907.961" y1="80.8918" x2="239.825" y2="80.8918" gradientUnits="userSpaceOnUse">
<stop offset="0.755208" stop-color="white"/>
<stop offset="1" stop-color="white" stop-opacity="0"/>
</linearGradient>
<linearGradient id="paint2_linear_6687_1177" x1="907.289" y1="82.2995" x2="240.137" y2="82.2995" gradientUnits="userSpaceOnUse">
<stop offset="0.755208" stop-color="white"/>
<stop offset="1" stop-color="white" stop-opacity="0"/>
</linearGradient>
<linearGradient id="paint3_linear_6687_1177" x1="906.922" y1="83.8818" x2="240.345" y2="83.8818" gradientUnits="userSpaceOnUse">
<stop offset="0.755208" stop-color="white"/>
<stop offset="1" stop-color="white" stop-opacity="0"/>
</linearGradient>
<linearGradient id="paint4_linear_6687_1177" x1="907.078" y1="85.6212" x2="240.306" y2="85.6212" gradientUnits="userSpaceOnUse">
<stop offset="0.755208" stop-color="white"/>
<stop offset="1" stop-color="white" stop-opacity="0"/>
</linearGradient>
<linearGradient id="paint5_linear_6687_1177" x1="908.437" y1="87.4562" x2="240.234" y2="87.4562" gradientUnits="userSpaceOnUse">
<stop offset="0.755208" stop-color="white"/>
<stop offset="1" stop-color="white" stop-opacity="0"/>
</linearGradient>
<linearGradient id="paint6_linear_6687_1177" x1="913.637" y1="89.393" x2="240.135" y2="89.3931" gradientUnits="userSpaceOnUse">
<stop offset="0.755208" stop-color="white"/>
<stop offset="1" stop-color="white" stop-opacity="0"/>
</linearGradient>
<linearGradient id="paint7_linear_6687_1177" x1="923.121" y1="91.3506" x2="240.015" y2="91.3506" gradientUnits="userSpaceOnUse">
<stop offset="0.755208" stop-color="white"/>
<stop offset="1" stop-color="white" stop-opacity="0"/>
</linearGradient>
<linearGradient id="paint8_linear_6687_1177" x1="934.324" y1="93.3062" x2="239.87" y2="93.3062" gradientUnits="userSpaceOnUse">
<stop offset="0.755208" stop-color="white"/>
<stop offset="1" stop-color="white" stop-opacity="0"/>
</linearGradient>
<linearGradient id="paint9_linear_6687_1177" x1="946.484" y1="95.2399" x2="239.628" y2="95.2399" gradientUnits="userSpaceOnUse">
<stop offset="0.755208" stop-color="white"/>
<stop offset="1" stop-color="white" stop-opacity="0"/>
</linearGradient>
<linearGradient id="paint10_linear_6687_1177" x1="959.16" y1="97.0828" x2="239.232" y2="97.0829" gradientUnits="userSpaceOnUse">
<stop offset="0.755208" stop-color="white"/>
<stop offset="1" stop-color="white" stop-opacity="0"/>
</linearGradient>
<linearGradient id="paint11_linear_6687_1177" x1="972.242" y1="98.8249" x2="238.539" y2="98.8249" gradientUnits="userSpaceOnUse">
<stop offset="0.755208" stop-color="white"/>
<stop offset="1" stop-color="white" stop-opacity="0"/>
</linearGradient>
<linearGradient id="paint12_linear_6687_1177" x1="985.602" y1="100.433" x2="237.404" y2="100.433" gradientUnits="userSpaceOnUse">
<stop offset="0.755208" stop-color="white"/>
<stop offset="1" stop-color="white" stop-opacity="0"/>
</linearGradient>
<linearGradient id="paint13_linear_6687_1177" x1="999.105" y1="101.856" x2="235.703" y2="101.856" gradientUnits="userSpaceOnUse">
<stop offset="0.755208" stop-color="white"/>
<stop offset="1" stop-color="white" stop-opacity="0"/>
</linearGradient>
<linearGradient id="paint14_linear_6687_1177" x1="1012.73" y1="103.076" x2="233.289" y2="103.076" gradientUnits="userSpaceOnUse">
<stop offset="0.755208" stop-color="white"/>
<stop offset="1" stop-color="white" stop-opacity="0"/>
</linearGradient>
<linearGradient id="paint15_linear_6687_1177" x1="1026.52" y1="104.026" x2="230.038" y2="104.026" gradientUnits="userSpaceOnUse">
<stop offset="0.755208" stop-color="white"/>
<stop offset="1" stop-color="white" stop-opacity="0"/>
</linearGradient>
<linearGradient id="paint16_linear_6687_1177" x1="1270.82" y1="126.905" x2="0.999127" y2="126.905" gradientUnits="userSpaceOnUse">
<stop offset="0.755208" stop-color="white"/>
<stop offset="1" stop-color="white" stop-opacity="0"/>
</linearGradient>
<linearGradient id="paint17_linear_6687_1177" x1="1262.83" y1="127.252" x2="8.20848" y2="127.252" gradientUnits="userSpaceOnUse">
<stop offset="0.755208" stop-color="white"/>
<stop offset="1" stop-color="white" stop-opacity="0"/>
</linearGradient>
<linearGradient id="paint18_linear_6687_1177" x1="1255.39" y1="127.604" x2="15.3756" y2="127.604" gradientUnits="userSpaceOnUse">
<stop offset="0.755208" stop-color="white"/>
<stop offset="1" stop-color="white" stop-opacity="0"/>
</linearGradient>
<linearGradient id="paint19_linear_6687_1177" x1="1248.56" y1="127.53" x2="22.4513" y2="127.53" gradientUnits="userSpaceOnUse">
<stop offset="0.755208" stop-color="white"/>
<stop offset="1" stop-color="white" stop-opacity="0"/>
</linearGradient>
<linearGradient id="paint20_linear_6687_1177" x1="1242.22" y1="126.75" x2="29.3667" y2="126.75" gradientUnits="userSpaceOnUse">
<stop offset="0.755208" stop-color="white"/>
<stop offset="1" stop-color="white" stop-opacity="0"/>
</linearGradient>
<linearGradient id="paint21_linear_6687_1177" x1="1236.5" y1="123.618" x2="36.0596" y2="123.618" gradientUnits="userSpaceOnUse">
<stop offset="0.755208" stop-color="white"/>
<stop offset="1" stop-color="white" stop-opacity="0"/>
</linearGradient>
<linearGradient id="paint22_linear_6687_1177" x1="1231.35" y1="117.774" x2="42.4953" y2="117.774" gradientUnits="userSpaceOnUse">
<stop offset="0.755208" stop-color="white"/>
<stop offset="1" stop-color="white" stop-opacity="0"/>
</linearGradient>
<linearGradient id="paint23_linear_6687_1177" x1="1226.78" y1="111.441" x2="48.5888" y2="111.441" gradientUnits="userSpaceOnUse">
<stop offset="0.755208" stop-color="white"/>
<stop offset="1" stop-color="white" stop-opacity="0"/>
</linearGradient>
<linearGradient id="paint24_linear_6687_1177" x1="1222.79" y1="104.8" x2="54.3135" y2="104.8" gradientUnits="userSpaceOnUse">
<stop offset="0.755208" stop-color="white"/>
<stop offset="1" stop-color="white" stop-opacity="0"/>
</linearGradient>
<linearGradient id="paint25_linear_6687_1177" x1="1219.37" y1="97.9656" x2="59.5611" y2="97.9657" gradientUnits="userSpaceOnUse">
<stop offset="0.755208" stop-color="white"/>
<stop offset="1" stop-color="white" stop-opacity="0"/>
</linearGradient>
<linearGradient id="paint26_linear_6687_1177" x1="1216.53" y1="90.964" x2="64.3097" y2="90.964" gradientUnits="userSpaceOnUse">
<stop offset="0.755208" stop-color="white"/>
<stop offset="1" stop-color="white" stop-opacity="0"/>
</linearGradient>
<linearGradient id="paint27_linear_6687_1177" x1="1214.25" y1="83.8799" x2="68.4797" y2="83.88" gradientUnits="userSpaceOnUse">
<stop offset="0.755208" stop-color="white"/>
<stop offset="1" stop-color="white" stop-opacity="0"/>
</linearGradient>
<linearGradient id="paint28_linear_6687_1177" x1="1212.55" y1="76.7739" x2="72.0152" y2="76.7739" gradientUnits="userSpaceOnUse">
<stop offset="0.755208" stop-color="white"/>
<stop offset="1" stop-color="white" stop-opacity="0"/>
</linearGradient>
<linearGradient id="paint29_linear_6687_1177" x1="1211.42" y1="69.7671" x2="74.855" y2="69.7672" gradientUnits="userSpaceOnUse">
<stop offset="0.755208" stop-color="white"/>
<stop offset="1" stop-color="white" stop-opacity="0"/>
</linearGradient>
<linearGradient id="paint30_linear_6687_1177" x1="1210.86" y1="62.9137" x2="76.9715" y2="62.9138" gradientUnits="userSpaceOnUse">
<stop offset="0.755208" stop-color="white"/>
<stop offset="1" stop-color="white" stop-opacity="0"/>
</linearGradient>
<linearGradient id="paint31_linear_6687_1177" x1="1210.87" y1="56.3052" x2="78.3257" y2="56.3052" gradientUnits="userSpaceOnUse">
<stop offset="0.755208" stop-color="white"/>
<stop offset="1" stop-color="white" stop-opacity="0"/>
</linearGradient>
<linearGradient id="paint32_linear_6687_1177" x1="1140.81" y1="65.0592" x2="232.555" y2="65.0592" gradientUnits="userSpaceOnUse">
<stop offset="0.755208" stop-color="white"/>
<stop offset="1" stop-color="white" stop-opacity="0"/>
</linearGradient>
<linearGradient id="paint33_linear_6687_1177" x1="1139.59" y1="62.6397" x2="232.782" y2="62.6397" gradientUnits="userSpaceOnUse">
<stop offset="0.755208" stop-color="white"/>
<stop offset="1" stop-color="white" stop-opacity="0"/>
</linearGradient>
<linearGradient id="paint34_linear_6687_1177" x1="1138.7" y1="59.6297" x2="232.79" y2="59.6297" gradientUnits="userSpaceOnUse">
<stop offset="0.755208" stop-color="white"/>
<stop offset="1" stop-color="white" stop-opacity="0"/>
</linearGradient>
<linearGradient id="paint35_linear_6687_1177" x1="1138.11" y1="55.8292" x2="232.752" y2="55.8293" gradientUnits="userSpaceOnUse">
<stop offset="0.755208" stop-color="white"/>
<stop offset="1" stop-color="white" stop-opacity="0"/>
</linearGradient>
<linearGradient id="paint36_linear_6687_1177" x1="1137.8" y1="51.6414" x2="232.658" y2="51.6414" gradientUnits="userSpaceOnUse">
<stop offset="0.755208" stop-color="white"/>
<stop offset="1" stop-color="white" stop-opacity="0"/>
</linearGradient>
<linearGradient id="paint37_linear_6687_1177" x1="1137.63" y1="47.1646" x2="232.457" y2="47.1646" gradientUnits="userSpaceOnUse">
<stop offset="0.755208" stop-color="white"/>
<stop offset="1" stop-color="white" stop-opacity="0"/>
</linearGradient>
<linearGradient id="paint38_linear_6687_1177" x1="1137.7" y1="42.532" x2="232.098" y2="42.532" gradientUnits="userSpaceOnUse">
<stop offset="0.755208" stop-color="white"/>
<stop offset="1" stop-color="white" stop-opacity="0"/>
</linearGradient>
<linearGradient id="paint39_linear_6687_1177" x1="1138.04" y1="37.835" x2="231.366" y2="37.8351" gradientUnits="userSpaceOnUse">
<stop offset="0.755208" stop-color="white"/>
<stop offset="1" stop-color="white" stop-opacity="0"/>
</linearGradient>
<linearGradient id="paint40_linear_6687_1177" x1="1138.75" y1="33.1365" x2="229.007" y2="33.1365" gradientUnits="userSpaceOnUse">
<stop offset="0.755208" stop-color="white"/>
<stop offset="1" stop-color="white" stop-opacity="0"/>
</linearGradient>
<linearGradient id="paint41_linear_6687_1177" x1="1140.18" y1="28.5709" x2="214.385" y2="28.571" gradientUnits="userSpaceOnUse">
<stop offset="0.755208" stop-color="white"/>
<stop offset="1" stop-color="white" stop-opacity="0"/>
</linearGradient>
<linearGradient id="paint42_linear_6687_1177" x1="1142.49" y1="24.2239" x2="197.532" y2="24.2239" gradientUnits="userSpaceOnUse">
<stop offset="0.755208" stop-color="white"/>
<stop offset="1" stop-color="white" stop-opacity="0"/>
</linearGradient>
<linearGradient id="paint43_linear_6687_1177" x1="1146.08" y1="20.221" x2="179.188" y2="20.2211" gradientUnits="userSpaceOnUse">
<stop offset="0.755208" stop-color="white"/>
<stop offset="1" stop-color="white" stop-opacity="0"/>
</linearGradient>
<linearGradient id="paint44_linear_6687_1177" x1="1151.4" y1="16.69" x2="159.879" y2="16.69" gradientUnits="userSpaceOnUse">
<stop offset="0.755208" stop-color="white"/>
<stop offset="1" stop-color="white" stop-opacity="0"/>
</linearGradient>
<linearGradient id="paint45_linear_6687_1177" x1="1158.89" y1="13.7239" x2="139.847" y2="13.7239" gradientUnits="userSpaceOnUse">
<stop offset="0.755208" stop-color="white"/>
<stop offset="1" stop-color="white" stop-opacity="0"/>
</linearGradient>
<linearGradient id="paint46_linear_6687_1177" x1="1169.06" y1="11.4272" x2="119.285" y2="11.4273" gradientUnits="userSpaceOnUse">
<stop offset="0.755208" stop-color="white"/>
<stop offset="1" stop-color="white" stop-opacity="0"/>
</linearGradient>
<linearGradient id="paint47_linear_6687_1177" x1="1180.65" y1="9.79315" x2="98.3468" y2="9.7932" gradientUnits="userSpaceOnUse">
<stop offset="0.755208" stop-color="white"/>
<stop offset="1" stop-color="white" stop-opacity="0"/>
</linearGradient>
</defs>
</svg>
