<svg width="97" height="97" viewBox="0 0 97 97" fill="none" xmlns="http://www.w3.org/2000/svg">
<rect width="97" height="97" rx="20" fill="#E4D8FF"/>
<path d="M76.2221 47.4316C76.3669 46.5473 76.4548 45.6542 76.4855 44.7581C76.4978 40.1713 75.0231 35.7102 72.2929 32.0753C69.5626 28.4403 65.7315 25.8375 61.4011 24.6754C57.0706 23.5133 52.4861 23.8578 48.3675 25.6548C44.2489 27.4519 40.8294 30.5996 38.6459 34.6038C37.3422 34.093 35.9647 33.8077 34.5698 33.7597C32.8816 33.7593 31.2099 34.0996 29.6502 34.7613C28.0904 35.423 26.6731 36.393 25.4793 37.616C24.2855 38.8389 23.3384 40.2909 22.6923 41.889C22.0462 43.487 21.7136 45.1998 21.7136 46.9296C21.7136 47.0049 21.7534 47.0677 21.7565 47.1398C18.4751 47.3842 15.415 48.9264 13.223 51.4404C11.031 53.9543 9.87887 57.2431 10.0101 60.6116C10.1413 63.98 11.5456 67.1643 13.9262 69.4912C16.3068 71.8181 19.4771 73.1055 22.7671 73.0811H73.8058C77.1903 73.0811 80.4362 71.7035 82.8294 69.2513C85.2225 66.7991 86.567 63.4732 86.567 60.0053C86.541 57.0032 85.4934 54.1046 83.6049 51.8092C81.7164 49.5138 79.1054 47.9656 76.2221 47.4316Z" fill="url(#paint0_linear_7708_2045)"/>
<path fill-rule="evenodd" clip-rule="evenodd" d="M60.2076 50.4061C59.7542 52.8392 59.3008 53.6713 58.3555 55.8076C58.6909 55.7249 59.0149 55.6006 59.3201 55.4378C61.3663 54.2978 63.0808 52.6367 64.2927 50.6202C64.3527 50.5367 64.3848 50.4361 64.3844 50.3331C64.387 50.262 64.3755 50.191 64.3506 50.1245C64.3257 50.0579 64.2878 49.997 64.2394 49.9453C64.1909 49.8938 64.1326 49.8523 64.0681 49.8237C64.0036 49.795 63.934 49.7795 63.8635 49.7783H63.8298C62.6191 50.0071 61.3892 50.2406 60.2076 50.4061Z" fill="#C5C6C6"/>
<path fill-rule="evenodd" clip-rule="evenodd" d="M58.5873 47.7685L55.2043 45.3233L52.2901 47.6011C50.2727 46.8152 49.4455 46.7192 47.0312 45.3568C47.3662 48.0365 47.4332 49.1419 47.465 51.8778C47.4678 51.8793 49.6908 53.1165 51.6537 53.6638C51.8584 53.4662 54.8086 51.1912 54.9184 51.0669C54.9184 51.0669 57.422 52.7448 57.8504 52.9604C58.7363 52.0664 59.6555 51.3358 60.3291 50.2807C60.6017 48.5774 60.6148 47.0192 60.6306 45.0889C60.0947 46.1607 59.4582 46.7972 58.5873 47.7685Z" fill="url(#paint1_linear_7708_2045)"/>
<path opacity="0.7" fill-rule="evenodd" clip-rule="evenodd" d="M50.25 53.2614C50.692 53.481 51.1492 53.6605 51.617 53.7982C51.9729 51.7203 52.1877 49.6152 52.2598 47.501C51.8893 49.5357 51.2095 51.4841 50.25 53.2614Z" fill="white"/>
<path opacity="0.7" fill-rule="evenodd" clip-rule="evenodd" d="M57.082 52.5477C57.4085 52.7889 57.5485 52.8505 57.8471 53.061C58.0662 51.9829 58.2109 52.0343 58.5561 47.9688C58.1689 49.9861 57.9917 50.905 57.082 52.5528" fill="white"/>
<path fill-rule="evenodd" clip-rule="evenodd" d="M51.6164 53.5807C50.2133 53.1017 48.8444 52.5265 47.5194 51.859C47.5277 49.7144 47.3854 47.5719 47.0935 45.4475C49.4969 46.8064 50.2727 46.8678 52.2805 47.6494L55.196 45.3811L58.6033 47.8333C59.4349 46.8115 60.2005 46.224 60.6315 45.1614C60.6183 42.9386 60.3374 40.7256 59.7949 38.571C59.766 38.4553 59.7013 38.3518 59.6101 38.2755C59.519 38.1993 59.4061 38.1543 59.2878 38.147C59.2009 38.144 59.1144 38.1614 59.0352 38.1977C58.956 38.2341 58.8863 38.2884 58.8315 38.3565C57.787 39.6439 57.3741 39.9908 56.0761 41.3702C53.6019 41.2107 51.3681 41.2287 48.9079 41.5377L47.9031 41.6717C46.5898 40.4763 44.1527 39.1739 41.9623 38.1572C41.902 38.1355 41.8387 38.1235 41.7747 38.1215C41.7004 38.1187 41.6263 38.1309 41.5566 38.1572C41.4869 38.1835 41.4232 38.2235 41.369 38.2748C41.3147 38.3261 41.2712 38.3877 41.2407 38.4561C41.2103 38.5245 41.1936 38.5983 41.1916 38.6732C41.1928 38.7482 41.2065 38.8225 41.2322 38.8929C42.6164 43.1741 43.022 46.7451 43.458 51.1846C40.8316 51.1182 38.6311 51.0007 35.9387 50.7249H35.888C35.8142 50.7215 35.7404 50.733 35.6711 50.7588C35.6017 50.7846 35.5382 50.8241 35.4843 50.8751C35.4304 50.9261 35.3872 50.9874 35.3573 51.0555C35.3273 51.1236 35.3112 51.1971 35.31 51.2715C35.3013 51.3895 35.3336 51.5069 35.4012 51.6036C37.5713 54.7966 40.3727 56.9079 43.7496 57.8837V58.8886C43.7327 61.5511 43.5304 64.047 43.2096 66.6899C43.2109 66.7731 43.2323 66.8548 43.2721 66.9278C43.3119 67.0009 43.3687 67.0629 43.4378 67.1087C43.5254 67.1578 43.6224 67.1868 43.7223 67.1939C43.8222 67.2009 43.9224 67.1859 44.0158 67.1496H44.1071C50.8609 65.4535 55.5103 61.5299 58.1267 56.4212C59.1306 54.4883 59.866 52.4254 60.3121 50.2906C60.2664 50.2906 60.3121 50.2906 60.2816 50.2906C59.6123 51.3124 58.7301 52.0276 57.8529 52.9216C57.427 52.7019 54.9071 51.0314 54.9071 51.0314C54.7954 51.154 51.8647 53.4019 51.6366 53.5858" fill="white"/>
<path fill-rule="evenodd" clip-rule="evenodd" d="M43.7539 57.8828C43.7539 58.5529 43.7539 58.8879 43.7539 58.8879C44.3854 58.8635 44.9941 58.6427 45.496 58.2556C44.9095 58.1686 44.3293 58.0441 43.7586 57.8828" fill="#C5C6C6"/>
<path fill-rule="evenodd" clip-rule="evenodd" d="M48.9091 41.5379L47.904 41.6719C48.2725 42.0404 48.622 42.4478 48.9241 42.8469C48.9776 42.4231 48.9727 41.9584 48.9091 41.5379Z" fill="#C5C6C6"/>
<path fill-rule="evenodd" clip-rule="evenodd" d="M60.3293 50.2812C58.4095 59.4006 52.7705 65.0218 43.8828 67.1967C51.0502 64.6943 55.2483 60.1398 57.8542 52.9242C58.7092 51.9007 59.8067 51.0745 60.2623 50.2812C60.2623 50.2812 60.3061 50.2892 60.3293 50.2812Z" fill="#D9DADA"/>
<path fill-rule="evenodd" clip-rule="evenodd" d="M59.7912 38.5576C60.4276 40.6679 60.5951 42.9121 60.6286 45.1468C60.3606 45.9602 59.39 47.0369 58.6523 47.769C58.9183 45.6278 59.5854 42.504 59.7912 38.5576Z" fill="#D9DADA"/>
<path fill-rule="evenodd" clip-rule="evenodd" d="M55.54 41.3369C55.7075 41.3369 55.8415 41.3369 56.0761 41.3704C55.8658 41.5776 55.65 41.8782 55.5067 42.141C55.4943 41.8929 55.4695 41.574 55.54 41.3369Z" fill="#C5C6C6"/>
<defs>
<linearGradient id="paint0_linear_7708_2045" x1="21.3071" y1="28.9679" x2="82.4196" y2="75.2734" gradientUnits="userSpaceOnUse">
<stop stop-color="#AA58FF"/>
<stop offset="1" stop-color="#7216D1"/>
</linearGradient>
<linearGradient id="paint1_linear_7708_2045" x1="61.2314" y1="52.5416" x2="47.387" y2="58.8505" gradientUnits="userSpaceOnUse">
<stop stop-color="#AA58FF"/>
<stop offset="1" stop-color="#7216D1"/>
</linearGradient>
</defs>
</svg>
