<svg width="97" height="97" viewBox="0 0 97 97" fill="none" xmlns="http://www.w3.org/2000/svg">
<rect width="97" height="97" rx="20" fill="url(#paint0_linear_6835_1249)"/>
<path fill-rule="evenodd" clip-rule="evenodd" d="M66.5317 44.9695C65.7207 49.3209 64.9098 50.8091 63.2188 54.6299C63.8187 54.4819 64.3983 54.2597 64.9443 53.9685C68.6043 51.9296 71.6711 48.9589 73.839 45.3524C73.9462 45.203 74.0037 45.0232 74.0029 44.8388C74.0076 44.7117 73.9871 44.5848 73.9424 44.4658C73.8979 44.3468 73.8302 44.2378 73.7436 44.1454C73.6568 44.0532 73.5526 43.979 73.4372 43.9278C73.3217 43.8766 73.1973 43.8488 73.0712 43.8467H73.0109C70.8454 44.2558 68.6454 44.6735 66.5317 44.9695Z" fill="#C5C6C6"/>
<path d="M66.5317 44.9695C65.7207 49.3209 64.9098 50.8091 63.2188 54.6299C63.8187 54.4819 64.3983 54.2597 64.9443 53.9685C68.6043 51.9296 71.6711 48.9589 73.839 45.3524C73.9462 45.203 74.0037 45.0232 74.0029 44.8388C74.0076 44.7117 73.9871 44.5848 73.9424 44.4658C73.8979 44.3468 73.8302 44.2378 73.7436 44.1454C73.6568 44.0532 73.5526 43.979 73.4372 43.9278C73.3218 43.8766 73.1973 43.8488 73.0712 43.8467H73.0109C70.8454 44.2558 68.6454 44.6735 66.5317 44.9695Z" stroke="#B1B1B2" stroke-width="0.22" stroke-miterlimit="22.93"/>
<path fill-rule="evenodd" clip-rule="evenodd" d="M63.6396 40.2525L57.5882 35.8793L52.3755 39.953C48.7669 38.5475 47.2873 38.3757 42.9688 35.9392C43.5679 40.7318 43.6877 42.7087 43.7446 47.6018C43.7496 47.6045 47.726 49.8173 51.2371 50.7961C51.6034 50.4426 56.8803 46.3739 57.0769 46.1516C57.0769 46.1516 61.5552 49.1525 62.3215 49.538C63.906 47.9391 65.5502 46.6325 66.7552 44.7455C67.2427 41.6991 67.2663 38.9123 67.2945 35.46C66.3358 37.377 65.1974 38.5152 63.6396 40.2525Z" fill="url(#paint1_linear_6835_1249)"/>
<path opacity="0.7" fill-rule="evenodd" clip-rule="evenodd" d="M48.7266 50.0767C49.5173 50.4696 50.3351 50.7906 51.1718 51.0369C51.8083 47.3206 52.1926 43.5556 52.3215 39.7744C51.6589 43.4135 50.4429 46.8981 48.7266 50.0767Z" fill="white"/>
<path opacity="0.7" fill-rule="evenodd" clip-rule="evenodd" d="M60.9492 48.8031C61.5332 49.2344 61.7835 49.3446 62.3174 49.7211C62.7094 47.7933 62.9681 47.8852 63.5855 40.6152C62.8931 44.2226 62.5761 45.8657 60.9492 48.8123" fill="white"/>
<path fill-rule="evenodd" clip-rule="evenodd" d="M51.1704 50.6492C48.6606 49.7925 46.2121 48.7638 43.8421 47.5699C43.8569 43.7344 43.6024 39.9026 43.0802 36.1031C47.3792 38.5335 48.7669 38.6432 52.3584 40.0412L57.5735 35.9843L63.6682 40.3701C65.1557 38.5426 66.5253 37.492 67.2962 35.5914C67.2726 31.616 66.77 27.6581 65.7996 23.8047C65.7481 23.5977 65.6323 23.4125 65.4692 23.2762C65.3061 23.1398 65.1042 23.0593 64.8927 23.0464C64.7371 23.041 64.5825 23.072 64.4408 23.137C64.2991 23.202 64.1744 23.2992 64.0764 23.421C62.2081 25.7235 61.4695 26.344 59.1477 28.811C54.722 28.5256 50.7264 28.5578 46.3257 29.1105L44.5283 29.3501C42.1793 27.2122 37.8198 24.8829 33.9018 23.0646C33.7939 23.0258 33.6807 23.0042 33.5662 23.0007C33.4333 22.9958 33.3007 23.0175 33.176 23.0646C33.0515 23.1117 32.9375 23.1832 32.8404 23.2749C32.7434 23.3667 32.6655 23.4769 32.611 23.5992C32.5566 23.7215 32.5268 23.8535 32.5232 23.9875C32.5253 24.1216 32.5499 24.2544 32.5958 24.3804C35.0718 32.0372 35.7973 38.4239 36.5773 46.3639C31.8793 46.2451 27.9431 46.035 23.1271 45.5416H23.0364C22.9043 45.5355 22.7724 45.5561 22.6484 45.6022C22.5243 45.6484 22.4107 45.7191 22.3144 45.8102C22.218 45.9014 22.1407 46.0111 22.0871 46.133C22.0335 46.2547 22.0047 46.3861 22.0025 46.5192C21.987 46.7303 22.0447 46.9402 22.1657 47.1131C26.0474 52.8237 31.0584 56.5998 37.0987 58.345V60.1422C37.0686 64.9041 36.7067 69.368 36.1328 74.0946C36.1351 74.2435 36.1735 74.3895 36.2447 74.5202C36.3158 74.6508 36.4175 74.7618 36.541 74.8437C36.6977 74.9315 36.8713 74.9833 37.05 74.996C37.2286 75.0087 37.4078 74.9817 37.575 74.9168H37.7383C49.819 71.8834 58.1357 64.8662 62.8158 55.7293C64.6115 52.2723 65.9268 48.5829 66.7247 44.7649C66.643 44.7649 66.7247 44.7649 66.6702 44.7649C65.4731 46.5923 63.8951 47.8715 62.3259 49.4704C61.5642 49.0775 57.0566 46.0897 57.0566 46.0897C56.8569 46.3091 51.6147 50.3294 51.2067 50.6583" fill="white"/>
<path fill-rule="evenodd" clip-rule="evenodd" d="M37.0977 58.3457C37.0977 59.5441 37.0977 60.1432 37.0977 60.1432C38.2271 60.0996 39.3156 59.7046 40.2133 59.0123C39.1644 58.8569 38.1267 58.6342 37.106 58.3457" fill="#C5C6C6"/>
<path fill-rule="evenodd" clip-rule="evenodd" d="M46.3255 29.1102L44.5281 29.3499C45.1871 30.0089 45.8122 30.7375 46.3525 31.4512C46.448 30.6933 46.4393 29.8622 46.3255 29.1102Z" fill="#C5C6C6"/>
<path fill-rule="evenodd" clip-rule="evenodd" d="M66.7584 44.7471C63.3243 61.0568 53.2375 71.1103 37.3398 75C50.1605 70.5245 57.6698 62.3788 62.331 49.4739C63.8604 47.6434 65.8236 46.1658 66.6386 44.7471C66.6386 44.7471 66.7168 44.7612 66.7584 44.7471Z" fill="#D9DADA"/>
<path fill-rule="evenodd" clip-rule="evenodd" d="M65.8028 23.7783C66.9412 27.5524 67.2407 31.5662 67.3006 35.5629C66.8213 37.0177 65.0851 38.9434 63.7656 40.2527C64.2413 36.4232 65.4347 30.8363 65.8028 23.7783Z" fill="#D9DADA"/>
<path fill-rule="evenodd" clip-rule="evenodd" d="M58.191 28.751C58.4906 28.751 58.7303 28.751 59.1497 28.8109C58.7736 29.1813 58.3877 29.7191 58.1314 30.189C58.1092 29.7454 58.0649 29.1751 58.191 28.751Z" fill="#C5C6C6"/>
<defs>
<linearGradient id="paint0_linear_6835_1249" x1="97" y1="99.7379" x2="4.99999" y2="-17" gradientUnits="userSpaceOnUse">
<stop stop-color="#F75005"/>
<stop offset="1" stop-color="#FF7436"/>
</linearGradient>
<linearGradient id="paint1_linear_6835_1249" x1="73.1063" y1="49.7777" x2="37.9922" y2="35.7669" gradientUnits="userSpaceOnUse">
<stop stop-color="#ABD7FF"/>
<stop offset="1" stop-color="#2270E7"/>
</linearGradient>
</defs>
</svg>
