<svg width="224" height="69" viewBox="0 0 224 69" fill="none" xmlns="http://www.w3.org/2000/svg">
<rect y="0.35498" width="224" height="68" rx="34" fill="#F75005"/>
<path d="M57.716 33.4636C57.6796 29.5272 61.0217 27.6122 61.1745 27.523C59.2818 24.8324 56.3481 24.4648 55.3171 24.4355C52.8532 24.1827 50.4631 25.873 49.208 25.873C47.9278 25.873 45.995 24.4599 43.9118 24.5014C41.2312 24.5418 38.7234 26.055 37.348 28.4048C34.5095 33.1961 36.6264 40.237 39.3459 44.1099C40.7063 46.0066 42.2959 48.1244 44.3766 48.0499C46.4121 47.968 47.1725 46.7846 49.6289 46.7846C52.0628 46.7846 52.7768 48.0499 54.8988 48.0022C57.0834 47.968 58.4588 46.097 59.7715 44.1831C61.3436 42.0092 61.9749 39.8682 62 39.7583C61.9486 39.7412 57.7573 38.1815 57.716 33.4636Z" fill="white"/>
<path d="M53.7075 21.8878C54.8023 20.5529 55.5514 18.7368 55.3434 16.8938C53.7589 16.9622 51.7772 17.9625 50.636 19.2681C49.6264 20.4186 48.7245 22.3043 48.9575 24.0776C50.7375 24.2071 52.5651 23.202 53.7075 21.8878Z" fill="white"/>
<path d="M91.4134 47.073H88.7021L87.2169 42.5227H82.0545L80.6397 47.073H78L83.1147 31.5818H86.2737L91.4134 47.073ZM86.7692 40.6137L85.426 36.5686C85.284 36.1553 85.0177 35.1822 84.6249 33.6503H84.5772C84.4208 34.3092 84.1689 35.2823 83.8226 36.5686L82.5034 40.6137H86.7692Z" fill="white"/>
<path d="M104.564 41.3504C104.564 43.2501 104.038 44.7518 102.985 45.8541C102.041 46.8354 100.87 47.3255 99.4721 47.3255C97.963 47.3255 96.8789 46.797 96.2187 45.7401H96.171V51.6243H93.6256V39.5799C93.6256 38.3856 93.5933 37.1598 93.5312 35.9027H95.7698L95.9119 37.6732H95.9596C96.8085 36.3392 98.0967 35.6733 99.8255 35.6733C101.177 35.6733 102.305 36.1937 103.208 37.2355C104.113 38.2785 104.564 39.6497 104.564 41.3504ZM101.971 41.4412C101.971 40.354 101.72 39.4577 101.216 38.7523C100.666 38.0166 99.927 37.6487 99.0005 37.6487C98.3725 37.6487 97.8018 37.8536 97.292 38.2575C96.781 38.665 96.4467 39.1969 96.2903 39.8558C96.2115 40.1631 96.1722 40.4145 96.1722 40.6124V42.4749C96.1722 43.2874 96.4276 43.973 96.9386 44.5329C97.4496 45.0928 98.1134 45.3722 98.9301 45.3722C99.8888 45.3722 100.635 45.0114 101.169 44.292C101.703 43.5714 101.971 42.6216 101.971 41.4412Z" fill="white"/>
<path d="M117.743 41.3504C117.743 43.2501 117.216 44.7518 116.162 45.8541C115.22 46.8354 114.049 47.3255 112.651 47.3255C111.141 47.3255 110.057 46.797 109.398 45.7401H109.351V51.6243H106.805V39.5799C106.805 38.3856 106.773 37.1598 106.711 35.9027H108.949L109.092 37.6732H109.139C109.987 36.3392 111.275 35.6733 113.005 35.6733C114.355 35.6733 115.484 36.1937 116.389 37.2355C117.29 38.2785 117.743 39.6497 117.743 41.3504ZM115.149 41.4412C115.149 40.354 114.897 39.4577 114.394 38.7523C113.843 38.0166 113.107 37.6487 112.179 37.6487C111.55 37.6487 110.98 37.8536 110.469 38.2575C109.958 38.665 109.625 39.1969 109.469 39.8558C109.391 40.1631 109.351 40.4145 109.351 40.6124V42.4749C109.351 43.2874 109.606 43.973 110.115 44.5329C110.626 45.0917 111.29 45.3722 112.109 45.3722C113.067 45.3722 113.813 45.0114 114.347 44.292C114.882 43.5714 115.149 42.6216 115.149 41.4412Z" fill="white"/>
<path d="M132.474 42.7289C132.474 44.0466 132.005 45.1187 131.063 45.9464C130.028 46.8508 128.587 47.3025 126.735 47.3025C125.025 47.3025 123.655 46.9812 122.617 46.3375L123.207 44.269C124.324 44.9278 125.551 45.2584 126.887 45.2584C127.845 45.2584 128.591 45.0466 129.128 44.6252C129.661 44.2038 129.927 43.6381 129.927 42.9326C129.927 42.304 129.708 41.7744 129.267 41.3449C128.829 40.9153 128.097 40.5161 127.075 40.1471C124.293 39.1355 122.904 37.6537 122.904 35.705C122.904 34.4316 123.391 33.3874 124.366 32.5749C125.338 31.7612 126.635 31.355 128.256 31.355C129.702 31.355 130.903 31.6006 131.862 32.0907L131.225 34.1138C130.33 33.6389 129.317 33.4014 128.184 33.4014C127.289 33.4014 126.589 33.6167 126.088 34.0451C125.664 34.4281 125.452 34.8949 125.452 35.4478C125.452 36.0601 125.694 36.5664 126.181 36.9645C126.605 37.3324 127.375 37.7305 128.492 38.16C129.859 38.6967 130.863 39.3241 131.509 40.0435C132.153 40.7605 132.474 41.658 132.474 42.7289Z" fill="white"/>
<path d="M140.891 37.7651H138.086V43.1884C138.086 44.5678 138.58 45.2569 139.571 45.2569C140.026 45.2569 140.403 45.2185 140.701 45.1417L140.772 47.0263C140.27 47.2091 139.61 47.301 138.792 47.301C137.787 47.301 137.001 47.0019 136.434 46.4047C135.87 45.8064 135.586 44.803 135.586 43.3933V37.7628H133.914V35.9003H135.586V33.8551L138.086 33.1194V35.9003H140.891V37.7651Z" fill="white"/>
<path d="M153.55 41.3961C153.55 43.1131 153.046 44.5228 152.04 45.6251C150.986 46.7601 149.587 47.3258 147.843 47.3258C146.162 47.3258 144.823 46.7822 143.825 45.695C142.827 44.6077 142.328 43.2353 142.328 41.5812C142.328 39.8503 142.842 38.4324 143.872 37.3301C144.9 36.2266 146.287 35.6748 148.031 35.6748C149.712 35.6748 151.065 36.2184 152.086 37.3068C153.062 38.3626 153.55 39.7257 153.55 41.3961ZM150.909 41.4764C150.909 40.4462 150.683 39.5627 150.226 38.8259C149.692 37.9342 148.929 37.4896 147.941 37.4896C146.917 37.4896 146.14 37.9354 145.607 38.8259C145.149 39.5639 144.924 40.4614 144.924 41.523C144.924 42.5532 145.149 43.4367 145.607 44.1724C146.157 45.064 146.926 45.5087 147.918 45.5087C148.89 45.5087 149.653 45.0547 150.203 44.1491C150.672 43.3983 150.909 42.5055 150.909 41.4764Z" fill="white"/>
<path d="M161.825 38.0853C161.573 38.0399 161.304 38.0166 161.023 38.0166C160.127 38.0166 159.435 38.346 158.948 39.006C158.524 39.588 158.311 40.3237 158.311 41.2119V47.0729H155.767L155.791 39.4204C155.791 38.133 155.759 36.9608 155.695 35.9038H157.912L158.006 38.041H158.076C158.345 37.3065 158.768 36.7152 159.349 36.2717C159.916 35.8724 160.528 35.6733 161.188 35.6733C161.424 35.6733 161.636 35.6896 161.825 35.7187V38.0853Z" fill="white"/>
<path d="M173.209 40.9595C173.209 41.4042 173.179 41.779 173.116 42.0851H165.48C165.509 43.1887 165.878 44.0326 166.588 44.6146C167.231 45.1349 168.063 45.3957 169.085 45.3957C170.216 45.3957 171.247 45.2199 172.175 44.8672L172.574 46.59C171.49 47.051 170.21 47.2803 168.733 47.2803C166.956 47.2803 165.562 46.7704 164.547 45.7519C163.535 44.7333 163.027 43.3656 163.027 41.6498C163.027 39.9654 163.499 38.5627 164.443 37.4441C165.432 36.2497 166.768 35.6526 168.449 35.6526C170.1 35.6526 171.35 36.2497 172.199 37.4441C172.871 38.3928 173.209 39.5661 173.209 40.9595ZM170.782 40.3158C170.798 39.5801 170.632 38.9445 170.287 38.4079C169.847 37.7176 169.17 37.3731 168.259 37.3731C167.427 37.3731 166.75 37.7095 166.233 38.3846C165.809 38.9212 165.557 39.565 165.48 40.3146H170.782V40.3158Z" fill="white"/>
<path d="M84.416 22.3743C84.416 23.7444 83.9946 24.7757 83.1529 25.4683C82.3733 26.1074 81.2653 26.4275 79.8302 26.4275C79.1187 26.4275 78.5098 26.3972 78 26.3367V18.8507C78.665 18.7459 79.3813 18.6924 80.155 18.6924C81.522 18.6924 82.5523 18.9822 83.2472 19.5619C84.0256 20.2173 84.416 21.1544 84.416 22.3743ZM83.0968 22.408C83.0968 21.5199 82.8556 20.8389 82.3733 20.364C81.8909 19.8902 81.1865 19.6527 80.2589 19.6527C79.8649 19.6527 79.5294 19.6783 79.2512 19.7319V25.4229C79.4052 25.4462 79.687 25.4567 80.0965 25.4567C81.054 25.4567 81.793 25.1971 82.3136 24.6779C82.8341 24.1588 83.0968 23.4021 83.0968 22.408Z" fill="white"/>
<path d="M91.4107 23.5708C91.4107 24.4147 91.1635 25.1061 90.6693 25.6486C90.1511 26.2062 89.4646 26.4844 88.6074 26.4844C87.7812 26.4844 87.1234 26.2178 86.6327 25.6823C86.1432 25.148 85.8984 24.4741 85.8984 23.6616C85.8984 22.8118 86.1503 22.1145 86.6566 21.5732C87.1628 21.032 87.8433 20.7607 88.7005 20.7607C89.5267 20.7607 90.1905 21.0273 90.6931 21.5616C91.1707 22.0808 91.4107 22.7513 91.4107 23.5708ZM90.1129 23.6103C90.1129 23.104 90.0007 22.6698 89.7774 22.3078C89.5148 21.8701 89.1411 21.6512 88.6552 21.6512C88.1525 21.6512 87.7705 21.8701 87.5078 22.3078C87.2834 22.6698 87.1723 23.111 87.1723 23.6325C87.1723 24.1388 87.2846 24.573 87.5078 24.935C87.7788 25.3727 88.1561 25.5916 88.6432 25.5916C89.1208 25.5916 89.4957 25.3692 89.7655 24.9234C89.9971 24.5544 90.1129 24.1167 90.1129 23.6103Z" fill="white"/>
<path d="M100.791 20.8728L99.03 26.3601H97.8839L97.1544 23.9773C96.9694 23.3825 96.8189 22.7912 96.7019 22.2045H96.6793C96.5706 22.8075 96.4202 23.3976 96.2268 23.9773L95.4519 26.3601H94.2927L92.6367 20.8728H93.9225L94.5589 23.4814C94.7129 24.0984 94.8395 24.6862 94.9409 25.2427H94.9636C95.0567 24.784 95.2108 24.1997 95.428 23.4931L96.2268 20.874H97.2464L98.0116 23.4372C98.1967 24.0623 98.3471 24.6641 98.4629 25.2438H98.4976C98.5823 24.6792 98.7101 24.0774 98.8796 23.4372L99.5625 20.874H100.791V20.8728Z" fill="white"/>
<path d="M107.277 26.3601H106.026V23.2172C106.026 22.2487 105.648 21.7645 104.892 21.7645C104.52 21.7645 104.221 21.8972 103.988 22.1637C103.757 22.4303 103.64 22.7446 103.64 23.1043V26.359H102.389V22.4408C102.389 21.9589 102.374 21.4362 102.344 20.8705H103.443L103.502 21.7284H103.536C103.682 21.4618 103.899 21.2418 104.185 21.066C104.524 20.8612 104.903 20.7576 105.319 20.7576C105.844 20.7576 106.281 20.9229 106.629 21.2546C107.061 21.6609 107.277 22.2673 107.277 23.0729V26.3601Z" fill="white"/>
<path d="M110.727 26.3602H109.477V18.355H110.727V26.3602Z" fill="white"/>
<path d="M118.094 23.5708C118.094 24.4147 117.847 25.1061 117.353 25.6486C116.835 26.2062 116.147 26.4844 115.291 26.4844C114.464 26.4844 113.806 26.2178 113.316 25.6823C112.827 25.148 112.582 24.4741 112.582 23.6616C112.582 22.8118 112.834 22.1145 113.34 21.5732C113.846 21.032 114.527 20.7607 115.383 20.7607C116.21 20.7607 116.873 21.0273 117.377 21.5616C117.854 22.0808 118.094 22.7513 118.094 23.5708ZM116.795 23.6103C116.795 23.104 116.683 22.6698 116.46 22.3078C116.198 21.8701 115.823 21.6512 115.339 21.6512C114.835 21.6512 114.453 21.8701 114.191 22.3078C113.967 22.6698 113.856 23.111 113.856 23.6325C113.856 24.1388 113.968 24.573 114.191 24.935C114.462 25.3727 114.84 25.5916 115.327 25.5916C115.804 25.5916 116.178 25.3692 116.448 24.9234C116.681 24.5544 116.795 24.1167 116.795 23.6103Z" fill="white"/>
<path d="M124.148 26.3598H123.024L122.931 25.7277H122.897C122.512 26.2318 121.964 26.4844 121.253 26.4844C120.721 26.4844 120.291 26.3179 119.968 25.9873C119.674 25.687 119.527 25.3133 119.527 24.8698C119.527 24.1993 119.814 23.6883 120.391 23.3345C120.966 22.9806 121.775 22.8071 122.818 22.8153V22.7129C122.818 21.99 122.429 21.6291 121.649 21.6291C121.094 21.6291 120.604 21.7653 120.182 22.0354L119.927 21.2345C120.45 20.9191 121.096 20.7607 121.858 20.7607C123.329 20.7607 124.067 21.5174 124.067 23.0306V25.0514C124.067 25.5997 124.094 26.0362 124.148 26.3598ZM122.849 24.4741V23.6278C121.469 23.6045 120.779 23.9735 120.779 24.7336C120.779 25.02 120.857 25.2342 121.019 25.3774C121.18 25.5205 121.385 25.5916 121.63 25.5916C121.904 25.5916 122.161 25.5066 122.395 25.3378C122.63 25.1678 122.775 24.9525 122.828 24.6882C122.842 24.6289 122.849 24.5567 122.849 24.4741Z" fill="white"/>
<path d="M131.255 26.3602H130.145L130.087 25.479H130.052C129.697 26.1495 129.093 26.4847 128.244 26.4847C127.566 26.4847 127.001 26.2251 126.554 25.706C126.106 25.1868 125.883 24.5128 125.883 23.6852C125.883 22.797 126.125 22.0776 126.612 21.5282C127.084 21.016 127.662 20.7599 128.349 20.7599C129.105 20.7599 129.634 21.0079 129.935 21.5049H129.959V18.355H131.211V24.8818C131.211 25.4161 131.226 25.9085 131.255 26.3602ZM129.959 24.046V23.1311C129.959 22.9728 129.947 22.8447 129.924 22.7469C129.854 22.4536 129.702 22.2068 129.472 22.0078C129.239 21.8087 128.958 21.7086 128.635 21.7086C128.168 21.7086 127.803 21.889 127.534 22.2511C127.268 22.6131 127.133 23.0752 127.133 23.6398C127.133 24.1822 127.261 24.6222 127.517 24.961C127.788 25.3218 128.154 25.5023 128.611 25.5023C129.022 25.5023 129.35 25.3521 129.599 25.0506C129.841 24.7724 129.959 24.4371 129.959 24.046Z" fill="white"/>
<path d="M141.958 23.5708C141.958 24.4147 141.71 25.1061 141.216 25.6486C140.698 26.2062 140.013 26.4844 139.154 26.4844C138.329 26.4844 137.671 26.2178 137.18 25.6823C136.69 25.148 136.445 24.4741 136.445 23.6616C136.445 22.8118 136.697 22.1145 137.203 21.5732C137.71 21.032 138.39 20.7607 139.249 20.7607C140.074 20.7607 140.739 21.0273 141.24 21.5616C141.718 22.0808 141.958 22.7513 141.958 23.5708ZM140.661 23.6103C140.661 23.104 140.549 22.6698 140.325 22.3078C140.062 21.8701 139.689 21.6512 139.202 21.6512C138.701 21.6512 138.319 21.8701 138.055 22.3078C137.83 22.6698 137.719 23.111 137.719 23.6325C137.719 24.1388 137.831 24.573 138.055 24.935C138.326 25.3727 138.703 25.5916 139.19 25.5916C139.668 25.5916 140.044 25.3692 140.314 24.9234C140.544 24.5544 140.661 24.1167 140.661 23.6103Z" fill="white"/>
<path d="M148.69 26.3601H147.44V23.2172C147.44 22.2487 147.063 21.7645 146.304 21.7645C145.933 21.7645 145.633 21.8972 145.402 22.1637C145.17 22.4303 145.054 22.7446 145.054 23.1043V26.359H143.802V22.4408C143.802 21.9589 143.788 21.4362 143.758 20.8705H144.856L144.915 21.7284H144.949C145.096 21.4618 145.313 21.2418 145.598 21.066C145.938 20.8612 146.316 20.7576 146.733 20.7576C147.257 20.7576 147.694 20.9229 148.042 21.2546C148.475 21.6609 148.69 22.2673 148.69 23.0729V26.3601Z" fill="white"/>
<path d="M157.107 21.7862H155.73V24.4519C155.73 25.1294 155.974 25.4681 156.459 25.4681C156.684 25.4681 156.87 25.4495 157.017 25.4111L157.049 26.3365C156.802 26.4273 156.477 26.4727 156.077 26.4727C155.583 26.4727 155.198 26.326 154.92 26.0327C154.641 25.7394 154.502 25.2458 154.502 24.5532V21.7862H153.68V20.8725H154.502V19.8667L155.728 19.5059V20.8713H157.106V21.7862H157.107Z" fill="white"/>
<path d="M163.732 26.3602H162.479V23.2405C162.479 22.2569 162.102 21.7645 161.346 21.7645C160.766 21.7645 160.37 22.0497 160.152 22.6201C160.115 22.74 160.094 22.8866 160.094 23.0589V26.359H158.844V18.355H160.094V21.662H160.118C160.512 21.0602 161.076 20.7599 161.808 20.7599C162.326 20.7599 162.755 20.9252 163.095 21.257C163.519 21.6702 163.732 22.2848 163.732 23.0973V26.3602Z" fill="white"/>
<path d="M170.566 23.3568C170.566 23.5756 170.549 23.7596 170.52 23.9097H166.767C166.784 24.4522 166.963 24.8654 167.31 25.1518C167.628 25.4079 168.037 25.5359 168.539 25.5359C169.094 25.5359 169.6 25.4498 170.056 25.2763L170.252 26.1237C169.718 26.3496 169.09 26.4625 168.363 26.4625C167.492 26.4625 166.805 26.2122 166.309 25.7117C165.81 25.2111 165.562 24.5395 165.562 23.6967C165.562 22.8691 165.793 22.1799 166.257 21.6305C166.742 21.0438 167.398 20.7505 168.225 20.7505C169.034 20.7505 169.649 21.0438 170.065 21.6305C170.4 22.0961 170.566 22.6723 170.566 23.3568ZM169.372 23.0413C169.382 22.6793 169.299 22.3674 169.13 22.1043C168.913 21.7655 168.582 21.5956 168.134 21.5956C167.726 21.5956 167.393 21.7609 167.138 22.0926C166.931 22.3569 166.808 22.6723 166.767 23.0413H169.372Z" fill="white"/>
</svg>
