<svg width="224" height="69" viewBox="0 0 224 69" fill="none" xmlns="http://www.w3.org/2000/svg">
<rect y="0.35498" width="224" height="68" rx="34" fill="#F75005"/>
<path d="M86.1598 22.5767C86.1598 23.62 85.8399 24.4555 85.2096 25.0787C84.485 25.8174 83.5412 26.1891 82.3847 26.1891C81.2794 26.1891 80.3356 25.8111 79.5614 25.0662C78.7855 24.3103 78.3984 23.3826 78.3984 22.2722C78.3984 21.1617 78.7855 20.234 79.5614 19.4844C80.3356 18.7332 81.2794 18.3552 82.3847 18.3552C82.935 18.3552 83.4596 18.4661 83.9603 18.6723C84.4594 18.88 84.8657 19.1611 85.16 19.5078L84.4914 20.1669C83.9779 19.575 83.2789 19.2829 82.3847 19.2829C81.5785 19.2829 80.8794 19.5578 80.286 20.1122C79.6989 20.6682 79.4046 21.3882 79.4046 22.2722C79.4046 23.1561 79.6989 23.8823 80.286 24.4383C80.8794 24.9865 81.5785 25.2676 82.3847 25.2676C83.2405 25.2676 83.9603 24.9865 84.5282 24.4321C84.9025 24.0651 85.1152 23.5591 85.1712 22.9125H82.3847V22.0098H86.1022C86.147 22.205 86.1598 22.394 86.1598 22.5767Z" fill="white" stroke="white" stroke-width="0.16" stroke-miterlimit="10"/>
<path d="M92.0587 19.4465H88.5667V21.8204H91.7147V22.7231H88.5667V25.097H92.0587V26.0169H87.5781V18.5266H92.0587V19.4465Z" fill="white" stroke="white" stroke-width="0.16" stroke-miterlimit="10"/>
<path d="M96.2203 26.0171H95.2317V19.4467H93.0898V18.5269H98.3638V19.4467H96.2203V26.0171Z" fill="white" stroke="white" stroke-width="0.16" stroke-miterlimit="10"/>
<path d="M102.18 26.0169V18.5266H103.167V26.0169H102.18Z" fill="white" stroke="white" stroke-width="0.16" stroke-miterlimit="10"/>
<path d="M107.545 26.0169H106.564V19.4465H104.414V18.5266H109.694V19.4465H107.545V26.0169Z" fill="white" stroke="white" stroke-width="0.16" stroke-miterlimit="10"/>
<path d="M119.68 25.0534C118.923 25.8109 117.986 26.1888 116.867 26.1888C115.743 26.1888 114.806 25.8109 114.049 25.0534C113.294 24.2975 112.918 23.3698 112.918 22.2719C112.918 21.174 113.294 20.2463 114.049 19.4904C114.806 18.7329 115.743 18.355 116.867 18.355C117.979 18.355 118.917 18.7329 119.673 19.4966C120.435 20.2588 120.81 21.1802 120.81 22.2719C120.81 23.3698 120.435 24.2975 119.68 25.0534ZM114.78 24.4256C115.349 24.9863 116.042 25.2674 116.867 25.2674C117.686 25.2674 118.385 24.9863 118.949 24.4256C119.516 23.8649 119.804 23.1449 119.804 22.2719C119.804 21.3989 119.516 20.6789 118.949 20.1182C118.385 19.5575 117.686 19.2764 116.867 19.2764C116.042 19.2764 115.349 19.5575 114.78 20.1182C114.212 20.6789 113.924 21.3989 113.924 22.2719C113.924 23.1449 114.212 23.8649 114.78 24.4256Z" fill="white" stroke="white" stroke-width="0.16" stroke-miterlimit="10"/>
<path d="M122.195 26.0174V18.5271H123.395L127.125 24.3525H127.169L127.125 22.9126V18.5271H128.112V26.0174H127.082L123.176 19.9046H123.133L123.176 21.3508V26.0174H122.195Z" fill="white" stroke="white" stroke-width="0.16" stroke-miterlimit="10"/>
<path d="M112.673 36.9559C109.668 36.9559 107.212 39.1892 107.212 42.2706C107.212 45.327 109.668 47.5838 112.673 47.5838C115.685 47.5838 118.141 45.327 118.141 42.2706C118.141 39.1892 115.685 36.9559 112.673 36.9559ZM112.673 45.491C111.024 45.491 109.605 44.1619 109.605 42.2706C109.605 40.3543 111.024 39.0487 112.673 39.0487C114.323 39.0487 115.748 40.3543 115.748 42.2706C115.748 44.1619 114.323 45.491 112.673 45.491ZM100.758 36.9559C97.7457 36.9559 95.2967 39.1892 95.2967 42.2706C95.2967 45.327 97.7457 47.5838 100.758 47.5838C103.768 47.5838 106.219 45.327 106.219 42.2706C106.219 39.1892 103.768 36.9559 100.758 36.9559ZM100.758 45.491C99.1069 45.491 97.6833 44.1619 97.6833 42.2706C97.6833 40.3543 99.1069 39.0487 100.758 39.0487C102.407 39.0487 103.826 40.3543 103.826 42.2706C103.826 44.1619 102.407 45.491 100.758 45.491ZM86.5787 38.5848V40.8431H92.1022C91.9407 42.1051 91.5088 43.0328 90.8465 43.6793C90.0403 44.4602 88.7846 45.327 86.5787 45.327C83.1796 45.327 80.5178 42.6486 80.5178 39.3298C80.5178 36.011 83.1796 33.3326 86.5787 33.3326C88.4167 33.3326 89.754 34.0338 90.741 34.9428L92.371 33.3513C90.9905 32.0644 89.1541 31.0758 86.5787 31.0758C81.9175 31.0758 78 34.7788 78 39.3298C78 43.8808 81.9175 47.5838 86.5787 47.5838C89.0981 47.5838 90.9905 46.7779 92.4781 45.2661C94.0026 43.7777 94.4777 41.6849 94.4777 39.9951C94.4777 39.4703 94.4329 38.9878 94.3529 38.5848H86.5787ZM144.558 40.3356C144.109 39.1471 142.722 36.9559 139.897 36.9559C137.098 36.9559 134.767 39.1096 134.767 42.2706C134.767 45.2473 137.074 47.5838 140.166 47.5838C142.666 47.5838 144.109 46.0954 144.702 45.2286L142.847 44.0214C142.228 44.9053 141.385 45.491 140.166 45.491C138.955 45.491 138.086 44.9491 137.53 43.8808L144.81 40.94L144.558 40.3356ZM137.136 42.1051C137.074 40.056 138.766 39.0065 139.979 39.0065C140.929 39.0065 141.735 39.4703 142.004 40.1341L137.136 42.1051ZM131.219 47.2605H133.612V31.6427H131.219V47.2605ZM127.3 38.1397H127.22C126.683 37.5181 125.657 36.9559 124.359 36.9559C121.633 36.9559 119.141 39.2923 119.141 42.2878C119.141 45.2661 121.633 47.5838 124.359 47.5838C125.657 47.5838 126.683 47.0168 127.22 46.3765H127.3V47.1387C127.3 49.1705 126.188 50.2622 124.395 50.2622C122.933 50.2622 122.026 49.2314 121.652 48.3646L119.571 49.2127C120.171 50.6214 121.759 52.355 124.395 52.355C127.201 52.355 129.568 50.7432 129.568 46.8216V37.2792H127.3V38.1397ZM124.563 45.491C122.914 45.491 121.534 44.1432 121.534 42.2878C121.534 40.4152 122.914 39.0487 124.563 39.0487C126.188 39.0487 127.47 40.4152 127.47 42.2878C127.47 44.1432 126.188 45.491 124.563 45.491ZM155.762 31.6427H150.039V47.2605H152.425V41.3429H155.762C158.413 41.3429 161.012 39.4703 161.012 36.492C161.012 33.5153 158.406 31.6427 155.762 31.6427ZM155.825 39.1705H152.425V33.8152H155.825C157.607 33.8152 158.624 35.2598 158.624 36.492C158.624 37.7009 157.607 39.1705 155.825 39.1705ZM170.578 36.9262C168.853 36.9262 167.06 37.6696 166.323 39.3173L168.441 40.1841C168.897 39.3173 169.735 39.0362 170.621 39.0362C171.859 39.0362 173.115 39.7624 173.134 41.0446V41.2086C172.702 40.965 171.778 40.6042 170.64 40.6042C168.359 40.6042 166.035 41.8302 166.035 44.1182C166.035 46.211 167.903 47.5588 170.004 47.5588C171.61 47.5588 172.496 46.8513 173.052 46.0282H173.134V47.2355H175.439V41.2445C175.439 38.4755 173.321 36.9262 170.578 36.9262ZM170.29 45.4847C169.509 45.4847 168.422 45.1068 168.422 44.1619C168.422 42.9531 169.778 42.4893 170.952 42.4893C172.003 42.4893 172.496 42.7157 173.134 43.014C172.947 44.4602 171.672 45.4847 170.29 45.4847ZM183.837 37.2682L181.094 44.0385H181.012L178.176 37.2682H175.602L179.864 46.7295L177.432 51.9942H179.926L186.492 37.2682H183.837ZM162.324 47.2605H164.717V31.6427H162.324V47.2605Z" fill="white"/>
<path d="M36.5355 19.8029C36.1963 20.1496 36 20.6893 36 21.3884V46.3227C36 47.0218 36.1963 47.5616 36.5355 47.9083L36.6193 47.9844L50.9302 34.0176V33.6878L36.6193 19.7211L36.5355 19.8029Z" fill="white" stroke="#F75005"/>
<path d="M55.6947 38.6758L50.9297 34.0179V33.6881L55.7005 29.0301L55.8073 29.0907L61.4572 32.2294C63.0696 33.1201 63.0696 34.5858 61.4572 35.4822L55.8073 38.6152L55.6947 38.6758Z" fill="white" stroke="#F75005"/>
<path d="M55.8074 38.6148L50.9298 33.8526L36.5352 47.9081C37.0707 48.4578 37.944 48.524 38.9372 47.9744L55.8074 38.6148Z" fill="white"/>
<path d="M55.8074 38.6148L50.9298 33.8526L36.5352 47.9081C37.0707 48.4578 37.944 48.524 38.9372 47.9744L55.8074 38.6148" stroke="#F75005"/>
<path d="M55.8074 29.0906L38.9372 19.731C37.944 19.187 37.0707 19.2532 36.5352 19.8029L50.9298 33.8528L55.8074 29.0906Z" fill="white" stroke="#F75005"/>
</svg>
