<svg width="57" height="57" viewBox="0 0 57 57" fill="none" xmlns="http://www.w3.org/2000/svg">
<path d="M36.1281 17.4552L23.4244 4.73059C18.1511 -0.311239 9.76185 -0.311239 4.72829 4.73059C-0.305264 9.77242 -0.305264 18.1755 4.72829 23.4574L17.432 36.182L36.1281 17.4552ZM13.1176 14.8143C14.0763 15.7746 14.316 17.2151 13.3572 18.1755C12.3985 19.1358 10.9603 19.3759 10.0015 18.4156L9.76185 18.1755C7.36492 15.7746 7.36492 11.9332 9.76185 9.77242C10.7206 8.81207 12.1588 8.81207 13.1176 9.77242C14.0763 10.7328 14.0763 12.1733 13.1176 13.1336C12.6382 13.6138 12.6382 14.5742 13.1176 14.8143ZM52.1875 33.5411L39.4838 20.8164L20.7877 39.5432L33.4915 52.2678C38.525 57.3097 46.9143 57.3097 52.1875 52.2678C57.4608 47.226 57.2211 38.823 52.1875 33.5411Z" fill="white"/>
</svg>
