<svg width="390" height="227" viewBox="0 0 390 227" fill="none" xmlns="http://www.w3.org/2000/svg">
<path opacity="0.04" d="M476.001 -196.524C315.853 -630.755 -165.435 25.4623 151.818 91.125C309.663 123.723 212.006 429.522 374.878 420.407C537.751 411.292 523.684 273.426 603.467 136.7C703.747 -33.5578 518.418 -81.5373 476.001 -196.524Z" stroke="url(#paint0_linear_7829_3911)" stroke-width="2" stroke-miterlimit="10"/>
<path opacity="0.07" d="M484.153 -199.887C316.082 -607.319 -157.021 3.90336 144.695 90.9295C293.409 133.839 229.756 434.761 387.202 416.372C544.512 398.142 543.11 264.173 608.986 130.386C691.152 -36.4879 529.932 -88.8994 484.153 -199.887Z" stroke="url(#paint1_linear_7829_3911)" stroke-width="2" stroke-miterlimit="10"/>
<path opacity="0.11" d="M492.312 -203.245C317.174 -583.685 -148.93 -18.0266 137.602 90.796C277.026 143.755 247.525 439.949 399.534 412.364C551.372 385.019 562.817 255.129 614.524 124.1C678.895 -39.071 541.557 -96.1655 492.312 -203.245Z" stroke="url(#paint2_linear_7829_3911)" stroke-width="2" stroke-miterlimit="10"/>
<path opacity="0.15" d="M500.515 -206.606C319.267 -560.066 -141.069 -40.4152 130.541 90.6709C260.538 153.428 265.291 445.145 411.851 408.354C558.206 371.962 582.521 246.083 620.047 117.743C666.636 -41.6116 553.441 -103.321 500.515 -206.606Z" stroke="url(#paint3_linear_7829_3911)" stroke-width="2" stroke-miterlimit="10"/>
<path opacity="0.19" d="M508.636 -209.968C322.144 -536.516 -133.427 -63.3637 123.398 90.5329C244.036 162.804 283.056 450.328 424.144 404.353C565.05 358.881 602.246 237.217 625.58 111.418C654.409 -44.0626 565.495 -110.42 508.636 -209.968Z" stroke="url(#paint4_linear_7829_3911)" stroke-width="2" stroke-miterlimit="10"/>
<path opacity="0.23" d="M516.776 -213.33C326.101 -513.148 -125.743 -86.9043 116.286 90.3952C227.52 171.884 300.817 455.522 436.503 400.308C571.869 345.743 622.025 228.375 631.099 105.093C642.259 -46.4334 577.739 -117.463 516.776 -213.33Z" stroke="url(#paint5_linear_7829_3911)" stroke-width="2" stroke-miterlimit="10"/>
<path opacity="0.26" d="M524.939 -216.689C331.232 -490.05 -117.818 -111.034 109.186 90.2612C211.141 180.671 318.579 460.709 448.884 396.334C578.71 332.676 641.862 219.581 636.629 98.7723C630.212 -48.7323 590.257 -124.524 524.939 -216.689Z" stroke="url(#paint6_linear_7829_3911)" stroke-width="2" stroke-miterlimit="10"/>
<path opacity="0.3" d="M533.108 -220.052C337.406 -467.401 -109.513 -135.738 102.091 90.1226C194.95 189.249 336.346 465.903 461.168 392.321C585.556 319.526 661.863 210.817 642.165 92.4355C618.295 -51.013 603.111 -131.647 533.108 -220.052Z" stroke="url(#paint7_linear_7829_3911)" stroke-width="2" stroke-miterlimit="10"/>
<path opacity="0.34" d="M541.263 -223.424C344.592 -445.319 -100.697 -160.758 94.9824 89.9752C178.961 197.59 354.11 471.076 473.438 388.311C592.377 306.47 681.93 202.034 647.687 86.124C606.524 -53.3024 616.156 -138.916 541.263 -223.424Z" stroke="url(#paint8_linear_7829_3911)" stroke-width="2" stroke-miterlimit="10"/>
<path opacity="0.38" d="M549.419 -226.767C352.725 -423.881 -91.2757 -186.08 87.8635 89.8449C163.213 205.868 371.876 476.233 485.823 384.307C599.222 293.316 702.112 193.198 653.266 79.7841C594.834 -55.6659 629.601 -146.429 549.419 -226.767Z" stroke="url(#paint9_linear_7829_3911)" stroke-width="2" stroke-miterlimit="10"/>
<path opacity="0.41" d="M557.589 -230.179C361.648 -403.365 -81.2588 -211.493 80.7815 89.7149C147.718 214.181 389.644 481.458 498.154 380.303C606.07 280.22 722.365 184.329 658.758 73.4672C583.249 -58.1316 643.38 -154.296 557.589 -230.179Z" stroke="url(#paint10_linear_7829_3911)" stroke-width="2" stroke-miterlimit="10"/>
<path opacity="0.45" d="M565.738 -233.512C371.142 -383.82 -70.682 -236.873 73.6667 89.5715C132.418 222.424 407.391 486.647 510.463 376.286C612.897 267.099 742.632 175.287 664.273 67.194C571.677 -60.6677 657.468 -162.665 565.738 -233.512Z" stroke="url(#paint11_linear_7829_3911)" stroke-width="2" stroke-miterlimit="10"/>
<path opacity="0.49" d="M573.907 -236.874C380.964 -365.328 -59.6174 -262.089 66.5723 89.434C117.322 230.797 425.159 491.83 522.805 372.286C619.698 253.995 762.93 166.206 669.855 60.8126C560.137 -63.3232 671.85 -171.667 573.907 -236.874Z" stroke="url(#paint12_linear_7829_3911)" stroke-width="2" stroke-miterlimit="10"/>
<path opacity="0.53" d="M582.058 -240.23C390.779 -347.959 -48.1493 -287.15 59.471 89.3028C102.355 239.246 442.93 497.031 535.128 368.281C626.572 240.898 783.198 157.051 675.338 54.4946C548.567 -66.1092 686.453 -181.449 582.058 -240.23Z" stroke="url(#paint13_linear_7829_3911)" stroke-width="2" stroke-miterlimit="10"/>
<path opacity="0.56" d="M590.212 -243.592C400.198 -331.747 -36.3931 -311.898 52.3615 89.1648C87.4826 247.881 460.683 502.214 547.442 364.269C633.404 227.782 803.424 147.786 680.814 48.1697C536.989 -68.8564 701.138 -192.138 590.212 -243.592Z" stroke="url(#paint14_linear_7829_3911)" stroke-width="2" stroke-miterlimit="10"/>
<path opacity="0.6" d="M598.378 -246.962C408.899 -316.646 -24.4204 -336.415 45.2632 89.0314C72.7126 256.589 478.435 507.402 559.78 360.205C640.247 214.626 823.65 138.526 686.403 41.7811C525.308 -71.7015 715.767 -203.79 598.378 -246.962Z" stroke="url(#paint15_linear_7829_3911)" stroke-width="2" stroke-miterlimit="10"/>
<path d="M29.4161 -19.3896C-602.592 291.309 525.785 681.491 512.744 270.424C506.213 64.6057 986.816 134.689 947.74 -66.6855C908.663 -268.06 709.495 -195.698 485.853 -269.359C206.583 -361.342 192.733 -99.6478 29.4161 -19.3896Z" stroke="url(#paint16_linear_7829_3911)" stroke-width="2" stroke-miterlimit="10"/>
<path opacity="0.94" d="M22.658 -28.1745C-569.579 285.806 492.877 677.275 514.194 278.992C524.795 81.1153 990.204 111.981 939.078 -80.3013C887.952 -272.584 691.828 -217.096 475.436 -274.19C205.662 -346.393 179.056 -111.065 22.658 -28.1745Z" stroke="url(#paint17_linear_7829_3911)" stroke-width="2" stroke-miterlimit="10"/>
<path opacity="0.88" d="M15.8938 -36.9927C-536.525 279.471 459.621 673.721 515.648 287.527C543.166 97.9673 993.585 89.2738 930.41 -93.9277C867.566 -277.061 674.018 -237.729 464.979 -279.032C204.551 -330.441 165.372 -122.629 15.8938 -36.9927Z" stroke="url(#paint18_linear_7829_3911)" stroke-width="2" stroke-miterlimit="10"/>
<path opacity="0.81" d="M9.13786 -45.8191C-503.464 272.285 425.815 670.796 517.111 296.053C561.215 115.005 997.02 66.5583 921.785 -107.562C846.983 -281.569 656.376 -258.77 454.541 -283.882C203.643 -315.09 151.856 -134.372 9.13786 -45.8191Z" stroke="url(#paint19_linear_7829_3911)" stroke-width="2" stroke-miterlimit="10"/>
<path opacity="0.75" d="M2.3694 -54.6333C-470.494 263.995 391.278 668.34 518.562 304.592C578.864 132.271 1000.36 43.8436 913.09 -121.185C826.455 -286.065 638.801 -279.844 444.102 -288.674C202.814 -299.681 138.431 -146.308 2.3694 -54.6333Z" stroke="url(#paint20_linear_7829_3911)" stroke-width="2" stroke-miterlimit="10"/>
<path opacity="0.69" d="M-4.39827 -63.4438C-437.741 254.65 355.818 666.093 519.967 313.134C596.057 149.632 1003.74 21.1555 904.418 -134.792C805.86 -290.557 621.284 -300.937 433.629 -293.542C202.054 -284.427 125.052 -158.457 -4.39827 -63.4438Z" stroke="url(#paint21_linear_7829_3911)" stroke-width="2" stroke-miterlimit="10"/>
<path opacity="0.63" d="M-11.1486 -72.2676C-405.266 244.094 319.532 663.786 521.47 321.674C612.812 166.923 1007.13 -1.55749 895.764 -148.424C785.317 -295.12 603.829 -322.135 423.22 -298.39C201.379 -269.233 111.724 -170.927 -11.1486 -72.2676Z" stroke="url(#paint22_linear_7829_3911)" stroke-width="2" stroke-miterlimit="10"/>
<path opacity="0.56" d="M-17.9112 -81.0835C-373.283 232.247 282.368 661.134 522.915 330.234C629.156 184.074 1010.52 -24.2397 887.098 -161.98C764.75 -299.56 586.397 -343.415 412.741 -303.229C200.715 -254.099 98.3725 -183.617 -17.9112 -81.0835Z" stroke="url(#paint23_linear_7829_3911)" stroke-width="2" stroke-miterlimit="10"/>
<path opacity="0.5" d="M-24.6734 -89.8995C-341.892 219.158 244.486 657.935 524.371 338.737C645.204 200.928 1013.91 -46.9903 878.432 -175.684C744.195 -304.081 568.977 -364.822 402.342 -308.092C200.086 -239.204 84.9304 -196.671 -24.6734 -89.8995Z" stroke="url(#paint24_linear_7829_3911)" stroke-width="2" stroke-miterlimit="10"/>
<path opacity="0.44" d="M-31.4375 -98.7093C-311.392 204.766 206.1 653.991 525.815 347.291C661.033 217.55 1017.28 -69.7234 869.764 -189.29C723.626 -308.561 551.52 -386.267 391.896 -312.914C199.409 -224.383 71.304 -210.084 -31.4375 -98.7093Z" stroke="url(#paint25_linear_7829_3911)" stroke-width="2" stroke-miterlimit="10"/>
<path opacity="0.38" d="M-38.196 -107.528C-281.878 189.122 167.401 649.433 527.275 355.825C676.776 233.911 1020.68 -92.3855 861.114 -202.906C703.074 -313.061 534.012 -407.915 381.456 -317.756C198.658 -209.662 57.3753 -223.893 -38.196 -107.528Z" stroke="url(#paint26_linear_7829_3911)" stroke-width="2" stroke-miterlimit="10"/>
<path opacity="0.31" d="M-44.9661 -116.357C-253.572 172.454 128.576 644.068 528.712 364.349C692.474 249.875 1024.07 -115.104 852.44 -216.509C682.511 -317.572 516.47 -429.574 371.027 -322.597C197.804 -195.111 42.9905 -238.157 -44.9661 -116.357Z" stroke="url(#paint27_linear_7829_3911)" stroke-width="2" stroke-miterlimit="10"/>
<path opacity="0.25" d="M-51.7208 -125.167C-226.688 154.939 89.7895 638.095 530.154 372.892C708.233 265.676 1027.46 -137.815 843.781 -230.173C661.952 -322.076 498.715 -451.339 360.579 -327.442C196.84 -180.553 27.9485 -252.71 -51.7208 -125.167Z" stroke="url(#paint28_linear_7829_3911)" stroke-width="2" stroke-miterlimit="10"/>
<path opacity="0.19" d="M-58.4845 -133.99C-201.385 137.013 51.1193 631.574 531.632 381.422C724.051 281.259 1030.84 -160.526 835.114 -243.792C641.395 -326.58 480.905 -473.082 350.144 -332.277C195.73 -166.018 11.997 -267.662 -58.4845 -133.99Z" stroke="url(#paint29_linear_7829_3911)" stroke-width="2" stroke-miterlimit="10"/>
<path opacity="0.13" d="M-65.2462 -142.807C-177.745 119.091 12.6221 624.625 533.078 389.969C739.974 296.676 1034.22 -183.233 826.449 -257.407C620.829 -331.068 463.006 -494.797 339.701 -337.164C194.531 -151.455 -5.08101 -282.838 -65.2462 -142.807Z" stroke="url(#paint30_linear_7829_3911)" stroke-width="2" stroke-miterlimit="10"/>
<path opacity="0.06" d="M-72.0052 -151.618C-155.881 101.804 -25.6331 617.352 534.538 398.511C756.014 311.986 1037.61 -205.932 817.797 -271.025C600.288 -335.572 445.042 -516.494 329.271 -341.941C193.233 -136.852 -23.547 -298.04 -72.0052 -151.618Z" stroke="url(#paint31_linear_7829_3911)" stroke-width="2" stroke-miterlimit="10"/>
<path opacity="0.03" d="M183.34 328.615C264.617 1012.76 1141.25 199.363 724.018 6.8074C516.552 -88.9806 750.043 -506.542 522.058 -542.683C294.073 -578.825 269.108 -373.154 114.728 -197.518C-78.7512 20.97 161.841 147.647 183.34 328.615Z" stroke="url(#paint32_linear_7829_3911)" stroke-width="2" stroke-miterlimit="10"/>
<path opacity="0.05" d="M170.974 331.059C271.892 978.708 1122.78 228.389 733.778 9.09215C542.27 -98.8645 727.166 -519.582 503.718 -540.661C280.475 -561.956 239.256 -365.583 105.041 -189.981C-62.2659 28.9859 143.548 155.036 170.974 331.059Z" stroke="url(#paint33_linear_7829_3911)" stroke-width="2" stroke-miterlimit="10"/>
<path opacity="0.07" d="M158.623 333.5C278.122 944.198 1104.67 258.118 743.553 11.4869C568.164 -108.262 704.305 -532.58 485.405 -538.517C266.825 -544.829 209.11 -358.312 95.3688 -182.322C-46.1529 36.542 125.109 162.216 158.623 333.5Z" stroke="url(#paint34_linear_7829_3911)" stroke-width="2" stroke-miterlimit="10"/>
<path opacity="0.1" d="M146.269 335.925C283.152 909.388 1086.82 288.641 753.325 13.844C594.123 -117.333 681.441 -545.594 467.079 -536.41C253.149 -527.739 178.985 -351.18 85.6938 -174.804C-30.0427 43.9921 106.475 169.21 146.269 335.925Z" stroke="url(#paint35_linear_7829_3911)" stroke-width="2" stroke-miterlimit="10"/>
<path opacity="0.13" d="M133.917 338.375C286.827 874.341 1068.93 320.053 763.156 16.2251C620.084 -125.913 658.636 -558.56 448.822 -534.28C239.475 -510.66 148.85 -344.117 76.0206 -167.239C-13.9537 51.3067 87.6023 176.035 133.917 338.375Z" stroke="url(#paint36_linear_7829_3911)" stroke-width="2" stroke-miterlimit="10"/>
<path opacity="0.15" d="M121.547 340.797C289.025 839.152 1050.73 352.305 772.855 18.5791C645.731 -134.098 635.699 -571.565 430.422 -532.188C225.782 -493.563 118.629 -337.205 66.3294 -159.666C2.03767 58.5031 68.4725 182.73 121.547 340.797Z" stroke="url(#paint37_linear_7829_3911)" stroke-width="2" stroke-miterlimit="10"/>
<path opacity="0.18" d="M109.194 343.228C289.621 803.995 1031.99 385.317 782.628 20.9305C671.188 -141.91 612.779 -584.572 412.152 -530.087C212.163 -476.536 88.4132 -330.376 56.7005 -152.108C17.9317 65.5716 48.9262 189.331 109.194 343.228Z" stroke="url(#paint38_linear_7829_3911)" stroke-width="2" stroke-miterlimit="10"/>
<path opacity="0.2" d="M96.8386 345.657C288.642 769.064 1012.48 418.919 792.398 23.3024C696.302 -149.44 589.959 -597.559 393.778 -527.966C198.429 -459.398 57.933 -323.606 46.9669 -144.54C33.6754 72.5694 29.0017 195.953 96.8386 345.657Z" stroke="url(#paint39_linear_7829_3911)" stroke-width="2" stroke-miterlimit="10"/>
<path opacity="0.23" d="M84.4291 348.091C285.922 734.501 992.049 452.914 802.114 25.645C720.975 -156.861 567.039 -610.564 375.406 -525.885C184.742 -442.323 27.3644 -316.842 37.2818 -136.979C49.2282 79.5493 8.60124 202.591 84.4291 348.091Z" stroke="url(#paint40_linear_7829_3911)" stroke-width="2" stroke-miterlimit="10"/>
<path opacity="0.25" d="M72.127 350.533C281.714 700.62 970.798 486.94 811.938 28.0187C745.401 -164.218 544.227 -623.549 357.108 -523.762C171.072 -425.228 -3.33608 -310.048 27.6129 -129.41C64.6149 86.5717 -12.3187 209.477 72.127 350.533Z" stroke="url(#paint41_linear_7829_3911)" stroke-width="2" stroke-miterlimit="10"/>
<path opacity="0.28" d="M59.7636 352.951C275.939 667.649 948.632 520.907 821.701 30.3684C769.424 -171.656 521.353 -636.559 338.806 -521.663C157.387 -408.146 -34.1206 -303.186 17.9284 -121.853C79.8719 93.6727 -33.847 216.726 59.7636 352.951Z" stroke="url(#paint42_linear_7829_3911)" stroke-width="2" stroke-miterlimit="10"/>
<path opacity="0.3" d="M47.407 355.395C269.1 635.752 925.696 554.628 831.47 32.7446C793.192 -179.181 498.487 -649.541 320.476 -519.538C143.788 -391.049 -65.0922 -296.218 8.23914 -114.27C94.9988 100.925 -56.0184 224.549 47.407 355.395Z" stroke="url(#paint43_linear_7829_3911)" stroke-width="2" stroke-miterlimit="10"/>
<path opacity="0.33" d="M35.0573 357.823C261.23 605.4 902.244 587.979 841.258 35.1039C816.761 -186.882 475.627 -662.541 302.165 -517.44C130.036 -373.969 -96.0341 -289.108 -1.42029 -106.715C110.099 108.298 -78.8212 233.175 35.0573 357.823Z" stroke="url(#paint44_linear_7829_3911)" stroke-width="2" stroke-miterlimit="10"/>
<path opacity="0.35" d="M22.6992 360.261C252.953 576.642 878.304 620.941 851.026 37.4624C840.208 -194.858 452.759 -675.541 283.845 -515.333C116.355 -356.89 -127.007 -281.918 -11.0996 -99.1497C125.19 115.795 -102.237 242.859 22.6992 360.261Z" stroke="url(#paint45_linear_7829_3911)" stroke-width="2" stroke-miterlimit="10"/>
<path opacity="0.38" d="M10.3401 362.69C244.766 549.719 854.044 653.449 860.792 39.8565C863.46 -202.901 429.901 -688.506 265.524 -513.189C102.674 -339.798 -157.958 -274.613 -20.7913 -91.5714C140.292 123.396 -126.132 253.821 10.3401 362.69Z" stroke="url(#paint46_linear_7829_3911)" stroke-width="2" stroke-miterlimit="10"/>
<path opacity="0.4" d="M-2.01473 365.142C237.29 524.736 829.595 685.582 870.564 42.1494C886.694 -211.193 407.036 -701.515 247.196 -511.101C89.0653 -322.704 -188.883 -267.273 -30.4558 -84.0032C155.466 131.101 -150.273 266.266 -2.01473 365.142Z" stroke="url(#paint47_linear_7829_3911)" stroke-width="2" stroke-miterlimit="10"/>
<defs>
<linearGradient id="paint0_linear_7829_3911" x1="632.828" y1="38.2819" x2="45.9018" y2="38.2819" gradientUnits="userSpaceOnUse">
<stop offset="0.755208" stop-color="white"/>
<stop offset="1" stop-color="white" stop-opacity="0"/>
</linearGradient>
<linearGradient id="paint1_linear_7829_3911" x1="631.953" y1="39.2874" x2="46.3279" y2="39.2874" gradientUnits="userSpaceOnUse">
<stop offset="0.755208" stop-color="white"/>
<stop offset="1" stop-color="white" stop-opacity="0"/>
</linearGradient>
<linearGradient id="paint2_linear_7829_3911" x1="631.375" y1="40.5203" x2="46.6118" y2="40.5203" gradientUnits="userSpaceOnUse">
<stop offset="0.755208" stop-color="white"/>
<stop offset="1" stop-color="white" stop-opacity="0"/>
</linearGradient>
<linearGradient id="paint3_linear_7829_3911" x1="631.047" y1="41.9097" x2="46.7877" y2="41.9098" gradientUnits="userSpaceOnUse">
<stop offset="0.755208" stop-color="white"/>
<stop offset="1" stop-color="white" stop-opacity="0"/>
</linearGradient>
<linearGradient id="paint4_linear_7829_3911" x1="631.187" y1="43.4342" x2="46.7575" y2="43.4342" gradientUnits="userSpaceOnUse">
<stop offset="0.755208" stop-color="white"/>
<stop offset="1" stop-color="white" stop-opacity="0"/>
</linearGradient>
<linearGradient id="paint5_linear_7829_3911" x1="632.367" y1="45.0406" x2="46.6825" y2="45.0406" gradientUnits="userSpaceOnUse">
<stop offset="0.755208" stop-color="white"/>
<stop offset="1" stop-color="white" stop-opacity="0"/>
</linearGradient>
<linearGradient id="paint6_linear_7829_3911" x1="636.93" y1="46.7445" x2="46.6009" y2="46.7446" gradientUnits="userSpaceOnUse">
<stop offset="0.755208" stop-color="white"/>
<stop offset="1" stop-color="white" stop-opacity="0"/>
</linearGradient>
<linearGradient id="paint7_linear_7829_3911" x1="645.25" y1="48.4571" x2="46.5034" y2="48.4571" gradientUnits="userSpaceOnUse">
<stop offset="0.755208" stop-color="white"/>
<stop offset="1" stop-color="white" stop-opacity="0"/>
</linearGradient>
<linearGradient id="paint8_linear_7829_3911" x1="655.062" y1="50.1696" x2="46.3689" y2="50.1696" gradientUnits="userSpaceOnUse">
<stop offset="0.755208" stop-color="white"/>
<stop offset="1" stop-color="white" stop-opacity="0"/>
</linearGradient>
<linearGradient id="paint9_linear_7829_3911" x1="665.727" y1="51.8659" x2="46.1622" y2="51.8659" gradientUnits="userSpaceOnUse">
<stop offset="0.755208" stop-color="white"/>
<stop offset="1" stop-color="white" stop-opacity="0"/>
</linearGradient>
<linearGradient id="paint10_linear_7829_3911" x1="676.844" y1="53.4826" x2="45.822" y2="53.4826" gradientUnits="userSpaceOnUse">
<stop offset="0.755208" stop-color="white"/>
<stop offset="1" stop-color="white" stop-opacity="0"/>
</linearGradient>
<linearGradient id="paint11_linear_7829_3911" x1="688.297" y1="55.0084" x2="45.2014" y2="55.0085" gradientUnits="userSpaceOnUse">
<stop offset="0.755208" stop-color="white"/>
<stop offset="1" stop-color="white" stop-opacity="0"/>
</linearGradient>
<linearGradient id="paint12_linear_7829_3911" x1="700.016" y1="56.4154" x2="44.2154" y2="56.4154" gradientUnits="userSpaceOnUse">
<stop offset="0.755208" stop-color="white"/>
<stop offset="1" stop-color="white" stop-opacity="0"/>
</linearGradient>
<linearGradient id="paint13_linear_7829_3911" x1="711.852" y1="57.6668" x2="42.7242" y2="57.6668" gradientUnits="userSpaceOnUse">
<stop offset="0.755208" stop-color="white"/>
<stop offset="1" stop-color="white" stop-opacity="0"/>
</linearGradient>
<linearGradient id="paint14_linear_7829_3911" x1="723.789" y1="58.7334" x2="40.6006" y2="58.7335" gradientUnits="userSpaceOnUse">
<stop offset="0.755208" stop-color="white"/>
<stop offset="1" stop-color="white" stop-opacity="0"/>
</linearGradient>
<linearGradient id="paint15_linear_7829_3911" x1="735.875" y1="59.5698" x2="37.7534" y2="59.5699" gradientUnits="userSpaceOnUse">
<stop offset="0.755208" stop-color="white"/>
<stop offset="1" stop-color="white" stop-opacity="0"/>
</linearGradient>
<linearGradient id="paint16_linear_7829_3911" x1="950" y1="79.6299" x2="-163.003" y2="79.63" gradientUnits="userSpaceOnUse">
<stop offset="0.755208" stop-color="white"/>
<stop offset="1" stop-color="white" stop-opacity="0"/>
</linearGradient>
<linearGradient id="paint17_linear_7829_3911" x1="943" y1="79.9349" x2="-156.682" y2="79.935" gradientUnits="userSpaceOnUse">
<stop offset="0.755208" stop-color="white"/>
<stop offset="1" stop-color="white" stop-opacity="0"/>
</linearGradient>
<linearGradient id="paint18_linear_7829_3911" x1="936.477" y1="80.2444" x2="-150.405" y2="80.2444" gradientUnits="userSpaceOnUse">
<stop offset="0.755208" stop-color="white"/>
<stop offset="1" stop-color="white" stop-opacity="0"/>
</linearGradient>
<linearGradient id="paint19_linear_7829_3911" x1="930.492" y1="80.1761" x2="-144.199" y2="80.1761" gradientUnits="userSpaceOnUse">
<stop offset="0.755208" stop-color="white"/>
<stop offset="1" stop-color="white" stop-opacity="0"/>
</linearGradient>
<linearGradient id="paint20_linear_7829_3911" x1="924.937" y1="79.4962" x2="-138.135" y2="79.4962" gradientUnits="userSpaceOnUse">
<stop offset="0.755208" stop-color="white"/>
<stop offset="1" stop-color="white" stop-opacity="0"/>
</linearGradient>
<linearGradient id="paint21_linear_7829_3911" x1="919.914" y1="76.7481" x2="-132.276" y2="76.7482" gradientUnits="userSpaceOnUse">
<stop offset="0.755208" stop-color="white"/>
<stop offset="1" stop-color="white" stop-opacity="0"/>
</linearGradient>
<linearGradient id="paint22_linear_7829_3911" x1="915.414" y1="71.6307" x2="-126.626" y2="71.6307" gradientUnits="userSpaceOnUse">
<stop offset="0.755208" stop-color="white"/>
<stop offset="1" stop-color="white" stop-opacity="0"/>
</linearGradient>
<linearGradient id="paint23_linear_7829_3911" x1="911.406" y1="66.0801" x2="-121.287" y2="66.0802" gradientUnits="userSpaceOnUse">
<stop offset="0.755208" stop-color="white"/>
<stop offset="1" stop-color="white" stop-opacity="0"/>
</linearGradient>
<linearGradient id="paint24_linear_7829_3911" x1="907.906" y1="60.2555" x2="-116.274" y2="60.2555" gradientUnits="userSpaceOnUse">
<stop offset="0.755208" stop-color="white"/>
<stop offset="1" stop-color="white" stop-opacity="0"/>
</linearGradient>
<linearGradient id="paint25_linear_7829_3911" x1="904.898" y1="54.2659" x2="-111.679" y2="54.2659" gradientUnits="userSpaceOnUse">
<stop offset="0.755208" stop-color="white"/>
<stop offset="1" stop-color="white" stop-opacity="0"/>
</linearGradient>
<linearGradient id="paint26_linear_7829_3911" x1="902.414" y1="48.1309" x2="-107.516" y2="48.131" gradientUnits="userSpaceOnUse">
<stop offset="0.755208" stop-color="white"/>
<stop offset="1" stop-color="white" stop-opacity="0"/>
</linearGradient>
<linearGradient id="paint27_linear_7829_3911" x1="900.414" y1="41.916" x2="-103.857" y2="41.916" gradientUnits="userSpaceOnUse">
<stop offset="0.755208" stop-color="white"/>
<stop offset="1" stop-color="white" stop-opacity="0"/>
</linearGradient>
<linearGradient id="paint28_linear_7829_3911" x1="898.93" y1="35.6934" x2="-100.754" y2="35.6934" gradientUnits="userSpaceOnUse">
<stop offset="0.755208" stop-color="white"/>
<stop offset="1" stop-color="white" stop-opacity="0"/>
</linearGradient>
<linearGradient id="paint29_linear_7829_3911" x1="897.937" y1="29.5489" x2="-98.2673" y2="29.549" gradientUnits="userSpaceOnUse">
<stop offset="0.755208" stop-color="white"/>
<stop offset="1" stop-color="white" stop-opacity="0"/>
</linearGradient>
<linearGradient id="paint30_linear_7829_3911" x1="897.445" y1="23.5433" x2="-96.4147" y2="23.5433" gradientUnits="userSpaceOnUse">
<stop offset="0.755208" stop-color="white"/>
<stop offset="1" stop-color="white" stop-opacity="0"/>
</linearGradient>
<linearGradient id="paint31_linear_7829_3911" x1="897.453" y1="17.7501" x2="-95.2268" y2="17.7501" gradientUnits="userSpaceOnUse">
<stop offset="0.755208" stop-color="white"/>
<stop offset="1" stop-color="white" stop-opacity="0"/>
</linearGradient>
<linearGradient id="paint32_linear_7829_3911" x1="836.047" y1="25.4166" x2="39.9533" y2="25.4167" gradientUnits="userSpaceOnUse">
<stop offset="0.755208" stop-color="white"/>
<stop offset="1" stop-color="white" stop-opacity="0"/>
</linearGradient>
<linearGradient id="paint33_linear_7829_3911" x1="834.969" y1="23.3006" x2="40.1455" y2="23.3006" gradientUnits="userSpaceOnUse">
<stop offset="0.755208" stop-color="white"/>
<stop offset="1" stop-color="white" stop-opacity="0"/>
</linearGradient>
<linearGradient id="paint34_linear_7829_3911" x1="834.187" y1="20.6612" x2="40.1558" y2="20.6612" gradientUnits="userSpaceOnUse">
<stop offset="0.755208" stop-color="white"/>
<stop offset="1" stop-color="white" stop-opacity="0"/>
</linearGradient>
<linearGradient id="paint35_linear_7829_3911" x1="833.68" y1="17.3271" x2="40.1281" y2="17.3271" gradientUnits="userSpaceOnUse">
<stop offset="0.755208" stop-color="white"/>
<stop offset="1" stop-color="white" stop-opacity="0"/>
</linearGradient>
<linearGradient id="paint36_linear_7829_3911" x1="833.414" y1="13.6598" x2="40.0469" y2="13.6598" gradientUnits="userSpaceOnUse">
<stop offset="0.755208" stop-color="white"/>
<stop offset="1" stop-color="white" stop-opacity="0"/>
</linearGradient>
<linearGradient id="paint37_linear_7829_3911" x1="833.25" y1="9.73663" x2="39.8609" y2="9.73667" gradientUnits="userSpaceOnUse">
<stop offset="0.755208" stop-color="white"/>
<stop offset="1" stop-color="white" stop-opacity="0"/>
</linearGradient>
<linearGradient id="paint38_linear_7829_3911" x1="833.312" y1="5.67346" x2="39.5475" y2="5.6735" gradientUnits="userSpaceOnUse">
<stop offset="0.755208" stop-color="white"/>
<stop offset="1" stop-color="white" stop-opacity="0"/>
</linearGradient>
<linearGradient id="paint39_linear_7829_3911" x1="833.617" y1="1.55902" x2="38.9093" y2="1.55906" gradientUnits="userSpaceOnUse">
<stop offset="0.755208" stop-color="white"/>
<stop offset="1" stop-color="white" stop-opacity="0"/>
</linearGradient>
<linearGradient id="paint40_linear_7829_3911" x1="834.227" y1="-2.56305" x2="36.8344" y2="-2.56301" gradientUnits="userSpaceOnUse">
<stop offset="0.755208" stop-color="white"/>
<stop offset="1" stop-color="white" stop-opacity="0"/>
</linearGradient>
<linearGradient id="paint41_linear_7829_3911" x1="835.492" y1="-6.56311" x2="24.0271" y2="-6.56307" gradientUnits="userSpaceOnUse">
<stop offset="0.755208" stop-color="white"/>
<stop offset="1" stop-color="white" stop-opacity="0"/>
</linearGradient>
<linearGradient id="paint42_linear_7829_3911" x1="837.508" y1="-10.3739" x2="9.24741" y2="-10.3739" gradientUnits="userSpaceOnUse">
<stop offset="0.755208" stop-color="white"/>
<stop offset="1" stop-color="white" stop-opacity="0"/>
</linearGradient>
<linearGradient id="paint43_linear_7829_3911" x1="840.656" y1="-13.8843" x2="-6.82949" y2="-13.8842" gradientUnits="userSpaceOnUse">
<stop offset="0.755208" stop-color="white"/>
<stop offset="1" stop-color="white" stop-opacity="0"/>
</linearGradient>
<linearGradient id="paint44_linear_7829_3911" x1="845.328" y1="-16.9777" x2="-23.7481" y2="-16.9776" gradientUnits="userSpaceOnUse">
<stop offset="0.755208" stop-color="white"/>
<stop offset="1" stop-color="white" stop-opacity="0"/>
</linearGradient>
<linearGradient id="paint45_linear_7829_3911" x1="851.891" y1="-19.5776" x2="-41.3076" y2="-19.5776" gradientUnits="userSpaceOnUse">
<stop offset="0.755208" stop-color="white"/>
<stop offset="1" stop-color="white" stop-opacity="0"/>
</linearGradient>
<linearGradient id="paint46_linear_7829_3911" x1="860.805" y1="-21.5901" x2="-59.3317" y2="-21.5901" gradientUnits="userSpaceOnUse">
<stop offset="0.755208" stop-color="white"/>
<stop offset="1" stop-color="white" stop-opacity="0"/>
</linearGradient>
<linearGradient id="paint47_linear_7829_3911" x1="870.961" y1="-23.0189" x2="-77.6834" y2="-23.0188" gradientUnits="userSpaceOnUse">
<stop offset="0.755208" stop-color="white"/>
<stop offset="1" stop-color="white" stop-opacity="0"/>
</linearGradient>
</defs>
</svg>
