<svg width="154" height="59" viewBox="0 0 154 59" fill="none" xmlns="http://www.w3.org/2000/svg">
<path fill-rule="evenodd" clip-rule="evenodd" d="M35.4301 27.5909H36.3303C37.3242 27.5909 38.1305 28.4248 38.1305 29.4526V36.8991C38.1305 37.9268 37.3242 38.7607 36.3303 38.7607H23.1284C22.1345 38.7607 21.3281 37.9268 21.3281 36.8991V29.4526C21.3281 28.4248 22.1345 27.5909 23.1284 27.5909H24.0285V24.7985C24.0285 21.5484 26.5864 18.9033 29.7293 18.9033C32.8723 18.9033 35.4301 21.5484 35.4301 24.7985V27.5909ZM27.0234 27.5907H32.4242V24.7983C32.4242 23.2586 31.2128 22.0059 29.7238 22.0059C28.2349 22.0059 27.0234 23.2586 27.0234 24.7983V27.5907Z" fill="#8A8A8A"/>
<path d="M29.7235 0L30.676 3.08316H33.7592L31.265 4.98858L32.2176 8.07174L29.7235 6.1651L27.2298 8.07174L28.1825 4.98858L25.6875 3.08316H28.7707L29.7235 0Z" fill="#8A8A8A"/>
<path d="M29.7235 50.7373L30.676 53.8214H33.7592L31.265 55.7265L32.2176 58.809L29.7235 56.9041L27.2298 58.809L28.1825 55.7265L25.6875 53.8214H28.7707L29.7235 50.7373Z" fill="#8A8A8A"/>
<path d="M42.3952 4.6123L43.3475 7.69543H46.4311L43.9364 9.60162L44.8893 12.684L42.3952 10.7779L39.9007 12.684L40.8534 9.60162L38.3594 7.69543H41.443L42.3952 4.6123Z" fill="#8A8A8A"/>
<path d="M52.7784 13.3564L53.7305 16.4393H56.8139L54.3194 18.3453L55.2722 21.4282L52.7784 19.5229L50.2839 21.4282L51.2367 18.3453L48.7422 16.4393H51.8249L52.7784 13.3564Z" fill="#8A8A8A"/>
<path d="M52.7785 38.0527L53.7306 41.1369H56.8139L54.3195 43.0422L55.2729 46.1245L52.7785 44.2199L50.2839 46.1245L51.2367 43.0422L48.7422 41.1369H51.8256L52.7785 38.0527Z" fill="#8A8A8A"/>
<path d="M6.6612 13.3564L7.61351 16.4393H10.6967L8.20248 18.3453L9.1548 21.4282L6.6612 19.5229L4.16645 21.4282L5.11926 18.3453L2.625 16.4393H5.70889L6.6612 13.3564Z" fill="#8A8A8A"/>
<path d="M55.083 25.3682L56.0352 28.4511H59.1186L56.6242 30.3563L57.5769 33.4399L55.083 31.5353L52.5886 33.4399L53.5419 30.3563L51.0469 28.4511H54.1297L55.083 25.3682Z" fill="#8A8A8A"/>
<path d="M4.34895 25.3682L5.3012 28.4511H8.38424L5.88964 30.3563L6.84305 33.4399L4.34895 31.5353L1.85418 33.4399L2.8071 30.3563L0.3125 28.4511H3.39603L4.34895 25.3682Z" fill="#8A8A8A"/>
<path d="M6.66145 38.0527L7.6137 41.1369H10.6967L8.2028 43.0422L9.15489 46.1245L6.66145 44.2199L4.16685 46.1245L5.1196 43.0422L2.625 41.1369H5.7087L6.66145 38.0527Z" fill="#8A8A8A"/>
<path d="M44.708 48.4307L45.6602 51.5134H48.7436L46.2486 53.4197L47.2019 56.5024L44.708 54.5973L42.2129 56.5024L43.1664 53.4197L40.6719 51.5134H43.7553L44.708 48.4307Z" fill="#8A8A8A"/>
<path d="M17.036 4.6123L17.988 7.69543H21.0717L18.5771 9.60162L19.5306 12.684L17.036 10.7779L14.5418 12.684L15.4946 9.60162L13 7.69543H16.083L17.036 4.6123Z" fill="#8A8A8A"/>
<path d="M14.7231 48.4307L15.6758 51.5149H18.7592L16.2648 53.4195L17.2175 56.5024L14.7231 54.5984L12.2292 56.5024L13.1819 53.4195L10.6875 51.5149H13.7703L14.7231 48.4307Z" fill="#8A8A8A"/>
<path fill-rule="evenodd" clip-rule="evenodd" d="M78.0312 21.129C78.0312 27.0604 82.5746 30.7814 88.1557 30.7814C91.6894 30.7814 94.4098 29.3546 96.4291 27.1443V19.842H87.3985V23.8429H91.6894V25.4097C90.9322 26.0252 89.6141 26.5288 88.1557 26.5288C85.0987 26.5288 82.9392 24.1786 82.9392 21.129C82.9392 18.0794 85.0987 15.7292 88.1557 15.7292C89.9226 15.7292 91.3529 16.7085 92.1101 17.9395L96.1487 15.8132C94.7744 13.491 92.2503 11.4766 88.1557 11.4766C82.5746 11.4766 78.0312 15.1976 78.0312 21.129ZM99.2656 30.4456V11.7842H107.118C113.008 11.7842 117.243 15.3094 117.243 21.1009C117.243 26.8923 113.008 30.4456 107.146 30.4456H99.2656ZM104.086 26.2494H107.115C110.396 26.2494 112.303 23.8713 112.303 21.1014C112.303 18.2197 110.564 15.9814 107.143 15.9814H104.086V26.2494ZM119.656 30.4456V11.7842H129.023C133.23 11.7842 135.53 14.61 135.53 17.9953C135.53 21.3527 133.23 24.1225 129.023 24.1225H124.48V30.4456H119.656ZM130.611 17.9672C130.611 16.6802 129.657 15.8408 128.367 15.8408H124.469V20.0375H128.367C129.657 20.0375 130.611 19.2262 130.611 17.9672ZM148.12 30.4456L144.979 24.1225H142.511V30.4456H137.688V11.7842H147.055C151.205 11.7842 153.561 14.526 153.561 17.9953C153.561 21.2408 151.57 22.9754 149.831 23.5909L153.645 30.4456H148.12ZM148.65 17.9392C148.65 16.6522 147.584 15.8408 146.322 15.8408H142.508V20.0375H146.322C147.584 20.0375 148.65 19.2262 148.65 17.9392Z" fill="#8A8A8A"/>
<path d="M83.3913 38.2744C84.5243 38.2744 85.4034 38.5915 86.0288 39.2256C86.6542 39.8596 87.0014 40.58 87.0704 41.3866H85.8887C85.7547 40.7741 85.4867 40.2888 85.0847 39.9308C84.6867 39.5728 84.1263 39.3938 83.4035 39.3938C82.5223 39.3938 81.8096 39.7238 81.2654 40.3837C80.7253 41.0394 80.4553 42.0466 80.4553 43.4054C80.4553 44.5183 80.6989 45.422 81.1862 46.1165C81.6776 46.8066 82.4086 47.1517 83.3791 47.1517C84.2725 47.1517 84.9527 46.7872 85.4197 46.0582C85.6674 45.6743 85.8522 45.1696 85.974 44.5442H87.1557C87.0501 45.5449 86.7009 46.3839 86.108 47.0611C85.3973 47.8764 84.439 48.284 83.2329 48.284C82.1933 48.284 81.3202 47.9497 80.6137 47.2811C79.6837 46.3969 79.2188 45.0316 79.2188 43.1854C79.2188 41.7835 79.568 40.6339 80.2665 39.7367C81.0218 38.7618 82.0634 38.2744 83.3913 38.2744Z" fill="#8A8A8A"/>
<path d="M92.8096 38.2744C94.3893 38.2744 95.5588 38.8136 96.3182 39.892C96.9111 40.7331 97.2075 41.8094 97.2075 43.1207C97.2075 44.5399 96.8684 45.7196 96.1903 46.66C95.3944 47.7642 94.2593 48.3164 92.7853 48.3164C91.4086 48.3164 90.3264 47.8333 89.5386 46.867C88.8361 45.9353 88.4848 44.7577 88.4848 43.3342C88.4848 42.0488 88.7853 40.9488 89.3863 40.0343C90.1579 38.8611 91.299 38.2744 92.8096 38.2744ZM92.9314 47.1647C93.9995 47.1647 94.771 46.7592 95.2461 45.9482C95.7253 45.133 95.9649 44.1969 95.9649 43.1401C95.9649 42.0229 95.6888 41.1235 95.1365 40.442C94.5883 39.7604 93.837 39.4197 92.8827 39.4197C91.9568 39.4197 91.2015 39.7583 90.6168 40.4355C90.032 41.1084 89.7396 42.1027 89.7396 43.4183C89.7396 44.4708 89.9894 45.3594 90.4888 46.0841C90.9924 46.8045 91.8066 47.1647 92.9314 47.1647Z" fill="#8A8A8A"/>
<path d="M98.9387 38.5332H100.675L103.245 46.5694L105.797 38.5332H107.515V48.0382H106.364V42.4284C106.364 42.2343 106.368 41.9129 106.376 41.4643C106.384 41.0157 106.388 40.5347 106.388 40.0214L103.836 48.0382H102.636L100.066 40.0214V40.3126C100.066 40.5455 100.07 40.9014 100.078 41.3802C100.09 41.8547 100.096 42.2041 100.096 42.4284V48.0382H98.9387V38.5332Z" fill="#8A8A8A"/>
<path d="M109.788 38.5332H113.815C114.611 38.5332 115.252 38.7726 115.74 39.2514C116.227 39.7259 116.471 40.3945 116.471 41.2572C116.471 41.9992 116.253 42.6462 115.819 43.1983C115.384 43.7462 114.716 44.0201 113.815 44.0201H111.001V48.0382H109.788V38.5332ZM115.246 41.2637C115.246 40.5649 115.003 40.0904 114.515 39.8402C114.247 39.7065 113.88 39.6397 113.413 39.6397H111.001V42.9331H113.413C113.957 42.9331 114.398 42.8101 114.735 42.5643C115.076 42.3184 115.246 41.8849 115.246 41.2637Z" fill="#8A8A8A"/>
<path d="M118.305 38.5332H119.517V46.9059H124.049V48.0382H118.305V38.5332Z" fill="#8A8A8A"/>
<path d="M125.835 38.5332H127.06V48.0382H125.835V38.5332Z" fill="#8A8A8A"/>
<path d="M133.938 44.143L132.58 39.9438L131.136 44.143H133.938ZM131.946 38.5332H133.317L136.563 48.0382H135.235L134.328 45.1912H130.789L129.82 48.0382H128.578L131.946 38.5332Z" fill="#8A8A8A"/>
<path d="M137.978 38.5332H139.409L143.929 46.2329V38.5332H145.08V48.0382H143.722L139.135 40.3449V48.0382H137.978V38.5332Z" fill="#8A8A8A"/>
<path d="M153.816 38.5332V39.6655H150.801V48.0382H149.571V39.6655H146.555V38.5332H153.816Z" fill="#8A8A8A"/>
</svg>
