<svg width="163" height="39" viewBox="0 0 163 39" fill="none" xmlns="http://www.w3.org/2000/svg">
<path fill-rule="evenodd" clip-rule="evenodd" d="M23.3943 0H6.88117C3.54241 0 0.8125 2.65523 0.8125 5.90025V31.7977C0.8125 35.0428 3.54241 37.6979 6.88117 37.6979H23.3943C26.733 37.6979 29.4629 35.0428 29.4629 31.7977V5.90025C29.4629 5.88873 29.4629 5.87723 29.4628 5.86573V5.92085C23.8236 15.9196 18.2771 26.3354 12.9354 37.6977H10.0025C8.34222 33.1851 5.74085 28.0015 2.32031 22.335C6.00416 23.5375 9.66362 24.7669 11.7823 27.6478C17.3322 18.8647 23.0358 10.9001 28.788 3.20396C27.7768 1.30529 25.7352 0 23.3943 0Z" fill="#8A8A8A"/>
<path d="M67.5706 24.7554C69.9395 23.826 72.7026 23.9416 75.01 25.0085C74.8942 25.58 74.7894 26.1549 74.7026 26.7301C73.0135 24.155 68.7677 24.1405 66.9811 26.6034C65.7261 28.2816 65.6466 30.5274 65.8419 32.5383C66.0191 34.4153 67.0859 36.3068 68.8978 37.0302C70.9557 37.7282 73.2305 37.0916 74.9015 35.7824C74.8906 36.1622 74.8761 36.5419 74.8653 36.9216C73.3861 37.9018 71.5417 38.0934 69.8092 38.0102C67.9756 37.909 66.0806 37.1386 65.0136 35.5871C63.7478 33.6632 63.491 31.1676 64.0336 28.9579C64.4639 27.1025 65.831 25.5148 67.5706 24.7554ZM40.0156 24.3322C40.6195 24.3539 41.2272 24.3539 41.8348 24.343C41.6685 28.4804 41.6829 32.6215 41.8094 36.7589C43.5635 36.806 45.3357 36.8385 47.0608 36.5094C47.0644 36.8963 47.068 37.287 47.0789 37.6775C44.757 37.6558 42.4315 37.5185 40.117 37.7137C40.1964 33.2544 40.1494 28.7915 40.0156 24.3322ZM49.52 24.3034C50.1567 24.3142 50.7932 24.3106 51.4297 24.2853C51.191 28.3974 51.1692 32.531 51.4224 36.6395C53.1223 36.8963 54.9197 36.7191 56.6412 36.5166C56.6448 36.8999 56.6484 37.2797 56.652 37.6667C54.3048 37.5545 51.9469 37.5365 49.596 37.6486C49.7443 33.2002 49.6865 28.7517 49.52 24.3034ZM57.2272 32.2852C58.7425 32.2925 60.2433 32.531 61.7587 32.495C61.7551 32.8819 61.7551 33.2688 61.7551 33.6559C60.2397 33.7462 58.7352 33.5473 57.2272 33.4786C57.2308 33.0808 57.2308 32.683 57.2272 32.2852Z" fill="#8A8A8A"/>
<path d="M114.226 25.0202C114.708 24.4098 115.534 24.2981 116.261 24.127C116.215 24.4991 116.169 24.8714 116.131 25.2436C115.473 25.2659 114.524 24.9905 114.18 25.7424C113.79 26.6283 114.095 27.6482 114.073 28.5862C114.6 28.5937 115.121 28.5937 115.649 28.5937C115.649 28.6979 115.649 28.9063 115.649 29.0105C115.159 29.018 114.662 29.0031 114.18 29.0551C114.065 31.2066 114.21 33.3655 114.271 35.517C113.851 35.517 113.43 35.517 113.009 35.517C113.055 33.3506 113.07 31.1917 113.024 29.0254C112.78 29.0328 112.298 29.0328 112.053 29.0404C112.053 28.936 112.053 28.7425 112.053 28.6457C112.374 28.6234 112.695 28.5788 113.009 28.5043C113.2 27.2983 113.315 25.9508 114.226 25.0202ZM109.413 25.2288C109.88 24.8045 110.637 25.2884 110.553 25.8689C110.599 26.2858 110.056 26.6805 109.658 26.5464C109.038 26.4868 108.885 25.5117 109.413 25.2288ZM117.133 25.6531C117.117 25.2734 117.576 25.1766 117.806 24.9682C117.997 25.065 118.38 25.2734 118.571 25.3776C118.594 25.9285 118.38 26.39 117.829 26.606C117.531 26.338 116.98 26.1444 117.133 25.6531ZM139.801 25.4894C140.023 25.0724 140.575 25.2436 140.956 25.1469C141.011 25.534 141.294 26.0327 140.896 26.338C140.413 26.9038 139.42 26.0848 139.801 25.4894ZM159.639 24.9533C161.086 26.204 161.942 28.0427 162.096 29.9113C162.387 32.5838 161.752 35.5616 159.67 37.4526C160.229 36.0455 161.085 34.7353 161.247 33.2018C161.399 31.1321 161.469 28.9659 160.612 27.0154C160.336 26.3082 159.786 25.7127 159.639 24.9533ZM77.7549 32.4945C77.5561 29.9263 78.1452 26.9484 80.3103 25.2585C79.8819 26.3528 79.1397 27.3206 78.9255 28.4969C78.4359 30.6855 78.4512 33.0231 79.1551 35.1596C79.4075 36.0679 80.0655 36.7974 80.318 37.6982C78.719 36.4549 77.9845 34.4227 77.7549 32.4945ZM84.3804 25.7722C86.2472 24.9979 88.3969 25.1244 90.2485 25.8764C90.2025 26.3157 90.1567 26.7548 90.1107 27.2014C88.7566 25.2288 85.4286 25.2212 83.9902 27.0972C82.9114 28.4001 82.9114 30.1868 83.0799 31.7724C83.2098 33.44 84.4723 35.0778 86.2319 35.3309C87.6778 35.6808 89.0779 34.9662 90.256 34.2291C90.2179 34.5343 90.1719 34.8395 90.1337 35.1522C88.8942 35.9041 87.3948 35.9115 85.9871 35.8519C84.939 35.8519 83.9444 35.383 83.1257 34.7799C81.519 33.2539 81.2666 30.8568 81.7333 28.817C82.1465 27.5068 83.0874 26.3305 84.3804 25.7722ZM135.402 26.8144C135.732 26.6952 136.068 26.5687 136.405 26.4496C136.382 27.1717 136.382 27.8939 136.382 28.616C137.04 28.5937 137.698 28.5638 138.355 28.5117C138.363 28.6308 138.37 28.8617 138.37 28.9808C137.705 28.9956 137.04 29.0105 136.374 29.0254C136.382 30.5813 136.259 32.1372 136.305 33.693C136.321 34.2365 136.481 34.8395 136.978 35.167C137.598 35.4202 138.263 35.1522 138.9 35.115C138.18 35.7477 137.108 35.8073 136.213 35.5766C135.525 35.3457 135.326 34.5789 135.334 33.9462C135.311 32.2935 135.418 30.6482 135.372 28.9956C135.051 28.9956 134.737 28.9956 134.416 28.9882L134.377 28.5341C134.706 28.5266 135.035 28.5192 135.372 28.5117C135.387 27.9459 135.395 27.3801 135.402 26.8144ZM104.746 26.9633C105.129 26.7996 105.504 26.6283 105.879 26.4645C105.833 27.1791 105.825 27.9013 105.802 28.616C106.529 28.5639 107.248 28.5192 107.983 28.4969C107.707 29.4051 106.514 28.8914 105.787 29.0924C105.795 30.5516 105.726 32.0033 105.733 33.4549C105.756 34.0578 105.787 34.8098 106.384 35.1522C107.026 35.3905 107.699 35.115 108.358 35.115C107.592 35.7105 106.529 35.8296 105.596 35.6063C104.746 35.2788 104.678 34.2142 104.701 33.4549C104.731 32.018 104.708 30.5887 104.731 29.1595C104.287 29.1073 103.79 29.1222 103.668 28.6011C103.935 28.6085 104.479 28.6085 104.746 28.6085C104.762 28.065 104.754 27.5142 104.746 26.9633ZM91.8704 30.157C92.8114 28.2214 95.9481 27.7748 97.3636 29.4498C97.9145 30.1868 97.9755 31.1471 97.9986 32.0256C96.2313 31.9734 94.4716 32.0702 92.7043 32.033C92.6891 33.1125 92.9109 34.3408 93.9207 34.9662C95.1296 35.6212 96.6443 35.2341 97.6313 34.3779C97.639 34.5789 97.6466 34.7799 97.6543 34.9809C96.4302 35.785 94.7929 36.0679 93.4082 35.5095C91.4114 34.6088 90.8912 31.9362 91.8704 30.157ZM93.6835 29.2338C92.9567 29.7848 92.7503 30.7153 92.6585 31.564C94.0738 31.5714 95.4814 31.5268 96.8969 31.5417C96.7822 30.8568 96.7745 30.1048 96.323 29.5316C95.7415 28.7202 94.4716 28.7127 93.6835 29.2338ZM121.486 29.2264C122.863 28.013 124.967 28.1395 126.52 28.9509C126.39 29.3232 126.275 29.6954 126.16 30.0602C125.533 28.4001 122.955 28.2736 122.067 29.7476C121.455 30.76 121.417 32.0404 121.685 33.1645C121.914 34.3632 123.1 35.3532 124.37 35.2341C125.22 35.2861 125.893 34.7353 126.574 34.3408C126.52 35.2861 125.48 35.5989 124.661 35.6138C123.789 35.6435 122.848 35.6808 122.09 35.1895C119.986 34.0207 119.765 30.8046 121.486 29.2264ZM128.012 29.889C128.02 28.9212 129.06 28.5712 129.886 28.4298C130.835 28.281 132.067 28.4597 132.518 29.4051C133.214 31.0801 132.564 32.9189 132.847 34.6534C132.863 35.1522 133.543 35.1224 133.865 35.3309C133.344 35.4574 132.817 35.6212 132.273 35.5989C132.036 35.3606 131.853 35.0704 131.654 34.8023C130.759 35.6063 129.42 36.0009 128.272 35.4798C127.017 34.7576 127.17 32.6657 128.548 32.1521C129.634 31.8543 130.766 31.7352 131.822 31.3108C131.761 30.5367 131.837 29.539 131.057 29.0701C129.963 28.5937 128.762 29.0627 128.012 29.889ZM129.053 32.6137C128.196 33.2315 128.418 34.7875 129.435 35.1299C130.246 35.3905 131.126 35.0033 131.646 34.3929C131.906 33.5665 131.715 32.6806 131.753 31.832C130.82 31.9585 129.848 32.0851 129.053 32.6137ZM145.555 28.4746C147.101 28.0576 148.921 28.683 149.648 30.1123C150.39 31.7278 150.206 34.0132 148.592 35.0851C147.736 35.77 146.549 35.6509 145.516 35.5543C144.446 35.2043 143.467 34.4002 143.176 33.2986C142.525 31.415 143.45 28.9808 145.555 28.4746ZM145.539 28.8989C144.01 29.7326 144.048 31.7501 144.301 33.2241C144.384 34.4747 145.608 35.6063 146.925 35.3234C148.11 35.1895 148.814 34.0504 148.883 32.9784C148.998 31.6533 148.951 30.1048 147.911 29.1147C147.238 28.6383 146.29 28.5788 145.539 28.8989ZM154.574 28.4373C155.539 28.2513 156.747 28.266 157.367 29.1445C157.812 29.9336 157.804 30.8642 157.804 31.7427C157.788 32.9784 157.804 34.2217 157.804 35.4574C157.459 35.4574 157.123 35.4574 156.786 35.4648C156.801 33.9759 156.832 32.4872 156.817 30.9982C156.847 30.0974 156.296 29.018 155.271 28.936C154.154 28.7425 153.113 29.6731 153.068 30.7377C152.953 32.3158 153.023 33.9016 153.083 35.4724C152.724 35.4798 152.371 35.4798 152.02 35.4798C152.012 33.1645 152.097 30.8345 151.92 28.5192C152.272 28.5117 152.625 28.5117 152.968 28.5043C152.946 28.9585 152.914 29.4125 152.884 29.8667C153.389 29.3456 153.857 28.6979 154.574 28.4373ZM99.7353 28.6085C100.156 28.6085 100.577 28.616 100.998 28.6234C100.952 29.1445 100.921 29.6657 100.89 30.1868C101.403 29.3157 102.107 28.415 103.247 28.4373C103.255 28.8467 103.262 29.2637 103.27 29.6805C102.551 29.4571 101.602 29.4424 101.258 30.2239C100.623 31.9511 100.86 33.8345 100.959 35.6286C100.577 35.6286 100.194 35.6212 99.8194 35.6212C99.7965 33.2762 99.8883 30.9387 99.7353 28.6085ZM109.253 28.5266C109.635 28.5341 110.025 28.5341 110.408 28.5341C110.331 30.8716 110.331 33.2091 110.438 35.5393C110.071 35.5393 109.704 35.5393 109.337 35.5393C109.352 33.2018 109.452 30.8568 109.253 28.5266ZM117.248 28.4969C117.653 28.4894 118.066 28.482 118.472 28.4746C118.395 30.8122 118.387 33.1496 118.487 35.4798C118.097 35.4724 117.699 35.4724 117.309 35.4798C117.431 33.1571 117.37 30.8269 117.248 28.4969ZM139.893 28.5937C140.254 28.5937 140.62 28.5936 140.988 28.6011C140.956 30.9088 140.996 33.2315 141.003 35.5467C140.65 35.5467 140.306 35.5467 139.955 35.5543C139.993 33.2315 140.055 30.9088 139.893 28.5937Z" fill="#8A8A8A"/>
<path fill-rule="evenodd" clip-rule="evenodd" d="M162.228 21.6104H40.0156V20.6104H162.228V21.6104Z" fill="#8A8A8A"/>
<path d="M43.4664 0.506086V16.5867H40.1641V0.506086H43.4664ZM56.9016 12.3788C56.9016 12.0916 56.8575 11.8339 56.7691 11.6057C56.6881 11.37 56.5336 11.1565 56.3053 10.9652C56.0771 10.7663 55.7568 10.5711 55.3444 10.3798C54.9322 10.1883 54.3984 9.98953 53.743 9.7834C53.0141 9.54771 52.322 9.28262 51.6668 8.98812C51.0188 8.69363 50.4444 8.35133 49.9438 7.96108C49.4504 7.56344 49.0602 7.10323 48.7731 6.58058C48.4934 6.05779 48.3534 5.45025 48.3534 4.75826C48.3534 4.08815 48.5006 3.48076 48.7952 2.93595C49.0897 2.38375 49.502 1.91252 50.0322 1.52227C50.5622 1.12464 51.1882 0.81913 51.9097 0.605609C52.6386 0.392088 53.4375 0.285329 54.3062 0.285329C55.4917 0.285329 56.5262 0.498849 57.4098 0.925891C58.2933 1.35293 58.9781 1.93816 59.4641 2.68186C59.9573 3.42557 60.204 4.27588 60.204 5.23311H56.9128C56.9128 4.76188 56.8133 4.34962 56.6145 3.99616C56.4232 3.63532 56.1285 3.35183 55.7311 3.1457C55.3408 2.93956 54.8474 2.83642 54.251 2.83642C53.6768 2.83642 53.1982 2.92479 52.8153 3.10152C52.4325 3.27085 52.1452 3.50277 51.9539 3.79742C51.7624 4.08453 51.6668 4.40843 51.6668 4.76927C51.6668 5.04175 51.733 5.2883 51.8655 5.50921C52.0054 5.73012 52.2116 5.93625 52.4841 6.12775C52.7564 6.31911 53.0914 6.49946 53.4891 6.66895C53.8866 6.83828 54.3468 7.00385 54.8696 7.16581C55.7457 7.4309 56.5152 7.72916 57.1777 8.06045C57.8479 8.39174 58.4075 8.7636 58.8565 9.17586C59.3057 9.58827 59.6444 10.0557 59.8727 10.5785C60.1009 11.1013 60.215 11.6941 60.215 12.3567C60.215 13.0562 60.0788 13.682 59.8064 14.2342C59.5339 14.7865 59.14 15.254 58.6246 15.6368C58.1092 16.0197 57.4944 16.3106 56.7803 16.5093C56.066 16.7082 55.2672 16.8076 54.3836 16.8076C53.5885 16.8076 52.8043 16.7044 52.0312 16.4983C51.2581 16.2848 50.555 15.9645 49.9216 15.5375C49.2959 15.1104 48.7952 14.5656 48.4196 13.9029C48.0441 13.2403 47.8564 12.456 47.8564 11.5505H51.1808C51.1808 12.0512 51.2581 12.4744 51.4127 12.8205C51.5672 13.1666 51.7845 13.4464 52.0642 13.66C52.3515 13.8735 52.6902 14.028 53.0804 14.1238C53.4779 14.2195 53.9124 14.2673 54.3836 14.2673C54.9579 14.2673 55.4292 14.1864 55.7973 14.0244C56.1727 13.8625 56.4488 13.6378 56.6256 13.3507C56.8097 13.0636 56.9016 12.7395 56.9016 12.3788ZM77.6373 8.17083V8.93293C77.6373 10.1553 77.4716 11.2523 77.1403 12.2241C76.809 13.1961 76.3414 14.0244 75.7377 14.7092C75.134 15.3865 74.4123 15.9055 73.573 16.2664C72.741 16.6272 71.8169 16.8076 70.8009 16.8076C69.7922 16.8076 68.8682 16.6272 68.0287 16.2664C67.1968 15.9055 66.4753 15.3865 65.8641 14.7092C65.2529 14.0244 64.7781 13.1961 64.4394 12.2241C64.108 11.2523 63.9424 10.1553 63.9424 8.93293V8.17083C63.9424 6.94128 64.108 5.84427 64.4394 4.87965C64.7707 3.9078 65.2383 3.0795 65.8419 2.39475C66.4531 1.71001 67.1746 1.18721 68.0067 0.826369C68.846 0.465675 69.7701 0.285329 70.7789 0.285329C71.7949 0.285329 72.719 0.465675 73.5509 0.826369C74.3903 1.18721 75.1119 1.71001 75.7156 2.39475C76.3268 3.0795 76.798 3.9078 77.1293 4.87965C77.468 5.84427 77.6373 6.94128 77.6373 8.17083ZM74.291 8.93293V8.14882C74.291 7.29473 74.2136 6.54364 74.059 5.89584C73.9043 5.24789 73.6762 4.70292 73.3743 4.26126C73.0724 3.81944 72.7042 3.48815 72.2697 3.26724C71.8355 3.03894 71.3385 2.92479 70.7789 2.92479C70.2193 2.92479 69.7223 3.03894 69.2878 3.26724C68.8608 3.48815 68.4963 3.81944 68.1944 4.26126C67.9 4.70292 67.6754 5.24789 67.5207 5.89584C67.3661 6.54364 67.2888 7.29473 67.2888 8.14882V8.93293C67.2888 9.77963 67.3661 10.5307 67.5207 11.1861C67.6754 11.8339 67.9036 12.3824 68.2055 12.8317C68.5073 13.2733 68.8756 13.6084 69.3099 13.8367C69.7443 14.0648 70.2413 14.179 70.8009 14.179C71.3605 14.179 71.8575 14.0648 72.2919 13.8367C72.7263 13.6084 73.0908 13.2733 73.3853 12.8317C73.6798 12.3824 73.9043 11.8339 74.059 11.1861C74.2136 10.5307 74.291 9.77963 74.291 8.93293ZM96.9979 0.473063V16.5867H93.8171V4.13972L89.9958 5.35465V2.84758L96.6555 0.473063H96.9979ZM107.451 7.16581H109.152C109.697 7.16581 110.146 7.07382 110.5 6.88971C110.853 6.69835 111.114 6.43326 111.284 6.09458C111.46 5.74851 111.549 5.34726 111.549 4.89081C111.549 4.47839 111.468 4.11393 111.306 3.79742C111.151 3.47337 110.912 3.22305 110.588 3.04633C110.264 2.86221 109.855 2.77023 109.362 2.77023C108.972 2.77023 108.611 2.84758 108.28 3.00214C107.948 3.15686 107.683 3.374 107.484 3.65371C107.286 3.93358 107.186 4.27226 107.186 4.6699H103.994C103.994 3.78626 104.23 3.01692 104.701 2.36158C105.18 1.70624 105.82 1.1946 106.623 0.826369C107.425 0.458286 108.309 0.27417 109.274 0.27417C110.363 0.27417 111.317 0.450899 112.134 0.804355C112.951 1.15042 113.588 1.66206 114.045 2.33956C114.501 3.01692 114.73 3.85623 114.73 4.85764C114.73 5.36565 114.612 5.85889 114.376 6.33751C114.14 6.80873 113.802 7.23577 113.36 7.61863C112.926 7.99426 112.395 8.29614 111.77 8.52429C111.144 8.7452 110.441 8.85558 109.66 8.85558H107.451V7.16581ZM107.451 9.58451V7.93892H109.66C110.536 7.93892 111.306 8.03844 111.968 8.23718C112.631 8.43593 113.187 8.72318 113.636 9.09866C114.085 9.46674 114.424 9.90479 114.652 10.413C114.88 10.9136 114.994 11.4694 114.994 12.0806C114.994 12.8317 114.851 13.5016 114.564 14.0906C114.277 14.6724 113.872 15.1656 113.349 15.5706C112.833 15.9755 112.23 16.2848 111.538 16.4983C110.846 16.7044 110.091 16.8076 109.274 16.8076C108.596 16.8076 107.93 16.7154 107.275 16.5315C106.627 16.34 106.038 16.0565 105.507 15.681C104.985 15.2982 104.565 14.8195 104.248 14.2453C103.939 13.6636 103.785 12.9752 103.785 12.1799H106.976C106.976 12.5924 107.079 12.9604 107.286 13.2845C107.492 13.6084 107.775 13.8625 108.136 14.0464C108.504 14.2305 108.913 14.3225 109.362 14.3225C109.87 14.3225 110.304 14.2305 110.665 14.0464C111.033 13.8551 111.313 13.59 111.505 13.2513C111.703 12.9052 111.803 12.504 111.803 12.0474C111.803 11.4584 111.696 10.9872 111.482 10.6337C111.269 10.273 110.963 10.0079 110.566 9.83859C110.168 9.66925 109.697 9.58451 109.152 9.58451H107.451ZM130.407 10.5785V13.0746H118.821L118.667 11.1419L125.371 0.506086H127.9L125.161 5.08955L121.825 10.5785H130.407ZM128.584 0.506086V16.5867H125.404V0.506086H128.584ZM144.924 12.1799C144.924 13.1887 144.689 14.039 144.217 14.7312C143.747 15.4159 143.098 15.9351 142.273 16.2884C141.456 16.6345 140.529 16.8076 139.491 16.8076C138.452 16.8076 137.52 16.6345 136.697 16.2884C135.872 15.9351 135.22 15.4159 134.742 14.7312C134.263 14.039 134.024 13.1887 134.024 12.1799C134.024 11.5026 134.16 10.8914 134.432 10.3466C134.705 9.79441 135.084 9.32318 135.57 8.93293C136.063 8.5353 136.641 8.23341 137.303 8.02728C137.967 7.81376 138.688 7.707 139.469 7.707C140.514 7.707 141.449 7.89112 142.273 8.2592C143.098 8.62743 143.747 9.14646 144.217 9.81657C144.689 10.4865 144.924 11.2744 144.924 12.1799ZM141.721 11.9702C141.721 11.4768 141.626 11.0535 141.435 10.7001C141.251 10.3392 140.989 10.0631 140.651 9.87176C140.312 9.68026 139.918 9.58451 139.469 9.58451C139.019 9.58451 138.626 9.68026 138.286 9.87176C137.949 10.0631 137.683 10.3392 137.492 10.7001C137.308 11.0535 137.216 11.4768 137.216 11.9702C137.216 12.456 137.308 12.8758 137.492 13.2291C137.683 13.5826 137.949 13.8551 138.286 14.0464C138.633 14.2305 139.034 14.3225 139.491 14.3225C139.947 14.3225 140.342 14.2305 140.672 14.0464C141.011 13.8551 141.269 13.5826 141.445 13.2291C141.629 12.8758 141.721 12.456 141.721 11.9702ZM144.582 4.76927C144.582 5.58656 144.365 6.31172 143.931 6.94505C143.496 7.57083 142.893 8.06045 142.12 8.41391C141.353 8.76736 140.477 8.94394 139.491 8.94394C138.496 8.94394 137.614 8.76736 136.84 8.41391C136.067 8.06045 135.463 7.57083 135.029 6.94505C134.594 6.31172 134.377 5.58656 134.377 4.76927C134.377 3.79742 134.594 2.98013 135.029 2.3174C135.47 1.64743 136.074 1.13941 136.84 0.793345C137.614 0.447278 138.49 0.27417 139.469 0.27417C140.462 0.27417 141.343 0.447278 142.107 0.793345C142.881 1.13941 143.486 1.64743 143.92 2.3174C144.362 2.98013 144.582 3.79742 144.582 4.76927ZM141.402 4.91283C141.402 4.4784 141.323 4.10292 141.17 3.78626C141.014 3.46236 140.794 3.21205 140.506 3.03532C140.227 2.85859 139.88 2.77023 139.469 2.77023C139.071 2.77023 138.728 2.85497 138.442 3.02431C138.161 3.19365 137.944 3.44019 137.79 3.76424C137.643 4.08076 137.569 4.46362 137.569 4.91283C137.569 5.34726 137.643 5.73012 137.79 6.06141C137.944 6.38546 138.166 6.63939 138.452 6.82351C138.74 7.00763 139.086 7.09961 139.491 7.09961C139.895 7.09961 140.238 7.00763 140.518 6.82351C140.805 6.63939 141.022 6.38546 141.17 6.06141C141.323 5.73012 141.402 5.34726 141.402 4.91283ZM152.031 9.26422L149.492 8.65683L150.409 0.506086H159.442V3.0795H153.025L152.628 6.64678C152.841 6.52162 153.165 6.38908 153.599 6.24914C154.034 6.10197 154.521 6.02823 155.057 6.02823C155.839 6.02823 156.531 6.14977 157.134 6.3927C157.737 6.63577 158.25 6.98923 158.669 7.45306C159.096 7.9169 159.42 8.48388 159.642 9.15385C159.862 9.82381 159.972 10.5823 159.972 11.429C159.972 12.1431 159.862 12.8243 159.642 13.4722C159.42 14.1128 159.085 14.687 158.636 15.195C158.186 15.6958 157.624 16.0897 156.947 16.3768C156.268 16.664 155.466 16.8076 154.539 16.8076C153.847 16.8076 153.177 16.7044 152.529 16.4983C151.888 16.2922 151.31 15.9867 150.795 15.5816C150.286 15.1766 149.878 14.687 149.569 14.1128C149.267 13.531 149.109 12.8685 149.094 12.1247H152.253C152.296 12.5813 152.414 12.9752 152.606 13.3065C152.805 13.6306 153.065 13.8809 153.39 14.0576C153.714 14.2342 154.092 14.3225 154.528 14.3225C154.932 14.3225 155.279 14.2453 155.566 14.0906C155.852 13.9361 156.084 13.7225 156.261 13.4501C156.439 13.1703 156.567 12.8463 156.648 12.4782C156.736 12.1027 156.781 11.6977 156.781 11.2633C156.781 10.8288 156.728 10.435 156.626 10.0815C156.523 9.72821 156.365 9.42256 156.151 9.16485C155.938 8.90715 155.665 8.70841 155.333 8.56847C155.009 8.42854 154.631 8.35872 154.196 8.35872C153.607 8.35872 153.15 8.4507 152.827 8.63482C152.511 8.81879 152.245 9.02869 152.031 9.26422Z" fill="#8A8A8A"/>
</svg>
