<svg width="190" height="190" viewBox="0 0 190 190" fill="none" xmlns="http://www.w3.org/2000/svg">
<circle cx="95" cy="95" r="95" fill="#FED29F"/>
<path d="M114.174 46.7716C100.839 41.375 97.0959 53.1897 85.5977 53.5173C72.5155 53.89 65.447 34.6292 54.0163 46.7716C39.728 61.9495 62.3513 72.6587 54.0163 76.5937C45.6814 80.5288 46.5805 84.9062 44.5186 99.0509C43.2139 108.001 45.6706 113.42 49.2664 121.719C53.7725 132.119 57.5708 138.513 67.1419 144.585C80.8552 153.284 93.3179 152.628 108.641 147.25C119.019 143.607 124.638 139.568 131.798 131.219C143.573 117.487 150.798 105.687 144.537 86.6837C136.974 63.7258 126.081 80.5001 121.319 70.3816C116.556 60.263 130.844 53.5173 114.174 46.7716Z" fill="#8E4644"/>
<rect x="94.3125" y="26.625" width="1.375" height="136.75" rx="0.6875" stroke="#333333" stroke-linecap="square" stroke-dasharray="7 7"/>
<rect x="26.625" y="95.6886" width="1.375" height="136.75" rx="0.6875" transform="rotate(-90 26.625 95.6886)" stroke="#333333" stroke-linecap="square" stroke-dasharray="7 7"/>
</svg>
