<svg width="1400" height="240" viewBox="0 0 1400 240" fill="none" xmlns="http://www.w3.org/2000/svg">
<path opacity="0.26" d="M464.454 -825.9C1.34699 -497.736 643.446 263.009 984.464 -121.564C1137.63 -294.288 1612.05 -476.3 1502.99 -697.052C1395.14 -916.993 1203.55 -1023.98 998.883 -1015.12C748.992 -1004.24 620.592 -936.556 464.454 -825.9Z" stroke="url(#paint0_linear_6925_2159)" stroke-width="2" stroke-miterlimit="10"/>
<path opacity="0.3" d="M458.756 -839.727C39.7173 -508.183 601.595 248.952 984.229 -109.532C1152.16 -266.845 1620.85 -506.387 1496.19 -717.85C1372.87 -928.58 1188.7 -1057.85 988.148 -1024.48C745.129 -984.043 608.525 -958.32 458.756 -839.727Z" stroke="url(#paint1_linear_6925_2159)" stroke-width="2" stroke-miterlimit="10"/>
<path opacity="0.34" d="M453.044 -853.552C77.1269 -520.367 559.208 234.006 983.98 -97.4987C1166.29 -239.768 1629.61 -536.492 1489.4 -738.647C1350.75 -940.146 1173.82 -1091.86 977.455 -1033.85C741.25 -964.111 596.211 -980.43 453.044 -853.552Z" stroke="url(#paint2_linear_6925_2159)" stroke-width="2" stroke-miterlimit="10"/>
<path opacity="0.38" d="M447.38 -867.36C113.446 -534.136 516.309 218.055 983.759 -85.4288C1180.32 -213.079 1638.35 -566.58 1482.61 -759.62C1328.46 -951.732 1158.85 -1126.04 966.715 -1043.29C737.246 -944.298 583.482 -1003.2 447.38 -867.36Z" stroke="url(#paint3_linear_6925_2159)" stroke-width="2" stroke-miterlimit="10"/>
<path opacity="0.41" d="M441.6 -881.188C148.202 -549.24 473.256 201.097 983.538 -73.4185C1194.4 -186.817 1647.2 -596.669 1475.83 -780.497C1306.28 -963.321 1143.83 -1160.34 956.013 -1052.58C733.069 -924.659 570.155 -1026.53 441.6 -881.188Z" stroke="url(#paint4_linear_6925_2159)" stroke-width="2" stroke-miterlimit="10"/>
<path opacity="0.45" d="M435.953 -895.014C181.314 -565.344 430.259 183.158 983.296 -61.3859C1208.36 -160.918 1655.99 -626.755 1469.02 -801.372C1284.05 -974.907 1128.51 -1194.69 945.386 -1061.94C728.772 -905.076 555.976 -1050.42 435.953 -895.014Z" stroke="url(#paint5_linear_6925_2159)" stroke-width="2" stroke-miterlimit="10"/>
<path opacity="0.49" d="M430.257 -908.843C212.641 -581.973 387.541 164.424 983.063 -49.356C1222.55 -135.332 1664.77 -656.844 1462.25 -822.268C1261.85 -986.418 1113.12 -1229.07 934.575 -1071.39C724.274 -885.514 540.726 -1074.77 430.257 -908.843Z" stroke="url(#paint6_linear_6925_2159)" stroke-width="2" stroke-miterlimit="10"/>
<path opacity="0.53" d="M424.573 -922.653C242.067 -598.602 345.085 144.995 982.841 -37.3269C1236.86 -109.977 1673.58 -686.953 1455.46 -843.146C1239.66 -998.065 1097.61 -1263.41 923.872 -1080.68C719.554 -865.915 524.155 -1099.51 424.573 -922.653Z" stroke="url(#paint7_linear_6925_2159)" stroke-width="2" stroke-miterlimit="10"/>
<path opacity="0.56" d="M418.876 -936.479C269.532 -614.573 303.157 125.066 982.607 -25.295C1251.49 -84.7944 1682.36 -717.04 1448.67 -864.022C1217.44 -1009.65 1081.92 -1297.69 913.156 -1089.97C714.9 -846.313 506.046 -1124.4 418.876 -936.479Z" stroke="url(#paint8_linear_6925_2159)" stroke-width="2" stroke-miterlimit="10"/>
<path opacity="0.6" d="M413.168 -950.305C295.114 -629.306 261.624 104.79 982.38 -13.2627C1266.24 -59.7652 1691.15 -747.107 1441.78 -884.916C1195.15 -1021.24 1066.23 -1331.94 902.333 -1099.43C710.08 -826.517 486.305 -1149.18 413.168 -950.305Z" stroke="url(#paint9_linear_6925_2159)" stroke-width="2" stroke-miterlimit="10"/>
<path d="M798.69 13.5803C1325.05 1084.28 1986.07 -827.329 1289.67 -805.236C940.988 -794.17 1059.72 -1608.37 718.565 -1542.17C377.412 -1475.97 500.003 -1138.56 375.212 -759.68C219.382 -286.562 662.723 -263.099 798.69 13.5803Z" stroke="url(#paint10_linear_6925_2159)" stroke-width="2" stroke-miterlimit="10"/>
<path opacity="0.94" d="M783.807 25.0325C1315.73 1028.35 1978.92 -771.575 1304.18 -807.688C968.957 -825.648 1021.25 -1614.11 695.498 -1527.49C369.748 -1440.88 463.752 -1108.62 367.026 -742.028C244.706 -284.998 643.381 -239.924 783.807 25.0325Z" stroke="url(#paint11_linear_6925_2159)" stroke-width="2" stroke-miterlimit="10"/>
<path opacity="0.88" d="M768.868 36.4845C1305 972.349 1972.9 -715.243 1318.64 -810.16C997.506 -856.778 982.779 -1619.84 672.413 -1512.82C362.163 -1406.35 428.796 -1078.46 358.824 -724.319C271.731 -283.124 623.79 -216.75 768.868 36.4845Z" stroke="url(#paint12_linear_6925_2159)" stroke-width="2" stroke-miterlimit="10"/>
<path opacity="0.81" d="M753.915 47.9351C1292.82 916.344 1967.95 -657.966 1333.09 -812.633C1026.37 -887.35 944.296 -1625.66 649.315 -1498.2C354.526 -1371.48 393.151 -1048.56 350.608 -706.631C297.738 -281.581 603.896 -193.847 753.915 47.9351Z" stroke="url(#paint13_linear_6925_2159)" stroke-width="2" stroke-miterlimit="10"/>
<path opacity="0.75" d="M738.983 59.4063C1278.78 860.494 1963.79 -599.451 1347.55 -815.086C1055.62 -917.244 905.815 -1631.31 626.237 -1483.46C346.909 -1336.69 357.449 -1018.79 342.489 -688.942C323.843 -280.171 583.674 -171.098 738.983 59.4063Z" stroke="url(#paint14_linear_6925_2159)" stroke-width="2" stroke-miterlimit="10"/>
<path opacity="0.69" d="M724.057 70.8593C1262.94 804.994 1959.98 -539.39 1362.02 -817.479C1085.03 -946.385 867.378 -1637.05 603.184 -1468.79C339.299 -1301.82 321.714 -989.121 334.242 -671.212C349.684 -278.895 563.093 -148.444 724.057 70.8593Z" stroke="url(#paint15_linear_6925_2159)" stroke-width="2" stroke-miterlimit="10"/>
<path opacity="0.63" d="M709.108 82.3106C1245.06 749.993 1956.07 -477.903 1376.49 -820.009C1114.33 -974.754 828.9 -1642.78 580.09 -1454.11C331.57 -1267 285.803 -959.537 326.03 -653.562C375.425 -277.737 541.967 -125.85 709.108 82.3106Z" stroke="url(#paint16_linear_6925_2159)" stroke-width="2" stroke-miterlimit="10"/>
<path opacity="0.56" d="M694.173 93.7615C1224.99 695.804 1951.58 -414.947 1390.99 -822.463C1143.38 -1002.45 790.473 -1648.52 557.125 -1439.43C324.047 -1232.16 249.751 -930.01 317.831 -635.815C401.064 -276.618 520.469 -103.237 694.173 93.7615Z" stroke="url(#paint17_linear_6925_2159)" stroke-width="2" stroke-miterlimit="10"/>
<path opacity="0.5" d="M679.237 105.213C1202.82 642.619 1946.16 -350.775 1405.4 -824.935C1171.93 -1029.64 751.931 -1654.28 533.909 -1424.76C316.388 -1197.34 213.486 -900.502 309.594 -618.204C426.297 -275.556 498.353 -80.4691 679.237 105.213Z" stroke="url(#paint18_linear_6925_2159)" stroke-width="2" stroke-miterlimit="10"/>
<path opacity="0.44" d="M664.313 116.664C1178.44 590.94 1939.48 -285.753 1419.89 -827.388C1200.09 -1056.46 713.418 -1659.99 510.857 -1410.08C308.798 -1162.5 177.155 -870.936 301.425 -600.515C451.406 -274.417 475.63 -57.3921 664.313 116.664Z" stroke="url(#paint19_linear_6925_2159)" stroke-width="2" stroke-miterlimit="10"/>
<path opacity="0.38" d="M649.373 128.118C1151.93 540.945 1931.76 -220.188 1434.35 -829.858C1227.81 -1083.13 675.026 -1665.75 487.792 -1395.42C301.175 -1127.68 140.481 -841.271 293.222 -582.823C476.345 -273.14 452.236 -33.791 649.373 128.118Z" stroke="url(#paint20_linear_6925_2159)" stroke-width="2" stroke-miterlimit="10"/>
<path opacity="0.31" d="M634.415 139.588C1123.7 492.992 1922.67 -154.413 1448.79 -832.293C1254.86 -1109.72 636.539 -1671.48 464.746 -1380.73C293.533 -1092.85 103.789 -811.552 285.02 -565.154C500.996 -271.693 428.071 -9.42104 634.415 139.588Z" stroke="url(#paint21_linear_6925_2159)" stroke-width="2" stroke-miterlimit="10"/>
<path opacity="0.25" d="M619.489 151.043C1094.02 447.458 1912.55 -88.6926 1463.26 -834.723C1281.62 -1136.41 598.063 -1677.22 441.597 -1366.05C285.903 -1058.01 66.9154 -781.461 276.811 -547.442C525.66 -270.049 403.417 16.0733 619.489 151.043Z" stroke="url(#paint22_linear_6925_2159)" stroke-width="2" stroke-miterlimit="10"/>
<path opacity="0.19" d="M604.543 162.492C1063.65 404.584 1901.5 -23.1896 1477.71 -837.236C1308.02 -1163.22 559.588 -1682.95 418.525 -1351.37C278.272 -1023.19 30.0805 -751.299 268.621 -529.774C550.284 -268.178 378.086 43.0881 604.543 162.492Z" stroke="url(#paint23_linear_6925_2159)" stroke-width="2" stroke-miterlimit="10"/>
<path opacity="0.13" d="M589.605 173.945C1033.29 364.532 1889.73 42.0267 1492.19 -839.688C1334.14 -1190.2 521.119 -1688.69 395.46 -1336.69C270.669 -988.35 -6.70882 -720.979 260.342 -512.084C574.954 -266.15 352.376 72.0176 589.605 173.945Z" stroke="url(#paint24_linear_6925_2159)" stroke-width="2" stroke-miterlimit="10"/>
<path opacity="0.06" d="M574.679 185.399C1004.01 327.494 1877.41 106.839 1506.66 -842.158C1360.08 -1217.36 482.664 -1694.42 372.389 -1322.03C263.04 -953.548 -43.4653 -690.542 252.25 -494.412C599.695 -263.946 326.622 103.305 574.679 185.399Z" stroke="url(#paint25_linear_6925_2159)" stroke-width="2" stroke-miterlimit="10"/>
<path opacity="0.03" d="M1388.26 -247.189C2547.28 -384.881 1169.29 -1870.01 843.077 -1163.16C680.8 -811.689 -26.5995 -1207.25 -87.8272 -821.017C-149.055 -434.783 199.375 -392.49 496.924 -130.952C867.069 196.826 1081.68 -210.767 1388.26 -247.189Z" stroke="url(#paint26_linear_6925_2159)" stroke-width="2" stroke-miterlimit="10"/>
<path opacity="0.05" d="M1392.4 -226.253C2489.59 -397.219 1218.46 -1838.72 846.947 -1179.71C664.056 -855.274 -48.6907 -1168.51 -84.4004 -789.962C-120.477 -411.761 212.202 -341.93 509.693 -114.554C880.649 168.884 1094.19 -179.789 1392.4 -226.253Z" stroke="url(#paint27_linear_6925_2159)" stroke-width="2" stroke-miterlimit="10"/>
<path opacity="0.07" d="M1396.53 -205.321C2431.13 -407.766 1268.83 -1808.04 851.004 -1196.26C648.134 -899.133 -70.7119 -1129.77 -80.7685 -758.93C-91.4622 -388.628 224.52 -290.853 522.668 -98.1606C893.45 141.594 1106.36 -148.545 1396.53 -205.321Z" stroke="url(#paint28_linear_6925_2159)" stroke-width="2" stroke-miterlimit="10"/>
<path opacity="0.1" d="M1400.64 -184.385C2372.16 -416.28 1320.54 -1777.79 854.997 -1212.81C632.767 -943.104 -92.7574 -1091.03 -77.1995 -727.875C-62.5103 -365.452 236.602 -239.81 535.405 -81.7631C906.072 114.309 1118.21 -116.968 1400.64 -184.385Z" stroke="url(#paint29_linear_6925_2159)" stroke-width="2" stroke-miterlimit="10"/>
<path opacity="0.13" d="M1404.79 -163.456C2312.78 -422.503 1373.75 -1747.48 859.031 -1229.46C618.232 -987.081 -114.724 -1052.39 -73.5905 -696.942C-33.5764 -342.282 248.569 -188.754 548.221 -65.3717C918.464 87.0557 1129.77 -84.9924 1404.79 -163.456Z" stroke="url(#paint30_linear_6925_2159)" stroke-width="2" stroke-miterlimit="10"/>
<path opacity="0.15" d="M1408.89 -142.518C2253.17 -426.245 1428.39 -1716.67 863.019 -1245.91C604.365 -1030.55 -136.756 -1013.55 -70.0464 -665.788C-4.61078 -319.104 260.278 -137.574 561.05 -48.9719C930.655 59.9462 1141.11 -52.6024 1408.89 -142.518Z" stroke="url(#paint31_linear_6925_2159)" stroke-width="2" stroke-miterlimit="10"/>
<path opacity="0.18" d="M1413.01 -121.585C2193.61 -427.251 1484.32 -1684.91 867.003 -1262.46C591.131 -1073.67 -158.792 -974.719 -66.4875 -634.832C24.2344 -296.028 271.847 -86.38 573.855 -32.6549C942.63 33.0243 1152.29 -19.4842 1413.01 -121.585Z" stroke="url(#paint32_linear_6925_2159)" stroke-width="2" stroke-miterlimit="10"/>
<path opacity="0.2" d="M1417.13 -100.652C2134.43 -425.591 1541.24 -1651.86 871.021 -1279.01C578.375 -1116.22 -180.794 -936.057 -62.894 -603.703C53.2686 -272.758 283.316 -34.7414 586.675 -16.1635C954.485 6.35401 1163.51 14.2718 1417.13 -100.652Z" stroke="url(#paint33_linear_6925_2159)" stroke-width="2" stroke-miterlimit="10"/>
<path opacity="0.23" d="M1421.25 -79.6394C2075.88 -420.993 1598.83 -1617.26 874.99 -1295.49C565.802 -1158.02 -202.826 -897.239 -59.3693 -572.59C82.1955 -249.583 294.774 17.0349 599.484 0.233736C966.31 -20.0049 1174.76 48.8221 1421.25 -79.6394Z" stroke="url(#paint34_linear_6925_2159)" stroke-width="2" stroke-miterlimit="10"/>
<path opacity="0.25" d="M1425.39 -58.784C2018.48 -413.849 1656.48 -1581.24 879.011 -1312.11C553.338 -1199.39 -224.824 -858.578 -55.7727 -541.577C111.156 -226.41 306.285 69.0594 612.307 16.6281C978.206 -46.0576 1186.42 84.2771 1425.39 -58.784Z" stroke="url(#paint35_linear_6925_2159)" stroke-width="2" stroke-miterlimit="10"/>
<path opacity="0.28" d="M1429.48 -37.85C1962.62 -404.077 1714.02 -1543.7 882.991 -1328.66C540.738 -1240.1 -246.863 -819.839 -52.2166 -510.581C140.095 -203.236 317.91 121.201 625.109 33.0239C990.236 -71.9158 1198.7 120.738 1429.48 -37.85Z" stroke="url(#paint36_linear_6925_2159)" stroke-width="2" stroke-miterlimit="10"/>
<path opacity="0.3" d="M1433.63 -16.9174C1908.59 -392.491 1771.15 -1504.85 887.018 -1345.22C527.99 -1280.37 -268.857 -781.101 -48.6154 -479.529C169.059 -180.198 329.714 173.67 637.957 49.4376C1002.52 -97.5438 1211.96 158.298 1433.63 -16.9174Z" stroke="url(#paint37_linear_6925_2159)" stroke-width="2" stroke-miterlimit="10"/>
<path opacity="0.33" d="M1437.74 4.01869C1857.16 -379.145 1827.65 -1465.1 891.015 -1361.78C514.943 -1320.28 -290.88 -742.36 -45.0622 -448.493C197.995 -156.887 341.761 226.103 650.756 65.8161C1015.01 -123.11 1226.57 196.943 1437.74 4.01869Z" stroke="url(#paint38_linear_6925_2159)" stroke-width="2" stroke-miterlimit="10"/>
<path opacity="0.35" d="M1441.87 24.9524C1808.44 -365.125 1883.49 -1424.55 895.01 -1378.33C501.431 -1360.01 -312.905 -703.62 -41.4917 -417.459C226.929 -133.713 353.94 278.573 663.572 82.2116C1027.71 -148.679 1242.98 236.609 1441.87 24.9524Z" stroke="url(#paint39_linear_6925_2159)" stroke-width="2" stroke-miterlimit="10"/>
<path opacity="0.38" d="M1445.98 45.8844C1762.83 -351.261 1938.57 -1383.45 899.065 -1394.88C487.805 -1399.4 -334.869 -664.902 -37.8609 -386.428C255.885 -110.54 366.315 331.002 676.41 98.6246C1040.59 -174.269 1261.55 277.084 1445.98 45.8844Z" stroke="url(#paint40_linear_6925_2159)" stroke-width="2" stroke-miterlimit="10"/>
<path opacity="0.4" d="M1450.14 66.8195C1720.51 -338.591 1993 -1342.03 902.95 -1411.43C473.758 -1438.76 -356.907 -626.162 -34.3234 -355.373C284.844 -87.4812 378.751 383.396 689.232 115.002C1053.65 -199.972 1282.63 317.988 1450.14 66.8195Z" stroke="url(#paint41_linear_6925_2159)" stroke-width="2" stroke-miterlimit="10"/>
<defs>
<linearGradient id="paint0_linear_6925_2159" x1="910.742" y1="-1015.63" x2="910.742" y2="-15.5369" gradientUnits="userSpaceOnUse">
<stop offset="0.755208" stop-color="white"/>
<stop offset="1" stop-color="white" stop-opacity="0"/>
</linearGradient>
<linearGradient id="paint1_linear_6925_2159" x1="913.643" y1="-1029.71" x2="913.643" y2="-15.3591" gradientUnits="userSpaceOnUse">
<stop offset="0.755208" stop-color="white"/>
<stop offset="1" stop-color="white" stop-opacity="0"/>
</linearGradient>
<linearGradient id="paint2_linear_6925_2159" x1="916.544" y1="-1046.34" x2="916.544" y2="-15.1415" gradientUnits="userSpaceOnUse">
<stop offset="0.755208" stop-color="white"/>
<stop offset="1" stop-color="white" stop-opacity="0"/>
</linearGradient>
<linearGradient id="paint3_linear_6925_2159" x1="919.418" y1="-1064.4" x2="919.418" y2="-14.7817" gradientUnits="userSpaceOnUse">
<stop offset="0.755208" stop-color="white"/>
<stop offset="1" stop-color="white" stop-opacity="0"/>
</linearGradient>
<linearGradient id="paint4_linear_6925_2159" x1="922.157" y1="-1083.22" x2="922.157" y2="-14.1928" gradientUnits="userSpaceOnUse">
<stop offset="0.755208" stop-color="white"/>
<stop offset="1" stop-color="white" stop-opacity="0"/>
</linearGradient>
<linearGradient id="paint5_linear_6925_2159" x1="924.742" y1="-1102.64" x2="924.742" y2="-13.1623" gradientUnits="userSpaceOnUse">
<stop offset="0.755208" stop-color="white"/>
<stop offset="1" stop-color="white" stop-opacity="0"/>
</linearGradient>
<linearGradient id="paint6_linear_6925_2159" x1="927.125" y1="-1122.49" x2="927.125" y2="-11.4809" gradientUnits="userSpaceOnUse">
<stop offset="0.755208" stop-color="white"/>
<stop offset="1" stop-color="white" stop-opacity="0"/>
</linearGradient>
<linearGradient id="paint7_linear_6925_2159" x1="929.246" y1="-1142.54" x2="929.246" y2="-8.95574" gradientUnits="userSpaceOnUse">
<stop offset="0.755208" stop-color="white"/>
<stop offset="1" stop-color="white" stop-opacity="0"/>
</linearGradient>
<linearGradient id="paint8_linear_6925_2159" x1="931.053" y1="-1162.77" x2="931.052" y2="-5.37066" gradientUnits="userSpaceOnUse">
<stop offset="0.755208" stop-color="white"/>
<stop offset="1" stop-color="white" stop-opacity="0"/>
</linearGradient>
<linearGradient id="paint9_linear_6925_2159" x1="932.469" y1="-1183.24" x2="932.469" y2="-0.54009" gradientUnits="userSpaceOnUse">
<stop offset="0.755208" stop-color="white"/>
<stop offset="1" stop-color="white" stop-opacity="0"/>
</linearGradient>
<linearGradient id="paint10_linear_6925_2159" x1="966.441" y1="-1546" x2="966.441" y2="339.561" gradientUnits="userSpaceOnUse">
<stop offset="0.755208" stop-color="white"/>
<stop offset="1" stop-color="white" stop-opacity="0"/>
</linearGradient>
<linearGradient id="paint11_linear_6925_2159" x1="966.957" y1="-1534.14" x2="966.957" y2="328.857" gradientUnits="userSpaceOnUse">
<stop offset="0.755208" stop-color="white"/>
<stop offset="1" stop-color="white" stop-opacity="0"/>
</linearGradient>
<linearGradient id="paint12_linear_6925_2159" x1="967.482" y1="-1523.09" x2="967.481" y2="318.214" gradientUnits="userSpaceOnUse">
<stop offset="0.755208" stop-color="white"/>
<stop offset="1" stop-color="white" stop-opacity="0"/>
</linearGradient>
<linearGradient id="paint13_linear_6925_2159" x1="967.366" y1="-1512.95" x2="967.366" y2="307.706" gradientUnits="userSpaceOnUse">
<stop offset="0.755208" stop-color="white"/>
<stop offset="1" stop-color="white" stop-opacity="0"/>
</linearGradient>
<linearGradient id="paint14_linear_6925_2159" x1="966.214" y1="-1503.54" x2="966.214" y2="297.438" gradientUnits="userSpaceOnUse">
<stop offset="0.755208" stop-color="white"/>
<stop offset="1" stop-color="white" stop-opacity="0"/>
</linearGradient>
<linearGradient id="paint15_linear_6925_2159" x1="961.559" y1="-1495.04" x2="961.558" y2="287.5" gradientUnits="userSpaceOnUse">
<stop offset="0.755208" stop-color="white"/>
<stop offset="1" stop-color="white" stop-opacity="0"/>
</linearGradient>
<linearGradient id="paint16_linear_6925_2159" x1="952.889" y1="-1487.4" x2="952.889" y2="277.943" gradientUnits="userSpaceOnUse">
<stop offset="0.755208" stop-color="white"/>
<stop offset="1" stop-color="white" stop-opacity="0"/>
</linearGradient>
<linearGradient id="paint17_linear_6925_2159" x1="943.486" y1="-1480.61" x2="943.486" y2="268.893" gradientUnits="userSpaceOnUse">
<stop offset="0.755208" stop-color="white"/>
<stop offset="1" stop-color="white" stop-opacity="0"/>
</linearGradient>
<linearGradient id="paint18_linear_6925_2159" x1="933.618" y1="-1474.69" x2="933.618" y2="260.395" gradientUnits="userSpaceOnUse">
<stop offset="0.755208" stop-color="white"/>
<stop offset="1" stop-color="white" stop-opacity="0"/>
</linearGradient>
<linearGradient id="paint19_linear_6925_2159" x1="923.471" y1="-1469.6" x2="923.471" y2="252.603" gradientUnits="userSpaceOnUse">
<stop offset="0.755208" stop-color="white"/>
<stop offset="1" stop-color="white" stop-opacity="0"/>
</linearGradient>
<linearGradient id="paint20_linear_6925_2159" x1="913.078" y1="-1465.39" x2="913.078" y2="245.554" gradientUnits="userSpaceOnUse">
<stop offset="0.755208" stop-color="white"/>
<stop offset="1" stop-color="white" stop-opacity="0"/>
</linearGradient>
<linearGradient id="paint21_linear_6925_2159" x1="902.549" y1="-1462" x2="902.549" y2="239.357" gradientUnits="userSpaceOnUse">
<stop offset="0.755208" stop-color="white"/>
<stop offset="1" stop-color="white" stop-opacity="0"/>
</linearGradient>
<linearGradient id="paint22_linear_6925_2159" x1="892.007" y1="-1459.47" x2="892.007" y2="234.11" gradientUnits="userSpaceOnUse">
<stop offset="0.755208" stop-color="white"/>
<stop offset="1" stop-color="white" stop-opacity="0"/>
</linearGradient>
<linearGradient id="paint23_linear_6925_2159" x1="881.597" y1="-1457.8" x2="881.597" y2="229.889" gradientUnits="userSpaceOnUse">
<stop offset="0.755208" stop-color="white"/>
<stop offset="1" stop-color="white" stop-opacity="0"/>
</linearGradient>
<linearGradient id="paint24_linear_6925_2159" x1="871.423" y1="-1456.97" x2="871.423" y2="226.748" gradientUnits="userSpaceOnUse">
<stop offset="0.755208" stop-color="white"/>
<stop offset="1" stop-color="white" stop-opacity="0"/>
</linearGradient>
<linearGradient id="paint25_linear_6925_2159" x1="861.609" y1="-1456.98" x2="861.609" y2="224.739" gradientUnits="userSpaceOnUse">
<stop offset="0.755208" stop-color="white"/>
<stop offset="1" stop-color="white" stop-opacity="0"/>
</linearGradient>
<linearGradient id="paint26_linear_6925_2159" x1="874.603" y1="-1352.95" x2="874.603" y2="-4.27377" gradientUnits="userSpaceOnUse">
<stop offset="0.755208" stop-color="white"/>
<stop offset="1" stop-color="white" stop-opacity="0"/>
</linearGradient>
<linearGradient id="paint27_linear_6925_2159" x1="871.018" y1="-1351.14" x2="871.018" y2="-4.61349" gradientUnits="userSpaceOnUse">
<stop offset="0.755208" stop-color="white"/>
<stop offset="1" stop-color="white" stop-opacity="0"/>
</linearGradient>
<linearGradient id="paint28_linear_6925_2159" x1="866.546" y1="-1349.81" x2="866.546" y2="-4.62313" gradientUnits="userSpaceOnUse">
<stop offset="0.755208" stop-color="white"/>
<stop offset="1" stop-color="white" stop-opacity="0"/>
</linearGradient>
<linearGradient id="paint29_linear_6925_2159" x1="860.898" y1="-1348.94" x2="860.898" y2="-4.56917" gradientUnits="userSpaceOnUse">
<stop offset="0.755208" stop-color="white"/>
<stop offset="1" stop-color="white" stop-opacity="0"/>
</linearGradient>
<linearGradient id="paint30_linear_6925_2159" x1="854.685" y1="-1348.49" x2="854.685" y2="-4.42769" gradientUnits="userSpaceOnUse">
<stop offset="0.755208" stop-color="white"/>
<stop offset="1" stop-color="white" stop-opacity="0"/>
</linearGradient>
<linearGradient id="paint31_linear_6925_2159" x1="848.039" y1="-1348.23" x2="848.039" y2="-4.13094" gradientUnits="userSpaceOnUse">
<stop offset="0.755208" stop-color="white"/>
<stop offset="1" stop-color="white" stop-opacity="0"/>
</linearGradient>
<linearGradient id="paint32_linear_6925_2159" x1="841.155" y1="-1348.33" x2="841.155" y2="-3.59542" gradientUnits="userSpaceOnUse">
<stop offset="0.755208" stop-color="white"/>
<stop offset="1" stop-color="white" stop-opacity="0"/>
</linearGradient>
<linearGradient id="paint33_linear_6925_2159" x1="834.185" y1="-1348.84" x2="834.185" y2="-2.51302" gradientUnits="userSpaceOnUse">
<stop offset="0.755208" stop-color="white"/>
<stop offset="1" stop-color="white" stop-opacity="0"/>
</linearGradient>
<linearGradient id="paint34_linear_6925_2159" x1="827.202" y1="-1349.89" x2="827.202" y2="0.99162" gradientUnits="userSpaceOnUse">
<stop offset="0.755208" stop-color="white"/>
<stop offset="1" stop-color="white" stop-opacity="0"/>
</linearGradient>
<linearGradient id="paint35_linear_6925_2159" x1="820.425" y1="-1352.02" x2="820.425" y2="22.703" gradientUnits="userSpaceOnUse">
<stop offset="0.755208" stop-color="white"/>
<stop offset="1" stop-color="white" stop-opacity="0"/>
</linearGradient>
<linearGradient id="paint36_linear_6925_2159" x1="813.969" y1="-1355.44" x2="813.969" y2="47.7305" gradientUnits="userSpaceOnUse">
<stop offset="0.755208" stop-color="white"/>
<stop offset="1" stop-color="white" stop-opacity="0"/>
</linearGradient>
<linearGradient id="paint37_linear_6925_2159" x1="808.023" y1="-1360.78" x2="808.023" y2="74.9656" gradientUnits="userSpaceOnUse">
<stop offset="0.755208" stop-color="white"/>
<stop offset="1" stop-color="white" stop-opacity="0"/>
</linearGradient>
<linearGradient id="paint38_linear_6925_2159" x1="802.782" y1="-1368.68" x2="802.782" y2="103.642" gradientUnits="userSpaceOnUse">
<stop offset="0.755208" stop-color="white"/>
<stop offset="1" stop-color="white" stop-opacity="0"/>
</linearGradient>
<linearGradient id="paint39_linear_6925_2159" x1="798.377" y1="-1379.8" x2="798.377" y2="133.387" gradientUnits="userSpaceOnUse">
<stop offset="0.755208" stop-color="white"/>
<stop offset="1" stop-color="white" stop-opacity="0"/>
</linearGradient>
<linearGradient id="paint40_linear_6925_2159" x1="794.967" y1="-1394.91" x2="794.967" y2="163.917" gradientUnits="userSpaceOnUse">
<stop offset="0.755208" stop-color="white"/>
<stop offset="1" stop-color="white" stop-opacity="0"/>
</linearGradient>
<linearGradient id="paint41_linear_6925_2159" x1="792.547" y1="-1412.11" x2="792.547" y2="195.011" gradientUnits="userSpaceOnUse">
<stop offset="0.755208" stop-color="white"/>
<stop offset="1" stop-color="white" stop-opacity="0"/>
</linearGradient>
</defs>
</svg>
