<svg width="556" height="556" viewBox="0 0 556 556" fill="none" xmlns="http://www.w3.org/2000/svg">
<path opacity="0.5" d="M517 278C517 409.996 409.996 517 278 517C146.004 517 39 409.996 39 278C39 146.004 146.004 39 278 39C409.996 39 517 146.004 517 278ZM79.63 278C79.63 387.557 168.443 476.37 278 476.37C387.557 476.37 476.37 387.557 476.37 278C476.37 168.443 387.557 79.63 278 79.63C168.443 79.63 79.63 168.443 79.63 278Z" fill="#5DC23A"/>
<path opacity="0.15" d="M556 278C556 431.535 431.535 556 278 556C124.465 556 0 431.535 0 278C0 124.465 124.465 0 278 0C431.535 0 556 124.465 556 278ZM22.2574 278C22.2574 419.243 136.757 533.743 278 533.743C419.243 533.743 533.743 419.243 533.743 278C533.743 136.757 419.243 22.2574 278 22.2574C136.757 22.2574 22.2574 136.757 22.2574 278Z" fill="#5DC23A"/>
<circle cx="278" cy="278" r="183" fill="#5DC23A"/>
</svg>
