<svg width="350" height="560" viewBox="0 0 350 560" fill="none" xmlns="http://www.w3.org/2000/svg">
<path opacity="0.04" d="M43.8136 39.0111C-891.258 -305.852 521.839 -1342.26 663.237 -659.085C733.433 -319.181 1391.94 -529.476 1372.31 -178.746C1352.68 171.983 1055.8 141.692 761.379 313.497C394.745 529.438 291.426 130.351 43.8136 39.0111Z" stroke="url(#paint0_linear_13273_2627)" stroke-width="2" stroke-miterlimit="10"/>
<path opacity="0.07" d="M36.5829 56.5888C-840.781 -305.334 475.425 -1324.11 662.827 -674.4C755.227 -354.158 1403.23 -491.229 1363.63 -152.184C1324.38 186.566 1035.89 183.547 747.793 325.404C388.446 502.34 275.583 155.17 36.5829 56.5888Z" stroke="url(#paint1_linear_13273_2627)" stroke-width="2" stroke-miterlimit="10"/>
<path opacity="0.11" d="M29.3507 74.1424C-789.889 -303 428.199 -1306.71 662.538 -689.691C776.579 -389.455 1414.4 -452.983 1355 -125.647C1296.12 201.321 1016.41 225.966 734.255 337.312C382.882 475.93 259.935 180.186 29.3507 74.1424Z" stroke="url(#paint2_linear_13273_2627)" stroke-width="2" stroke-miterlimit="10"/>
<path opacity="0.15" d="M22.0983 91.8163C-739.042 -298.483 379.973 -1289.77 662.254 -704.885C797.395 -424.95 1425.58 -414.714 1346.35 -99.1113C1267.99 216.049 996.918 268.408 720.55 349.217C377.397 449.542 244.513 205.789 22.0983 91.8163Z" stroke="url(#paint3_linear_13273_2627)" stroke-width="2" stroke-miterlimit="10"/>
<path opacity="0.19" d="M14.8666 109.296C-688.32 -292.295 330.565 -1273.32 661.966 -720.274C817.594 -460.492 1436.75 -376.467 1337.75 -72.6473C1239.83 230.78 977.835 310.877 706.939 361.125C372.128 423.205 229.233 231.737 14.8666 109.296Z" stroke="url(#paint4_linear_13273_2627)" stroke-width="2" stroke-miterlimit="10"/>
<path opacity="0.23" d="M7.6264 126.848C-638 -283.752 279.872 -1256.75 661.669 -735.566C837.147 -496.035 1447.93 -338.197 1329.03 -46.0129C1211.53 245.484 958.794 353.492 693.32 373.031C367.022 397.063 214.068 258.126 7.6264 126.848Z" stroke="url(#paint5_linear_13273_2627)" stroke-width="2" stroke-miterlimit="10"/>
<path opacity="0.26" d="M0.378828 144.421C-588.277 -272.709 227.896 -1239.69 661.365 -750.862C856.054 -531.313 1459.09 -299.956 1320.46 -19.3579C1183.38 260.209 939.842 396.2 679.693 384.933C362.056 371.113 198.846 285.076 0.378828 144.421Z" stroke="url(#paint6_linear_13273_2627)" stroke-width="2" stroke-miterlimit="10"/>
<path opacity="0.3" d="M-6.85821 162.001C-539.499 -259.424 174.704 -1221.82 661.071 -766.151C874.53 -566.19 1470.28 -261.707 1311.83 7.08376C1155.07 274.942 920.976 439.261 666.052 396.843C357.15 345.441 183.513 312.745 -6.85821 162.001Z" stroke="url(#paint7_linear_13273_2627)" stroke-width="2" stroke-miterlimit="10"/>
<path opacity="0.34" d="M-14.1031 179.572C-491.932 -243.94 120.842 -1202.82 660.77 -781.449C892.508 -600.61 1481.43 -223.443 1303.21 33.5161C1126.97 289.641 902.076 482.483 652.477 408.744C352.236 320.104 167.877 340.846 -14.1031 179.572Z" stroke="url(#paint8_linear_13273_2627)" stroke-width="2" stroke-miterlimit="10"/>
<path opacity="0.38" d="M-21.3185 197.12C-445.783 -226.441 66.2977 -1182.55 660.474 -796.793C910.319 -634.537 1492.52 -185.202 1294.57 60.1715C1098.63 304.366 883.035 525.929 638.809 420.744C347.131 294.916 151.681 369.784 -21.3185 197.12Z" stroke="url(#paint9_linear_13273_2627)" stroke-width="2" stroke-miterlimit="10"/>
<path opacity="0.41" d="M-28.6645 214.696C-401.604 -207.245 11.5737 -1161 660.194 -812.062C928.22 -667.921 1503.77 -146.957 1285.95 86.7069C1070.43 319.095 863.937 569.524 625.206 432.551C341.821 269.951 134.742 399.437 -28.6645 214.696Z" stroke="url(#paint10_linear_13273_2627)" stroke-width="2" stroke-miterlimit="10"/>
<path opacity="0.45" d="M-35.8376 232.274C-359.51 -186.771 -43.0756 -1138.19 659.891 -827.353C945.974 -700.837 1514.95 -108.711 1277.3 113.245C1042.18 333.825 844.471 613.196 611.703 444.459C336.366 245.063 116.724 429.804 -35.8376 232.274Z" stroke="url(#paint11_linear_13273_2627)" stroke-width="2" stroke-miterlimit="10"/>
<path opacity="0.49" d="M-43.0718 249.853C-319.685 -165.632 -97.3689 -1114.38 659.6 -842.642C964.012 -733.358 1526.12 -70.4629 1268.69 139.808C1013.97 348.458 824.92 656.893 597.967 456.466C330.653 220.2 97.3447 460.762 -43.0718 249.853Z" stroke="url(#paint12_linear_13273_2627)" stroke-width="2" stroke-miterlimit="10"/>
<path opacity="0.53" d="M-50.3069 267.406C-282.29 -144.495 -151.344 -1089.68 659.308 -857.933C982.195 -765.587 1537.31 -32.1922 1260.06 166.345C985.753 363.262 805.196 700.54 584.352 468.275C324.644 195.286 76.2717 492.208 -50.3069 267.406Z" stroke="url(#paint13_linear_13273_2627)" stroke-width="2" stroke-miterlimit="10"/>
<path opacity="0.56" d="M-57.5349 284.979C-247.366 -124.197 -204.625 -1064.35 659.024 -873.228C1000.8 -797.599 1548.48 6.05005 1251.43 192.878C957.523 377.988 785.259 744.109 570.745 480.08C318.741 170.369 53.2674 523.847 -57.5349 284.979Z" stroke="url(#paint14_linear_13273_2627)" stroke-width="2" stroke-miterlimit="10"/>
<path opacity="0.6" d="M-64.802 302.554C-214.861 -105.469 -257.43 -1038.58 658.725 -888.522C1019.54 -829.412 1559.64 44.2689 1242.67 219.437C929.179 392.715 765.307 787.654 556.976 492.107C312.603 145.207 28.1629 555.34 -64.802 302.554Z" stroke="url(#paint15_linear_13273_2627)" stroke-width="2" stroke-miterlimit="10"/>
<defs>
<linearGradient id="paint0_linear_13273_2627" x1="549.444" y1="376.723" x2="549.444" y2="-887.164" gradientUnits="userSpaceOnUse">
<stop offset="0.755208" stop-color="white"/>
<stop offset="1" stop-color="white" stop-opacity="0"/>
</linearGradient>
<linearGradient id="paint1_linear_13273_2627" x1="551.62" y1="374.861" x2="551.62" y2="-886.223" gradientUnits="userSpaceOnUse">
<stop offset="0.755208" stop-color="white"/>
<stop offset="1" stop-color="white" stop-opacity="0"/>
</linearGradient>
<linearGradient id="paint2_linear_13273_2627" x1="554.274" y1="373.6" x2="554.274" y2="-885.629" gradientUnits="userSpaceOnUse">
<stop offset="0.755208" stop-color="white"/>
<stop offset="1" stop-color="white" stop-opacity="0"/>
</linearGradient>
<linearGradient id="paint3_linear_13273_2627" x1="557.252" y1="372.904" x2="557.252" y2="-885.239" gradientUnits="userSpaceOnUse">
<stop offset="0.755208" stop-color="white"/>
<stop offset="1" stop-color="white" stop-opacity="0"/>
</linearGradient>
<linearGradient id="paint4_linear_13273_2627" x1="560.543" y1="373.199" x2="560.543" y2="-885.312" gradientUnits="userSpaceOnUse">
<stop offset="0.755208" stop-color="white"/>
<stop offset="1" stop-color="white" stop-opacity="0"/>
</linearGradient>
<linearGradient id="paint5_linear_13273_2627" x1="564.002" y1="375.762" x2="564.002" y2="-885.451" gradientUnits="userSpaceOnUse">
<stop offset="0.755208" stop-color="white"/>
<stop offset="1" stop-color="white" stop-opacity="0"/>
</linearGradient>
<linearGradient id="paint6_linear_13273_2627" x1="567.656" y1="385.58" x2="567.656" y2="-885.633" gradientUnits="userSpaceOnUse">
<stop offset="0.755208" stop-color="white"/>
<stop offset="1" stop-color="white" stop-opacity="0"/>
</linearGradient>
<linearGradient id="paint7_linear_13273_2627" x1="571.349" y1="403.486" x2="571.349" y2="-885.854" gradientUnits="userSpaceOnUse">
<stop offset="0.755208" stop-color="white"/>
<stop offset="1" stop-color="white" stop-opacity="0"/>
</linearGradient>
<linearGradient id="paint8_linear_13273_2627" x1="575.053" y1="424.627" x2="575.053" y2="-886.133" gradientUnits="userSpaceOnUse">
<stop offset="0.755208" stop-color="white"/>
<stop offset="1" stop-color="white" stop-opacity="0"/>
</linearGradient>
<linearGradient id="paint9_linear_13273_2627" x1="578.69" y1="447.576" x2="578.69" y2="-886.593" gradientUnits="userSpaceOnUse">
<stop offset="0.755208" stop-color="white"/>
<stop offset="1" stop-color="white" stop-opacity="0"/>
</linearGradient>
<linearGradient id="paint10_linear_13273_2627" x1="582.171" y1="471.498" x2="582.171" y2="-887.344" gradientUnits="userSpaceOnUse">
<stop offset="0.755208" stop-color="white"/>
<stop offset="1" stop-color="white" stop-opacity="0"/>
</linearGradient>
<linearGradient id="paint11_linear_13273_2627" x1="585.463" y1="496.191" x2="585.463" y2="-888.65" gradientUnits="userSpaceOnUse">
<stop offset="0.755208" stop-color="white"/>
<stop offset="1" stop-color="white" stop-opacity="0"/>
</linearGradient>
<linearGradient id="paint12_linear_13273_2627" x1="588.498" y1="521.414" x2="588.498" y2="-890.785" gradientUnits="userSpaceOnUse">
<stop offset="0.755208" stop-color="white"/>
<stop offset="1" stop-color="white" stop-opacity="0"/>
</linearGradient>
<linearGradient id="paint13_linear_13273_2627" x1="591.183" y1="546.902" x2="591.183" y2="-893.996" gradientUnits="userSpaceOnUse">
<stop offset="0.755208" stop-color="white"/>
<stop offset="1" stop-color="white" stop-opacity="0"/>
</linearGradient>
<linearGradient id="paint14_linear_13273_2627" x1="593.493" y1="572.623" x2="593.493" y2="-898.554" gradientUnits="userSpaceOnUse">
<stop offset="0.755208" stop-color="white"/>
<stop offset="1" stop-color="white" stop-opacity="0"/>
</linearGradient>
<linearGradient id="paint15_linear_13273_2627" x1="595.282" y1="598.641" x2="595.282" y2="-904.694" gradientUnits="userSpaceOnUse">
<stop offset="0.755208" stop-color="white"/>
<stop offset="1" stop-color="white" stop-opacity="0"/>
</linearGradient>
</defs>
</svg>
