<svg width="1401" height="560" viewBox="0 0 1401 560" fill="none" xmlns="http://www.w3.org/2000/svg">
<path opacity="0.04" d="M43.8136 39.0111C-891.258 -305.852 521.839 -1342.26 663.237 -659.085C733.433 -319.181 1391.94 -529.476 1372.31 -178.746C1352.68 171.983 1055.8 141.692 761.379 313.497C394.745 529.438 291.426 130.351 43.8136 39.0111Z" stroke="url(#paint0_linear_13273_2458)" stroke-width="2" stroke-miterlimit="10"/>
<path opacity="0.07" d="M36.5829 56.5888C-840.781 -305.334 475.425 -1324.11 662.827 -674.4C755.227 -354.158 1403.23 -491.229 1363.63 -152.184C1324.38 186.566 1035.89 183.547 747.793 325.404C388.446 502.34 275.583 155.17 36.5829 56.5888Z" stroke="url(#paint1_linear_13273_2458)" stroke-width="2" stroke-miterlimit="10"/>
<path opacity="0.11" d="M29.3507 74.1424C-789.889 -303 428.199 -1306.71 662.538 -689.691C776.579 -389.455 1414.4 -452.983 1355 -125.647C1296.12 201.321 1016.41 225.966 734.255 337.312C382.882 475.93 259.935 180.186 29.3507 74.1424Z" stroke="url(#paint2_linear_13273_2458)" stroke-width="2" stroke-miterlimit="10"/>
<path opacity="0.15" d="M22.0983 91.8163C-739.042 -298.483 379.973 -1289.77 662.254 -704.885C797.395 -424.95 1425.58 -414.714 1346.35 -99.1113C1267.99 216.049 996.918 268.408 720.55 349.217C377.397 449.542 244.513 205.789 22.0983 91.8163Z" stroke="url(#paint3_linear_13273_2458)" stroke-width="2" stroke-miterlimit="10"/>
<path opacity="0.19" d="M14.8666 109.296C-688.32 -292.295 330.565 -1273.32 661.966 -720.274C817.594 -460.492 1436.75 -376.467 1337.75 -72.6473C1239.83 230.78 977.835 310.877 706.939 361.125C372.128 423.205 229.233 231.737 14.8666 109.296Z" stroke="url(#paint4_linear_13273_2458)" stroke-width="2" stroke-miterlimit="10"/>
<path opacity="0.23" d="M7.6264 126.848C-638 -283.752 279.872 -1256.75 661.669 -735.566C837.147 -496.035 1447.93 -338.197 1329.03 -46.0129C1211.53 245.484 958.794 353.492 693.32 373.031C367.022 397.063 214.068 258.126 7.6264 126.848Z" stroke="url(#paint5_linear_13273_2458)" stroke-width="2" stroke-miterlimit="10"/>
<path opacity="0.26" d="M0.378828 144.421C-588.277 -272.709 227.896 -1239.69 661.365 -750.862C856.054 -531.313 1459.09 -299.956 1320.46 -19.3579C1183.38 260.209 939.842 396.2 679.693 384.933C362.056 371.113 198.846 285.076 0.378828 144.421Z" stroke="url(#paint6_linear_13273_2458)" stroke-width="2" stroke-miterlimit="10"/>
<path opacity="0.3" d="M-6.85821 162.001C-539.499 -259.424 174.704 -1221.82 661.071 -766.151C874.53 -566.19 1470.28 -261.707 1311.83 7.08376C1155.07 274.942 920.976 439.261 666.052 396.843C357.15 345.441 183.513 312.745 -6.85821 162.001Z" stroke="url(#paint7_linear_13273_2458)" stroke-width="2" stroke-miterlimit="10"/>
<path opacity="0.34" d="M-14.1031 179.572C-491.932 -243.94 120.842 -1202.82 660.77 -781.449C892.508 -600.61 1481.43 -223.443 1303.21 33.5161C1126.97 289.641 902.076 482.483 652.477 408.744C352.236 320.104 167.877 340.846 -14.1031 179.572Z" stroke="url(#paint8_linear_13273_2458)" stroke-width="2" stroke-miterlimit="10"/>
<path opacity="0.38" d="M-21.3185 197.12C-445.783 -226.441 66.2977 -1182.55 660.474 -796.793C910.319 -634.537 1492.52 -185.202 1294.57 60.1715C1098.63 304.366 883.035 525.929 638.809 420.744C347.131 294.916 151.681 369.784 -21.3185 197.12Z" stroke="url(#paint9_linear_13273_2458)" stroke-width="2" stroke-miterlimit="10"/>
<path opacity="0.41" d="M-28.6645 214.696C-401.604 -207.245 11.5737 -1161 660.194 -812.062C928.22 -667.921 1503.77 -146.957 1285.95 86.7069C1070.43 319.095 863.937 569.524 625.206 432.551C341.821 269.951 134.742 399.437 -28.6645 214.696Z" stroke="url(#paint10_linear_13273_2458)" stroke-width="2" stroke-miterlimit="10"/>
<path opacity="0.45" d="M-35.8376 232.274C-359.51 -186.771 -43.0756 -1138.19 659.891 -827.353C945.974 -700.837 1514.95 -108.711 1277.3 113.245C1042.18 333.825 844.471 613.196 611.703 444.459C336.366 245.063 116.724 429.804 -35.8376 232.274Z" stroke="url(#paint11_linear_13273_2458)" stroke-width="2" stroke-miterlimit="10"/>
<path opacity="0.49" d="M-43.0718 249.853C-319.685 -165.632 -97.3689 -1114.38 659.6 -842.642C964.012 -733.358 1526.12 -70.4629 1268.69 139.808C1013.97 348.458 824.92 656.893 597.967 456.466C330.653 220.2 97.3447 460.762 -43.0718 249.853Z" stroke="url(#paint12_linear_13273_2458)" stroke-width="2" stroke-miterlimit="10"/>
<path opacity="0.53" d="M-50.3069 267.406C-282.29 -144.495 -151.344 -1089.68 659.308 -857.933C982.195 -765.587 1537.31 -32.1922 1260.06 166.345C985.753 363.262 805.196 700.54 584.352 468.275C324.644 195.286 76.2717 492.208 -50.3069 267.406Z" stroke="url(#paint13_linear_13273_2458)" stroke-width="2" stroke-miterlimit="10"/>
<path opacity="0.56" d="M-57.5349 284.979C-247.366 -124.197 -204.625 -1064.35 659.024 -873.228C1000.8 -797.599 1548.48 6.05005 1251.43 192.878C957.523 377.988 785.259 744.109 570.745 480.08C318.741 170.369 53.2674 523.847 -57.5349 284.979Z" stroke="url(#paint14_linear_13273_2458)" stroke-width="2" stroke-miterlimit="10"/>
<path opacity="0.6" d="M-64.802 302.554C-214.861 -105.469 -257.43 -1038.58 658.725 -888.522C1019.54 -829.412 1559.64 44.2689 1242.67 219.437C929.179 392.715 765.307 787.654 556.976 492.107C312.603 145.207 28.1629 555.34 -64.802 302.554Z" stroke="url(#paint15_linear_13273_2458)" stroke-width="2" stroke-miterlimit="10"/>
<path d="M425.228 -922.646C1094.29 -2283.61 1934.5 146.234 1049.31 118.152C606.104 104.087 757.022 1139.02 323.381 1054.87C-110.259 970.723 45.5661 541.836 -113.056 60.2456C-311.131 -541.135 252.4 -570.959 425.228 -922.646Z" stroke="url(#paint16_linear_13273_2458)" stroke-width="2" stroke-miterlimit="10"/>
<path opacity="0.94" d="M406.3 -937.201C1082.42 -2212.52 1925.41 75.3679 1067.75 121.271C641.645 144.1 708.111 1146.31 294.05 1036.22C-120.011 926.122 -0.522655 503.789 -123.47 37.8108C-278.951 -543.122 227.804 -600.415 406.3 -937.201Z" stroke="url(#paint17_linear_13273_2458)" stroke-width="2" stroke-miterlimit="10"/>
<path opacity="0.88" d="M387.319 -951.759C1068.79 -2141.34 1917.77 3.76235 1086.14 124.412C677.941 183.668 659.221 1153.6 264.715 1017.56C-129.644 882.231 -44.9476 465.445 -133.889 15.2995C-244.593 -545.504 202.91 -629.873 387.319 -951.759Z" stroke="url(#paint18_linear_13273_2458)" stroke-width="2" stroke-miterlimit="10"/>
<path opacity="0.81" d="M368.31 -966.317C1053.32 -2070.15 1911.47 -69.0456 1104.5 127.552C714.628 222.525 610.303 1160.99 235.352 998.976C-139.354 837.897 -90.2583 427.445 -144.335 -7.18683C-211.537 -547.469 177.62 -658.987 368.31 -966.317Z" stroke="url(#paint19_linear_13273_2458)" stroke-width="2" stroke-miterlimit="10"/>
<path opacity="0.75" d="M349.326 -980.897C1035.46 -1999.16 1906.18 -143.423 1122.88 130.67C751.806 260.525 561.386 1168.18 206.015 980.247C-149.038 793.689 -135.642 389.594 -154.657 -29.6713C-178.358 -549.26 151.914 -687.903 349.326 -980.897Z" stroke="url(#paint20_linear_13273_2458)" stroke-width="2" stroke-miterlimit="10"/>
<path opacity="0.69" d="M330.356 -995.452C1015.34 -1928.61 1901.34 -219.763 1141.28 133.716C789.195 297.568 512.533 1175.47 176.715 961.592C-158.709 749.358 -181.061 351.891 -165.138 -52.2044C-145.509 -550.879 125.755 -716.695 330.356 -995.452Z" stroke="url(#paint21_linear_13273_2458)" stroke-width="2" stroke-miterlimit="10"/>
<path opacity="0.63" d="M311.347 -1010.01C992.599 -1858.7 1896.36 -297.924 1159.66 136.929C826.42 333.625 463.614 1182.76 147.352 942.934C-168.542 705.097 -226.716 314.282 -175.584 -74.6428C-112.798 -552.355 98.8943 -745.418 311.347 -1010.01Z" stroke="url(#paint22_linear_13273_2458)" stroke-width="2" stroke-miterlimit="10"/>
<path opacity="0.56" d="M292.369 -1024.56C967.095 -1789.82 1890.66 -377.944 1178.1 140.05C863.359 368.829 414.777 1190.05 118.167 924.282C-178.099 660.817 -272.536 276.753 -185.999 -97.1982C-80.2019 -553.775 71.5746 -774.159 292.369 -1024.56Z" stroke="url(#paint23_linear_13273_2458)" stroke-width="2" stroke-miterlimit="10"/>
<path opacity="0.5" d="M273.384 -1039.12C938.909 -1722.22 1883.77 -459.514 1196.41 143.192C899.652 403.392 365.785 1197.37 88.6565 905.626C-187.834 616.559 -318.633 239.245 -196.471 -119.585C-48.1289 -555.125 43.462 -803.1 273.384 -1039.12Z" stroke="url(#paint24_linear_13273_2458)" stroke-width="2" stroke-miterlimit="10"/>
<path opacity="0.44" d="M254.413 -1053.68C907.916 -1656.53 1875.28 -542.168 1214.83 146.305C935.445 437.483 316.831 1204.63 59.3557 886.966C-197.482 572.271 -364.814 201.659 -206.854 -142.075C-16.2136 -556.578 14.5785 -832.438 254.413 -1053.68Z" stroke="url(#paint25_linear_13273_2458)" stroke-width="2" stroke-miterlimit="10"/>
<path opacity="0.38" d="M235.416 -1068.23C874.222 -1592.98 1865.46 -625.501 1233.2 149.452C970.671 471.388 268.024 1211.95 30.0296 868.339C-207.179 528.018 -411.437 163.959 -217.288 -164.555C15.4801 -558.193 -15.1647 -862.43 235.416 -1068.23Z" stroke="url(#paint26_linear_13273_2458)" stroke-width="2" stroke-miterlimit="10"/>
<path opacity="0.31" d="M216.427 -1082.82C838.352 -1532.03 1853.92 -709.113 1251.58 152.541C1005.07 505.185 219.126 1219.24 0.759801 849.655C-216.87 483.731 -458.054 126.177 -227.69 -187.02C46.8375 -560.038 -45.8576 -893.412 216.427 -1082.82Z" stroke="url(#paint27_linear_13273_2458)" stroke-width="2" stroke-miterlimit="10"/>
<path opacity="0.25" d="M197.431 -1097.37C800.611 -1474.15 1841.04 -792.644 1269.95 155.636C1039.07 539.112 170.196 1226.53 -28.6882 831.002C-226.591 439.45 -504.947 87.9354 -238.148 -209.527C78.1639 -562.122 -77.2194 -925.812 197.431 -1097.37Z" stroke="url(#paint28_linear_13273_2458)" stroke-width="2" stroke-miterlimit="10"/>
<path opacity="0.19" d="M178.445 -1111.93C762.022 -1419.65 1827.01 -875.908 1288.33 158.827C1072.64 573.182 121.302 1233.82 -58.0034 812.345C-236.278 395.191 -551.755 49.5922 -248.546 -231.988C109.476 -564.503 -109.405 -960.154 178.445 -1111.93Z" stroke="url(#paint29_linear_13273_2458)" stroke-width="2" stroke-miterlimit="10"/>
<path opacity="0.13" d="M159.451 -1126.49C723.424 -1368.74 1812.04 -958.807 1306.73 161.941C1105.83 607.472 72.3994 1241.11 -87.3266 793.686C-245.949 350.905 -598.524 11.0501 -259.075 -254.476C140.829 -567.084 -142.09 -996.929 159.451 -1126.49Z" stroke="url(#paint30_linear_13273_2458)" stroke-width="2" stroke-miterlimit="10"/>
<path opacity="0.06" d="M140.484 -1141.04C686.202 -1321.66 1796.38 -1041.18 1325.13 165.086C1138.81 642.012 23.5229 1248.4 -116.648 775.058C-255.642 306.674 -645.241 -27.6337 -269.357 -276.934C172.282 -569.88 -174.822 -1036.69 140.484 -1141.04Z" stroke="url(#paint31_linear_13273_2458)" stroke-width="2" stroke-miterlimit="10"/>
<path opacity="0.03" d="M1174.63 -591.19C2647.86 -416.169 896.3 1471.58 481.65 573.105C275.38 126.347 -623.796 629.146 -701.623 138.204C-779.449 -352.739 -336.559 -406.497 41.6553 -738.939C512.148 -1155.58 784.933 -637.486 1174.63 -591.19Z" stroke="url(#paint32_linear_13273_2458)" stroke-width="2" stroke-miterlimit="10"/>
<path opacity="0.05" d="M1179.89 -617.798C2574.54 -400.483 958.801 1431.81 486.566 594.143C254.092 181.751 -651.88 579.905 -697.271 98.7324C-743.128 -381.999 -320.259 -470.761 57.8822 -759.779C529.405 -1120.06 800.841 -676.859 1179.89 -617.798Z" stroke="url(#paint33_linear_13273_2458)" stroke-width="2" stroke-miterlimit="10"/>
<path opacity="0.07" d="M1185.15 -644.404C2500.23 -387.076 1022.82 1392.81 491.729 615.183C233.861 237.501 -679.866 530.667 -692.649 59.2886C-706.241 -411.403 -304.595 -535.685 74.3799 -780.616C545.682 -1085.37 816.309 -716.573 1185.15 -644.404Z" stroke="url(#paint34_linear_13273_2458)" stroke-width="2" stroke-miterlimit="10"/>
<path opacity="0.1" d="M1190.38 -671.015C2425.27 -376.253 1088.56 1354.37 496.808 636.218C214.331 293.393 -707.884 481.424 -688.108 19.8155C-669.437 -440.861 -289.235 -600.564 90.5742 -801.458C561.729 -1050.69 831.374 -756.709 1190.38 -671.015Z" stroke="url(#paint35_linear_13273_2458)" stroke-width="2" stroke-miterlimit="10"/>
<path opacity="0.13" d="M1195.65 -697.621C2349.8 -368.346 1156.19 1315.83 501.93 657.381C195.849 349.289 -735.812 432.308 -683.527 -19.5067C-632.665 -470.315 -274.03 -665.465 106.859 -822.296C577.474 -1016.05 846.064 -797.356 1195.65 -697.621Z" stroke="url(#paint36_linear_13273_2458)" stroke-width="2" stroke-miterlimit="10"/>
<path opacity="0.15" d="M1200.86 -724.234C2274.01 -363.587 1225.64 1276.68 506.993 678.291C178.218 404.542 -763.822 382.94 -679.027 -59.1046C-595.852 -499.775 -259.152 -730.518 123.16 -843.14C592.966 -981.586 860.476 -838.525 1200.86 -724.234Z" stroke="url(#paint37_linear_13273_2458)" stroke-width="2" stroke-miterlimit="10"/>
<path opacity="0.18" d="M1206.1 -750.841C2198.32 -362.309 1296.74 1236.3 512.069 699.33C161.408 459.357 -791.82 333.577 -674.491 -98.4521C-559.175 -529.107 -244.433 -795.591 139.449 -863.881C608.199 -947.366 874.704 -880.622 1206.1 -750.841Z" stroke="url(#paint38_linear_13273_2458)" stroke-width="2" stroke-miterlimit="10"/>
<path opacity="0.2" d="M1211.33 -777.451C2123.09 -364.421 1369.09 1194.3 517.168 720.366C145.186 513.434 -819.795 284.433 -669.932 -138.023C-522.277 -558.687 -229.864 -861.23 155.736 -884.845C623.26 -913.467 888.955 -923.531 1211.33 -777.451Z" stroke="url(#paint39_linear_13273_2458)" stroke-width="2" stroke-miterlimit="10"/>
<path opacity="0.23" d="M1216.57 -804.152C2048.66 -370.257 1442.29 1150.32 522.214 741.311C129.204 566.584 -847.799 235.1 -665.451 -177.562C-485.508 -588.137 -215.298 -927.035 172.019 -905.679C638.291 -879.954 903.25 -967.44 1216.57 -804.152Z" stroke="url(#paint40_linear_13273_2458)" stroke-width="2" stroke-miterlimit="10"/>
<path opacity="0.25" d="M1221.83 -830.67C1975.7 -379.346 1515.57 1104.53 527.326 762.439C113.363 619.158 -875.76 185.95 -660.878 -216.991C-448.695 -617.601 -200.666 -993.172 188.32 -926.526C653.414 -846.846 918.078 -1012.51 1221.83 -830.67Z" stroke="url(#paint41_linear_13273_2458)" stroke-width="2" stroke-miterlimit="10"/>
<path opacity="0.28" d="M1227.03 -857.278C1904.7 -391.766 1588.71 1056.81 532.386 783.477C97.3473 670.904 -903.774 136.709 -656.358 -256.389C-411.911 -647.056 -185.89 -1059.45 204.592 -947.366C668.705 -813.977 933.688 -1058.86 1227.03 -857.278Z" stroke="url(#paint42_linear_13273_2458)" stroke-width="2" stroke-miterlimit="10"/>
<path opacity="0.3" d="M1232.3 -883.887C1836.03 -406.495 1661.33 1007.42 537.509 804.514C81.1487 722.084 -931.725 87.4674 -651.776 -295.861C-375.089 -676.341 -170.88 -1126.14 220.927 -968.231C684.329 -781.403 950.539 -1106.6 1232.3 -883.887Z" stroke="url(#paint43_linear_13273_2458)" stroke-width="2" stroke-miterlimit="10"/>
<path opacity="0.33" d="M1237.53 -910.498C1770.66 -423.459 1733.15 956.9 542.585 825.573C64.5602 772.821 -959.723 38.2238 -647.263 -335.31C-338.312 -705.972 -155.572 -1192.79 237.192 -989.049C700.201 -748.905 969.11 -1155.72 1237.53 -910.498Z" stroke="url(#paint44_linear_13273_2458)" stroke-width="2" stroke-miterlimit="10"/>
<path opacity="0.35" d="M1242.78 -937.101C1708.73 -441.274 1804.13 905.357 547.666 846.616C47.3872 823.321 -987.716 -11.0118 -642.723 -374.751C-301.532 -735.422 -140.088 -1259.48 253.485 -1009.88C716.347 -716.398 989.967 -1206.14 1242.78 -937.101Z" stroke="url(#paint45_linear_13273_2458)" stroke-width="2" stroke-miterlimit="10"/>
<path opacity="0.38" d="M1248.01 -963.71C1650.76 -458.898 1874.13 853.121 552.817 867.653C30.0638 873.397 -1015.64 -60.2283 -638.111 -414.198C-264.73 -764.878 -124.362 -1326.12 269.8 -1030.75C732.711 -683.873 1013.57 -1257.59 1248.01 -963.71Z" stroke="url(#paint46_linear_13273_2458)" stroke-width="2" stroke-miterlimit="10"/>
<path opacity="0.4" d="M1253.28 -990.322C1596.95 -475.004 1943.31 800.465 557.747 888.688C12.2001 923.422 -1043.66 -109.472 -633.623 -453.672C-227.929 -794.19 -108.564 -1392.72 286.09 -1051.57C749.295 -651.203 1040.36 -1309.58 1253.28 -990.322Z" stroke="url(#paint47_linear_13273_2458)" stroke-width="2" stroke-miterlimit="10"/>
<defs>
<linearGradient id="paint0_linear_13273_2458" x1="549.444" y1="376.723" x2="549.444" y2="-887.164" gradientUnits="userSpaceOnUse">
<stop offset="0.755208" stop-color="white"/>
<stop offset="1" stop-color="white" stop-opacity="0"/>
</linearGradient>
<linearGradient id="paint1_linear_13273_2458" x1="551.62" y1="374.861" x2="551.62" y2="-886.223" gradientUnits="userSpaceOnUse">
<stop offset="0.755208" stop-color="white"/>
<stop offset="1" stop-color="white" stop-opacity="0"/>
</linearGradient>
<linearGradient id="paint2_linear_13273_2458" x1="554.274" y1="373.6" x2="554.274" y2="-885.629" gradientUnits="userSpaceOnUse">
<stop offset="0.755208" stop-color="white"/>
<stop offset="1" stop-color="white" stop-opacity="0"/>
</linearGradient>
<linearGradient id="paint3_linear_13273_2458" x1="557.252" y1="372.904" x2="557.252" y2="-885.239" gradientUnits="userSpaceOnUse">
<stop offset="0.755208" stop-color="white"/>
<stop offset="1" stop-color="white" stop-opacity="0"/>
</linearGradient>
<linearGradient id="paint4_linear_13273_2458" x1="560.543" y1="373.199" x2="560.543" y2="-885.312" gradientUnits="userSpaceOnUse">
<stop offset="0.755208" stop-color="white"/>
<stop offset="1" stop-color="white" stop-opacity="0"/>
</linearGradient>
<linearGradient id="paint5_linear_13273_2458" x1="564.002" y1="375.762" x2="564.002" y2="-885.451" gradientUnits="userSpaceOnUse">
<stop offset="0.755208" stop-color="white"/>
<stop offset="1" stop-color="white" stop-opacity="0"/>
</linearGradient>
<linearGradient id="paint6_linear_13273_2458" x1="567.656" y1="385.58" x2="567.656" y2="-885.633" gradientUnits="userSpaceOnUse">
<stop offset="0.755208" stop-color="white"/>
<stop offset="1" stop-color="white" stop-opacity="0"/>
</linearGradient>
<linearGradient id="paint7_linear_13273_2458" x1="571.349" y1="403.486" x2="571.349" y2="-885.854" gradientUnits="userSpaceOnUse">
<stop offset="0.755208" stop-color="white"/>
<stop offset="1" stop-color="white" stop-opacity="0"/>
</linearGradient>
<linearGradient id="paint8_linear_13273_2458" x1="575.053" y1="424.627" x2="575.053" y2="-886.133" gradientUnits="userSpaceOnUse">
<stop offset="0.755208" stop-color="white"/>
<stop offset="1" stop-color="white" stop-opacity="0"/>
</linearGradient>
<linearGradient id="paint9_linear_13273_2458" x1="578.69" y1="447.576" x2="578.69" y2="-886.593" gradientUnits="userSpaceOnUse">
<stop offset="0.755208" stop-color="white"/>
<stop offset="1" stop-color="white" stop-opacity="0"/>
</linearGradient>
<linearGradient id="paint10_linear_13273_2458" x1="582.171" y1="471.498" x2="582.171" y2="-887.344" gradientUnits="userSpaceOnUse">
<stop offset="0.755208" stop-color="white"/>
<stop offset="1" stop-color="white" stop-opacity="0"/>
</linearGradient>
<linearGradient id="paint11_linear_13273_2458" x1="585.463" y1="496.191" x2="585.463" y2="-888.65" gradientUnits="userSpaceOnUse">
<stop offset="0.755208" stop-color="white"/>
<stop offset="1" stop-color="white" stop-opacity="0"/>
</linearGradient>
<linearGradient id="paint12_linear_13273_2458" x1="588.498" y1="521.414" x2="588.498" y2="-890.785" gradientUnits="userSpaceOnUse">
<stop offset="0.755208" stop-color="white"/>
<stop offset="1" stop-color="white" stop-opacity="0"/>
</linearGradient>
<linearGradient id="paint13_linear_13273_2458" x1="591.183" y1="546.902" x2="591.183" y2="-893.996" gradientUnits="userSpaceOnUse">
<stop offset="0.755208" stop-color="white"/>
<stop offset="1" stop-color="white" stop-opacity="0"/>
</linearGradient>
<linearGradient id="paint14_linear_13273_2458" x1="593.493" y1="572.623" x2="593.493" y2="-898.554" gradientUnits="userSpaceOnUse">
<stop offset="0.755208" stop-color="white"/>
<stop offset="1" stop-color="white" stop-opacity="0"/>
</linearGradient>
<linearGradient id="paint15_linear_13273_2458" x1="595.282" y1="598.641" x2="595.282" y2="-904.694" gradientUnits="userSpaceOnUse">
<stop offset="0.755208" stop-color="white"/>
<stop offset="1" stop-color="white" stop-opacity="0"/>
</linearGradient>
<linearGradient id="paint16_linear_13273_2458" x1="638.457" y1="1059.74" x2="638.457" y2="-1337" gradientUnits="userSpaceOnUse">
<stop offset="0.755208" stop-color="white"/>
<stop offset="1" stop-color="white" stop-opacity="0"/>
</linearGradient>
<linearGradient id="paint17_linear_13273_2458" x1="639.103" y1="1044.66" x2="639.103" y2="-1323.39" gradientUnits="userSpaceOnUse">
<stop offset="0.755208" stop-color="white"/>
<stop offset="1" stop-color="white" stop-opacity="0"/>
</linearGradient>
<linearGradient id="paint18_linear_13273_2458" x1="639.777" y1="1030.62" x2="639.777" y2="-1309.87" gradientUnits="userSpaceOnUse">
<stop offset="0.755208" stop-color="white"/>
<stop offset="1" stop-color="white" stop-opacity="0"/>
</linearGradient>
<linearGradient id="paint19_linear_13273_2458" x1="639.628" y1="1017.73" x2="639.628" y2="-1296.51" gradientUnits="userSpaceOnUse">
<stop offset="0.755208" stop-color="white"/>
<stop offset="1" stop-color="white" stop-opacity="0"/>
</linearGradient>
<linearGradient id="paint20_linear_13273_2458" x1="638.161" y1="1005.76" x2="638.161" y2="-1283.46" gradientUnits="userSpaceOnUse">
<stop offset="0.755208" stop-color="white"/>
<stop offset="1" stop-color="white" stop-opacity="0"/>
</linearGradient>
<linearGradient id="paint21_linear_13273_2458" x1="632.246" y1="994.961" x2="632.246" y2="-1270.82" gradientUnits="userSpaceOnUse">
<stop offset="0.755208" stop-color="white"/>
<stop offset="1" stop-color="white" stop-opacity="0"/>
</linearGradient>
<linearGradient id="paint22_linear_13273_2458" x1="621.218" y1="985.248" x2="621.218" y2="-1258.68" gradientUnits="userSpaceOnUse">
<stop offset="0.755208" stop-color="white"/>
<stop offset="1" stop-color="white" stop-opacity="0"/>
</linearGradient>
<linearGradient id="paint23_linear_13273_2458" x1="609.271" y1="976.627" x2="609.271" y2="-1247.17" gradientUnits="userSpaceOnUse">
<stop offset="0.755208" stop-color="white"/>
<stop offset="1" stop-color="white" stop-opacity="0"/>
</linearGradient>
<linearGradient id="paint24_linear_13273_2458" x1="596.728" y1="969.096" x2="596.728" y2="-1236.37" gradientUnits="userSpaceOnUse">
<stop offset="0.755208" stop-color="white"/>
<stop offset="1" stop-color="white" stop-opacity="0"/>
</linearGradient>
<linearGradient id="paint25_linear_13273_2458" x1="583.829" y1="962.623" x2="583.829" y2="-1226.47" gradientUnits="userSpaceOnUse">
<stop offset="0.755208" stop-color="white"/>
<stop offset="1" stop-color="white" stop-opacity="0"/>
</linearGradient>
<linearGradient id="paint26_linear_13273_2458" x1="570.612" y1="957.275" x2="570.612" y2="-1217.51" gradientUnits="userSpaceOnUse">
<stop offset="0.755208" stop-color="white"/>
<stop offset="1" stop-color="white" stop-opacity="0"/>
</linearGradient>
<linearGradient id="paint27_linear_13273_2458" x1="557.252" y1="952.963" x2="557.252" y2="-1209.63" gradientUnits="userSpaceOnUse">
<stop offset="0.755208" stop-color="white"/>
<stop offset="1" stop-color="white" stop-opacity="0"/>
</linearGradient>
<linearGradient id="paint28_linear_13273_2458" x1="543.828" y1="949.758" x2="543.828" y2="-1202.96" gradientUnits="userSpaceOnUse">
<stop offset="0.755208" stop-color="white"/>
<stop offset="1" stop-color="white" stop-opacity="0"/>
</linearGradient>
<linearGradient id="paint29_linear_13273_2458" x1="530.609" y1="947.629" x2="530.609" y2="-1197.6" gradientUnits="userSpaceOnUse">
<stop offset="0.755208" stop-color="white"/>
<stop offset="1" stop-color="white" stop-opacity="0"/>
</linearGradient>
<linearGradient id="paint30_linear_13273_2458" x1="517.671" y1="946.57" x2="517.671" y2="-1193.61" gradientUnits="userSpaceOnUse">
<stop offset="0.755208" stop-color="white"/>
<stop offset="1" stop-color="white" stop-opacity="0"/>
</linearGradient>
<linearGradient id="paint31_linear_13273_2458" x1="505.201" y1="946.588" x2="505.201" y2="-1191.05" gradientUnits="userSpaceOnUse">
<stop offset="0.755208" stop-color="white"/>
<stop offset="1" stop-color="white" stop-opacity="0"/>
</linearGradient>
<linearGradient id="paint32_linear_13273_2458" x1="521.723" y1="814.348" x2="521.723" y2="-899.959" gradientUnits="userSpaceOnUse">
<stop offset="0.755208" stop-color="white"/>
<stop offset="1" stop-color="white" stop-opacity="0"/>
</linearGradient>
<linearGradient id="paint33_linear_13273_2458" x1="517.162" y1="812.047" x2="517.162" y2="-899.524" gradientUnits="userSpaceOnUse">
<stop offset="0.755208" stop-color="white"/>
<stop offset="1" stop-color="white" stop-opacity="0"/>
</linearGradient>
<linearGradient id="paint34_linear_13273_2458" x1="511.484" y1="810.355" x2="511.484" y2="-899.512" gradientUnits="userSpaceOnUse">
<stop offset="0.755208" stop-color="white"/>
<stop offset="1" stop-color="white" stop-opacity="0"/>
</linearGradient>
<linearGradient id="paint35_linear_13273_2458" x1="504.309" y1="809.254" x2="504.309" y2="-899.579" gradientUnits="userSpaceOnUse">
<stop offset="0.755208" stop-color="white"/>
<stop offset="1" stop-color="white" stop-opacity="0"/>
</linearGradient>
<linearGradient id="paint36_linear_13273_2458" x1="496.406" y1="808.674" x2="496.406" y2="-899.762" gradientUnits="userSpaceOnUse">
<stop offset="0.755208" stop-color="white"/>
<stop offset="1" stop-color="white" stop-opacity="0"/>
</linearGradient>
<linearGradient id="paint37_linear_13273_2458" x1="487.952" y1="808.346" x2="487.952" y2="-900.137" gradientUnits="userSpaceOnUse">
<stop offset="0.755208" stop-color="white"/>
<stop offset="1" stop-color="white" stop-opacity="0"/>
</linearGradient>
<linearGradient id="paint38_linear_13273_2458" x1="479.215" y1="808.475" x2="479.215" y2="-900.818" gradientUnits="userSpaceOnUse">
<stop offset="0.755208" stop-color="white"/>
<stop offset="1" stop-color="white" stop-opacity="0"/>
</linearGradient>
<linearGradient id="paint39_linear_13273_2458" x1="470.346" y1="809.127" x2="470.346" y2="-902.196" gradientUnits="userSpaceOnUse">
<stop offset="0.755208" stop-color="white"/>
<stop offset="1" stop-color="white" stop-opacity="0"/>
</linearGradient>
<linearGradient id="paint40_linear_13273_2458" x1="461.471" y1="810.461" x2="461.471" y2="-906.642" gradientUnits="userSpaceOnUse">
<stop offset="0.755208" stop-color="white"/>
<stop offset="1" stop-color="white" stop-opacity="0"/>
</linearGradient>
<linearGradient id="paint41_linear_13273_2458" x1="452.858" y1="813.16" x2="452.858" y2="-934.248" gradientUnits="userSpaceOnUse">
<stop offset="0.755208" stop-color="white"/>
<stop offset="1" stop-color="white" stop-opacity="0"/>
</linearGradient>
<linearGradient id="paint42_linear_13273_2458" x1="444.651" y1="817.516" x2="444.651" y2="-966.059" gradientUnits="userSpaceOnUse">
<stop offset="0.755208" stop-color="white"/>
<stop offset="1" stop-color="white" stop-opacity="0"/>
</linearGradient>
<linearGradient id="paint43_linear_13273_2458" x1="437.098" y1="824.295" x2="437.098" y2="-1000.68" gradientUnits="userSpaceOnUse">
<stop offset="0.755208" stop-color="white"/>
<stop offset="1" stop-color="white" stop-opacity="0"/>
</linearGradient>
<linearGradient id="paint44_linear_13273_2458" x1="430.433" y1="834.338" x2="430.433" y2="-1037.13" gradientUnits="userSpaceOnUse">
<stop offset="0.755208" stop-color="white"/>
<stop offset="1" stop-color="white" stop-opacity="0"/>
</linearGradient>
<linearGradient id="paint45_linear_13273_2458" x1="424.836" y1="848.479" x2="424.836" y2="-1074.93" gradientUnits="userSpaceOnUse">
<stop offset="0.755208" stop-color="white"/>
<stop offset="1" stop-color="white" stop-opacity="0"/>
</linearGradient>
<linearGradient id="paint46_linear_13273_2458" x1="420.498" y1="867.68" x2="420.498" y2="-1113.74" gradientUnits="userSpaceOnUse">
<stop offset="0.755208" stop-color="white"/>
<stop offset="1" stop-color="white" stop-opacity="0"/>
</linearGradient>
<linearGradient id="paint47_linear_13273_2458" x1="417.414" y1="889.543" x2="417.414" y2="-1153.27" gradientUnits="userSpaceOnUse">
<stop offset="0.755208" stop-color="white"/>
<stop offset="1" stop-color="white" stop-opacity="0"/>
</linearGradient>
</defs>
</svg>
