<svg width="97" height="98" viewBox="0 0 97 98" fill="none" xmlns="http://www.w3.org/2000/svg">
<path fill-rule="evenodd" clip-rule="evenodd" d="M20 0.182617C8.9543 0.182617 0 9.13692 0 20.1826V77.1826C0 88.2283 8.95431 97.1826 20 97.1826H77C88.0457 97.1826 97 88.2283 97 77.1826V20.1826C97 9.13692 88.0457 0.182617 77 0.182617H20ZM32.9614 51.9134C30.0356 51.9134 27.2375 53.0939 25.1805 55.1826C23.1248 57.27 21.9766 60.0931 21.9766 63.0288V67.3365C21.9766 68.7172 23.0958 69.8365 24.4766 69.8365C25.8573 69.8365 26.9766 68.7172 26.9766 67.3365V63.0288C26.9766 61.3947 27.6162 59.8351 28.7429 58.691C29.8683 57.5483 31.3866 56.9134 32.9614 56.9134H49.9311C51.506 56.9134 53.0242 57.5483 54.1496 58.691C55.2763 59.8351 55.916 61.3947 55.916 63.0288V67.3365C55.916 68.7172 57.0352 69.8365 58.416 69.8365C59.7967 69.8365 60.916 68.7172 60.916 67.3365V63.0288C60.916 60.0931 59.7678 57.27 57.712 55.1826C55.655 53.0939 52.8569 51.9134 49.9311 51.9134H32.9614ZM41.4456 31.0673C38.1761 31.0673 35.4608 33.7691 35.4608 37.1826C35.4608 40.5962 38.1761 43.298 41.4456 43.298C44.7151 43.298 47.4305 40.5962 47.4305 37.1826C47.4305 33.7691 44.7151 31.0673 41.4456 31.0673ZM30.4608 37.1826C30.4608 31.0799 35.343 26.0673 41.4456 26.0673C47.5482 26.0673 52.4305 31.0799 52.4305 37.1826C52.4305 43.2854 47.5482 48.298 41.4456 48.298C35.343 48.298 30.4608 43.2854 30.4608 37.1826ZM56.922 26.4277C55.5857 26.0803 54.2208 26.882 53.8734 28.2183C53.526 29.5545 54.3276 30.9195 55.6639 31.2669C56.9437 31.5996 58.0855 32.3572 58.9049 33.429C59.7247 34.5015 60.1732 35.8259 60.1732 37.1934C60.1732 38.561 59.7247 39.8854 58.9049 40.9578C58.0855 42.0297 56.9437 42.7873 55.6639 43.12C54.3276 43.4674 53.526 44.8323 53.8734 46.1686C54.2208 47.5049 55.5857 48.3066 56.922 47.9592C59.2925 47.3429 61.3861 45.945 62.8771 43.9945C64.3677 42.0446 65.1732 39.6518 65.1732 37.1934C65.1732 34.7351 64.3677 32.3422 62.8771 30.3924C61.3861 28.4419 59.2925 27.044 56.922 26.4277ZM65.4118 52.2752C64.0762 51.925 62.7097 52.7239 62.3595 54.0594C62.0094 55.395 62.8082 56.7616 64.1438 57.1117C65.4202 57.4464 66.5585 58.2039 67.3754 59.2739C68.1929 60.3447 68.6404 61.666 68.6415 63.0307V67.3365C68.6415 68.7172 69.7607 69.8365 71.1415 69.8365C72.5222 69.8365 73.6415 68.7172 73.6415 67.3365V63.0288V63.027C73.6396 60.5739 72.8358 58.1865 71.3496 56.2398C69.863 54.2926 67.776 52.895 65.4118 52.2752Z" fill="white"/>
</svg>
