<svg width="97" height="98" viewBox="0 0 97 98" fill="none" xmlns="http://www.w3.org/2000/svg">
<path fill-rule="evenodd" clip-rule="evenodd" d="M20 0.182617C8.9543 0.182617 0 9.13692 0 20.1826V77.1826C0 88.2283 8.95431 97.1826 20 97.1826H77C88.0457 97.1826 97 88.2283 97 77.1826V20.1826C97 9.13692 88.0457 0.182617 77 0.182617H20ZM67.1849 69.5545H52.9297L52.9148 69.5546L52.9 69.5545H43.1047L43.0898 69.5546L43.075 69.5545H28.8125C28.1743 69.5545 27.5623 69.301 27.111 68.8498C26.6598 68.3985 26.4062 67.7865 26.4062 67.1483V43.4902C26.4081 43.1153 26.4976 42.746 26.6675 42.4118C26.837 42.0783 27.0819 41.789 27.3828 41.5667L27.3848 41.5652L46.5594 27.292L46.5613 27.2906C46.9775 26.9791 47.4833 26.8108 48.0031 26.8108C48.5234 26.8108 49.0296 26.9794 49.4459 27.2913L49.4469 27.292L68.6152 41.5886C68.9129 41.7998 69.1588 42.0761 69.334 42.3965C69.5122 42.7221 69.6125 43.0845 69.6273 43.4553L69.6281 43.4752V67.1113C69.6331 67.4316 69.5741 67.7497 69.4544 68.0469C69.3334 68.3477 69.1529 68.6208 68.9236 68.8501C68.6944 69.0793 68.4212 69.2598 68.1205 69.3809C67.8233 69.5005 67.5052 69.5595 67.1849 69.5545ZM64.8156 64.742H55.3211V55.8983C55.3211 53.9573 54.55 52.0957 53.1775 50.7232C51.8049 49.3507 49.9434 48.5796 48.0023 48.5796C46.0613 48.5796 44.1997 49.3507 42.8272 50.7232C41.4547 52.0957 40.6836 53.9573 40.6836 55.8983V64.742H31.1906V44.7287L48.0031 32.2167L64.8156 44.7287V64.742ZM45.4961 55.8983V64.742H50.5086V55.8983C50.5086 55.2336 50.2445 54.5962 49.7745 54.1262C49.3045 53.6561 48.667 53.3921 48.0023 53.3921C47.3376 53.3921 46.7002 53.6561 46.2302 54.1262C45.7601 54.5962 45.4961 55.2336 45.4961 55.8983Z" fill="white"/>
</svg>
