<svg width="154" height="59" viewBox="0 0 154 59" fill="none" xmlns="http://www.w3.org/2000/svg">
<path fill-rule="evenodd" clip-rule="evenodd" d="M35.4301 27.5907H36.3303C37.3242 27.5907 38.1305 28.4245 38.1305 29.4523V36.8988C38.1305 37.9266 37.3242 38.7605 36.3303 38.7605H23.1284C22.1345 38.7605 21.3281 37.9266 21.3281 36.8988V29.4523C21.3281 28.4245 22.1345 27.5907 23.1284 27.5907H24.0285V24.7982C24.0285 21.5481 26.5864 18.9031 29.7293 18.9031C32.8723 18.9031 35.4301 21.5481 35.4301 24.7982V27.5907ZM27.0272 24.7983V27.5907H32.4279V24.7983C32.4279 23.2585 31.2165 22.0058 29.7276 22.0058C28.2386 22.0058 27.0272 23.2585 27.0272 24.7983Z" fill="#8A8A8A"/>
<path d="M29.7235 0L30.676 3.08316H33.7592L31.265 4.98858L32.2176 8.07174L29.7235 6.1651L27.2298 8.07174L28.1825 4.98858L25.6875 3.08316H28.7707L29.7235 0Z" fill="#8A8A8A"/>
<path d="M29.7235 50.7373L30.676 53.8214H33.7592L31.265 55.7265L32.2176 58.809L29.7235 56.9041L27.2298 58.809L28.1825 55.7265L25.6875 53.8214H28.7707L29.7235 50.7373Z" fill="#8A8A8A"/>
<path d="M42.4031 4.61255L43.3553 7.69567H46.4389L43.9442 9.60186L44.8971 12.6843L42.4031 10.7781L39.9085 12.6843L40.8612 9.60186L38.3672 7.69567H41.4508L42.4031 4.61255Z" fill="#8A8A8A"/>
<path d="M52.7823 13.3567L53.7345 16.4396H56.8178L54.3233 18.3455L55.2761 21.4284L52.7823 19.5232L50.2878 21.4284L51.2406 18.3455L48.7461 16.4396H51.8288L52.7823 13.3567Z" fill="#8A8A8A"/>
<path d="M52.7824 38.0525L53.7346 41.1367H56.8178L54.3234 43.042L55.2768 46.1242L52.7824 44.2196L50.2878 46.1242L51.2407 43.042L48.7461 41.1367H51.8295L52.7824 38.0525Z" fill="#8A8A8A"/>
<path d="M6.6612 13.3567L7.61351 16.4396H10.6967L8.20248 18.3455L9.1548 21.4284L6.6612 19.5232L4.16645 21.4284L5.11926 18.3455L2.625 16.4396H5.70889L6.6612 13.3567Z" fill="#8A8A8A"/>
<path d="M55.0908 25.3679L56.043 28.4508H59.1264L56.632 30.3561L57.5847 33.4397L55.0908 31.5351L52.5964 33.4397L53.5497 30.3561L51.0547 28.4508H54.1375L55.0908 25.3679Z" fill="#8A8A8A"/>
<path d="M4.35285 25.368L5.30511 28.4509H8.38815L5.89355 30.3561L6.84696 33.4397L4.35285 31.5352L1.85809 33.4397L2.81101 30.3561L0.316406 28.4509H3.39994L4.35285 25.368Z" fill="#8A8A8A"/>
<path d="M6.66145 38.0525L7.6137 41.1367H10.6967L8.2028 43.042L9.15489 46.1242L6.66145 44.2196L4.16685 46.1242L5.1196 43.042L2.625 41.1367H5.7087L6.66145 38.0525Z" fill="#8A8A8A"/>
<path d="M44.7119 48.4303L45.6641 51.513H48.7475L46.2525 53.4193L47.2058 56.502L44.7119 54.5969L42.2168 56.502L43.1703 53.4193L40.6758 51.513H43.7592L44.7119 48.4303Z" fill="#8A8A8A"/>
<path d="M17.036 4.61255L17.988 7.69567H21.0717L18.5771 9.60186L19.5306 12.6843L17.036 10.7781L14.5418 12.6843L15.4946 9.60186L13 7.69567H16.083L17.036 4.61255Z" fill="#8A8A8A"/>
<path d="M14.7309 48.4304L15.6836 51.5147H18.7671L16.2727 53.4193L17.2253 56.5022L14.7309 54.5981L12.237 56.5022L13.1897 53.4193L10.6953 51.5147H13.7781L14.7309 48.4304Z" fill="#8A8A8A"/>
<path fill-rule="evenodd" clip-rule="evenodd" d="M78.0312 21.129C78.0312 27.0604 82.5746 30.7814 88.1557 30.7814C91.6894 30.7814 94.4098 29.3546 96.4291 27.1443V19.842H87.3985V23.8429H91.6894V25.4097C90.9322 26.0252 89.6141 26.5288 88.1557 26.5288C85.0987 26.5288 82.9392 24.1786 82.9392 21.129C82.9392 18.0794 85.0987 15.7292 88.1557 15.7292C89.9226 15.7292 91.3529 16.7085 92.1101 17.9395L96.1487 15.8132C94.7744 13.491 92.2503 11.4766 88.1557 11.4766C82.5746 11.4766 78.0312 15.1976 78.0312 21.129ZM99.2617 30.4453V11.7839H107.114C113.004 11.7839 117.239 15.3092 117.239 21.1006C117.239 26.8921 113.004 30.4453 107.143 30.4453H99.2617ZM104.086 26.2492H107.115C110.396 26.2492 112.303 23.871 112.303 21.1012C112.303 18.2194 110.564 15.9812 107.143 15.9812H104.086V26.2492ZM119.656 30.4453V11.7839H129.023C133.23 11.7839 135.53 14.6097 135.53 17.9951C135.53 21.3524 133.23 24.1223 129.023 24.1223H124.48V30.4453H119.656ZM130.615 17.9675C130.615 16.6805 129.661 15.8412 128.371 15.8412H124.473V20.0379H128.371C129.661 20.0379 130.615 19.2265 130.615 17.9675ZM148.12 30.4453L144.979 24.1223H142.511V30.4453H137.688V11.7839H147.055C151.205 11.7839 153.561 14.5258 153.561 17.9951C153.561 21.2405 151.57 22.9752 149.831 23.5907L153.645 30.4453H148.12ZM148.65 17.9394C148.65 16.6524 147.584 15.8411 146.322 15.8411H142.508V20.0378H146.322C147.584 20.0378 148.65 19.2264 148.65 17.9394Z" fill="#8A8A8A"/>
<path d="M83.3913 38.2742C84.5243 38.2742 85.4034 38.5912 86.0288 39.2253C86.6542 39.8594 87.0014 40.5798 87.0704 41.3864H85.8887C85.7547 40.7739 85.4867 40.2886 85.0847 39.9306C84.6867 39.5726 84.1263 39.3935 83.4035 39.3935C82.5223 39.3935 81.8096 39.7235 81.2654 40.3835C80.7253 41.0392 80.4553 42.0464 80.4553 43.4052C80.4553 44.5181 80.6989 45.4217 81.1862 46.1162C81.6776 46.8064 82.4086 47.1515 83.3791 47.1515C84.2725 47.1515 84.9527 46.787 85.4197 46.058C85.6674 45.6741 85.8522 45.1694 85.974 44.5439H87.1557C87.0501 45.5447 86.7009 46.3837 86.108 47.0609C85.3973 47.8762 84.439 48.2838 83.2329 48.2838C82.1933 48.2838 81.3202 47.9495 80.6137 47.2809C79.6837 46.3966 79.2188 45.0314 79.2188 43.1852C79.2188 41.7833 79.568 40.6337 80.2665 39.7365C81.0218 38.7616 82.0634 38.2742 83.3913 38.2742Z" fill="#8A8A8A"/>
<path d="M92.8096 38.2742C94.3893 38.2742 95.5588 38.8134 96.3182 39.8918C96.9111 40.7329 97.2075 41.8091 97.2075 43.1205C97.2075 44.5396 96.8684 45.7194 96.1903 46.6597C95.3944 47.764 94.2593 48.3161 92.7853 48.3161C91.4086 48.3161 90.3264 47.833 89.5386 46.8668C88.8361 45.9351 88.4848 44.7575 88.4848 43.334C88.4848 42.0485 88.7853 40.9486 89.3863 40.0341C90.1579 38.8608 91.299 38.2742 92.8096 38.2742ZM92.9314 47.1644C93.9995 47.1644 94.771 46.7589 95.2461 45.948C95.7253 45.1327 95.9649 44.1967 95.9649 43.1399C95.9649 42.0227 95.6888 41.1233 95.1365 40.4417C94.5883 39.7602 93.837 39.4194 92.8827 39.4194C91.9568 39.4194 91.2015 39.758 90.6168 40.4353C90.032 41.1082 89.7396 42.1025 89.7396 43.4181C89.7396 44.4706 89.9894 45.3592 90.4888 46.0839C90.9924 46.8042 91.8066 47.1644 92.9314 47.1644Z" fill="#8A8A8A"/>
<path d="M98.9387 38.533H100.675L103.245 46.5691L105.797 38.533H107.515V48.0379H106.364V42.4281C106.364 42.234 106.368 41.9127 106.376 41.464C106.384 41.0154 106.388 40.5345 106.388 40.0212L103.836 48.0379H102.636L100.066 40.0212V40.3123C100.066 40.5453 100.07 40.9011 100.078 41.3799C100.09 41.8544 100.096 42.2038 100.096 42.4281V48.0379H98.9387V38.533Z" fill="#8A8A8A"/>
<path d="M109.788 38.533H113.815C114.611 38.533 115.252 38.7724 115.74 39.2512C116.227 39.7257 116.471 40.3943 116.471 41.257C116.471 41.9989 116.253 42.646 115.819 43.1981C115.384 43.7459 114.716 44.0198 113.815 44.0198H111.001V48.0379H109.788V38.533ZM115.246 41.2635C115.246 40.5647 115.003 40.0902 114.515 39.84C114.247 39.7063 113.88 39.6394 113.413 39.6394H111.001V42.9328H113.413C113.957 42.9328 114.398 42.8099 114.735 42.564C115.076 42.3181 115.246 41.8846 115.246 41.2635Z" fill="#8A8A8A"/>
<path d="M118.305 38.533H119.517V46.9056H124.049V48.0379H118.305V38.533Z" fill="#8A8A8A"/>
<path d="M125.835 38.533H127.06V48.0379H125.835V38.533Z" fill="#8A8A8A"/>
<path d="M133.938 44.1428L132.58 39.9435L131.136 44.1428H133.938ZM131.946 38.533H133.317L136.563 48.0379H135.235L134.328 45.191H130.789L129.82 48.0379H128.578L131.946 38.533Z" fill="#8A8A8A"/>
<path d="M137.978 38.533H139.409L143.929 46.2327V38.533H145.08V48.0379H143.722L139.135 40.3447V48.0379H137.978V38.533Z" fill="#8A8A8A"/>
<path d="M153.816 38.533V39.6653H150.801V48.0379H149.571V39.6653H146.555V38.533H153.816Z" fill="#8A8A8A"/>
</svg>
