<svg width="61" height="59" viewBox="0 0 61 59" fill="none" xmlns="http://www.w3.org/2000/svg">
<path d="M30.1626 0L29.5172 1.95727H27.3875L29.1238 3.22361L28.4485 5.23337L30.1626 3.99503L31.8775 5.23337L31.2093 3.22361L32.9313 1.95727H30.7938L30.1626 0ZM17.8286 2.56909L18.0513 4.61455L16.1044 5.46438L18.217 5.9285L18.434 8.03417L19.4856 6.21901L21.5653 6.66632L20.1218 5.09687L21.1698 3.25301L19.2165 4.10564L17.8286 2.56909ZM7.62633 9.83533L8.67797 11.6155L7.25294 13.1674L9.37406 12.7495L10.4457 14.5864L10.6542 12.5087L12.7403 12.088L10.7698 11.2298L10.9626 9.1276L9.53184 10.6852L7.62633 9.83533ZM1.32008 20.5415L3.01926 21.7483L2.36101 23.7357L4.12587 22.5071L5.86718 23.7581L5.19607 21.7763L6.92595 20.5604L4.77056 20.5625L4.07375 18.5646L3.41407 20.5583L1.32008 20.5415ZM0 32.8381L2.0533 33.2623L2.27605 35.34L3.37909 33.5143L5.48879 33.9623L4.05305 32.4202L5.12968 30.619L3.16062 31.48L1.69633 29.9337L1.91979 32.0177L0 32.8381ZM3.89527 44.5971L5.94714 44.1666L7.01306 45.9754L7.26222 43.8677L9.37549 43.4364L7.425 42.5992L7.66132 40.5243L6.21987 42.0966L4.2401 41.2671L5.30888 43.0822L3.89527 44.5971ZM12.3319 53.7863L14.0275 52.5745L15.751 53.8017L15.1056 51.7772L16.8569 50.5403L14.7272 50.5543L14.0825 48.5641L13.4178 50.5746L11.266 50.6068L12.9945 51.8388L12.3319 53.7863ZM23.8514 58.816L24.8973 57.033L26.9806 57.4677L25.5506 55.8752L26.6379 54.0467L24.6988 54.9084L23.2845 53.3474L23.5108 55.4495L21.5582 56.3365L23.6479 56.7726L23.8514 58.816ZM36.4603 58.8174L36.6766 56.7712L38.7599 56.3372L36.793 55.4537L37.0279 53.3495L35.6136 54.9098L33.6738 54.0481L34.7526 55.878L33.3368 57.4677L35.4272 57.0316L36.4603 58.8174ZM47.9798 53.7905L47.3294 51.8346L49.0521 50.6075L46.8889 50.5844L46.2299 48.569L45.5859 50.5578L43.4562 50.5445L45.2011 51.7856L44.5664 53.8024L46.2963 52.5704L47.9798 53.7905ZM56.4186 44.6034L55.0128 43.0759L56.078 41.2678L54.0918 42.1092L52.654 40.5313L52.8903 42.6055L50.9398 43.442L53.0488 43.8803L53.3051 45.9761L54.3746 44.161L56.4186 44.6034ZM60.3167 32.8451L58.3991 32.0107L58.6225 29.9337L57.1568 31.4947L55.1885 30.6267L56.2651 32.4272L54.8301 33.9693L56.9383 33.529L58.0421 35.3407L58.2663 33.2567L60.3167 32.8451ZM59.0002 20.5492L56.9019 20.552L56.2451 18.5653L55.5533 20.5758L53.395 20.5674L55.1256 21.7833L54.4545 23.7644L56.198 22.5212L57.9578 23.7357L57.2974 21.7427L59.0002 20.5492ZM52.6968 9.84093L50.7813 10.6803L49.357 9.1276L49.5583 11.2403L47.5843 12.0936L49.6697 12.5136L49.8782 14.5913L50.9548 12.76L53.0666 13.1681L51.6359 11.6106L52.6968 9.84093ZM42.4967 2.57329L41.0952 4.10354L39.1497 3.25301L40.2099 5.10247L38.7599 6.66912L40.8389 6.22181L41.892 8.03627L42.1169 5.9341L44.2152 5.46438L42.2618 4.61175L42.4967 2.57329Z" fill="#8A8A8A"/>
<path d="M11.8906 29.5485C11.8906 21.5758 18.379 15.0872 26.3535 15.0872H27.7794V17.9394H26.3535C19.9514 17.9394 14.7431 23.1484 14.7431 29.5485C14.7431 35.9473 19.9507 41.157 26.3535 41.157H27.7794V44.0099H26.3535C18.379 44.0099 11.8906 37.5206 11.8906 29.5485ZM29.673 29.5485C29.673 21.5758 36.1642 15.0872 44.1373 15.0872H45.5639V17.9394H44.1373C38.4719 17.9394 33.5445 22.1675 32.677 27.7728L32.6232 28.1246H41.8544V30.9725H32.6232L32.677 31.3243C33.5452 36.9296 38.4719 41.157 44.1373 41.157H45.5639V44.0099H44.1373C36.1642 44.0099 29.673 37.5206 29.673 29.5485Z" fill="#8A8A8A"/>
</svg>
