<svg width="97" height="98" viewBox="0 0 97 98" fill="none" xmlns="http://www.w3.org/2000/svg">
<path fill-rule="evenodd" clip-rule="evenodd" d="M20 0.182617C8.9543 0.182617 0 9.13692 0 20.1826V77.1826C0 88.2283 8.95431 97.1826 20 97.1826H77C88.0457 97.1826 97 88.2283 97 77.1826V20.1826C97 9.13692 88.0457 0.182617 77 0.182617H20ZM49.352 23.5797C48.5284 23.0503 47.4716 23.0503 46.648 23.5797C41.8476 26.6659 36.2432 28.2672 30.5369 28.1829L30.5 28.1826C29.1739 28.1826 27.9021 28.7094 26.9645 29.6471C26.0268 30.5848 25.5 31.8565 25.5 33.1826V42.0321V42.0326C25.4987 48.6202 27.4528 55.0599 31.1147 60.5359C34.775 66.0094 39.9768 70.2739 46.0617 72.7896C46.6753 73.0476 47.3343 73.1806 48 73.1806C48.6657 73.1806 49.3247 73.0476 49.9383 72.7896C56.0232 70.2739 61.225 66.0094 64.8853 60.5359C68.5472 55.0599 70.5013 48.6202 70.5 42.0326V42.0321V33.1826C70.5 31.8565 69.9732 30.5848 69.0355 29.6471C68.0979 28.7094 66.8261 28.1826 65.5 28.1826L65.4631 28.1829C59.7568 28.2672 54.1524 26.6659 49.352 23.5797ZM30.5 42.0326V33.1829C36.6486 33.267 42.6949 31.6822 48 28.6108C53.3051 31.6822 59.3514 33.267 65.5 33.1829V42.0326V42.0331C65.5012 47.631 63.8407 53.1032 60.729 57.7565C57.6172 62.4098 53.1943 66.0347 48.0205 68.172L48 68.1806L47.9795 68.172C42.8057 66.0347 38.3828 62.4098 35.271 57.7565C32.1593 53.1032 30.4988 47.631 30.5 42.0331V42.0326ZM50.5 43.1826C50.5 41.8019 49.3807 40.6826 48 40.6826C46.6193 40.6826 45.5 41.8019 45.5 43.1826V45.6826H43C41.6193 45.6826 40.5 46.8019 40.5 48.1826C40.5 49.5633 41.6193 50.6826 43 50.6826H45.5V53.1826C45.5 54.5633 46.6193 55.6826 48 55.6826C49.3807 55.6826 50.5 54.5633 50.5 53.1826V50.6826H53C54.3807 50.6826 55.5 49.5633 55.5 48.1826C55.5 46.8019 54.3807 45.6826 53 45.6826H50.5V43.1826Z" fill="white"/>
</svg>
