<svg width="163" height="39" viewBox="0 0 163 39" fill="none" xmlns="http://www.w3.org/2000/svg">
<path fill-rule="evenodd" clip-rule="evenodd" d="M23.3943 0H6.88117C3.54241 0 0.8125 2.65523 0.8125 5.90025V31.7977C0.8125 35.0428 3.54241 37.6979 6.88117 37.6979H10.0025C8.3422 33.1853 5.74084 28.0017 2.32031 22.3352C6.00416 23.5378 9.66362 24.7672 11.7823 27.6481C17.3322 18.8649 23.0358 10.9003 28.7881 3.2041C27.7769 1.30535 25.7352 0 23.3943 0ZM29.4628 5.86573V5.92109C23.8236 15.9198 18.2771 26.3357 12.9355 37.6979H23.3943C26.733 37.6979 29.4629 35.0428 29.4629 31.7977V5.90025C29.4629 5.88873 29.4629 5.87723 29.4628 5.86573Z" fill="#8A8A8A"/>
<path d="M67.5745 24.7552C69.9434 23.8257 72.7065 23.9414 75.0139 25.0082C74.8981 25.5797 74.7933 26.1547 74.7065 26.7298C73.0174 24.1547 68.7716 24.1403 66.985 26.6031C65.73 28.2813 65.6505 30.5272 65.8458 32.538C66.023 34.4151 67.0898 36.3066 68.9017 37.0299C70.9596 37.728 73.2344 37.0913 74.9054 35.7821C74.8945 36.162 74.88 36.5417 74.8692 36.9214C73.3901 37.9015 71.5456 38.0932 69.8131 38.0099C67.9795 37.9088 66.0845 37.1384 65.0175 35.5869C63.7517 33.6629 63.4949 31.1673 64.0375 28.9576C64.4679 27.1023 65.8349 25.5146 67.5745 24.7552ZM40.0195 24.3319C40.6235 24.3536 41.2311 24.3536 41.8387 24.3428C41.6724 28.4802 41.6868 32.6212 41.8134 36.7587C43.5674 36.8057 45.3396 36.8383 47.0647 36.5091C47.0683 36.896 47.0719 37.2867 47.0828 37.6773C44.7609 37.6556 42.4354 37.5182 40.1209 37.7135C40.2003 33.2541 40.1533 28.7913 40.0195 24.3319ZM49.5239 24.3031C50.1606 24.314 50.7971 24.3104 51.4336 24.285C51.1949 28.3971 51.1732 32.5308 51.4263 36.6392C53.1262 36.896 54.9236 36.7189 56.6451 36.5163C56.6487 36.8997 56.6523 37.2795 56.6559 37.6664C54.3087 37.5542 51.9508 37.5363 49.5999 37.6483C49.7482 33.2 49.6904 28.7515 49.5239 24.3031ZM57.2311 32.285C58.7464 32.2922 60.2472 32.5308 61.7627 32.4947C61.759 32.8817 61.759 33.2686 61.759 33.6557C60.2436 33.746 58.7391 33.5471 57.2311 33.4783C57.2347 33.0806 57.2347 32.6828 57.2311 32.285Z" fill="#8A8A8A"/>
<path d="M114.226 25.02C114.708 24.4096 115.534 24.2979 116.261 24.1267C116.215 24.4989 116.169 24.8712 116.131 25.2433C115.473 25.2656 114.524 24.9903 114.18 25.7421C113.79 26.628 114.095 27.648 114.073 28.5859C114.6 28.5935 115.121 28.5935 115.649 28.5935C115.649 28.6977 115.649 28.9061 115.649 29.0103C115.159 29.0178 114.662 29.0029 114.18 29.0549C114.065 31.2064 114.21 33.3653 114.271 35.5168C113.851 35.5168 113.43 35.5168 113.009 35.5168C113.055 33.3503 113.07 31.1915 113.024 29.0252C112.78 29.0326 112.298 29.0326 112.053 29.0401C112.053 28.9358 112.053 28.7423 112.053 28.6455C112.374 28.6232 112.695 28.5785 113.009 28.504C113.2 27.298 113.315 25.9505 114.226 25.02ZM109.413 25.2285C109.88 24.8042 110.637 25.2881 110.553 25.8687C110.599 26.2856 110.056 26.6802 109.658 26.5462C109.038 26.4866 108.885 25.5114 109.413 25.2285ZM117.133 25.6529C117.117 25.2732 117.576 25.1764 117.806 24.968C117.997 25.0648 118.38 25.2732 118.571 25.3774C118.594 25.9282 118.38 26.3898 117.829 26.6057C117.531 26.3378 116.98 26.1442 117.133 25.6529ZM139.801 25.4891C140.023 25.0722 140.575 25.2433 140.956 25.1467C141.011 25.5337 141.294 26.0324 140.896 26.3378C140.413 26.9035 139.42 26.0846 139.801 25.4891ZM159.639 24.953C161.086 26.2037 161.942 28.0425 162.096 29.9111C162.387 32.5836 161.752 35.5614 159.67 37.4523C160.229 36.0453 161.085 34.7351 161.247 33.2015C161.399 31.1319 161.469 28.9656 160.612 27.0151C160.336 26.3079 159.786 25.7124 159.639 24.953ZM77.7549 32.4943C77.5561 29.926 78.1452 26.9482 80.3103 25.2583C79.8819 26.3525 79.1397 27.3203 78.9255 28.4967C78.4359 30.6852 78.4512 33.0228 79.1551 35.1594C79.4075 36.0676 80.0655 36.7971 80.318 37.698C78.719 36.4547 77.9845 34.4225 77.7549 32.4943ZM84.3804 25.772C86.2472 24.9977 88.3969 25.1242 90.2485 25.8762C90.2025 26.3154 90.1567 26.7546 90.1107 27.2012C88.7566 25.2285 85.4286 25.221 83.9902 27.097C82.9114 28.3998 82.9114 30.1866 83.0799 31.7722C83.2098 33.4398 84.4723 35.0775 86.2319 35.3307C87.6778 35.6805 89.0779 34.9659 90.256 34.2289C90.2179 34.5341 90.1719 34.8393 90.1337 35.152C88.8942 35.9038 87.3948 35.9112 85.9871 35.8517C84.939 35.8517 83.9444 35.3827 83.1257 34.7797C81.519 33.2537 81.2666 30.8565 81.7333 28.8168C82.1465 27.5066 83.0874 26.3302 84.3804 25.772ZM135.402 26.8141C135.732 26.695 136.068 26.5685 136.405 26.4494C136.382 27.1715 136.382 27.8936 136.382 28.6158C137.04 28.5935 137.698 28.5636 138.355 28.5114C138.363 28.6306 138.37 28.8614 138.37 28.9805C137.705 28.9953 137.04 29.0103 136.374 29.0252C136.382 30.5811 136.259 32.1369 136.305 33.6928C136.321 34.2362 136.481 34.8393 136.978 35.1668C137.598 35.42 138.263 35.152 138.9 35.1148C138.18 35.7475 137.108 35.807 136.213 35.5763C135.525 35.3455 135.326 34.5787 135.334 33.946C135.311 32.2933 135.418 30.648 135.372 28.9953C135.051 28.9953 134.737 28.9953 134.416 28.9879L134.377 28.5339C134.706 28.5264 135.035 28.519 135.372 28.5114C135.387 27.9457 135.395 27.3799 135.402 26.8141ZM104.746 26.9631C105.129 26.7993 105.504 26.628 105.879 26.4643C105.833 27.1789 105.825 27.901 105.802 28.6158C106.529 28.5636 107.248 28.519 107.983 28.4967C107.707 29.4049 106.514 28.8911 105.787 29.0921C105.795 30.5513 105.726 32.003 105.733 33.4547C105.756 34.0576 105.787 34.8096 106.384 35.152C107.026 35.3903 107.699 35.1148 108.358 35.1148C107.592 35.7102 106.529 35.8294 105.596 35.606C104.746 35.2785 104.678 34.2139 104.701 33.4547C104.731 32.0178 104.708 30.5884 104.731 29.1592C104.287 29.1071 103.79 29.122 103.668 28.6008C103.935 28.6082 104.479 28.6082 104.746 28.6082C104.762 28.0648 104.754 27.5139 104.746 26.9631ZM91.8704 30.1567C92.8114 28.2212 95.9481 27.7745 97.3636 29.4495C97.9145 30.1866 97.9755 31.1468 97.9986 32.0253C96.2313 31.9732 94.4716 32.07 92.7043 32.0327C92.6891 33.1122 92.9109 34.3406 93.9207 34.9659C95.1296 35.621 96.6443 35.2339 97.6313 34.3777C97.639 34.5787 97.6466 34.7797 97.6543 34.9807C96.4302 35.7847 94.7929 36.0676 93.4082 35.5092C91.4114 34.6085 90.8912 31.9359 91.8704 30.1567ZM93.6835 29.2336C92.9567 29.7846 92.7503 30.7151 92.6585 31.5638C94.0738 31.5711 95.4814 31.5265 96.8969 31.5414C96.7822 30.8565 96.7745 30.1045 96.323 29.5314C95.7415 28.72 94.4716 28.7124 93.6835 29.2336ZM121.486 29.2262C122.863 28.0128 124.967 28.1393 126.52 28.9507C126.39 29.323 126.275 29.6951 126.16 30.0599C125.533 28.3998 122.955 28.2733 122.067 29.7473C121.455 30.7597 121.417 32.0401 121.685 33.1643C121.914 34.3629 123.1 35.353 124.37 35.2339C125.22 35.2859 125.893 34.7351 126.574 34.3406C126.52 35.2859 125.48 35.5986 124.661 35.6136C123.789 35.6433 122.848 35.6805 122.09 35.1892C119.986 34.0205 119.765 30.8044 121.486 29.2262ZM128.012 29.8888C128.02 28.921 129.06 28.571 129.886 28.4296C130.835 28.2807 132.067 28.4594 132.518 29.4049C133.214 31.0799 132.564 32.9186 132.847 34.6532C132.863 35.152 133.543 35.1221 133.865 35.3307C133.344 35.4572 132.817 35.621 132.273 35.5986C132.036 35.3604 131.853 35.0701 131.654 34.802C130.759 35.606 129.42 36.0007 128.272 35.4795C127.017 34.7574 127.17 32.6654 128.548 32.1518C129.634 31.854 130.766 31.7349 131.822 31.3106C131.761 30.5364 131.837 29.5388 131.057 29.0698C129.963 28.5935 128.762 29.0624 128.012 29.8888ZM129.053 32.6134C128.196 33.2312 128.418 34.7872 129.435 35.1297C130.246 35.3902 131.126 35.003 131.646 34.3926C131.906 33.5663 131.715 32.6804 131.753 31.8317C130.82 31.9582 129.848 32.0849 129.053 32.6134ZM145.555 28.4743C147.101 28.0574 148.921 28.6827 149.648 30.1121C150.39 31.7275 150.206 34.0129 148.592 35.0849C147.736 35.7698 146.549 35.6507 145.516 35.554C144.446 35.204 143.467 34.4 143.176 33.2983C142.525 31.4148 143.45 28.9805 145.555 28.4743ZM145.539 28.8987C144.01 29.7324 144.048 31.7498 144.301 33.2238C144.384 34.4745 145.608 35.606 146.925 35.3231C148.11 35.1892 148.814 34.0502 148.883 32.9782C148.998 31.653 148.951 30.1045 147.911 29.1145C147.238 28.6381 146.29 28.5785 145.539 28.8987ZM154.574 28.4371C155.539 28.251 156.747 28.2658 157.367 29.1443C157.812 29.9334 157.804 30.8639 157.804 31.7424C157.788 32.9782 157.804 34.2215 157.804 35.4572C157.459 35.4572 157.123 35.4572 156.786 35.4646C156.801 33.9757 156.832 32.4869 156.817 30.998C156.847 30.0972 156.296 29.0178 155.271 28.9358C154.154 28.7423 153.113 29.6728 153.068 30.7374C152.953 32.3156 153.023 33.9013 153.083 35.4721C152.724 35.4795 152.371 35.4795 152.02 35.4795C152.012 33.1643 152.097 30.8342 151.92 28.519C152.272 28.5114 152.625 28.5114 152.968 28.504C152.946 28.9582 152.914 29.4123 152.884 29.8664C153.389 29.3453 153.857 28.6977 154.574 28.4371ZM99.7353 28.6082C100.156 28.6082 100.577 28.6158 100.998 28.6232C100.952 29.1443 100.921 29.6654 100.89 30.1866C101.403 29.3155 102.107 28.4148 103.247 28.4371C103.255 28.8465 103.262 29.2634 103.27 29.6802C102.551 29.4569 101.602 29.4421 101.258 30.2237C100.623 31.9508 100.86 33.8342 100.959 35.6283C100.577 35.6283 100.194 35.621 99.8194 35.621C99.7965 33.276 99.8883 30.9384 99.7353 28.6082ZM109.253 28.5264C109.635 28.5339 110.025 28.5339 110.408 28.5339C110.331 30.8713 110.331 33.2089 110.438 35.5391C110.071 35.5391 109.704 35.5391 109.337 35.5391C109.352 33.2015 109.452 30.8565 109.253 28.5264ZM117.248 28.4967C117.653 28.4891 118.066 28.4817 118.472 28.4743C118.395 30.8119 118.387 33.1493 118.487 35.4795C118.097 35.4721 117.699 35.4721 117.309 35.4795C117.431 33.1569 117.37 30.8267 117.248 28.4967ZM139.893 28.5935C140.254 28.5935 140.62 28.5933 140.988 28.6008C140.956 30.9086 140.996 33.2312 141.003 35.5465C140.65 35.5465 140.306 35.5465 139.955 35.554C139.993 33.2312 140.055 30.9086 139.893 28.5935Z" fill="#8A8A8A"/>
<path fill-rule="evenodd" clip-rule="evenodd" d="M162.232 21.6108H40.0195V20.6108H162.232V21.6108Z" fill="#8A8A8A"/>
<path d="M43.4664 0.506575V16.5872H40.1641V0.506575H43.4664ZM56.9016 12.3793C56.9016 12.0921 56.8575 11.8344 56.7691 11.6062C56.6881 11.3705 56.5336 11.157 56.3053 10.9656C56.0771 10.7667 55.7568 10.5716 55.3444 10.3803C54.9322 10.1888 54.3984 9.99002 53.743 9.78389C53.0141 9.5482 52.322 9.28311 51.6668 8.98861C51.0188 8.69412 50.4444 8.35182 49.9438 7.96157C49.4504 7.56393 49.0602 7.10372 48.7731 6.58107C48.4934 6.05828 48.3534 5.45074 48.3534 4.75875C48.3534 4.08863 48.5006 3.48124 48.7952 2.93643C49.0897 2.38423 49.502 1.91301 50.0322 1.52276C50.5622 1.12512 51.1882 0.819618 51.9097 0.606097C52.6386 0.392576 53.4375 0.285818 54.3062 0.285818C55.4917 0.285818 56.5262 0.499337 57.4098 0.92638C58.2933 1.35342 58.9781 1.93864 59.4641 2.68235C59.9573 3.42605 60.204 4.27637 60.204 5.23359H56.9128C56.9128 4.76237 56.8133 4.35011 56.6145 3.99665C56.4232 3.63581 56.1285 3.35232 55.7311 3.14618C55.3408 2.94005 54.8474 2.83691 54.251 2.83691C53.6768 2.83691 53.1982 2.92528 52.8153 3.102C52.4325 3.27134 52.1452 3.50326 51.9539 3.79791C51.7624 4.08502 51.6668 4.40892 51.6668 4.76976C51.6668 5.04224 51.733 5.28878 51.8655 5.50969C52.0054 5.7306 52.2116 5.93674 52.4841 6.12824C52.7564 6.3196 53.0914 6.49994 53.4891 6.66943C53.8866 6.83877 54.3468 7.00434 54.8696 7.16629C55.7457 7.43139 56.5152 7.72965 57.1777 8.06094C57.8479 8.39223 58.4075 8.76408 58.8565 9.17635C59.3057 9.58876 59.6444 10.0562 59.8727 10.579C60.1009 11.1018 60.215 11.6946 60.215 12.3571C60.215 13.0567 60.0788 13.6825 59.8064 14.2347C59.5339 14.787 59.14 15.2545 58.6246 15.6373C58.1092 16.0202 57.4944 16.3111 56.7803 16.5098C56.066 16.7087 55.2672 16.8081 54.3836 16.8081C53.5885 16.8081 52.8043 16.7049 52.0312 16.4988C51.2581 16.2853 50.555 15.965 49.9216 15.538C49.2959 15.1109 48.7952 14.5661 48.4196 13.9034C48.0441 13.2408 47.8564 12.4565 47.8564 11.551H51.1808C51.1808 12.0516 51.2581 12.4749 51.4127 12.821C51.5672 13.1671 51.7845 13.4469 52.0642 13.6604C52.3515 13.874 52.6902 14.0285 53.0804 14.1243C53.4779 14.22 53.9124 14.2678 54.3836 14.2678C54.9579 14.2678 55.4292 14.1869 55.7973 14.0249C56.1727 13.863 56.4488 13.6383 56.6256 13.3512C56.8097 13.0641 56.9016 12.74 56.9016 12.3793ZM77.6373 8.17132V8.93342C77.6373 10.1557 77.4716 11.2528 77.1403 12.2246C76.809 13.1966 76.3414 14.0249 75.7377 14.7097C75.134 15.387 74.4123 15.906 73.573 16.2669C72.741 16.6277 71.8169 16.8081 70.8009 16.8081C69.7922 16.8081 68.8682 16.6277 68.0287 16.2669C67.1968 15.906 66.4753 15.387 65.8641 14.7097C65.2529 14.0249 64.7781 13.1966 64.4394 12.2246C64.108 11.2528 63.9424 10.1557 63.9424 8.93342V8.17132C63.9424 6.94176 64.108 5.84475 64.4394 4.88014C64.7707 3.90829 65.2383 3.07999 65.8419 2.39524C66.4531 1.7105 67.1746 1.1877 68.0067 0.826857C68.846 0.466163 69.7701 0.285818 70.7789 0.285818C71.7949 0.285818 72.719 0.466163 73.5509 0.826857C74.3903 1.1877 75.1119 1.7105 75.7156 2.39524C76.3268 3.07999 76.798 3.90829 77.1293 4.88014C77.468 5.84475 77.6373 6.94176 77.6373 8.17132ZM74.291 8.93342V8.14931C74.291 7.29522 74.2136 6.54413 74.059 5.89633C73.9043 5.24837 73.6762 4.70341 73.3743 4.26174C73.0724 3.81992 72.7042 3.48863 72.2697 3.26772C71.8355 3.03942 71.3385 2.92527 70.7789 2.92527C70.2193 2.92527 69.7223 3.03942 69.2878 3.26772C68.8608 3.48863 68.4963 3.81992 68.1944 4.26174C67.9 4.70341 67.6754 5.24837 67.5207 5.89633C67.3661 6.54413 67.2888 7.29522 67.2888 8.14931V8.93342C67.2888 9.78012 67.3661 10.5312 67.5207 11.1866C67.6754 11.8344 67.9036 12.3829 68.2055 12.8321C68.5073 13.2738 68.8756 13.6089 69.3099 13.8372C69.7443 14.0653 70.2413 14.1795 70.8009 14.1795C71.3605 14.1795 71.8575 14.0653 72.2919 13.8372C72.7263 13.6089 73.0908 13.2738 73.3853 12.8321C73.6798 12.3829 73.9043 11.8344 74.059 11.1866C74.2136 10.5312 74.291 9.78012 74.291 8.93342ZM96.9979 0.473551V16.5872H93.8171V4.1402L89.9958 5.35513V2.84807L96.6555 0.473551H96.9979ZM107.451 7.16629H109.152C109.697 7.16629 110.146 7.07431 110.5 6.89019C110.853 6.69884 111.114 6.43375 111.284 6.09507C111.46 5.749 111.549 5.34775 111.549 4.8913C111.549 4.47888 111.468 4.11442 111.306 3.79791C111.151 3.47386 110.912 3.22354 110.588 3.04681C110.264 2.8627 109.855 2.77071 109.362 2.77071C108.972 2.77071 108.611 2.84807 108.28 3.00263C107.948 3.15734 107.683 3.37448 107.484 3.6542C107.286 3.93407 107.186 4.27275 107.186 4.67039H103.994C103.994 3.78675 104.23 3.01741 104.701 2.36207C105.18 1.70673 105.82 1.19509 106.623 0.826857C107.425 0.458774 108.309 0.274658 109.274 0.274658C110.363 0.274658 111.317 0.451387 112.134 0.804843C112.951 1.15091 113.588 1.66254 114.045 2.34005C114.501 3.01741 114.73 3.85672 114.73 4.85813C114.73 5.36614 114.612 5.85938 114.376 6.338C114.14 6.80922 113.802 7.23626 113.36 7.61912C112.926 7.99474 112.395 8.29663 111.77 8.52478C111.144 8.74569 110.441 8.85607 109.66 8.85607H107.451V7.16629ZM107.451 9.58499V7.9394H109.66C110.536 7.9394 111.306 8.03893 111.968 8.23767C112.631 8.43641 113.187 8.72367 113.636 9.09914C114.085 9.46723 114.424 9.90528 114.652 10.4134C114.88 10.9141 114.994 11.4699 114.994 12.081C114.994 12.8321 114.851 13.5021 114.564 14.0911C114.277 14.6729 113.872 15.1661 113.349 15.5711C112.833 15.976 112.23 16.2853 111.538 16.4988C110.846 16.7049 110.091 16.8081 109.274 16.8081C108.596 16.8081 107.93 16.7159 107.275 16.532C106.627 16.3405 106.038 16.057 105.507 15.6815C104.985 15.2986 104.565 14.82 104.248 14.2458C103.939 13.6641 103.785 12.9757 103.785 12.1804H106.976C106.976 12.5928 107.079 12.9609 107.286 13.285C107.492 13.6089 107.775 13.863 108.136 14.0469C108.504 14.231 108.913 14.323 109.362 14.323C109.87 14.323 110.304 14.231 110.665 14.0469C111.033 13.8556 111.313 13.5905 111.505 13.2518C111.703 12.9057 111.803 12.5045 111.803 12.0479C111.803 11.4589 111.696 10.9877 111.482 10.6342C111.269 10.2735 110.963 10.0084 110.566 9.83908C110.168 9.66974 109.697 9.58499 109.152 9.58499H107.451ZM130.407 10.579V13.0751H118.821L118.667 11.1424L125.371 0.506575H127.9L125.161 5.09004L121.825 10.579H130.407ZM128.584 0.506575V16.5872H125.404V0.506575H128.584ZM144.924 12.1804C144.924 13.1892 144.689 14.0395 144.217 14.7317C143.747 15.4164 143.098 15.9356 142.273 16.2889C141.456 16.635 140.529 16.8081 139.491 16.8081C138.452 16.8081 137.52 16.635 136.697 16.2889C135.872 15.9356 135.22 15.4164 134.742 14.7317C134.263 14.0395 134.024 13.1892 134.024 12.1804C134.024 11.5031 134.16 10.8919 134.432 10.3471C134.705 9.7949 135.084 9.32367 135.57 8.93342C136.063 8.53578 136.641 8.2339 137.303 8.02777C137.967 7.81425 138.688 7.70749 139.469 7.70749C140.514 7.70749 141.449 7.8916 142.273 8.25969C143.098 8.62792 143.747 9.14694 144.217 9.81706C144.689 10.487 144.924 11.2749 144.924 12.1804ZM141.721 11.9707C141.721 11.4773 141.626 11.054 141.435 10.7006C141.251 10.3397 140.989 10.0636 140.651 9.87225C140.312 9.68075 139.918 9.58499 139.469 9.58499C139.019 9.58499 138.626 9.68075 138.286 9.87225C137.949 10.0636 137.683 10.3397 137.492 10.7006C137.308 11.054 137.216 11.4773 137.216 11.9707C137.216 12.4565 137.308 12.8763 137.492 13.2296C137.683 13.5831 137.949 13.8556 138.286 14.0469C138.633 14.231 139.034 14.323 139.491 14.323C139.947 14.323 140.342 14.231 140.672 14.0469C141.011 13.8556 141.269 13.5831 141.445 13.2296C141.629 12.8763 141.721 12.4565 141.721 11.9707ZM144.582 4.76976C144.582 5.58705 144.365 6.31221 143.931 6.94554C143.496 7.57132 142.893 8.06094 142.12 8.4144C141.353 8.76785 140.477 8.94443 139.491 8.94443C138.496 8.94443 137.614 8.76785 136.84 8.4144C136.067 8.06094 135.463 7.57132 135.029 6.94554C134.594 6.31221 134.377 5.58705 134.377 4.76976C134.377 3.79791 134.594 2.98062 135.029 2.31789C135.47 1.64792 136.074 1.1399 136.84 0.793833C137.614 0.447766 138.49 0.274658 139.469 0.274658C140.462 0.274658 141.343 0.447766 142.107 0.793833C142.881 1.1399 143.486 1.64792 143.92 2.31789C144.362 2.98062 144.582 3.79791 144.582 4.76976ZM141.402 4.91332C141.402 4.47888 141.323 4.10341 141.17 3.78675C141.014 3.46285 140.794 3.21254 140.506 3.03581C140.227 2.85908 139.88 2.77071 139.469 2.77071C139.071 2.77071 138.728 2.85546 138.442 3.0248C138.161 3.19414 137.944 3.44068 137.79 3.76473C137.643 4.08124 137.569 4.46411 137.569 4.91332C137.569 5.34775 137.643 5.73061 137.79 6.0619C137.944 6.38595 138.166 6.63988 138.452 6.824C138.74 7.00811 139.086 7.1001 139.491 7.1001C139.895 7.1001 140.238 7.00811 140.518 6.824C140.805 6.63988 141.022 6.38595 141.17 6.0619C141.323 5.73061 141.402 5.34775 141.402 4.91332ZM152.031 9.26471L149.492 8.65732L150.409 0.506575H159.442V3.07999H153.025L152.628 6.64727C152.841 6.52211 153.165 6.38957 153.599 6.24963C154.034 6.10246 154.521 6.02872 155.057 6.02872C155.839 6.02872 156.531 6.15026 157.134 6.39319C157.737 6.63626 158.25 6.98972 158.669 7.45355C159.096 7.91739 159.42 8.48437 159.642 9.15433C159.862 9.8243 159.972 10.5828 159.972 11.4295C159.972 12.1436 159.862 12.8248 159.642 13.4727C159.42 14.1133 159.085 14.6875 158.636 15.1955C158.186 15.6963 157.624 16.0902 156.947 16.3773C156.268 16.6645 155.466 16.8081 154.539 16.8081C153.847 16.8081 153.177 16.7049 152.529 16.4988C151.888 16.2927 151.31 15.9872 150.795 15.5821C150.286 15.1771 149.878 14.6875 149.569 14.1133C149.267 13.5315 149.109 12.8689 149.094 12.1252H152.253C152.296 12.5818 152.414 12.9757 152.606 13.307C152.805 13.631 153.065 13.8814 153.39 14.0581C153.714 14.2347 154.092 14.323 154.528 14.323C154.932 14.323 155.279 14.2458 155.566 14.0911C155.852 13.9365 156.084 13.723 156.261 13.4505C156.439 13.1708 156.567 12.8468 156.648 12.4787C156.736 12.1032 156.781 11.6982 156.781 11.2638C156.781 10.8293 156.728 10.4355 156.626 10.082C156.523 9.7287 156.365 9.42304 156.151 9.16534C155.938 8.90764 155.665 8.70889 155.333 8.56896C155.009 8.42902 154.631 8.35921 154.196 8.35921C153.607 8.35921 153.15 8.45119 152.827 8.63531C152.511 8.81927 152.245 9.02917 152.031 9.26471Z" fill="#8A8A8A"/>
</svg>
