<svg width="792" height="510" viewBox="0 0 792 510" fill="none" xmlns="http://www.w3.org/2000/svg">
<path opacity="0.04" d="M408.857 -220.208C-86.5533 -37.4964 662.12 511.601 737.034 149.65C774.225 -30.4344 1123.11 80.9822 1112.71 -104.838C1102.31 -290.658 945.021 -274.609 789.031 -365.634C594.784 -480.041 540.045 -268.601 408.857 -220.208Z" stroke="url(#paint0_linear_5987_1037)" stroke-width="2" stroke-miterlimit="10"/>
<path opacity="0.07" d="M405.024 -229.52C-59.8131 -37.7695 637.526 501.991 736.814 157.766C785.769 -11.9018 1129.09 60.7199 1108.11 -118.91C1087.31 -298.383 934.466 -296.783 781.83 -371.941C591.444 -465.684 531.648 -281.749 405.024 -229.52Z" stroke="url(#paint1_linear_5987_1037)" stroke-width="2" stroke-miterlimit="10"/>
<path opacity="0.11" d="M401.194 -238.819C-32.8481 -39.0048 612.508 492.77 736.663 165.868C797.083 6.79999 1135.01 40.4578 1103.54 -132.968C1072.34 -306.199 924.149 -319.256 774.659 -378.249C588.498 -451.69 523.36 -295.002 401.194 -238.819Z" stroke="url(#paint2_linear_5987_1037)" stroke-width="2" stroke-miterlimit="10"/>
<path opacity="0.15" d="M397.356 -248.182C-5.90383 -41.3979 586.962 483.796 736.517 173.918C808.116 25.6056 1140.93 20.1825 1098.96 -147.027C1057.44 -314.002 913.825 -341.743 767.403 -384.556C585.597 -437.709 515.193 -308.566 397.356 -248.182Z" stroke="url(#paint3_linear_5987_1037)" stroke-width="2" stroke-miterlimit="10"/>
<path opacity="0.19" d="M393.52 -257.443C20.9642 -44.6756 560.78 475.082 736.36 182.072C818.813 44.4369 1146.85 -0.0802945 1094.4 -161.047C1042.52 -321.806 903.711 -364.242 760.187 -390.864C582.801 -423.755 507.094 -322.313 393.52 -257.443Z" stroke="url(#paint4_linear_5987_1037)" stroke-width="2" stroke-miterlimit="10"/>
<path opacity="0.23" d="M389.686 -266.742C47.6267 -49.2019 533.925 466.303 736.205 190.174C829.175 63.2682 1152.78 -20.356 1089.78 -175.158C1027.53 -329.597 893.625 -386.82 752.974 -397.172C580.098 -409.905 499.061 -336.294 389.686 -266.742Z" stroke="url(#paint5_linear_5987_1037)" stroke-width="2" stroke-miterlimit="10"/>
<path opacity="0.26" d="M385.848 -276.053C73.9719 -55.0539 506.389 457.265 736.045 198.277C839.193 81.9572 1158.69 -40.6179 1085.24 -189.282C1012.61 -337.399 883.585 -409.449 745.755 -403.479C577.468 -396.157 490.998 -350.574 385.848 -276.053Z" stroke="url(#paint6_linear_5987_1037)" stroke-width="2" stroke-miterlimit="10"/>
<path opacity="0.3" d="M382.014 -285.364C99.8159 -62.0891 478.208 447.798 735.89 206.38C848.983 100.439 1164.62 -60.8795 1080.67 -203.288C997.615 -345.202 873.59 -432.26 738.529 -409.786C574.87 -382.553 482.875 -365.23 382.014 -285.364Z" stroke="url(#paint7_linear_5987_1037)" stroke-width="2" stroke-miterlimit="10"/>
<path opacity="0.34" d="M378.169 -294.676C125.011 -70.295 449.664 437.732 735.724 214.483C858.501 118.672 1170.52 -81.1543 1076.09 -217.294C982.721 -352.992 863.571 -455.161 731.33 -416.093C572.26 -369.131 474.584 -380.121 378.169 -294.676Z" stroke="url(#paint8_linear_5987_1037)" stroke-width="2" stroke-miterlimit="10"/>
<path opacity="0.38" d="M374.353 -303.975C149.468 -79.5677 420.773 426.99 735.574 222.611C867.944 136.646 1176.4 -101.417 1071.52 -231.418C967.713 -360.795 853.489 -478.181 724.095 -422.453C569.562 -355.788 466.01 -395.454 374.353 -303.975Z" stroke="url(#paint9_linear_5987_1037)" stroke-width="2" stroke-miterlimit="10"/>
<path opacity="0.41" d="M370.46 -313.287C172.872 -89.7384 391.778 415.57 735.424 230.7C877.427 154.333 1182.36 -121.679 1066.95 -245.477C952.77 -368.598 843.369 -501.279 716.887 -428.709C566.747 -342.562 457.034 -411.165 370.46 -313.287Z" stroke="url(#paint10_linear_5987_1037)" stroke-width="2" stroke-miterlimit="10"/>
<path opacity="0.45" d="M366.658 -322.598C195.173 -100.584 362.823 403.489 735.261 238.803C886.832 171.773 1188.28 -141.941 1062.37 -259.535C937.801 -376.401 833.054 -524.415 709.731 -435.016C563.855 -329.374 447.486 -427.252 366.658 -322.598Z" stroke="url(#paint11_linear_5987_1037)" stroke-width="2" stroke-miterlimit="10"/>
<path opacity="0.49" d="M362.825 -331.911C216.273 -111.783 334.058 390.873 735.108 246.904C896.388 189.004 1194.2 -162.204 1057.81 -273.608C922.854 -384.153 822.696 -547.565 702.454 -441.377C560.828 -316.201 437.219 -443.653 362.825 -331.911Z" stroke="url(#paint12_linear_5987_1037)" stroke-width="2" stroke-miterlimit="10"/>
<path opacity="0.53" d="M358.992 -341.21C236.085 -122.981 305.461 377.789 734.953 255.006C906.022 206.08 1200.13 -182.48 1053.24 -287.667C907.907 -391.996 812.246 -570.689 695.241 -447.633C557.645 -303.001 426.055 -460.313 358.992 -341.21Z" stroke="url(#paint13_linear_5987_1037)" stroke-width="2" stroke-miterlimit="10"/>
<path opacity="0.56" d="M355.158 -350.522C254.584 -133.736 277.228 364.368 734.799 263.109C915.877 223.039 1206.04 -202.742 1048.66 -301.726C892.946 -399.799 801.679 -593.773 688.028 -453.888C554.513 -289.8 413.862 -477.077 355.158 -350.522Z" stroke="url(#paint14_linear_5987_1037)" stroke-width="2" stroke-miterlimit="10"/>
<path opacity="0.6" d="M351.311 -359.833C271.808 -143.659 249.254 350.713 734.642 271.211C925.808 239.894 1211.96 -222.991 1044.02 -315.797C877.932 -407.601 791.111 -616.844 680.735 -460.26C551.264 -276.469 400.564 -493.762 351.311 -359.833Z" stroke="url(#paint15_linear_5987_1037)" stroke-width="2" stroke-miterlimit="10"/>
<path d="M610.938 289.288C965.412 1010.34 1410.57 -277.016 941.584 -262.138C706.767 -254.686 786.725 -803.003 556.978 -758.421C327.231 -713.839 409.789 -486.61 325.749 -231.458C220.807 87.159 519.372 102.961 610.938 289.288Z" stroke="url(#paint16_linear_5987_1037)" stroke-width="2" stroke-miterlimit="10"/>
<path opacity="0.94" d="M600.914 297C959.132 972.679 1405.76 -239.469 951.359 -263.789C725.602 -275.884 760.817 -806.866 541.443 -748.537C322.07 -690.208 385.376 -466.451 320.237 -219.571C237.861 88.2126 506.346 118.567 600.914 297Z" stroke="url(#paint17_linear_5987_1037)" stroke-width="2" stroke-miterlimit="10"/>
<path opacity="0.88" d="M590.853 304.713C951.905 934.964 1401.7 -201.532 961.095 -265.454C744.828 -296.848 734.91 -810.728 525.897 -738.652C316.961 -666.954 361.834 -446.137 314.712 -207.645C256.06 89.4746 493.152 134.174 590.853 304.713Z" stroke="url(#paint18_linear_5987_1037)" stroke-width="2" stroke-miterlimit="10"/>
<path opacity="0.81" d="M580.787 312.424C943.71 897.247 1398.37 -162.96 970.827 -267.119C764.27 -317.437 708.998 -814.644 510.345 -728.809C311.822 -643.468 337.833 -426.006 309.183 -195.733C273.578 90.5138 479.758 149.597 580.787 312.424Z" stroke="url(#paint19_linear_5987_1037)" stroke-width="2" stroke-miterlimit="10"/>
<path opacity="0.75" d="M570.726 320.149C934.248 859.636 1395.56 -123.554 980.564 -268.771C783.965 -337.569 683.078 -818.454 494.798 -718.885C306.688 -620.045 313.785 -405.951 303.711 -183.82C291.154 91.4633 466.135 164.917 570.726 320.149Z" stroke="url(#paint20_linear_5987_1037)" stroke-width="2" stroke-miterlimit="10"/>
<path opacity="0.69" d="M560.678 327.862C923.588 822.259 1393 -83.1066 990.313 -270.383C803.775 -357.194 657.196 -822.316 479.277 -709.001C301.566 -596.557 289.723 -385.975 298.16 -171.881C308.559 92.3221 452.278 180.173 560.678 327.862Z" stroke="url(#paint21_linear_5987_1037)" stroke-width="2" stroke-miterlimit="10"/>
<path opacity="0.63" d="M550.605 335.574C911.539 785.22 1390.36 -41.6978 1000.05 -272.087C823.496 -376.299 631.278 -826.179 463.719 -699.117C296.355 -573.108 265.534 -366.051 292.624 -159.994C325.889 93.1023 438.045 195.389 550.605 335.574Z" stroke="url(#paint22_linear_5987_1037)" stroke-width="2" stroke-miterlimit="10"/>
<path opacity="0.56" d="M540.547 343.285C898.024 748.726 1387.34 0.698821 1009.82 -273.74C843.063 -394.949 605.4 -830.042 448.253 -689.234C291.289 -549.647 241.255 -346.166 287.103 -148.043C343.155 93.8558 423.568 210.618 540.547 343.285Z" stroke="url(#paint23_linear_5987_1037)" stroke-width="2" stroke-miterlimit="10"/>
<path opacity="0.5" d="M530.493 350.997C883.095 712.909 1383.69 43.9155 1019.52 -275.404C862.296 -413.261 579.448 -833.918 432.622 -679.35C286.135 -526.199 216.836 -326.294 281.559 -136.182C360.152 94.5712 408.678 225.951 530.493 350.997Z" stroke="url(#paint24_linear_5987_1037)" stroke-width="2" stroke-miterlimit="10"/>
<path opacity="0.44" d="M520.441 358.71C866.674 678.107 1379.19 87.7047 1029.28 -277.056C881.259 -431.325 553.511 -837.767 417.098 -669.465C281.023 -502.737 192.368 -306.383 276.057 -124.269C377.06 95.3387 393.374 241.493 520.441 358.71Z" stroke="url(#paint25_linear_5987_1037)" stroke-width="2" stroke-miterlimit="10"/>
<path opacity="0.38" d="M510.378 366.422C848.824 644.437 1373.99 131.858 1039.01 -278.72C899.923 -449.285 527.654 -841.642 401.562 -659.594C275.886 -479.288 167.668 -286.406 270.53 -112.356C393.853 96.1977 377.617 257.386 510.378 366.422Z" stroke="url(#paint26_linear_5987_1037)" stroke-width="2" stroke-miterlimit="10"/>
<path opacity="0.31" d="M500.311 374.147C829.814 612.145 1367.87 176.154 1048.75 -280.358C918.143 -467.193 501.741 -845.505 386.049 -649.697C270.746 -455.826 142.965 -266.391 265.014 -100.456C410.461 97.1729 361.35 273.798 500.311 374.147Z" stroke="url(#paint27_linear_5987_1037)" stroke-width="2" stroke-miterlimit="10"/>
<path opacity="0.25" d="M490.253 381.861C809.824 581.479 1361.05 220.413 1058.48 -281.996C936.163 -485.165 475.824 -849.366 370.453 -639.811C265.601 -432.364 118.126 -246.127 259.479 -88.5288C427.064 98.2797 344.74 290.967 490.253 381.861Z" stroke="url(#paint28_linear_5987_1037)" stroke-width="2" stroke-miterlimit="10"/>
<path opacity="0.19" d="M480.191 389.572C789.376 552.606 1353.62 264.526 1068.22 -283.688C953.945 -503.218 449.916 -853.23 354.918 -629.929C260.466 -408.916 93.3233 -225.814 253.967 -76.6302C443.65 99.5399 327.685 309.16 480.191 389.572Z" stroke="url(#paint29_linear_5987_1037)" stroke-width="2" stroke-miterlimit="10"/>
<path opacity="0.13" d="M470.129 397.284C768.928 525.634 1345.69 308.445 1077.97 -285.339C971.533 -521.386 424.008 -857.092 339.384 -620.044C255.344 -385.454 68.5463 -205.395 248.39 -64.7169C460.263 100.906 310.37 328.642 470.129 397.284Z" stroke="url(#paint30_linear_5987_1037)" stroke-width="2" stroke-miterlimit="10"/>
<path opacity="0.06" d="M460.078 404.997C749.205 500.69 1337.39 352.092 1087.72 -287.003C989.001 -539.683 398.111 -860.954 323.847 -610.172C250.207 -362.018 43.7932 -184.898 242.94 -52.8162C476.925 102.389 293.026 349.712 460.078 404.997Z" stroke="url(#paint31_linear_5987_1037)" stroke-width="2" stroke-miterlimit="10"/>
<path opacity="0.03" d="M1007.98 113.675C1788.51 20.9472 860.518 -979.201 640.832 -503.18C531.548 -266.484 55.1551 -532.872 13.9218 -272.765C-27.3116 -12.6587 207.336 15.823 407.718 191.954C656.99 412.693 801.514 138.203 1007.98 113.675Z" stroke="url(#paint32_linear_5987_1037)" stroke-width="2" stroke-miterlimit="10"/>
<path opacity="0.05" d="M1010.76 127.774C1749.66 12.6377 893.628 -958.132 643.433 -514.325C520.266 -295.836 40.2727 -506.782 16.2242 -251.852C-8.07124 2.84452 215.969 49.8718 416.312 202.996C666.13 393.876 809.939 159.065 1010.76 127.774Z" stroke="url(#paint33_linear_5987_1037)" stroke-width="2" stroke-miterlimit="10"/>
<path opacity="0.07" d="M1013.55 141.871C1710.29 5.53599 927.546 -937.467 646.167 -525.472C509.546 -325.372 25.4442 -480.694 18.6716 -230.953C11.47 18.4241 224.266 84.2701 425.051 214.037C674.752 375.498 818.132 180.106 1013.55 141.871Z" stroke="url(#paint34_linear_5987_1037)" stroke-width="2" stroke-miterlimit="10"/>
<path opacity="0.1" d="M1016.32 155.969C1670.58 -0.198522 962.373 -917.1 648.859 -536.616C499.2 -354.984 10.6009 -454.605 21.0782 -210.04C30.9705 34.0313 232.405 118.644 433.632 225.08C683.255 357.123 826.116 201.371 1016.32 155.969Z" stroke="url(#paint35_linear_5987_1037)" stroke-width="2" stroke-miterlimit="10"/>
<path opacity="0.13" d="M1019.11 170.065C1630.59 -4.38875 998.207 -896.684 651.572 -547.829C489.407 -384.599 -4.1964 -428.584 23.5048 -189.208C50.452 49.6352 240.461 153.028 442.259 236.119C691.596 338.77 833.898 222.905 1019.11 170.065Z" stroke="url(#paint36_linear_5987_1037)" stroke-width="2" stroke-miterlimit="10"/>
<path opacity="0.15" d="M1021.87 184.165C1590.44 -6.90959 1035 -875.938 654.257 -558.908C480.068 -413.872 -19.0343 -402.428 25.8907 -168.228C69.9578 65.2438 248.345 187.494 450.898 247.162C699.806 320.512 841.535 244.717 1021.87 184.165Z" stroke="url(#paint37_linear_5987_1037)" stroke-width="2" stroke-miterlimit="10"/>
<path opacity="0.18" d="M1024.65 198.262C1550.34 -7.58623 1072.67 -854.545 656.943 -570.054C471.159 -442.914 -33.8713 -376.274 28.2906 -147.381C89.3866 80.7848 256.14 221.971 459.524 258.151C707.873 302.383 849.07 267.021 1024.65 198.262Z" stroke="url(#paint38_linear_5987_1037)" stroke-width="2" stroke-miterlimit="10"/>
<path opacity="0.2" d="M1027.42 212.359C1510.48 -6.46837 1111 -832.293 659.646 -581.2C462.566 -471.565 -48.6912 -350.238 30.7076 -126.417C108.937 96.4557 263.86 256.746 468.155 269.257C715.854 284.422 856.622 289.754 1027.42 212.359Z" stroke="url(#paint39_linear_5987_1037)" stroke-width="2" stroke-miterlimit="10"/>
<path opacity="0.23" d="M1030.2 226.51C1471.05 -3.37238 1149.79 -808.987 662.323 -592.293C454.102 -499.721 -63.524 -324.097 33.0857 -105.464C128.421 112.063 271.581 291.614 476.786 280.3C723.822 266.67 864.2 313.021 1030.2 226.51Z" stroke="url(#paint40_linear_5987_1037)" stroke-width="2" stroke-miterlimit="10"/>
<path opacity="0.25" d="M1032.98 240.554C1432.39 1.43838 1188.61 -784.733 665.029 -603.491C445.707 -527.579 -78.3406 -298.061 35.506 -84.5789C147.923 127.668 279.331 326.649 485.42 291.34C731.832 249.125 872.053 336.898 1032.98 240.554Z" stroke="url(#paint41_linear_5987_1037)" stroke-width="2" stroke-miterlimit="10"/>
<path opacity="0.28" d="M1035.74 254.652C1394.78 8.01957 1227.36 -759.451 667.71 -614.636C437.222 -554.994 -93.182 -271.972 37.9015 -63.7049C167.412 143.275 287.16 361.764 494.042 302.382C739.934 231.711 880.324 361.452 1035.74 254.652Z" stroke="url(#paint42_linear_5987_1037)" stroke-width="2" stroke-miterlimit="10"/>
<path opacity="0.3" d="M1038.53 268.75C1358.39 15.8227 1265.84 -733.284 670.423 -625.782C428.639 -582.11 -107.992 -245.884 40.3284 -42.7924C186.92 158.79 295.112 397.1 502.695 313.437C748.21 214.453 889.251 386.748 1038.53 268.75Z" stroke="url(#paint43_linear_5987_1037)" stroke-width="2" stroke-miterlimit="10"/>
<path opacity="0.33" d="M1041.3 282.849C1323.76 24.8107 1303.88 -706.518 673.113 -636.939C419.851 -608.991 -122.825 -219.794 42.7195 -21.8916C206.405 174.489 303.222 432.41 511.313 324.466C756.62 197.235 899.091 412.772 1041.3 282.849Z" stroke="url(#paint44_linear_5987_1037)" stroke-width="2" stroke-miterlimit="10"/>
<path opacity="0.35" d="M1044.08 296.946C1290.95 34.2516 1341.49 -679.207 675.804 -648.086C410.752 -635.744 -137.657 -193.706 45.1244 -0.992914C225.891 190.094 311.425 467.745 519.944 335.507C765.173 180.015 910.14 439.484 1044.08 296.946Z" stroke="url(#paint45_linear_5987_1037)" stroke-width="2" stroke-miterlimit="10"/>
<path opacity="0.38" d="M1046.85 311.044C1260.23 43.5891 1378.58 -651.532 678.535 -659.232C401.575 -662.275 -152.449 -167.631 47.5692 19.9063C245.39 205.7 319.758 503.054 528.59 346.561C773.845 162.783 922.646 466.743 1046.85 311.044Z" stroke="url(#paint46_linear_5987_1037)" stroke-width="2" stroke-miterlimit="10"/>
<path opacity="0.4" d="M1049.65 325.141C1231.73 52.1207 1415.24 -623.636 681.147 -670.377C392.111 -688.78 -167.295 -141.542 49.947 40.8189C264.888 221.229 328.129 538.338 537.22 357.59C782.631 145.473 936.84 494.289 1049.65 325.141Z" stroke="url(#paint47_linear_5987_1037)" stroke-width="2" stroke-miterlimit="10"/>
<defs>
<linearGradient id="paint0_linear_5987_1037" x1="676.746" y1="-399.131" x2="676.746" y2="270.489" gradientUnits="userSpaceOnUse">
<stop offset="0.755208" stop-color="white"/>
<stop offset="1" stop-color="white" stop-opacity="0"/>
</linearGradient>
<linearGradient id="paint1_linear_5987_1037" x1="677.896" y1="-398.144" x2="677.896" y2="269.992" gradientUnits="userSpaceOnUse">
<stop offset="0.755208" stop-color="white"/>
<stop offset="1" stop-color="white" stop-opacity="0"/>
</linearGradient>
<linearGradient id="paint2_linear_5987_1037" x1="679.303" y1="-397.474" x2="679.303" y2="269.678" gradientUnits="userSpaceOnUse">
<stop offset="0.755208" stop-color="white"/>
<stop offset="1" stop-color="white" stop-opacity="0"/>
</linearGradient>
<linearGradient id="paint3_linear_5987_1037" x1="680.886" y1="-397.106" x2="680.886" y2="269.471" gradientUnits="userSpaceOnUse">
<stop offset="0.755208" stop-color="white"/>
<stop offset="1" stop-color="white" stop-opacity="0"/>
</linearGradient>
<linearGradient id="paint4_linear_5987_1037" x1="682.625" y1="-397.261" x2="682.625" y2="269.511" gradientUnits="userSpaceOnUse">
<stop offset="0.755208" stop-color="white"/>
<stop offset="1" stop-color="white" stop-opacity="0"/>
</linearGradient>
<linearGradient id="paint5_linear_5987_1037" x1="684.46" y1="-398.619" x2="684.46" y2="269.584" gradientUnits="userSpaceOnUse">
<stop offset="0.755208" stop-color="white"/>
<stop offset="1" stop-color="white" stop-opacity="0"/>
</linearGradient>
<linearGradient id="paint6_linear_5987_1037" x1="686.397" y1="-403.822" x2="686.397" y2="269.68" gradientUnits="userSpaceOnUse">
<stop offset="0.755208" stop-color="white"/>
<stop offset="1" stop-color="white" stop-opacity="0"/>
</linearGradient>
<linearGradient id="paint7_linear_5987_1037" x1="688.354" y1="-413.306" x2="688.354" y2="269.8" gradientUnits="userSpaceOnUse">
<stop offset="0.755208" stop-color="white"/>
<stop offset="1" stop-color="white" stop-opacity="0"/>
</linearGradient>
<linearGradient id="paint8_linear_5987_1037" x1="690.31" y1="-424.509" x2="690.31" y2="269.945" gradientUnits="userSpaceOnUse">
<stop offset="0.755208" stop-color="white"/>
<stop offset="1" stop-color="white" stop-opacity="0"/>
</linearGradient>
<linearGradient id="paint9_linear_5987_1037" x1="692.244" y1="-436.669" x2="692.244" y2="270.188" gradientUnits="userSpaceOnUse">
<stop offset="0.755208" stop-color="white"/>
<stop offset="1" stop-color="white" stop-opacity="0"/>
</linearGradient>
<linearGradient id="paint10_linear_5987_1037" x1="694.087" y1="-449.343" x2="694.087" y2="270.585" gradientUnits="userSpaceOnUse">
<stop offset="0.755208" stop-color="white"/>
<stop offset="1" stop-color="white" stop-opacity="0"/>
</linearGradient>
<linearGradient id="paint11_linear_5987_1037" x1="695.829" y1="-462.425" x2="695.829" y2="271.279" gradientUnits="userSpaceOnUse">
<stop offset="0.755208" stop-color="white"/>
<stop offset="1" stop-color="white" stop-opacity="0"/>
</linearGradient>
<linearGradient id="paint12_linear_5987_1037" x1="697.437" y1="-475.787" x2="697.437" y2="272.411" gradientUnits="userSpaceOnUse">
<stop offset="0.755208" stop-color="white"/>
<stop offset="1" stop-color="white" stop-opacity="0"/>
</linearGradient>
<linearGradient id="paint13_linear_5987_1037" x1="698.86" y1="-489.29" x2="698.86" y2="274.112" gradientUnits="userSpaceOnUse">
<stop offset="0.755208" stop-color="white"/>
<stop offset="1" stop-color="white" stop-opacity="0"/>
</linearGradient>
<linearGradient id="paint14_linear_5987_1037" x1="700.08" y1="-502.918" x2="700.08" y2="276.526" gradientUnits="userSpaceOnUse">
<stop offset="0.755208" stop-color="white"/>
<stop offset="1" stop-color="white" stop-opacity="0"/>
</linearGradient>
<linearGradient id="paint15_linear_5987_1037" x1="701.03" y1="-516.703" x2="701.03" y2="279.779" gradientUnits="userSpaceOnUse">
<stop offset="0.755208" stop-color="white"/>
<stop offset="1" stop-color="white" stop-opacity="0"/>
</linearGradient>
<linearGradient id="paint16_linear_5987_1037" x1="723.909" y1="-761" x2="723.908" y2="508.817" gradientUnits="userSpaceOnUse">
<stop offset="0.755208" stop-color="white"/>
<stop offset="1" stop-color="white" stop-opacity="0"/>
</linearGradient>
<linearGradient id="paint17_linear_5987_1037" x1="724.256" y1="-753.012" x2="724.256" y2="501.608" gradientUnits="userSpaceOnUse">
<stop offset="0.755208" stop-color="white"/>
<stop offset="1" stop-color="white" stop-opacity="0"/>
</linearGradient>
<linearGradient id="paint18_linear_5987_1037" x1="724.608" y1="-745.574" x2="724.608" y2="494.441" gradientUnits="userSpaceOnUse">
<stop offset="0.755208" stop-color="white"/>
<stop offset="1" stop-color="white" stop-opacity="0"/>
</linearGradient>
<linearGradient id="paint19_linear_5987_1037" x1="724.534" y1="-738.743" x2="724.534" y2="487.364" gradientUnits="userSpaceOnUse">
<stop offset="0.755208" stop-color="white"/>
<stop offset="1" stop-color="white" stop-opacity="0"/>
</linearGradient>
<linearGradient id="paint20_linear_5987_1037" x1="723.754" y1="-732.402" x2="723.754" y2="480.45" gradientUnits="userSpaceOnUse">
<stop offset="0.755208" stop-color="white"/>
<stop offset="1" stop-color="white" stop-opacity="0"/>
</linearGradient>
<linearGradient id="paint21_linear_5987_1037" x1="720.622" y1="-726.68" x2="720.622" y2="473.757" gradientUnits="userSpaceOnUse">
<stop offset="0.755208" stop-color="white"/>
<stop offset="1" stop-color="white" stop-opacity="0"/>
</linearGradient>
<linearGradient id="paint22_linear_5987_1037" x1="714.778" y1="-721.535" x2="714.777" y2="467.321" gradientUnits="userSpaceOnUse">
<stop offset="0.755208" stop-color="white"/>
<stop offset="1" stop-color="white" stop-opacity="0"/>
</linearGradient>
<linearGradient id="paint23_linear_5987_1037" x1="708.445" y1="-716.967" x2="708.445" y2="461.226" gradientUnits="userSpaceOnUse">
<stop offset="0.755208" stop-color="white"/>
<stop offset="1" stop-color="white" stop-opacity="0"/>
</linearGradient>
<linearGradient id="paint24_linear_5987_1037" x1="701.804" y1="-712.976" x2="701.804" y2="455.503" gradientUnits="userSpaceOnUse">
<stop offset="0.755208" stop-color="white"/>
<stop offset="1" stop-color="white" stop-opacity="0"/>
</linearGradient>
<linearGradient id="paint25_linear_5987_1037" x1="694.97" y1="-709.549" x2="694.969" y2="450.257" gradientUnits="userSpaceOnUse">
<stop offset="0.755208" stop-color="white"/>
<stop offset="1" stop-color="white" stop-opacity="0"/>
</linearGradient>
<linearGradient id="paint26_linear_5987_1037" x1="687.968" y1="-706.713" x2="687.968" y2="445.509" gradientUnits="userSpaceOnUse">
<stop offset="0.755208" stop-color="white"/>
<stop offset="1" stop-color="white" stop-opacity="0"/>
</linearGradient>
<linearGradient id="paint27_linear_5987_1037" x1="680.884" y1="-704.43" x2="680.884" y2="441.336" gradientUnits="userSpaceOnUse">
<stop offset="0.755208" stop-color="white"/>
<stop offset="1" stop-color="white" stop-opacity="0"/>
</linearGradient>
<linearGradient id="paint28_linear_5987_1037" x1="673.778" y1="-702.73" x2="673.778" y2="437.802" gradientUnits="userSpaceOnUse">
<stop offset="0.755208" stop-color="white"/>
<stop offset="1" stop-color="white" stop-opacity="0"/>
</linearGradient>
<linearGradient id="paint29_linear_5987_1037" x1="666.771" y1="-701.603" x2="666.771" y2="434.96" gradientUnits="userSpaceOnUse">
<stop offset="0.755208" stop-color="white"/>
<stop offset="1" stop-color="white" stop-opacity="0"/>
</linearGradient>
<linearGradient id="paint30_linear_5987_1037" x1="659.918" y1="-701.044" x2="659.918" y2="432.844" gradientUnits="userSpaceOnUse">
<stop offset="0.755208" stop-color="white"/>
<stop offset="1" stop-color="white" stop-opacity="0"/>
</linearGradient>
<linearGradient id="paint31_linear_5987_1037" x1="653.309" y1="-701.051" x2="653.309" y2="431.491" gradientUnits="userSpaceOnUse">
<stop offset="0.755208" stop-color="white"/>
<stop offset="1" stop-color="white" stop-opacity="0"/>
</linearGradient>
<linearGradient id="paint32_linear_5987_1037" x1="662.063" y1="-630.993" x2="662.063" y2="277.264" gradientUnits="userSpaceOnUse">
<stop offset="0.755208" stop-color="white"/>
<stop offset="1" stop-color="white" stop-opacity="0"/>
</linearGradient>
<linearGradient id="paint33_linear_5987_1037" x1="659.644" y1="-629.773" x2="659.644" y2="277.035" gradientUnits="userSpaceOnUse">
<stop offset="0.755208" stop-color="white"/>
<stop offset="1" stop-color="white" stop-opacity="0"/>
</linearGradient>
<linearGradient id="paint34_linear_5987_1037" x1="656.634" y1="-628.876" x2="656.634" y2="277.029" gradientUnits="userSpaceOnUse">
<stop offset="0.755208" stop-color="white"/>
<stop offset="1" stop-color="white" stop-opacity="0"/>
</linearGradient>
<linearGradient id="paint35_linear_5987_1037" x1="652.833" y1="-628.292" x2="652.833" y2="277.065" gradientUnits="userSpaceOnUse">
<stop offset="0.755208" stop-color="white"/>
<stop offset="1" stop-color="white" stop-opacity="0"/>
</linearGradient>
<linearGradient id="paint36_linear_5987_1037" x1="648.645" y1="-627.986" x2="648.645" y2="277.161" gradientUnits="userSpaceOnUse">
<stop offset="0.755208" stop-color="white"/>
<stop offset="1" stop-color="white" stop-opacity="0"/>
</linearGradient>
<linearGradient id="paint37_linear_5987_1037" x1="644.168" y1="-627.812" x2="644.168" y2="277.36" gradientUnits="userSpaceOnUse">
<stop offset="0.755208" stop-color="white"/>
<stop offset="1" stop-color="white" stop-opacity="0"/>
</linearGradient>
<linearGradient id="paint38_linear_5987_1037" x1="639.536" y1="-627.88" x2="639.536" y2="277.721" gradientUnits="userSpaceOnUse">
<stop offset="0.755208" stop-color="white"/>
<stop offset="1" stop-color="white" stop-opacity="0"/>
</linearGradient>
<linearGradient id="paint39_linear_5987_1037" x1="634.839" y1="-628.226" x2="634.839" y2="278.45" gradientUnits="userSpaceOnUse">
<stop offset="0.755208" stop-color="white"/>
<stop offset="1" stop-color="white" stop-opacity="0"/>
</linearGradient>
<linearGradient id="paint40_linear_5987_1037" x1="630.14" y1="-628.929" x2="630.14" y2="280.81" gradientUnits="userSpaceOnUse">
<stop offset="0.755208" stop-color="white"/>
<stop offset="1" stop-color="white" stop-opacity="0"/>
</linearGradient>
<linearGradient id="paint41_linear_5987_1037" x1="625.575" y1="-630.364" x2="625.575" y2="295.431" gradientUnits="userSpaceOnUse">
<stop offset="0.755208" stop-color="white"/>
<stop offset="1" stop-color="white" stop-opacity="0"/>
</linearGradient>
<linearGradient id="paint42_linear_5987_1037" x1="621.228" y1="-632.67" x2="621.228" y2="312.286" gradientUnits="userSpaceOnUse">
<stop offset="0.755208" stop-color="white"/>
<stop offset="1" stop-color="white" stop-opacity="0"/>
</linearGradient>
<linearGradient id="paint43_linear_5987_1037" x1="617.225" y1="-636.262" x2="617.225" y2="330.628" gradientUnits="userSpaceOnUse">
<stop offset="0.755208" stop-color="white"/>
<stop offset="1" stop-color="white" stop-opacity="0"/>
</linearGradient>
<linearGradient id="paint44_linear_5987_1037" x1="613.694" y1="-641.583" x2="613.694" y2="349.94" gradientUnits="userSpaceOnUse">
<stop offset="0.755208" stop-color="white"/>
<stop offset="1" stop-color="white" stop-opacity="0"/>
</linearGradient>
<linearGradient id="paint45_linear_5987_1037" x1="610.728" y1="-649.073" x2="610.728" y2="369.971" gradientUnits="userSpaceOnUse">
<stop offset="0.755208" stop-color="white"/>
<stop offset="1" stop-color="white" stop-opacity="0"/>
</linearGradient>
<linearGradient id="paint46_linear_5987_1037" x1="608.431" y1="-659.246" x2="608.431" y2="390.531" gradientUnits="userSpaceOnUse">
<stop offset="0.755208" stop-color="white"/>
<stop offset="1" stop-color="white" stop-opacity="0"/>
</linearGradient>
<linearGradient id="paint47_linear_5987_1037" x1="606.797" y1="-670.83" x2="606.797" y2="411.471" gradientUnits="userSpaceOnUse">
<stop offset="0.755208" stop-color="white"/>
<stop offset="1" stop-color="white" stop-opacity="0"/>
</linearGradient>
</defs>
</svg>
