<svg width="547" height="429" viewBox="0 0 547 429" fill="none" xmlns="http://www.w3.org/2000/svg">
<path opacity="0.04" d="M909.423 536.622C628.867 -224.085 -214.276 925.508 341.502 1040.54C618.024 1097.65 446.943 1633.36 732.271 1617.39C1017.6 1601.42 992.956 1359.9 1132.72 1120.38C1308.4 822.114 983.73 738.061 909.423 536.622Z" stroke="url(#paint0_linear_5718_2941)" stroke-width="2" stroke-miterlimit="10"/>
<path opacity="0.07" d="M923.725 530.729C629.291 -183.031 -199.514 887.739 329.045 1040.2C589.571 1115.37 478.06 1642.54 753.882 1610.32C1029.46 1578.39 1027.01 1343.69 1142.41 1109.32C1286.36 816.98 1003.92 725.163 923.725 530.729Z" stroke="url(#paint1_linear_5718_2941)" stroke-width="2" stroke-miterlimit="10"/>
<path opacity="0.11" d="M938.004 524.848C631.189 -141.626 -185.355 849.323 316.605 1039.96C560.855 1132.74 509.174 1651.63 775.471 1603.3C1041.47 1555.4 1061.52 1327.85 1152.1 1098.31C1264.87 812.456 1024.27 712.435 938.004 524.848Z" stroke="url(#paint2_linear_5718_2941)" stroke-width="2" stroke-miterlimit="10"/>
<path opacity="0.15" d="M952.378 518.958C634.859 -100.25 -171.58 810.099 304.239 1039.74C531.974 1149.68 540.302 1660.73 797.053 1596.28C1053.44 1532.52 1096.04 1312 1161.78 1087.17C1243.4 808.003 1045.1 699.898 952.378 518.958Z" stroke="url(#paint3_linear_5718_2941)" stroke-width="2" stroke-miterlimit="10"/>
<path opacity="0.19" d="M966.597 513.071C639.891 -58.9907 -158.201 769.9 291.718 1039.5C503.058 1166.11 571.415 1669.81 818.581 1589.27C1065.43 1509.61 1130.59 1296.47 1171.47 1076.09C1221.97 803.713 1066.21 687.464 966.597 513.071Z" stroke="url(#paint4_linear_5718_2941)" stroke-width="2" stroke-miterlimit="10"/>
<path opacity="0.23" d="M980.877 507.182C646.842 -18.0532 -144.719 728.661 279.279 1039.26C474.144 1182.02 602.55 1678.91 840.25 1582.18C1077.39 1486.59 1165.26 1280.98 1181.15 1065.01C1200.7 799.56 1087.68 675.128 980.877 507.182Z" stroke="url(#paint5_linear_5718_2941)" stroke-width="2" stroke-miterlimit="10"/>
<path opacity="0.26" d="M995.173 501.29C655.827 22.4029 -130.842 686.382 266.836 1039.02C445.446 1197.41 633.661 1687.99 861.935 1575.21C1089.37 1463.7 1200 1265.57 1190.84 1053.93C1179.59 795.525 1109.6 662.749 995.173 501.29Z" stroke="url(#paint6_linear_5718_2941)" stroke-width="2" stroke-miterlimit="10"/>
<path opacity="0.3" d="M1009.47 495.398C666.633 62.0802 -116.301 643.104 254.397 1038.78C417.071 1212.43 664.776 1697.09 883.445 1568.18C1101.36 1440.66 1235.03 1250.22 1200.53 1042.83C1158.71 791.529 1132.11 650.27 1009.47 495.398Z" stroke="url(#paint7_linear_5718_2941)" stroke-width="2" stroke-miterlimit="10"/>
<path opacity="0.34" d="M1023.77 489.5C679.235 100.773 -100.844 599.282 241.957 1038.53C389.074 1227.05 695.91 1706.16 904.953 1561.17C1113.32 1417.79 1270.2 1234.84 1210.21 1031.78C1138.1 787.527 1154.97 637.545 1023.77 489.5Z" stroke="url(#paint8_linear_5718_2941)" stroke-width="2" stroke-miterlimit="10"/>
<path opacity="0.38" d="M1038.05 483.635C693.473 138.322 -84.3492 554.913 229.476 1038.29C361.476 1241.55 727.022 1715.18 926.64 1554.15C1125.3 1394.74 1305.55 1219.35 1219.98 1020.67C1117.61 783.378 1178.52 624.375 1038.05 483.635Z" stroke="url(#paint9_linear_5718_2941)" stroke-width="2" stroke-miterlimit="10"/>
<path opacity="0.41" d="M1052.35 477.662C709.085 174.266 -66.8198 510.397 217.05 1038.07C334.313 1256.11 758.131 1724.34 948.223 1547.13C1137.28 1371.8 1341.01 1203.82 1229.58 1009.6C1097.3 779.063 1202.64 610.598 1052.35 477.662Z" stroke="url(#paint10_linear_5718_2941)" stroke-width="2" stroke-miterlimit="10"/>
<path opacity="0.45" d="M1066.65 471.821C725.743 208.505 -48.2652 465.933 204.612 1037.81C307.536 1270.55 789.247 1733.43 969.814 1540.1C1149.26 1348.82 1376.54 1187.98 1239.27 998.613C1077.05 774.618 1227.34 595.934 1066.65 471.821Z" stroke="url(#paint11_linear_5718_2941)" stroke-width="2" stroke-miterlimit="10"/>
<path opacity="0.49" d="M1080.94 465.939C742.936 240.906 -28.8954 421.767 192.17 1037.58C281.075 1285.23 820.359 1742.52 991.42 1533.1C1161.16 1325.87 1412.08 1172.07 1249.03 987.441C1056.82 769.974 1252.52 580.171 1080.94 465.939Z" stroke="url(#paint12_linear_5718_2941)" stroke-width="2" stroke-miterlimit="10"/>
<path opacity="0.53" d="M1095.22 460.053C760.13 271.329 -8.80547 377.857 179.729 1037.34C254.855 1300.02 851.492 1751.62 1013.01 1526.07C1173.21 1302.92 1447.59 1156.03 1258.64 976.366C1036.55 765.086 1278.11 563.028 1095.22 460.053Z" stroke="url(#paint13_linear_5718_2941)" stroke-width="2" stroke-miterlimit="10"/>
<path opacity="0.56" d="M1109.52 454.161C776.645 299.728 11.8027 334.499 167.287 1037.1C228.814 1315.15 882.605 1760.7 1034.59 1519.04C1185.19 1279.94 1483.04 1139.8 1268.24 965.284C1016.28 760.272 1303.85 544.301 1109.52 454.161Z" stroke="url(#paint14_linear_5718_2941)" stroke-width="2" stroke-miterlimit="10"/>
<path opacity="0.6" d="M1123.82 448.258C791.883 326.181 32.7724 291.55 154.848 1036.87C202.935 1330.4 913.699 1769.79 1056.2 1511.92C1197.17 1256.89 1518.46 1123.57 1278.03 954.092C995.814 755.287 1329.47 523.888 1123.82 448.258Z" stroke="url(#paint15_linear_5718_2941)" stroke-width="2" stroke-miterlimit="10"/>
<path d="M127.088 846.918C-980.096 1391.22 996.652 2074.76 973.806 1354.63C962.364 994.065 1804.31 1116.84 1735.85 764.063C1667.4 411.284 1318.48 538.052 926.698 409.009C437.458 247.87 413.195 706.318 127.088 846.918Z" stroke="url(#paint16_linear_5718_2941)" stroke-width="2" stroke-miterlimit="10"/>
<path opacity="0.94" d="M115.246 831.528C-922.263 1381.57 938.999 2067.37 976.343 1369.64C994.915 1022.99 1810.24 1077.06 1720.68 740.209C1631.11 403.359 1287.53 500.566 908.446 400.545C435.841 274.057 389.232 686.316 115.246 831.528Z" stroke="url(#paint17_linear_5718_2941)" stroke-width="2" stroke-miterlimit="10"/>
<path opacity="0.88" d="M103.403 816.075C-864.352 1370.47 880.746 2061.14 978.897 1384.58C1027.1 1052.51 1816.17 1037.28 1705.5 716.334C1595.4 395.512 1256.34 464.415 890.131 392.059C433.902 301.998 365.266 666.054 103.403 816.075Z" stroke="url(#paint18_linear_5718_2941)" stroke-width="2" stroke-miterlimit="10"/>
<path opacity="0.81" d="M91.5627 800.622C-806.438 1357.89 821.518 2056.02 981.456 1399.53C1058.72 1082.36 1822.18 997.49 1690.38 692.457C1559.34 387.623 1225.43 427.564 871.841 383.571C432.307 328.9 341.584 645.49 91.5627 800.622Z" stroke="url(#paint19_linear_5718_2941)" stroke-width="2" stroke-miterlimit="10"/>
<path opacity="0.75" d="M79.7021 785.174C-748.684 1343.36 761.011 2051.71 983.993 1414.48C1089.63 1112.6 1828.04 957.69 1675.15 668.585C1523.38 379.74 1194.63 390.638 853.551 375.169C430.851 355.887 318.061 624.573 79.7021 785.174Z" stroke="url(#paint20_linear_5718_2941)" stroke-width="2" stroke-miterlimit="10"/>
<path opacity="0.69" d="M67.8574 769.743C-691.293 1326.99 698.902 2047.78 986.467 1429.45C1119.76 1143.02 1833.96 917.948 1659.97 644.752C1487.31 371.875 1163.96 353.691 835.216 366.645C429.53 382.613 294.634 603.294 67.8574 769.743Z" stroke="url(#paint21_linear_5718_2941)" stroke-width="2" stroke-miterlimit="10"/>
<path opacity="0.63" d="M56.0126 754.279C-634.422 1308.5 635.316 2043.73 989.08 1444.41C1149.1 1173.31 1839.89 878.153 1644.79 620.865C1451.3 363.876 1133.36 316.55 816.96 358.147C428.329 409.226 271.267 581.443 56.0126 754.279Z" stroke="url(#paint22_linear_5718_2941)" stroke-width="2" stroke-miterlimit="10"/>
<path opacity="0.56" d="M44.175 738.836C-578.382 1287.74 570.219 2039.09 991.621 1459.4C1177.74 1203.35 1845.83 838.418 1629.61 597.118C1415.28 356.098 1102.83 279.271 798.613 349.67C427.175 435.739 247.887 559.214 44.175 738.836Z" stroke="url(#paint23_linear_5718_2941)" stroke-width="2" stroke-miterlimit="10"/>
<path opacity="0.5" d="M32.3313 723.394C-523.387 1264.82 503.857 2033.49 994.175 1474.3C1205.85 1232.88 1851.78 798.565 1614.44 573.113C1379.27 348.181 1072.32 241.772 780.399 341.155C426.075 461.834 224.341 536.346 32.3313 723.394Z" stroke="url(#paint24_linear_5718_2941)" stroke-width="2" stroke-miterlimit="10"/>
<path opacity="0.44" d="M20.4892 707.958C-469.948 1239.6 436.619 2026.57 996.711 1489.28C1233.59 1262 1857.69 758.736 1599.26 549.273C1343.25 340.329 1041.74 204.2 762.106 332.704C424.897 487.795 200.477 512.846 20.4892 707.958Z" stroke="url(#paint25_linear_5718_2941)" stroke-width="2" stroke-miterlimit="10"/>
<path opacity="0.38" d="M8.646 692.507C-418.248 1212.19 368.821 2018.59 999.266 1504.23C1261.17 1290.66 1863.64 719.034 1584.1 525.42C1307.24 332.444 1011.07 166.274 743.813 324.22C423.578 513.583 176.073 488.653 8.646 692.507Z" stroke="url(#paint26_linear_5718_2941)" stroke-width="2" stroke-miterlimit="10"/>
<path opacity="0.31" d="M-3.21457 677.047C-368.661 1183 300.805 2009.2 1001.78 1519.17C1288.67 1318.63 1869.57 679.243 1568.91 501.596C1271.22 324.548 980.336 128.339 725.542 315.746C422.082 539.081 150.872 463.671 -3.21457 677.047Z" stroke="url(#paint27_linear_5718_2941)" stroke-width="2" stroke-miterlimit="10"/>
<path opacity="0.25" d="M-15.0566 661.609C-321.573 1152.31 232.848 1998.73 1004.3 1534.13C1316.27 1346.31 1875.5 639.453 1553.73 477.655C1235.19 316.655 949.224 90.2054 707.23 307.254C420.384 564.582 124.512 438.173 -15.0566 661.609Z" stroke="url(#paint28_linear_5718_2941)" stroke-width="2" stroke-miterlimit="10"/>
<path opacity="0.19" d="M-26.9018 646.156C-277.243 1120.91 165.108 1987.31 1006.89 1549.08C1343.98 1373.61 1881.43 599.668 1538.55 453.799C1199.18 308.767 918.028 52.1177 688.955 298.787C418.444 590.048 96.5713 411.982 -26.9018 646.156Z" stroke="url(#paint29_linear_5718_2941)" stroke-width="2" stroke-miterlimit="10"/>
<path opacity="0.13" d="M-38.7444 630.703C-235.826 1089.51 97.6692 1975.13 1009.43 1564.05C1371.88 1400.61 1887.36 559.883 1523.37 429.942C1163.16 300.899 886.675 14.0693 670.662 290.22C416.347 615.553 66.656 385.391 -38.7444 630.703Z" stroke="url(#paint30_linear_5718_2941)" stroke-width="2" stroke-miterlimit="10"/>
<path opacity="0.06" d="M-50.5831 615.272C-197.521 1059.23 30.6539 1962.39 1011.99 1579.02C1399.98 1427.44 1893.29 520.121 1508.22 406.088C1127.17 293.013 855.206 -23.9362 652.393 281.856C414.073 641.141 34.3083 358.763 -50.5831 615.272Z" stroke="url(#paint31_linear_5718_2941)" stroke-width="2" stroke-miterlimit="10"/>
<path opacity="0.03" d="M396.74 1456.58C539.125 2655.09 2074.86 1230.15 1343.93 892.818C980.476 725.012 1389.52 -6.49325 990.122 -69.8073C590.726 -133.121 546.993 227.182 276.542 534.87C-62.4046 917.628 359.077 1139.55 396.74 1456.58Z" stroke="url(#paint32_linear_5718_2941)" stroke-width="2" stroke-miterlimit="10"/>
<path opacity="0.05" d="M375.09 1460.85C551.882 2595.43 2042.51 1280.99 1361.04 896.812C1025.55 707.689 1349.45 -29.3452 958.008 -66.2718C566.92 -103.578 494.709 240.438 259.585 548.066C-33.5114 931.663 327.043 1152.48 375.09 1460.85Z" stroke="url(#paint33_linear_5718_2941)" stroke-width="2" stroke-miterlimit="10"/>
<path opacity="0.07" d="M353.447 1465.12C562.79 2534.98 2010.78 1333.07 1378.16 901.006C1070.9 691.224 1309.4 -52.1175 925.92 -62.5168C543 -73.5747 441.893 253.175 242.634 561.482C-5.29028 944.899 294.736 1165.06 353.447 1465.12Z" stroke="url(#paint34_linear_5718_2941)" stroke-width="2" stroke-miterlimit="10"/>
<path opacity="0.1" d="M331.8 1469.38C571.597 2474 1979.51 1386.54 1395.27 905.141C1116.37 675.338 1269.34 -74.9097 893.809 -58.8217C519.036 -43.6319 389.113 265.673 225.681 574.658C22.9275 957.956 262.085 1177.32 331.8 1469.38Z" stroke="url(#paint35_linear_5718_2941)" stroke-width="2" stroke-miterlimit="10"/>
<path opacity="0.13" d="M310.154 1473.66C578.028 2412.6 1948.15 1441.57 1412.49 909.307C1161.84 660.302 1229.38 -97.6304 861.819 -55.095C495.074 -13.7173 336.314 278.042 208.727 587.906C51.1061 970.764 229.017 1189.27 310.154 1473.66Z" stroke="url(#paint36_linear_5718_2941)" stroke-width="2" stroke-miterlimit="10"/>
<path opacity="0.15" d="M288.509 1477.91C581.905 2350.95 1916.3 1498.07 1429.5 913.429C1206.8 645.961 1189.23 -120.414 829.61 -51.4314C471.113 16.234 283.397 290.149 191.775 601.17C79.146 983.37 195.53 1201 288.509 1477.91Z" stroke="url(#paint37_linear_5718_2941)" stroke-width="2" stroke-miterlimit="10"/>
<path opacity="0.18" d="M266.856 1482.18C582.937 2289.37 1883.45 1555.91 1446.61 917.559C1251.39 632.286 1149.06 -143.191 797.592 -47.7407C447.243 46.0726 230.451 302.123 174.895 614.422C106.978 995.763 161.276 1212.57 266.856 1482.18Z" stroke="url(#paint38_linear_5718_2941)" stroke-width="2" stroke-miterlimit="10"/>
<path opacity="0.2" d="M245.213 1486.42C581.224 2228.17 1849.28 1614.77 1463.73 921.707C1295.38 619.089 1109.08 -165.95 765.405 -44.0323C423.183 76.0888 177.056 313.976 157.845 627.672C134.56 1008.02 126.372 1224.17 245.213 1486.42Z" stroke="url(#paint39_linear_5718_2941)" stroke-width="2" stroke-miterlimit="10"/>
<path opacity="0.23" d="M223.483 1490.7C576.469 2167.63 1813.5 1674.33 1480.76 925.82C1338.62 606.096 1068.94 -188.723 733.232 -40.3776C399.217 106.011 123.515 325.834 140.888 640.927C161.817 1020.25 90.6445 1235.8 223.483 1490.7Z" stroke="url(#paint40_linear_5718_2941)" stroke-width="2" stroke-miterlimit="10"/>
<path opacity="0.25" d="M201.918 1494.97C569.082 2108.27 1776.25 1733.93 1497.96 929.972C1381.39 593.202 1028.97 -211.477 701.162 -36.6644C375.256 135.952 69.7181 337.731 123.936 654.181C188.758 1032.55 53.9819 1247.86 201.918 1494.97Z" stroke="url(#paint41_linear_5718_2941)" stroke-width="2" stroke-miterlimit="10"/>
<path opacity="0.28" d="M180.271 1499.21C558.978 2050.51 1737.43 1793.44 1515.07 934.093C1423.49 580.177 988.907 -234.263 669.111 -32.9831C351.292 165.881 15.8001 349.756 106.982 667.424C215.498 1044.99 16.2794 1260.56 180.271 1499.21Z" stroke="url(#paint42_linear_5718_2941)" stroke-width="2" stroke-miterlimit="10"/>
<path opacity="0.3" d="M158.624 1503.49C546.996 1994.64 1697.25 1852.52 1532.18 938.259C1465.13 566.998 948.848 -257.003 637 -29.2564C327.469 195.836 -38.4576 361.965 90.008 680.711C241.998 1057.7 -22.5615 1274.27 158.624 1503.49Z" stroke="url(#paint43_linear_5718_2941)" stroke-width="2" stroke-miterlimit="10"/>
<path opacity="0.33" d="M136.973 1507.74C533.193 1941.46 1656.15 1910.94 1549.31 942.386C1506.4 553.5 908.785 -279.782 604.905 -25.5879C303.361 225.752 -92.6793 374.416 73.0698 693.941C268.434 1070.61 -62.5249 1289.38 136.973 1507.74Z" stroke="url(#paint44_linear_5718_2941)" stroke-width="2" stroke-miterlimit="10"/>
<path opacity="0.35" d="M115.327 1512.01C518.696 1891.08 1614.22 1968.68 1566.43 946.518C1547.48 539.528 868.726 -302.557 572.814 -21.8953C279.398 255.673 -146.936 387.011 56.1165 707.194C294.875 1083.75 -103.542 1306.34 115.327 1512.01Z" stroke="url(#paint45_linear_5718_2941)" stroke-width="2" stroke-miterlimit="10"/>
<path opacity="0.38" d="M93.6805 1516.27C504.359 1843.91 1571.72 2025.63 1583.54 950.711C1588.22 525.437 828.688 -325.27 540.724 -18.1413C255.436 285.614 -201.153 399.807 39.143 720.47C321.336 1097.06 -145.398 1325.55 93.6805 1516.27Z" stroke="url(#paint46_linear_5718_2941)" stroke-width="2" stroke-miterlimit="10"/>
<path opacity="0.4" d="M72.0337 1520.55C491.259 1800.14 1528.89 2081.92 1600.66 954.719C1628.92 510.902 788.629 -348.069 508.613 -14.4928C231.592 315.551 -255.331 412.658 22.2092 733.719C347.916 1110.55 -187.693 1347.34 72.0337 1520.55Z" stroke="url(#paint47_linear_5718_2941)" stroke-width="2" stroke-miterlimit="10"/>
<defs>
<linearGradient id="paint0_linear_5718_2941" x1="1184.16" y1="947.966" x2="155.954" y2="947.966" gradientUnits="userSpaceOnUse">
<stop offset="0.755208" stop-color="white"/>
<stop offset="1" stop-color="white" stop-opacity="0"/>
</linearGradient>
<linearGradient id="paint1_linear_5718_2941" x1="1182.65" y1="949.727" x2="156.721" y2="949.727" gradientUnits="userSpaceOnUse">
<stop offset="0.755208" stop-color="white"/>
<stop offset="1" stop-color="white" stop-opacity="0"/>
</linearGradient>
<linearGradient id="paint2_linear_5718_2941" x1="1181.62" y1="951.888" x2="157.204" y2="951.888" gradientUnits="userSpaceOnUse">
<stop offset="0.755208" stop-color="white"/>
<stop offset="1" stop-color="white" stop-opacity="0"/>
</linearGradient>
<linearGradient id="paint3_linear_5718_2941" x1="1181.05" y1="954.32" x2="157.517" y2="954.32" gradientUnits="userSpaceOnUse">
<stop offset="0.755208" stop-color="white"/>
<stop offset="1" stop-color="white" stop-opacity="0"/>
</linearGradient>
<linearGradient id="paint4_linear_5718_2941" x1="1181.29" y1="956.994" x2="157.456" y2="956.994" gradientUnits="userSpaceOnUse">
<stop offset="0.755208" stop-color="white"/>
<stop offset="1" stop-color="white" stop-opacity="0"/>
</linearGradient>
<linearGradient id="paint5_linear_5718_2941" x1="1183.37" y1="959.809" x2="157.344" y2="959.809" gradientUnits="userSpaceOnUse">
<stop offset="0.755208" stop-color="white"/>
<stop offset="1" stop-color="white" stop-opacity="0"/>
</linearGradient>
<linearGradient id="paint6_linear_5718_2941" x1="1191.36" y1="962.786" x2="157.196" y2="962.786" gradientUnits="userSpaceOnUse">
<stop offset="0.755208" stop-color="white"/>
<stop offset="1" stop-color="white" stop-opacity="0"/>
</linearGradient>
<linearGradient id="paint7_linear_5718_2941" x1="1205.93" y1="965.785" x2="157.016" y2="965.786" gradientUnits="userSpaceOnUse">
<stop offset="0.755208" stop-color="white"/>
<stop offset="1" stop-color="white" stop-opacity="0"/>
</linearGradient>
<linearGradient id="paint8_linear_5718_2941" x1="1223.13" y1="968.794" x2="156.793" y2="968.794" gradientUnits="userSpaceOnUse">
<stop offset="0.755208" stop-color="white"/>
<stop offset="1" stop-color="white" stop-opacity="0"/>
</linearGradient>
<linearGradient id="paint9_linear_5718_2941" x1="1241.8" y1="971.758" x2="156.421" y2="971.758" gradientUnits="userSpaceOnUse">
<stop offset="0.755208" stop-color="white"/>
<stop offset="1" stop-color="white" stop-opacity="0"/>
</linearGradient>
<linearGradient id="paint10_linear_5718_2941" x1="1261.26" y1="974.594" x2="155.807" y2="974.594" gradientUnits="userSpaceOnUse">
<stop offset="0.755208" stop-color="white"/>
<stop offset="1" stop-color="white" stop-opacity="0"/>
</linearGradient>
<linearGradient id="paint11_linear_5718_2941" x1="1281.35" y1="977.266" x2="154.745" y2="977.266" gradientUnits="userSpaceOnUse">
<stop offset="0.755208" stop-color="white"/>
<stop offset="1" stop-color="white" stop-opacity="0"/>
</linearGradient>
<linearGradient id="paint12_linear_5718_2941" x1="1301.87" y1="979.738" x2="153.004" y2="979.738" gradientUnits="userSpaceOnUse">
<stop offset="0.755208" stop-color="white"/>
<stop offset="1" stop-color="white" stop-opacity="0"/>
</linearGradient>
<linearGradient id="paint13_linear_5718_2941" x1="1322.6" y1="981.923" x2="150.391" y2="981.923" gradientUnits="userSpaceOnUse">
<stop offset="0.755208" stop-color="white"/>
<stop offset="1" stop-color="white" stop-opacity="0"/>
</linearGradient>
<linearGradient id="paint14_linear_5718_2941" x1="1343.53" y1="983.79" x2="146.684" y2="983.79" gradientUnits="userSpaceOnUse">
<stop offset="0.755208" stop-color="white"/>
<stop offset="1" stop-color="white" stop-opacity="0"/>
</linearGradient>
<linearGradient id="paint15_linear_5718_2941" x1="1364.7" y1="985.255" x2="141.692" y2="985.255" gradientUnits="userSpaceOnUse">
<stop offset="0.755208" stop-color="white"/>
<stop offset="1" stop-color="white" stop-opacity="0"/>
</linearGradient>
<linearGradient id="paint16_linear_5718_2941" x1="1739.81" y1="1020.39" x2="-210.001" y2="1020.39" gradientUnits="userSpaceOnUse">
<stop offset="0.755208" stop-color="white"/>
<stop offset="1" stop-color="white" stop-opacity="0"/>
</linearGradient>
<linearGradient id="paint17_linear_5718_2941" x1="1727.55" y1="1020.92" x2="-198.931" y2="1020.92" gradientUnits="userSpaceOnUse">
<stop offset="0.755208" stop-color="white"/>
<stop offset="1" stop-color="white" stop-opacity="0"/>
</linearGradient>
<linearGradient id="paint18_linear_5718_2941" x1="1716.12" y1="1021.46" x2="-187.927" y2="1021.46" gradientUnits="userSpaceOnUse">
<stop offset="0.755208" stop-color="white"/>
<stop offset="1" stop-color="white" stop-opacity="0"/>
</linearGradient>
<linearGradient id="paint19_linear_5718_2941" x1="1705.64" y1="1021.35" x2="-177.06" y2="1021.35" gradientUnits="userSpaceOnUse">
<stop offset="0.755208" stop-color="white"/>
<stop offset="1" stop-color="white" stop-opacity="0"/>
</linearGradient>
<linearGradient id="paint20_linear_5718_2941" x1="1695.9" y1="1020.15" x2="-166.441" y2="1020.15" gradientUnits="userSpaceOnUse">
<stop offset="0.755208" stop-color="white"/>
<stop offset="1" stop-color="white" stop-opacity="0"/>
</linearGradient>
<linearGradient id="paint21_linear_5718_2941" x1="1687.11" y1="1015.34" x2="-156.166" y2="1015.34" gradientUnits="userSpaceOnUse">
<stop offset="0.755208" stop-color="white"/>
<stop offset="1" stop-color="white" stop-opacity="0"/>
</linearGradient>
<linearGradient id="paint22_linear_5718_2941" x1="1679.21" y1="1006.37" x2="-146.286" y2="1006.37" gradientUnits="userSpaceOnUse">
<stop offset="0.755208" stop-color="white"/>
<stop offset="1" stop-color="white" stop-opacity="0"/>
</linearGradient>
<linearGradient id="paint23_linear_5718_2941" x1="1672.2" y1="996.645" x2="-136.924" y2="996.645" gradientUnits="userSpaceOnUse">
<stop offset="0.755208" stop-color="white"/>
<stop offset="1" stop-color="white" stop-opacity="0"/>
</linearGradient>
<linearGradient id="paint24_linear_5718_2941" x1="1666.07" y1="986.443" x2="-128.138" y2="986.443" gradientUnits="userSpaceOnUse">
<stop offset="0.755208" stop-color="white"/>
<stop offset="1" stop-color="white" stop-opacity="0"/>
</linearGradient>
<linearGradient id="paint25_linear_5718_2941" x1="1660.81" y1="975.947" x2="-120.082" y2="975.947" gradientUnits="userSpaceOnUse">
<stop offset="0.755208" stop-color="white"/>
<stop offset="1" stop-color="white" stop-opacity="0"/>
</linearGradient>
<linearGradient id="paint26_linear_5718_2941" x1="1656.45" y1="965.198" x2="-112.791" y2="965.198" gradientUnits="userSpaceOnUse">
<stop offset="0.755208" stop-color="white"/>
<stop offset="1" stop-color="white" stop-opacity="0"/>
</linearGradient>
<linearGradient id="paint27_linear_5718_2941" x1="1652.95" y1="954.318" x2="-106.383" y2="954.318" gradientUnits="userSpaceOnUse">
<stop offset="0.755208" stop-color="white"/>
<stop offset="1" stop-color="white" stop-opacity="0"/>
</linearGradient>
<linearGradient id="paint28_linear_5718_2941" x1="1650.34" y1="943.412" x2="-100.955" y2="943.413" gradientUnits="userSpaceOnUse">
<stop offset="0.755208" stop-color="white"/>
<stop offset="1" stop-color="white" stop-opacity="0"/>
</linearGradient>
<linearGradient id="paint29_linear_5718_2941" x1="1648.61" y1="932.651" x2="-96.5952" y2="932.651" gradientUnits="userSpaceOnUse">
<stop offset="0.755208" stop-color="white"/>
<stop offset="1" stop-color="white" stop-opacity="0"/>
</linearGradient>
<linearGradient id="paint30_linear_5718_2941" x1="1647.75" y1="922.124" x2="-93.3468" y2="922.124" gradientUnits="userSpaceOnUse">
<stop offset="0.755208" stop-color="white"/>
<stop offset="1" stop-color="white" stop-opacity="0"/>
</linearGradient>
<linearGradient id="paint31_linear_5718_2941" x1="1647.76" y1="911.98" x2="-91.2639" y2="911.98" gradientUnits="userSpaceOnUse">
<stop offset="0.755208" stop-color="white"/>
<stop offset="1" stop-color="white" stop-opacity="0"/>
</linearGradient>
<linearGradient id="paint32_linear_5718_2941" x1="1540.18" y1="925.418" x2="145.548" y2="925.418" gradientUnits="userSpaceOnUse">
<stop offset="0.755208" stop-color="white"/>
<stop offset="1" stop-color="white" stop-opacity="0"/>
</linearGradient>
<linearGradient id="paint33_linear_5718_2941" x1="1538.31" y1="921.703" x2="145.898" y2="921.703" gradientUnits="userSpaceOnUse">
<stop offset="0.755208" stop-color="white"/>
<stop offset="1" stop-color="white" stop-opacity="0"/>
</linearGradient>
<linearGradient id="paint34_linear_5718_2941" x1="1536.93" y1="917.078" x2="145.91" y2="917.079" gradientUnits="userSpaceOnUse">
<stop offset="0.755208" stop-color="white"/>
<stop offset="1" stop-color="white" stop-opacity="0"/>
</linearGradient>
<linearGradient id="paint35_linear_5718_2941" x1="1536.04" y1="911.243" x2="145.856" y2="911.243" gradientUnits="userSpaceOnUse">
<stop offset="0.755208" stop-color="white"/>
<stop offset="1" stop-color="white" stop-opacity="0"/>
</linearGradient>
<linearGradient id="paint36_linear_5718_2941" x1="1535.57" y1="904.813" x2="145.707" y2="904.813" gradientUnits="userSpaceOnUse">
<stop offset="0.755208" stop-color="white"/>
<stop offset="1" stop-color="white" stop-opacity="0"/>
</linearGradient>
<linearGradient id="paint37_linear_5718_2941" x1="1535.3" y1="897.938" x2="145.407" y2="897.939" gradientUnits="userSpaceOnUse">
<stop offset="0.755208" stop-color="white"/>
<stop offset="1" stop-color="white" stop-opacity="0"/>
</linearGradient>
<linearGradient id="paint38_linear_5718_2941" x1="1535.4" y1="890.831" x2="144.846" y2="890.831" gradientUnits="userSpaceOnUse">
<stop offset="0.755208" stop-color="white"/>
<stop offset="1" stop-color="white" stop-opacity="0"/>
</linearGradient>
<linearGradient id="paint39_linear_5718_2941" x1="1535.94" y1="883.616" x2="143.729" y2="883.616" gradientUnits="userSpaceOnUse">
<stop offset="0.755208" stop-color="white"/>
<stop offset="1" stop-color="white" stop-opacity="0"/>
</linearGradient>
<linearGradient id="paint40_linear_5718_2941" x1="1537.02" y1="876.404" x2="140.105" y2="876.404" gradientUnits="userSpaceOnUse">
<stop offset="0.755208" stop-color="white"/>
<stop offset="1" stop-color="white" stop-opacity="0"/>
</linearGradient>
<linearGradient id="paint41_linear_5718_2941" x1="1539.22" y1="869.39" x2="117.654" y2="869.39" gradientUnits="userSpaceOnUse">
<stop offset="0.755208" stop-color="white"/>
<stop offset="1" stop-color="white" stop-opacity="0"/>
</linearGradient>
<linearGradient id="paint42_linear_5718_2941" x1="1542.76" y1="862.719" x2="91.7744" y2="862.719" gradientUnits="userSpaceOnUse">
<stop offset="0.755208" stop-color="white"/>
<stop offset="1" stop-color="white" stop-opacity="0"/>
</linearGradient>
<linearGradient id="paint43_linear_5718_2941" x1="1548.28" y1="856.572" x2="63.6101" y2="856.572" gradientUnits="userSpaceOnUse">
<stop offset="0.755208" stop-color="white"/>
<stop offset="1" stop-color="white" stop-opacity="0"/>
</linearGradient>
<linearGradient id="paint44_linear_5718_2941" x1="1556.45" y1="851.147" x2="33.9548" y2="851.147" gradientUnits="userSpaceOnUse">
<stop offset="0.755208" stop-color="white"/>
<stop offset="1" stop-color="white" stop-opacity="0"/>
</linearGradient>
<linearGradient id="paint45_linear_5718_2941" x1="1567.95" y1="846.593" x2="3.19674" y2="846.593" gradientUnits="userSpaceOnUse">
<stop offset="0.755208" stop-color="white"/>
<stop offset="1" stop-color="white" stop-opacity="0"/>
</linearGradient>
<linearGradient id="paint46_linear_5718_2941" x1="1583.57" y1="843.066" x2="-28.3739" y2="843.066" gradientUnits="userSpaceOnUse">
<stop offset="0.755208" stop-color="white"/>
<stop offset="1" stop-color="white" stop-opacity="0"/>
</linearGradient>
<linearGradient id="paint47_linear_5718_2941" x1="1601.36" y1="840.554" x2="-60.5265" y2="840.554" gradientUnits="userSpaceOnUse">
<stop offset="0.755208" stop-color="white"/>
<stop offset="1" stop-color="white" stop-opacity="0"/>
</linearGradient>
</defs>
</svg>
